<?xml version="1.0" encoding="UTF-8"?>
<svg width="16px" height="20px" viewBox="0 0 16 20" version="1.1" xmlns="http://www.w3.org/2000/svg" xmlns:xlink="http://www.w3.org/1999/xlink">
    <!-- Generator: Sketch 57.1 (83088) - https://sketch.com -->
    <title>Shape</title>
    <desc>Created with Sketch.</desc>
    <g id="Symbols" stroke="none" stroke-width="1" fill="none" fill-rule="evenodd">
        <g id="icono-real-fondo-click" transform="translate(-2.000000, 0.000000)" fill="#000000" fill-rule="nonzero">
            <g id="Group-3-Copy-4" transform="translate(2.000000, 0.000000)">
                <g id="Group-3-Copy-3">
                    <g id="cursor-default-click-outline-copy">
                        <path d="M7.91666667,9.16666667 L13.2333333,13.6416667 L12.5,13.7916667 L11.9666667,13.8916667 C11.4416667,14 11.1416667,14.5833333 11.375,15.0583333 L11.6,15.5416667 L12.7333333,17.9916667 L11.55,18.5416667 L10.4166667,16.1 L10.2,15.6166667 C9.975,15.125 9.35,14.975 8.93333333,15.3166667 L8.50833333,15.65 L7.91666667,16.125 L7.91666667,9.16666667 M6.66666667,7.875 L6.66666667,17.4166667 C6.66666667,17.7666667 6.95,18.05 7.3,18.05 C7.45833333,18.05 7.59166667,18 7.7,17.9166667 L9.29166667,16.625 L10.675,19.6416667 C10.7833333,19.8666667 11.0083333,20 11.25,20 C11.3416667,20 11.4333333,20 11.525,19.9333333 L13.825,18.8666667 C14.1416667,18.7166667 14.2916667,18.3333333 14.125,18.025 L12.7333333,15 L14.7416667,14.625 C14.875,14.5833333 15,14.525 15.1,14.4083333 C15.325,14.1416667 15.2916667,13.75 15,13.5083333 L7.71666667,7.38333333 L7.70833333,7.39166667 C7.6,7.3 7.45833333,7.24166667 7.3,7.24166667 C6.95021966,7.24166667 6.66666667,7.52521966 6.66666667,7.875 Z M10.8333333,6.66666667 L14.1666667,6.66666667 C14.626904,6.66666667 15,7.03976271 15,7.5 C15,7.96023729 14.626904,8.33333333 14.1666667,8.33333333 L10.8333333,8.33333333 L10.8333333,8.33333333 L10.8333333,6.66666667 Z M12.8041667,2.19583333 C13.128634,2.52030062 13.128634,3.04636604 12.8041667,3.37083333 L11.0333333,5.14166667 L11.0333333,5.14166667 L9.85833333,3.96666667 L11.6291667,2.19583333 C11.953634,1.87136604 12.4796994,1.87136604 12.8041667,2.19583333 Z M8.33333333,0.833333333 L8.33333333,4.16666667 L8.33333333,4.16666667 L6.66666667,4.16666667 L6.66666667,0.833333333 C6.66666667,0.373096042 7.03976271,8.45442189e-17 7.5,0 C7.96023729,-8.45442189e-17 8.33333333,0.373096042 8.33333333,0.833333333 Z M3.96666667,9.85833333 L5.14166667,11.0333333 L3.37083333,12.8041667 C3.04636604,13.128634 2.52030062,13.128634 2.19583333,12.8041667 C1.87136604,12.4796994 1.87136604,11.953634 2.19583333,11.6291667 L3.96666667,9.85833333 L3.96666667,9.85833333 Z M3.37083333,2.19583333 L5.14166667,3.96666667 L5.14166667,3.96666667 L3.96666667,5.14166667 L2.19583333,3.37083333 C1.87136604,3.04636604 1.87136604,2.52030062 2.19583333,2.19583333 C2.52030062,1.87136604 3.04636604,1.87136604 3.37083333,2.19583333 Z M0,7.5 C-5.63628126e-17,7.03976271 0.373096042,6.66666667 0.833333333,6.66666667 L4.16666667,6.66666667 L4.16666667,6.66666667 L4.16666667,8.33333333 L0.833333333,8.33333333 C0.373096042,8.33333333 5.63628126e-17,7.96023729 0,7.5 Z" id="Shape"></path>
                    </g>
                </g>
            </g>
        </g>
    </g>
</svg>