<?xml version="1.0" encoding="UTF-8"?>
<svg width="20px" height="15px" viewBox="0 0 20 15" version="1.1" xmlns="http://www.w3.org/2000/svg" xmlns:xlink="http://www.w3.org/1999/xlink">
    <!-- Generator: Sketch 57.1 (83088) - https://sketch.com -->
    <title></title>
    <desc>Created with Sketch.</desc>
    <g id="Symbols" stroke="none" stroke-width="1" fill="none" fill-rule="evenodd">
        <g id="Icon-down-linea-gruesa-black" fill="#191919" fill-rule="nonzero">
            <path d="M19.159292,6.90615836 C19.7197668,7.75660249 20,8.69500953 20,9.72140762 C20,10.4398863 19.867258,11.1143663 19.6017699,11.744868 C19.3362819,12.3753697 18.9380558,12.9472115 18.4070796,13.4604106 C17.8908529,13.9736096 17.3082628,14.3621688 16.659292,14.6260997 C16.0103212,14.8753678 15.3171128,15 14.579646,15 L4.84513274,15 C4.18141261,15 3.56194978,14.8863648 2.98672566,14.6590909 C2.41150155,14.431817 1.88790796,14.0909114 1.4159292,13.6363636 C0.943950442,13.1818159 0.589971681,12.6686246 0.353982301,12.0967742 C0.11799292,11.5249238 0,10.9164255 0,10.271261 C0,9.15688592 0.353978761,8.16715975 1.0619469,7.30205279 C1.43068031,6.86216789 1.84365553,6.50293394 2.30088496,6.22434018 C2.28613562,6.10703754 2.27876106,5.97507405 2.27876106,5.82844575 C2.27876106,5.32990953 2.37463031,4.86070601 2.56637168,4.42082111 C2.74336372,3.99559905 3.01622235,3.60703988 3.38495575,3.25513196 C3.73893982,2.91788688 4.13716593,2.6612912 4.57964602,2.48533724 C5.02212611,2.30938328 5.49409779,2.22140762 5.99557522,2.22140762 C6.30531128,2.22140762 6.6150427,2.25806415 6.92477876,2.3313783 C7.32301084,1.81817925 7.80235708,1.37096965 8.36283186,0.98973607 C9.36578673,0.329908724 10.4867195,0 11.7256637,0 C12.5368772,0 13.2964566,0.139294795 14.0044248,0.417888563 C14.7271423,0.711145161 15.3761033,1.13636085 15.9513274,1.69354839 C16.5265515,2.25073592 16.9616504,2.88122815 17.2566372,3.58504399 C17.5073759,4.15689435 17.654867,4.75806136 17.699115,5.38856305 C18.2743392,5.78445946 18.7536854,6.26832559 19.1371681,6.84017595 L19.159292,6.88416422 L19.159292,6.90615836 Z M1.81415929,11.4809384 L1.83628319,11.5249267 C1.98377655,11.8768346 2.21238783,12.2067433 2.52212389,12.5146628 C2.86135863,12.8225806 3.21533739,13.0498526 3.5840708,13.1964809 C3.96755354,13.3577721 4.38790332,13.4384164 4.84513274,13.4384164 L14.579646,13.4384164 C15.1106221,13.4384164 15.6047175,13.3431095 16.0619469,13.1524927 C16.504427,12.9765387 16.9137149,12.7089461 17.289823,12.3497067 C17.6659311,11.9904674 17.9498515,11.5909113 18.1415929,11.1510264 C18.3333343,10.7111415 18.4292035,10.2346067 18.4292035,9.72140762 C18.4292035,9.35483688 18.3775816,9.00659989 18.2743363,8.67668622 C18.1710909,8.34677254 18.0162252,8.02786078 17.8097345,7.71994135 L17.7654867,7.65395894 C17.4852493,7.25806254 17.1460197,6.92815381 16.7477876,6.66422287 L16.1504425,6.26832845 L16.1283186,5.58651026 C16.0988199,5.08797405 15.9882015,4.62610183 15.7964602,4.20087977 C15.5899695,3.70234355 15.2728635,3.24047133 14.8451327,2.81524927 C14.417402,2.40469003 13.9380558,2.09677522 13.4070796,1.8914956 C12.8908529,1.67155315 12.3230119,1.56158358 11.7035398,1.56158358 C10.8038303,1.56158358 9.98525442,1.80351664 9.24778761,2.28739003 C8.80530752,2.59530946 8.42920509,2.9472121 8.11946903,3.3431085 L7.54424779,4.13489736 L6.59292035,3.87096774 C6.40117898,3.81231642 6.19469137,3.7829912 5.97345133,3.7829912 C5.69321394,3.7829912 5.42772987,3.83431034 5.17699115,3.93695015 C4.92625243,4.03958996 4.69764115,4.18621606 4.49115044,4.37683284 C4.28465973,4.56744963 4.12979403,4.78005748 4.02654867,5.01466276 L4.02654867,5.03665689 C3.92330332,5.285925 3.87168142,5.54985198 3.87168142,5.82844575 C3.87168142,5.94574839 3.87905597,6.04105535 3.89380531,6.1143695 L4.02654867,7.0601173 L3.18584071,7.54398827 C2.84660597,7.73460506 2.55162367,7.99120073 2.30088496,8.31378299 L2.27876106,8.31378299 C2.04277168,8.60703959 1.8657823,8.9149544 1.74778761,9.23753666 C1.62979292,9.56011891 1.57079646,9.90469025 1.57079646,10.271261 C1.57079646,10.7111459 1.65191659,11.1143677 1.81415929,11.4809384 Z M8.42920354,8.3797654 C8.59144624,8.21847427 8.77949746,8.13782991 8.99336283,8.13782991 C9.20722821,8.13782991 9.39527942,8.21847427 9.55752212,8.3797654 L11.0619469,9.87536657 L11.0619469,4.46480938 C11.0619469,4.24486694 11.1393798,4.05791866 11.2942478,3.90395894 C11.4491158,3.74999923 11.637167,3.67302053 11.8584071,3.67302053 C12.0796471,3.67302053 12.2676983,3.74999923 12.4225664,3.90395894 C12.5774344,4.05791866 12.6548673,4.24486694 12.6548673,4.46480938 L12.6548673,9.87536657 L14.1814159,8.3797654 C14.3289093,8.21847427 14.5132732,8.13782991 14.7345133,8.13782991 C14.9557533,8.13782991 15.1438045,8.21480861 15.2986726,8.36876833 C15.4535406,8.52272804 15.5309735,8.70967632 15.5309735,8.92961877 C15.5309735,9.14956122 15.4498533,9.33284384 15.2876106,9.47947214 L12.4336283,12.3387097 C12.2713856,12.485338 12.0796471,12.558651 11.8584071,12.558651 C11.637167,12.558651 11.4528031,12.485338 11.3053097,12.3387097 L8.42920354,9.47947214 C8.28171018,9.33284384 8.2079646,9.14956122 8.2079646,8.92961877 C8.2079646,8.70967632 8.28171018,8.5263937 8.42920354,8.3797654 Z" id=""></path>
        </g>
    </g>
</svg>