<?xml version="1.0" encoding="UTF-8"?>
<svg width="20px" height="15px" viewBox="0 0 20 15" version="1.1" xmlns="http://www.w3.org/2000/svg" xmlns:xlink="http://www.w3.org/1999/xlink">
    <!-- Generator: Sketch 57.1 (83088) - https://sketch.com -->
    <title></title>
    <desc>Created with Sketch.</desc>
    <g id="Symbols" stroke="none" stroke-width="1" fill="none" fill-rule="evenodd">
        <g id="icon-eye-linea-gruesa-black" fill="#191919" fill-rule="nonzero">
            <path d="M20,7.5 C20,7.71021126 19.8521818,8.17567207 19.556541,8.8963964 C19.1574259,9.87237725 18.6991896,10.6906874 18.1818182,11.3513514 C17.3244599,12.4174227 16.2971235,13.2582552 15.0997783,13.8738739 C13.6215743,14.6246284 11.9216652,15 10,15 C8.07833481,15 6.37842572,14.6246284 4.90022173,13.8738739 C3.68809446,13.2582552 2.66075809,12.4174227 1.81818182,11.3513514 C1.31559246,10.7057025 0.864747007,9.88739234 0.465631929,8.8963964 C0.155209091,8.17567207 0,7.71021126 0,7.5 C0,7.28978874 0.155209091,6.82432793 0.465631929,6.1036036 C0.864747007,5.11260766 1.31559246,4.29429752 1.81818182,3.64864865 C2.67554013,2.58257725 3.69548559,1.74174482 4.87804878,1.12612613 C6.35625277,0.375371622 8.06355277,0 10,0 C11.9364472,0 13.6363563,0.375371622 15.0997783,1.12612613 C16.3119055,1.74174482 17.3392419,2.58257725 18.1818182,3.64864865 C18.6991896,4.30931261 19.150035,5.12762275 19.5343681,6.1036036 C19.8447909,6.82432793 20,7.28978874 20,7.5 Z M18.3592018,7.5 C17.9896508,6.34383806 17.5092417,5.39790158 16.9179601,4.66216216 C16.2232042,3.76125676 15.3806406,3.06306554 14.3902439,2.56756757 C13.1485525,1.92191869 11.6851525,1.5990991 10,1.5990991 C8.31484745,1.5990991 6.84405654,1.92191869 5.58758315,2.56756757 C4.59718647,3.07808063 3.75462284,3.77627185 3.05986696,4.66216216 C2.46858537,5.39790158 1.98817627,6.34383806 1.61862528,7.5 C1.98817627,8.65616194 2.46858537,9.60209842 3.05986696,10.3378378 C3.75462284,11.2237282 4.59718647,11.9219194 5.58758315,12.4324324 C6.84405654,13.0630662 8.311152,13.3783784 9.98891353,13.3783784 C11.6666751,13.3783784 13.1337705,13.0630662 14.3902439,12.4324324 C15.3954226,11.9219194 16.2379863,11.2237282 16.9179601,10.3378378 L16.940133,10.3378378 C17.5166326,9.60209842 17.9896508,8.65616194 18.3592018,7.5 Z M12.7050998,4.72972973 C13.4589838,5.48048423 13.8359202,6.39639099 13.8359202,7.47747748 C13.8359202,8.55856396 13.4626793,9.47822444 12.7161863,10.2364865 C11.9696932,10.9947485 11.0643069,11.3738739 10,11.3738739 C8.93569313,11.3738739 8.03030676,10.9947485 7.28381375,10.2364865 C6.53732073,9.47822444 6.16407982,8.55856396 6.16407982,7.47747748 C6.16407982,6.39639099 6.53732073,5.47673052 7.28381375,4.71846847 C8.03030676,3.96020642 8.93569313,3.58108108 10,3.58108108 C11.0643069,3.58108108 11.9659978,3.96396014 12.7050998,4.72972973 Z M11.5964523,5.85585586 C11.1529911,5.40540315 10.6208457,5.18018018 10,5.18018018 C9.37915432,5.18018018 8.84700887,5.40540315 8.40354767,5.85585586 C7.96008647,6.30630856 7.7383592,6.84684369 7.7383592,7.47747748 C7.7383592,8.10811126 7.96008647,8.6486464 8.40354767,9.0990991 C8.84700887,9.5495518 9.37915432,9.77477477 10,9.77477477 C10.6208457,9.77477477 11.1529911,9.5495518 11.5964523,9.0990991 C12.0399135,8.6486464 12.2616408,8.10811126 12.2616408,7.47747748 C12.2616408,6.84684369 12.0399135,6.30630856 11.5964523,5.85585586 Z" id=""></path>
        </g>
    </g>
</svg>