<svg width="24px" height="24px" viewBox="810 -206 24 24" version="1.1" xmlns="http://www.w3.org/2000/svg" xmlns:xlink="http://www.w3.org/1999/xlink">
    <defs></defs>
    <g id="ic_fullscreen_exit_black_24px" stroke="none" stroke-width="1" fill="none" fill-rule="evenodd" transform="translate(810.000000, -206.000000)">
        <g id="Group">
            <polygon id="Shape" points="0 0 24 0 24 24 0 24"></polygon>
            <path d="M5,16 L8,16 L8,19 L10,19 L10,14 L5,14 L5,16 Z M8,8 L5,8 L5,10 L10,10 L10,5 L8,5 L8,8 Z M14,19 L16,19 L16,16 L19,16 L19,14 L14,14 L14,19 Z M16,8 L16,5 L14,5 L14,10 L19,10 L19,8 L16,8 Z" id="Shape" fill="#FFFFFF"></path>
        </g>
    </g>
</svg>