<svg xmlns="http://www.w3.org/2000/svg" class="mt-svg">
<symbol id="account" viewBox="0 0 24 24">
  <path fill="currentColor" d="M10,0 C4.48,0 0,4.48 0,10 C0,15.52 4.48,20 10,20 C15.52,20 20,15.52 20,10 C20,4.48 15.52,0 10,0 Z M10,3 C11.66,3 13,4.34 13,6 C13,7.66 11.66,9 10,9 C8.34,9 7,7.66 7,6 C7,4.34 8.34,3 10,3 Z M10,17.2 C7.5,17.2 5.29,15.92 4,13.98 C4.03,11.99 8,10.9 10,10.9 C11.99,10.9 15.97,11.99 16,13.98 C14.71,15.92 12.5,17.2 10,17.2 Z" transform="translate(2 2)"/>
</symbol>

<symbol id="contact" viewBox="0 0 24 24">
  <path fill="currentColor" fill-rule="evenodd" d="M14,12.9749114 L14,17 L10,13 L3.8458278,13 C2.50854969,13 2.02362033,12.8607616 1.53473144,12.5993009 C1.04584256,12.3378403 0.662159695,11.9541574 0.400699056,11.4652686 C0.139238417,10.9763797 1.58427466e-12,10.4914503 1.13686838e-13,9.1541722 L4.34174302e-12,3.8458278 C4.34157926e-12,2.50854969 0.139238417,2.02362033 0.400699056,1.53473144 C0.662159695,1.04584256 1.04584256,0.662159695 1.53473144,0.400699056 C2.02362033,0.139238417 2.50854969,2.45654003e-16 3.8458278,0 L13.1541722,6.17908881e-16 C14.4914503,-8.15486681e-16 14.9763797,0.139238417 15.4652686,0.400699056 C15.9541574,0.662159695 16.3378403,1.04584256 16.5993009,1.53473144 C16.8607616,2.02362033 17,2.50854969 17,3.8458278 L17,9.1541722 C17,10.4914503 16.8607616,10.9763797 16.5993009,11.4652686 C16.3378403,11.9541574 15.9541574,12.3378403 15.4652686,12.5993009 C15.0967994,12.7963604 14.7305795,12.9239922 14,12.9749114 Z M5,4 C4.44771525,4 4,4.44771525 4,5 C4,5.55228475 4.44771525,6 5,6 L12,6 C12.5522847,6 13,5.55228475 13,5 C13,4.44771525 12.5522847,4 12,4 L5,4 Z M5,7 C4.44771525,7 4,7.44771525 4,8 C4,8.55228475 4.44771525,9 5,9 L9,9 C9.55228475,9 10,8.55228475 10,8 C10,7.44771525 9.55228475,7 9,7 L5,7 Z" transform="translate(3 4)"/>

</symbol>
<symbol id="dashboard" viewBox="0 0 24 24">
  <path d="M0 0h24v24H0z" fill="none"/><path fill="currentColor" d="M3 13h8V3H3v10zm0 8h8v-6H3v6zm10 0h8V11h-8v10zm0-18v6h8V3h-8z"/>
</symbol>

<symbol id="doublecheck">
  <g fill="#66CB87" fill-rule="nonzero">
    <path d="M11.07 5.08l2.003 1.941h-1.67L17.904.72a1.2 1.2 0 0 1 1.67 1.724l-6.502 6.302a1.2 1.2 0 0 1-1.67 0l-2.03-1.967 1.697-1.697zM1.02 5.789l3.049 2.956a1.2 1.2 0 0 0 1.67 0l6.503-6.302a1.2 1.2 0 1 0-1.67-1.724L4.068 7.021h1.67L2.69 4.066a1.2 1.2 0 1 0-1.67 1.723z"/>
  </g>

</symbol>
<symbol id="error" viewBox="0 0 24 24">
  <path fill="currentColor" d="M12.73,0 L5.27,0 L0,5.27 L0,12.73 L5.27,18 L12.73,18 L18,12.73 L18,5.27 L12.73,0 Z M9,14.3 C8.28,14.3 7.7,13.72 7.7,13 C7.7,12.28 8.28,11.7 9,11.7 C9.72,11.7 10.3,12.28 10.3,13 C10.3,13.72 9.72,14.3 9,14.3 Z M10,10 L8,10 L8,4 L10,4 L10,10 Z" transform="translate(3 3)"/>
</symbol>

<symbol id="materialError" viewBox="0 0 24 24">
    <path d="M0 0h24v24H0z" fill="none"/>
    <path fill="currentColor" d="M12 2C6.48 2 2 6.48 2 12s4.48 10 10 10 10-4.48 10-10S17.52 2 12 2zm1 15h-2v-2h2v2zm0-4h-2V7h2v6z"/>
</symbol>

<symbol id="help" viewBox="0 0 24 24">
  <path fill="currentColor" d="M10,0 C4.48,0 0,4.48 0,10 C0,15.52 4.48,20 10,20 C15.52,20 20,15.52 20,10 C20,4.48 15.52,0 10,0 Z M11,17 L9,17 L9,15 L11,15 L11,17 Z M13.07,9.25 L12.17,10.17 C11.67,10.68 11.31,11.14 11.13,11.86 C11.05,12.18 11,12.54 11,13 L9,13 L9,12.5 C9,12.04 9.08,11.6 9.22,11.19 C9.42,10.61 9.75,10.09 10.17,9.67 L11.41,8.41 C11.87,7.97 12.09,7.31 11.96,6.61 C11.83,5.89 11.27,5.28 10.57,5.08 C9.46,4.77 8.43,5.4 8.1,6.35 C7.98,6.72 7.67,7 7.28,7 L6.98,7 C6.4,7 6,6.44 6.16,5.88 C6.59,4.41 7.84,3.29 9.39,3.05 C10.91,2.81 12.36,3.6 13.26,4.85 C14.44,6.48 14.09,8.23 13.07,9.25 Z" transform="translate(2 2)"/>

</symbol>
<symbol id="pricing" viewBox="0 0 24 24">
  <path fill="currentColor" fill-rule="evenodd" d="M6,0 L12,0 C12.5522847,-1.01453063e-16 13,0.44771525 13,1 L13,15 C13,15.5522847 12.5522847,16 12,16 L6,16 C5.44771525,16 5,15.5522847 5,15 L5,1 C5,0.44771525 5.44771525,1.01453063e-16 6,0 Z M15,1 L17,1 C17.5522847,1 18,1.44771525 18,2 L18,14 C18,14.5522847 17.5522847,15 17,15 L15,15 C14.4477153,15 14,14.5522847 14,14 L14,2 C14,1.44771525 14.4477153,1 15,1 Z M1,1 L3,1 C3.55228475,1 4,1.44771525 4,2 L4,14 C4,14.5522847 3.55228475,15 3,15 L1,15 C0.44771525,15 6.76353751e-17,14.5522847 0,14 L0,2 C-6.76353751e-17,1.44771525 0.44771525,1 1,1 Z" transform="translate(3 4)"/>
</symbol>

<symbol id="settings" viewBox="0 0 24 24">
  <g>
    <path d="M0,0h24v24H0V0z" fill="none"/>
    <path fill="currentColor" d="M19.14,12.94c0.04-0.3,0.06-0.61,0.06-0.94c0-0.32-0.02-0.64-0.07-0.94l2.03-1.58c0.18-0.14,0.23-0.41,0.12-0.61 l-1.92-3.32c-0.12-0.22-0.37-0.29-0.59-0.22l-2.39,0.96c-0.5-0.38-1.03-0.7-1.62-0.94L14.4,2.81c-0.04-0.24-0.24-0.41-0.48-0.41 h-3.84c-0.24,0-0.43,0.17-0.47,0.41L9.25,5.35C8.66,5.59,8.12,5.92,7.63,6.29L5.24,5.33c-0.22-0.08-0.47,0-0.59,0.22L2.74,8.87 C2.62,9.08,2.66,9.34,2.86,9.48l2.03,1.58C4.84,11.36,4.8,11.69,4.8,12s0.02,0.64,0.07,0.94l-2.03,1.58 c-0.18,0.14-0.23,0.41-0.12,0.61l1.92,3.32c0.12,0.22,0.37,0.29,0.59,0.22l2.39-0.96c0.5,0.38,1.03,0.7,1.62,0.94l0.36,2.54 c0.05,0.24,0.24,0.41,0.48,0.41h3.84c0.24,0,0.44-0.17,0.47-0.41l0.36-2.54c0.59-0.24,1.13-0.56,1.62-0.94l2.39,0.96 c0.22,0.08,0.47,0,0.59-0.22l1.92-3.32c0.12-0.22,0.07-0.47-0.12-0.61L19.14,12.94z M12,15.6c-1.98,0-3.6-1.62-3.6-3.6 s1.62-3.6,3.6-3.6s3.6,1.62,3.6,3.6S13.98,15.6,12,15.6z"/>
  </g>
</symbol>

<symbol id="spinner" viewBox="0 0 24 24">
  <path fill="currentColor" d="M9,19 C8.44771525,19 8,18.5522847 8,18 C8,17.4477153 8.44771525,17 9,17 C13.418278,17 17,13.418278 17,9 C17,8.44771525 17.4477153,8 18,8 C18.5522847,8 19,8.44771525 19,9 C19,14.5228475 14.5228475,19 9,19 Z M9,-1 C9.55228475,-1 10,-0.55228475 10,0 C10,0.55228475 9.55228475,1 9,1 C4.581722,1 1,4.581722 1,9 C1,9.55228475 0.55228475,10 0,10 C-0.55228475,10 -1,9.55228475 -1,9 C-1,3.4771525 3.4771525,-1 9,-1 Z" transform="translate(3 3)"/>
</symbol>

<symbol id="update-arrow" viewBox="0 0 24 24">
  <path fill="currentColor" fill-rule="evenodd" d="M3,5 L0,5 L5.00038717,0 L10.0007743,5 L7,5 L7,11 L3,11 L3,5 Z" transform="translate(7 6)"/>

</symbol>
<symbol id="update" viewBox="0 0 24 24">
  <path fill="currentColor" fill-rule="evenodd" d="M10,20 C4.4771525,20 0,15.5228475 0,10 C0,4.4771525 4.4771525,0 10,0 C15.5228475,0 20,4.4771525 20,10 C20,15.5228475 15.5228475,20 10,20 Z M8,9 L8,15 L12,15 L12,9 L8,9 Z M10.0003872,4 L5,9 L15.0007743,9 L10.0003872,4 Z" transform="translate(2 2)"/>
</symbol>

<symbol id="upgrade" viewBox="0 0 24 24">
  <path d="M0 0h24v24H0z" fill="none"/>
  <path d="M20 4H4c-1.11 0-1.99.89-1.99 2L2 18c0 1.11.89 2 2 2h16c1.11 0 2-.89 2-2V6c0-1.11-.89-2-2-2zm0 14H4v-6h16v6zm0-10H4V6h16v2z"/>
</symbol>

<symbol id="upgrade_advanced" viewBox="0 0 24 24">
  <path d="M0 0h24v24H0z" fill="none"/>
  <path d="M20 4H4c-1.11 0-1.99.89-1.99 2L2 18c0 1.11.89 2 2 2h16c1.11 0 2-.89 2-2V6c0-1.11-.89-2-2-2zm0 14H4v-6h16v6zm0-10H4V6h16v2z"/>
</symbol>

<symbol id="clickReport" viewBox="0 0 24 24">
  <path d="M0 0h24v24H0z" fill="none"/>
  <path fill="currentColor" d="M3.9 12c0-1.71 1.39-3.1 3.1-3.1h4V7H7c-2.76 0-5 2.24-5 5s2.24 5 5 5h4v-1.9H7c-1.71 0-3.1-1.39-3.1-3.1zM8 13h8v-2H8v2zm9-6h-4v1.9h4c1.71 0 3.1 1.39 3.1 3.1s-1.39 3.1-3.1 3.1h-4V17h4c2.76 0 5-2.24 5-5s-2.24-5-5-5z"/>
</symbol>

<symbol id="attachmentReport" viewBox="-1 -1 22 17">
  <path stroke="currentColor" d="M11.7256637,0 C12.5368772,0 13.2964566,0.139294795 14.0044248,0.417888563 C14.7271423,0.711145161 15.3761033,1.13636085 15.9513274,1.69354839 C16.5265515,2.25073592 16.9616504,2.88122815 17.2566372,3.58504399 C17.5073759,4.15689435 17.654867,4.75806136 17.699115,5.38856305 C18.2743392,5.78445946 18.7536854,6.26832559 19.1371681,6.84017595 L19.159292,6.88416422 L19.159292,6.90615836 C19.7197668,7.75660249 20,8.69500953 20,9.72140762 C20,10.4398863 19.867258,11.1143663 19.6017699,11.744868 C19.3362819,12.3753697 18.9380558,12.9472115 18.4070796,13.4604106 C17.8908529,13.9736096 17.3082628,14.3621688 16.659292,14.6260997 C16.0103212,14.8753678 15.3171128,15 14.579646,15 L4.84513274,15 C4.18141261,15 3.56194978,14.8863648 2.98672566,14.6590909 C2.41150155,14.431817 1.88790796,14.0909114 1.4159292,13.6363636 C0.943950442,13.1818159 0.589971681,12.6686246 0.353982301,12.0967742 C0.11799292,11.5249238 0,10.9164255 0,10.271261 C0,9.15688592 0.353978761,8.16715975 1.0619469,7.30205279 C1.43068031,6.86216789 1.84365553,6.50293394 2.30088496,6.22434018 C2.28613562,6.10703754 2.27876106,5.97507405 2.27876106,5.82844575 C2.27876106,5.32990953 2.37463031,4.86070601 2.56637168,4.42082111 C2.74336372,3.99559905 3.01622235,3.60703988 3.38495575,3.25513196 C3.73893982,2.91788688 4.13716593,2.6612912 4.57964602,2.48533724 C5.02212611,2.30938328 5.49409779,2.22140762 5.99557522,2.22140762 C6.30531128,2.22140762 6.6150427,2.25806415 6.92477876,2.3313783 C7.32301084,1.81817925 7.80235708,1.37096965 8.36283186,0.98973607 C9.36578673,0.329908724 10.4867195,0 11.7256637,0 Z M11.7035398,1.56158358 C10.8038303,1.56158358 9.98525442,1.80351664 9.24778761,2.28739003 C8.80530752,2.59530946 8.42920509,2.9472121 8.11946903,3.3431085 L7.54424779,4.13489736 L6.59292035,3.87096774 C6.40117898,3.81231642 6.19469137,3.7829912 5.97345133,3.7829912 C5.69321394,3.7829912 5.42772987,3.83431034 5.17699115,3.93695015 C4.92625243,4.03958996 4.69764115,4.18621606 4.49115044,4.37683284 C4.28465973,4.56744963 4.12979403,4.78005748 4.02654867,5.01466276 L4.02654867,5.03665689 C3.92330332,5.285925 3.87168142,5.54985198 3.87168142,5.82844575 C3.87168142,5.94574839 3.87905597,6.04105535 3.89380531,6.1143695 L4.02654867,7.0601173 L3.18584071,7.54398827 C2.84660597,7.73460506 2.55162367,7.99120073 2.30088496,8.31378299 L2.27876106,8.31378299 C2.04277168,8.60703959 1.8657823,8.9149544 1.74778761,9.23753666 C1.62979292,9.56011891 1.57079646,9.90469025 1.57079646,10.271261 C1.57079646,10.7111459 1.65191659,11.1143677 1.81415929,11.4809384 L1.83628319,11.5249267 C1.98377655,11.8768346 2.21238783,12.2067433 2.52212389,12.5146628 C2.86135863,12.8225806 3.21533739,13.0498526 3.5840708,13.1964809 C3.96755354,13.3577721 4.38790332,13.4384164 4.84513274,13.4384164 L14.579646,13.4384164 C15.1106221,13.4384164 15.6047175,13.3431095 16.0619469,13.1524927 C16.504427,12.9765387 16.9137149,12.7089461 17.289823,12.3497067 C17.6659311,11.9904674 17.9498515,11.5909113 18.1415929,11.1510264 C18.3333343,10.7111415 18.4292035,10.2346067 18.4292035,9.72140762 C18.4292035,9.35483688 18.3775816,9.00659989 18.2743363,8.67668622 C18.1710909,8.34677254 18.0162252,8.02786078 17.8097345,7.71994135 L17.7654867,7.65395894 C17.4852493,7.25806254 17.1460197,6.92815381 16.7477876,6.66422287 L16.1504425,6.26832845 L16.1283186,5.58651026 C16.0988199,5.08797405 15.9882015,4.62610183 15.7964602,4.20087977 C15.5899695,3.70234355 15.2728635,3.24047133 14.8451327,2.81524927 C14.417402,2.40469003 13.9380558,2.09677522 13.4070796,1.8914956 C12.8908529,1.67155315 12.3230119,1.56158358 11.7035398,1.56158358 Z"></path>
  <path d="M8.91457594,8.48676695 C9.07512085,8.32444702 9.26120419,8.24328827 9.47283156,8.24328827 C9.68445893,8.24328827 9.87054227,8.32444702 10.0310872,8.48676695 L11.5197688,9.99190784 L11.5197688,4.5468393 C11.5197688,4.32549394 11.5963914,4.13735321 11.7496388,3.98241146 C11.9028862,3.82746971 12.0889695,3.75 12.3078944,3.75 C12.5268193,3.75 12.7129026,3.82746971 12.86615,3.98241146 C13.0193974,4.13735321 13.09602,4.32549394 13.09602,4.5468393 L13.09602,9.99190784 L14.606594,8.48676695 C14.7525439,8.32444702 14.9349785,8.24328827 15.1539034,8.24328827 C15.3728283,8.24328827 15.5589116,8.32075798 15.712159,8.47569973 C15.8654064,8.63064148 15.942029,8.81878221 15.942029,9.04012757 C15.942029,9.26147293 15.8617577,9.44592462 15.7012128,9.59348819 L12.8770962,12.4709634 C12.7165513,12.618527 12.5268193,12.6923077 12.3078944,12.6923077 C12.0889695,12.6923077 11.9065349,12.618527 11.760585,12.4709634 L8.91457594,9.59348819 C8.76862603,9.44592462 8.69565217,9.26147293 8.69565217,9.04012757 C8.69565217,8.81878221 8.76862603,8.63433052 8.91457594,8.48676695 Z" id="Path"></path>
</symbol>

<symbol id="dashboardTeam" viewBox="0 0 24 24">
  <path xmlns="http://www.w3.org/2000/svg" d="M11.6666667,0 C5.23373397,0 0,5.23373397 0,11.6666667 C0,18.0995994 5.23373397,23.3333333 11.6666667,23.3333333 C18.0995994,23.3333333 23.3333333,18.0995994 23.3333333,11.6666667 C23.3333333,5.23373397 18.0995994,0 11.6666667,0 Z M15.5536859,5.39414967 C17.7988226,5.39724738 19.6166454,7.2192533 19.6145834,9.46439121 C19.6125178,11.7095291 17.7913485,13.52819 15.5462098,13.5271596 C13.3010712,13.5261283 11.4815705,11.7057959 11.4815705,9.46065705 C11.4823141,8.38140862 11.911757,7.34665879 12.6754269,6.58404085 C13.4390967,5.82142291 14.4744375,5.39340659 15.5536859,5.39414967 Z M6.85416667,6.8726751 C8.69116641,6.87515369 10.1785728,8.36590662 10.1769231,10.2029073 C10.1752707,12.039908 8.685187,13.5279848 6.84818578,13.5271604 C5.01118455,13.5263354 3.5224359,12.0369213 3.5224359,10.1999199 C3.52288196,9.3168392 3.87418908,8.47012087 4.49904213,7.84610938 C5.12389518,7.22209788 5.97108619,6.87193221 6.85416667,6.8726751 Z M2.59975962,15.5665865 C3.97395833,14.8211538 5.73349359,14.4481571 6.85416667,14.4481571 C7.69551282,14.4481571 8.77916667,14.6164263 9.84543269,15.0202724 C9.13066013,15.4191228 8.48637318,15.9328469 7.93838141,16.5408654 C7.19855769,17.3822115 6.77395833,18.3873397 6.77395833,19.3919071 L6.77395833,20.2332532 C4.91623451,19.1691863 3.45209347,17.533291 2.59975962,15.569391 L2.59975962,15.5665865 Z M11.6666667,21.5384649 C10.5309444,21.5393945 9.403664,21.343354 8.3349359,20.9590545 L8.3349359,19.4418269 C8.3349359,16.4920673 13.1446314,15.0056891 15.5536859,15.0056891 C16.84375,15.0056891 18.8282051,15.4336538 20.3891827,16.2850962 C18.677452,19.5150418 15.3221507,21.5358605 11.6666667,21.5384649 Z" id="path-1"/>
</symbol>

<symbol id="dashboardLastopened" viewBox="0 0 24 24">
  <g fill="currentColor">
    <path d="M21.99 8c0-.72-.37-1.35-.94-1.7L12 1 2.95 6.3C2.38 6.65 2 7.28 2 8v10c0 1.1.9 2 2 2h16c1.1 0 2-.9 2-2l-.01-10zM12 13L3.74 7.84 12 3l8.26 4.84L12 13z"/>
    <path d="M0 0h24v24H0z" fill="none"/>
  </g>
</symbol>

<symbol id="dashboardUnopened" viewBox="0 0 24 24">
  <g fill="currentColor">
    <path d="M20 4H4c-1.1 0-1.99.9-1.99 2L2 18c0 1.1.9 2 2 2h16c1.1 0 2-.9 2-2V6c0-1.1-.9-2-2-2zm0 4l-8 5-8-5V6l8 5 8-5v2z"/>
    <path d="M0 0h24v24H0z" fill="none"/>
  </g>
</symbol>

<symbol id="alert" viewBox="0 0 29 26">
  <path fill="currentColor" d="M2.93968163,24.9811905 L25.0603184,24.9811905 C27.3223224,24.9811905 28.7324028,22.5282381 27.6014008,20.5746892 L16.5410824,1.4651617 C15.4100804,-0.488387232 12.5899196,-0.488387232 11.4589176,1.4651617 L0.398599188,20.5746892 C-0.732402823,22.5282381 0.677677607,24.9811905 2.93968163,24.9811905 Z M14,14.6993541 C13.1921414,14.6993541 12.5311662,14.0383789 12.5311662,13.2305203 L12.5311662,10.2928527 C12.5311662,9.48499414 13.1921414,8.82401894 14,8.82401894 C14.8078586,8.82401894 15.4688338,9.48499414 15.4688338,10.2928527 L15.4688338,13.2305203 C15.4688338,14.0383789 14.8078586,14.6993541 14,14.6993541 Z M15.4688338,20.5746892 L12.5311662,20.5746892 L12.5311662,17.6370216 L15.4688338,17.6370216 L15.4688338,20.5746892 Z" transform="translate(.171 .715)"/>
</symbol>

<symbol id="google" viewBox="0 0 18 18">
  <g fill="none" fill-rule="evenodd">
    <path fill="#EA4335" d="M9,3.48 C10.69,3.48 11.83,4.21 12.48,4.82 L15.02,2.34 C13.46,0.89 11.43,0 9,0 C5.48,0 2.44,2.02 0.96,4.96 L3.87,7.22 C4.6,5.05 6.62,3.48 9,3.48 L9,3.48 Z"/>
    <path fill="#4285F4" d="M17.64,9.2 C17.64,8.46 17.58,7.92 17.45,7.36 L9,7.36 L9,10.7 L13.96,10.7 C13.86,11.53 13.32,12.78 12.12,13.62 L14.96,15.82 C16.66,14.25 17.64,11.94 17.64,9.2 L17.64,9.2 Z"/>
    <path fill="#FBBC05" d="M3.88,10.78 C3.69,10.22 3.58,9.62 3.58,9 C3.58,8.38 3.69,7.78 3.87,7.22 L0.96,4.96 C0.35,6.18 0,7.55 0,9 C0,10.45 0.35,11.82 0.96,13.04 L3.88,10.78 L3.88,10.78 Z"/>
    <path fill="#34A853" d="M9,18 C11.43,18 13.47,17.2 14.96,15.82 L12.12,13.62 C11.36,14.15 10.34,14.52 9,14.52 C6.62,14.52 4.6,12.95 3.88,10.78 L0.97,13.04 C2.45,15.98 5.48,18 9,18 L9,18 Z"/>
    <polygon points="0 0 18 0 18 18 0 18"/>
  </g>
</symbol>

<symbol id="greycheck" viewBox="0 0 25 12">
  <path fill="#C5C5C5" d="M10.8984069 7.99640474L13.0199862 5.87482546 14.4787715 7.28872509 21.5625597.422899636C22.1574264-.153663511 23.107058-.138825518 23.6836211.456041221 24.2601843 1.05090796 24.2453463 2.00053951 23.6504795 2.57710266L15.5227314 10.4547662C14.9409663 11.0186308 14.0165767 11.0186308 13.4348116 10.4547662L10.8984069 7.99640474zM5.31210485 7.28872509L12.395893.422899636C12.9907598-.153663511 13.9403913-.138825518 14.5169545.456041221 15.0935176 1.05090796 15.0786796 2.00053951 14.4838129 2.57710266L6.35606478 10.4547662C5.77429966 11.0186308 4.84991004 11.0186308 4.26814492 10.4547662L.456041221 6.759958C-.138825518 6.18339485-.153663511 5.2337633.422899636 4.63889656.999462784 4.04402982 1.94909434 4.02919182 2.54396108 4.60575497L5.31210485 7.28872509z" transform="translate(0 1)"/>
</symbol>

<symbol id="iconlistgray" viewBox="0 0 25 23">
  <path fill="#828282" d="M16.625,14 L16.625,15.75 L3.5,15.75 L3.5,14 L16.625,14 Z M16.625,10.5 L16.625,12.25 L3.5,12.25 L3.5,10.5 L16.625,10.5 Z M15.625,4.375 C16.1772847,4.375 16.625,4.82271525 16.625,5.375 L16.625,5.375 L16.625,7.75 C16.625,8.30228475 16.1772847,8.75 15.625,8.75 L15.625,8.75 L4.5,8.75 C3.94771525,8.75 3.5,8.30228475 3.5,7.75 L3.5,7.75 L3.5,5.375 C3.5,4.82271525 3.94771525,4.375 4.5,4.375 L4.5,4.375 Z" transform="translate(0 1)"/>
</symbol>

<symbol id="typicallycheck" viewBox="0 0 25 12">
  <path fill="#5f6368" d="M10.8984069 7.99640474L13.0199862 5.87482546 14.4787715 7.28872509 21.5625597.422899636C22.1574264-.153663511 23.107058-.138825518 23.6836211.456041221 24.2601843 1.05090796 24.2453463 2.00053951 23.6504795 2.57710266L15.5227314 10.4547662C14.9409663 11.0186308 14.0165767 11.0186308 13.4348116 10.4547662L10.8984069 7.99640474zM5.31210485 7.28872509L12.395893.422899636C12.9907598-.153663511 13.9403913-.138825518 14.5169545.456041221 15.0935176 1.05090796 15.0786796 2.00053951 14.4838129 2.57710266L6.35606478 10.4547662C5.77429966 11.0186308 4.84991004 11.0186308 4.26814492 10.4547662L.456041221 6.759958C-.138825518 6.18339485-.153663511 5.2337633.422899636 4.63889656.999462784 4.04402982 1.94909434 4.02919182 2.54396108 4.60575497L5.31210485 7.28872509z" transform="translate(0 1)"/>
</symbol>

<symbol id="singlecheck" viewBox="0 0 25 12">
  <g fill="none" transform="translate(0 1)">
    <path fill="#C5C5C5" d="M10.8984069,7.99640474 L13.0199862,5.87482546 L14.4787715,7.28872509 L21.5625597,0.422899636 C22.1574264,-0.153663511 23.107058,-0.138825518 23.6836211,0.456041221 C24.2601843,1.05090796 24.2453463,2.00053951 23.6504795,2.57710266 L15.5227314,10.4547662 C14.9409663,11.0186308 14.0165767,11.0186308 13.4348116,10.4547662 L10.8984069,7.99640474 Z"/>
    <path fill="#66CB87" d="M5.31210485,7.28872509 L12.395893,0.422899636 C12.9907598,-0.153663511 13.9403913,-0.138825518 14.5169545,0.456041221 C15.0935176,1.05090796 15.0786796,2.00053951 14.4838129,2.57710266 L6.35606478,10.4547662 C5.77429966,11.0186308 4.84991004,11.0186308 4.26814492,10.4547662 L0.456041221,6.759958 C-0.138825518,6.18339485 -0.153663511,5.2337633 0.422899636,4.63889656 C0.999462784,4.04402982 1.94909434,4.02919182 2.54396108,4.60575497 L5.31210485,7.28872509 Z"/>
  </g>
</symbol>

<symbol id="single-check" viewBox="0 0 25 12">
  <g fill="none" transform="translate(0 1)">
    <path fill="#C5C5C5" d="M10.8984069,7.99640474 L13.0199862,5.87482546 L14.4787715,7.28872509 L21.5625597,0.422899636 C22.1574264,-0.153663511 23.107058,-0.138825518 23.6836211,0.456041221 C24.2601843,1.05090796 24.2453463,2.00053951 23.6504795,2.57710266 L15.5227314,10.4547662 C14.9409663,11.0186308 14.0165767,11.0186308 13.4348116,10.4547662 L10.8984069,7.99640474 Z"/>
    <path fill="#66CB87" d="M5.31210485,7.28872509 L12.395893,0.422899636 C12.9907598,-0.153663511 13.9403913,-0.138825518 14.5169545,0.456041221 C15.0935176,1.05090796 15.0786796,2.00053951 14.4838129,2.57710266 L6.35606478,10.4547662 C5.77429966,11.0186308 4.84991004,11.0186308 4.26814492,10.4547662 L0.456041221,6.759958 C-0.138825518,6.18339485 -0.153663511,5.2337633 0.422899636,4.63889656 C0.999462784,4.04402982 1.94909434,4.02919182 2.54396108,4.60575497 L5.31210485,7.28872509 Z"/>
  </g>

</symbol>

<symbol id="doublecheckbig" viewBox="0 0 25 12">
  <path fill="#66CB87" d="M10.8984069 7.99640474L13.0199862 5.87482546 14.4787715 7.28872509 21.5625597.422899636C22.1574264-.153663511 23.107058-.138825518 23.6836211.456041221 24.2601843 1.05090796 24.2453463 2.00053951 23.6504795 2.57710266L15.5227314 10.4547662C14.9409663 11.0186308 14.0165767 11.0186308 13.4348116 10.4547662L10.8984069 7.99640474zM5.31210485 7.28872509L12.395893.422899636C12.9907598-.153663511 13.9403913-.138825518 14.5169545.456041221 15.0935176 1.05090796 15.0786796 2.00053951 14.4838129 2.57710266L6.35606478 10.4547662C5.77429966 11.0186308 4.84991004 11.0186308 4.26814492 10.4547662L.456041221 6.759958C-.138825518 6.18339485-.153663511 5.2337633.422899636 4.63889656.999462784 4.04402982 1.94909434 4.02919182 2.54396108 4.60575497L5.31210485 7.28872509z" transform="translate(0 1)"/>
</symbol>

<symbol id="trackingdetected" viewBox="0 0 25 12">
  <circle cx="12.5" cy="6.5" r="3.5" fill="#66CB87" fill-rule="evenodd"/>
</symbol>

<symbol id="cancel-filled" viewBox="0 0 24 24">
  <path d="M12 2C6.47 2 2 6.47 2 12s4.47 10 10 10 10-4.47 10-10S17.53 2 12 2zm5 13.59L15.59 17 12 13.41 8.41 17 7 15.59 10.59 12 7 8.41 8.41 7 12 10.59 15.59 7 17 8.41 13.41 12 17 15.59z"/><path d="M0 0h24v24H0z" fill="none"/>
</symbol>

<symbol id="info-filled" viewBox="0 0 24 24">
  <path d="M0 0h24v24H0z" fill="none"/><path d="M12 2C6.48 2 2 6.48 2 12s4.48 10 10 10 10-4.48 10-10S17.52 2 12 2zm1 15h-2v-6h2v6zm0-8h-2V7h2v2z"/>
</symbol>

<symbol id="alert-filled" viewBox="0 0 24 24">
  <path d="M0 0h24v24H0z" fill="none"/><path d="M1 21h22L12 2 1 21zm12-3h-2v-2h2v2zm0-4h-2v-4h2v4z"/>
</symbol>

<symbol id="track-links-funnel" viewBox="0 0 126 101">
    <g stroke="none" stroke-width="1" fill="none" fill-rule="evenodd">
        <g transform="translate(-1013.000000, -930.000000)">
            <g transform="translate(809.000000, 890.000000)">
                <g transform="translate(196.000000, 20.000000)">
                    <path d="M81.3130752,113.964669 C54.5395861,119.761377 27.2059146,101.512287 20.2616111,73.2041867 C13.3173076,44.8960862 35.4188619,28.4563932 62.192351,22.6596851 C88.9658401,16.8629771 116.496984,22.5567316 123.441288,50.8648322 C130.385591,79.1729327 108.086564,108.16796 81.3130752,113.964669 Z" id="Oval-Copy" fill="#F4F2FC" transform="translate(71.847154, 67.828562) rotate(148.000000) translate(-71.847154, -67.828562) "></path>
                    <path d="M125.63343,114.846138 C120.727505,115.895883 115.719547,112.588292 114.447843,107.458425 C113.176139,102.328558 117.226283,99.3500866 122.132209,98.3003409 C127.038134,97.2505952 132.082594,98.2830478 133.354298,103.412915 C134.626002,108.542782 130.539355,113.796392 125.63343,114.846138 Z" id="Oval-Copy-2" fill="#F4F2FC" transform="translate(123.900277, 106.485705) rotate(148.000000) translate(-123.900277, -106.485705) "></path>
                    <g stroke-width="1" transform="translate(28.788732, 52.000000) rotate(-27.000000) translate(-28.788732, -52.000000) translate(1.028169, 34.000000)" fill="#CCE7E3">
                        <path d="M25.6806555,1.85750864 L20.4305265,19.5735067 C20.07725,24.2305314 22.0746862,26.5834422 26.4228351,26.6322392 C30.770984,26.6810362 32.7653535,24.3729232 32.4059438,19.7079004 L25.6806555,1.85750864 Z" transform="translate(26.418906, 14.245253) rotate(154.000000) translate(-26.418906, -14.245253) "></path>
                        <path d="M14.0770766,13.0007236 L8.8968303,31.084056 C8.54174009,35.8352876 10.4954889,38.2308054 14.7580767,38.2706096 C19.0206645,38.3104137 20.9801723,35.9514379 20.6366002,31.1936823 L14.0770766,13.0007236 Z" transform="translate(14.765456, 25.635914) rotate(110.000000) translate(-14.765456, -25.635914) "></path>
                        <path d="M43.3640745,1.86041176 L38.1061783,19.5711255 C37.7512604,24.2264444 39.7487158,26.5778222 44.0985445,26.6252589 C48.4483731,26.6726957 50.4442656,24.364867 50.0862218,19.701773 L43.3640745,1.86041176 Z" transform="translate(44.096542, 14.243194) scale(-1, 1) rotate(155.000000) translate(-44.096542, -14.243194) "></path>
                    </g>
                    <g stroke-width="1" transform="translate(71.971831, 68.000000) rotate(45.000000) translate(-71.971831, -68.000000) translate(44.211268, 41.000000)">
                        <polygon fill="#fff" points="8.66111906 26.923426 32.9014085 3.11328125 44.7010097 3.11328125 53.3322513 7 53.3322513 16 49.0343636 24.9069898 28.631153 45.1356588 16.4507042 52.606393 7.05058869 50 1.56659594 43.2363281 5.22619113 34.4726563"></polygon>
                        <path d="M39.3159554,32 C39.9297877,32 40.4617756,31.800995 40.9119193,31.4029851 L51.8995165,20.7164179 C54.3139233,18.3283582 55.5211268,15.4626866 55.5211268,12.119403 C55.5211268,8.7761194 54.3036928,5.92039801 51.8688249,3.55223881 C49.433957,1.1840796 46.4977927,0 43.0603321,0 C39.6228716,0 36.6764768,1.19402985 34.2211478,3.58208955 L23.2335506,14.2686567 C22.8243291,14.6666667 22.6197183,15.1641791 22.6197183,15.761194 C22.6197183,16.358209 22.8345596,16.8656716 23.2642422,17.2835821 C23.6939247,17.7014925 24.2156822,17.9104478 24.8295144,17.9104478 C25.4433466,17.9104478 25.9548735,17.7114428 26.364095,17.3134328 L37.3516922,6.62686567 C38.9476561,5.07462687 40.8505361,4.29850746 43.0603321,4.29850746 C45.2701282,4.29850746 47.1627777,5.06467662 48.7382804,6.59701493 C50.3137832,8.12935323 51.1015346,9.9800995 51.1015346,12.1492537 C51.1015346,14.318408 50.3035527,16.159204 48.7075888,17.6716418 L37.7813748,28.358209 C37.3312312,28.7562189 37.1061593,29.2537313 37.1061593,29.8507463 C37.1061593,30.4477612 37.3210006,30.9552239 37.7506832,31.3731343 C38.1803658,31.7910448 38.7021232,32 39.3159554,32 Z M12.4607946,54 C15.8982552,54 18.84465,52.8258706 21.299979,50.4776119 L32.2875762,39.7910448 C32.6967977,39.3532338 32.9014085,38.8358209 32.9014085,38.238806 C32.9014085,37.641791 32.6865672,37.1343284 32.2568846,36.7164179 C31.827202,36.2985075 31.3054446,36.0895522 30.6916124,36.0895522 C30.0777801,36.0895522 29.5662532,36.3084577 29.1570317,36.7462687 L18.1694345,47.4328358 C16.5734707,48.9452736 14.6705907,49.7014925 12.4607946,49.7014925 C10.2509985,49.7014925 8.36857964,48.9452736 6.81353794,47.4328358 C5.2175741,45.880597 4.41959218,44.0298507 4.41959218,41.880597 C4.41959218,39.7313433 5.2175741,37.880597 6.81353794,36.3283582 L17.7397519,25.641791 C18.1898956,25.2437811 18.4149674,24.7462687 18.4149674,24.1492537 C18.4149674,23.5522388 18.2001261,23.0447761 17.7704436,22.6268657 C17.340761,22.2089552 16.8190036,22 16.2051713,22 C15.5913391,22 15.0798122,22.2189055 14.6705907,22.6567164 L3.68299348,33.2835821 C1.22766449,35.6716418 0,38.5373134 0,41.880597 C0,45.2238806 1.21743396,48.079602 3.65230187,50.4477612 C6.08716978,52.8159204 9.02333403,54 12.4607946,54 Z M24.9596892,33 C25.6096811,33 26.151341,32.7681992 26.5846689,32.3045977 L33.2145864,25.8563218 C33.6912471,25.4348659 33.9295775,24.908046 33.9295775,24.2758621 C33.9295775,23.6436782 33.7020803,23.1063218 33.247086,22.6637931 C32.7920916,22.2212644 32.2395985,22 31.5896066,22 C30.9396147,22 30.3979548,22.2318008 29.9646268,22.6954023 L23.3347094,29.1436782 C22.8580487,29.5651341 22.6197183,30.091954 22.6197183,30.7241379 C22.6197183,31.3563218 22.8472155,31.8936782 23.3022098,32.3362069 C23.7572041,32.7787356 24.3096973,33 24.9596892,33 Z" stroke="#EA4E78" stroke-width="3" fill="#EA4E78" fill-rule="nonzero"></path>
                    </g>
                </g>
            </g>
        </g>
    </g>
</symbol>

<symbol id="tracked-copies-funnel" viewBox="0 20 219 229">
    <defs>
        <path d="M123.0489 180.4206c-41.8112 9.7858-83.947-18.4752-94.113-63.1225C18.77 72.6507 53.5504 46.1259 95.3616 36.3402c41.8111-9.7857 84.5401-1.4018 94.7061 43.2456 10.166 44.6474-25.2077 91.049-67.0188 100.8348z" id="a"/>
    </defs>
    <g fill="none" fill-rule="evenodd">
        <path d="M59.361 52.883c30.2722-30.4553 80.9814-28.8173 113.2622 3.6587 32.2807 32.476 16.8412 73.401-13.431 103.8564-30.2722 30.4553-70.9513 45.9882-103.232 13.5123-32.2808-32.476-26.8714-90.572 3.4008-121.0274z" fill="#F4F2FC"/>
        <mask id="b" fill="#fff">
            <use xlink:href="#a"/>
        </mask>
        <use fill="#F4F2FC" transform="rotate(148 109.4904 107.5207)" xlink:href="#a"/>
        <g mask="url(#b)" fill="#FFF">
            <path d="M187.7506 95.4602c-.27-1.337-1.063-2.5544-2.2082-3.3047a.316.316 0 00-.4358.093.317.317 0 00.0925.4372c1.1.7199 1.8517 1.9855 1.9981 3.3003a33.1392 33.1392 0 01-1.251 1.0901c-.378-2.0264-1.697-3.8676-3.5042-4.844-.1524-.081-.344-.0245-.4261.1287a.3169.3169 0 00.1287.4283c1.7067.9228 2.9443 2.692 3.2306 4.6194a.287.287 0 00.0325.0967c-.5045.4-1.0201.7875-1.5498 1.1608-.3425-1.9795-1.4551-3.817-3.0715-5.0039a.3136.3136 0 00-.4394.0684.3173.3173 0 00.068.4417c1.5654 1.1504 2.6159 2.9649 2.8659 4.8968-.469.3146-.9469.6195-1.4337.914-.526-1.723-1.4455-3.3062-2.6875-4.609a.3135.3135 0 00-.4454-.0097.3179.3179 0 00-.0096.447c1.208 1.2663 2.0906 2.8145 2.5803 4.4966-.3987.2306-.8019.4544-1.2117.67l-.9847-2.9425a.315.315 0 00-.3987-.1993c-.165.0558-.253.235-.1983.4008l1.0157 3.0333c-5.293 2.6689-11.5048 4.1599-18.3255 4.1599a44.5089 44.5089 0 01-6.3923-.461c.8063-.972 1.3027-2.2027 1.3434-3.475.0052-.1748-.131-.3206-.304-.3265h-.0104a.3159.3159 0 00-.3151.3056c-.04 1.2627-.5815 2.483-1.4544 3.3835-.8722-.1428-1.7318-.3071-2.5766-.5012 1.0778-1.0515 1.7592-2.4919 1.8546-4.0082a.314.314 0 00-.2944-.3346c-.188-.0193-.3226.1212-.3337.296-.094 1.4947-.824 2.909-1.9655 3.8654-.7805-.1941-1.552-.4046-2.3066-.6425.813-.6581 1.37-1.6509 1.413-2.6972a.3159.3159 0 00-.3012-.3294c-.1664-.0074-.3195.1286-.3277.3034-.0414 1.0084-.6562 1.9617-1.5158 2.4793a37.6524 37.6524 0 01-2.3406-.8738c.6059-.3815 1.0734-.9927 1.2191-1.6985.0356-.171-.074-.339-.244-.374-.1695-.0387-.3367.0736-.3722.2454-.1442.699-.7005 1.2768-1.37 1.5006-12.1108-5.3236-19.8931-16.5718-19.8931-30.5565 0-21.0194 17.0509-39.4577 36.4875-39.4577 16.7432 0 31.7042 13.6835 35.5333 30.9105-.1125-.0395-.2227-.0826-.344-.1042-.736-.133-1.4418.0818-1.8909.5764a.3167.3167 0 00.02.4469.3128.3128 0 00.4446-.0201c.3018-.3331.7908-.4737 1.3146-.3807.239.0431.4512.136.6317.2595.171.8507.3056 1.7118.4217 2.5774-.3344-.1956-.7035-.3458-1.1022-.4209-.89-.1688-1.7895.0134-2.4694.4953a.3172.3172 0 00-.0754.441c.1006.1435.2988.1762.4379.0758.543-.3845 1.268-.5265 1.9907-.3904.512.0967.9691.3294 1.325.6514.0813.728.1471 1.459.1878 2.196-.3558-.1979-.742-.3525-1.1592-.4299-.989-.1829-1.9818.023-2.732.5607a.3185.3185 0 00-.0732.4417c.1014.1428.2967.174.4394.0737.6118-.4403 1.4337-.606 2.2519-.4536.4875.09.9306.2892 1.3012.5651.0163.461.0348.9221.0348 1.3861 0 .363-.0155.7206-.0259 1.0798-1.0697-.7057-2.4678-.9229-3.6714-.444a.3181.3181 0 00-.1761.4113.3158.3158 0 00.4083.177c1.1252-.4485 2.4886-.1465 3.4185.6328-.3987 7.9539-3.3585 14.9403-8.2025 20.345l-1.3042-2.3916c-.0844-.1546-.2775-.2097-.4276-.1256a.3173.3173 0 00-.1243.429l1.4056 2.5775a33.102 33.102 0 01-1.22 1.2381zm-26.5688-65.2848c-20.4434 0-38.3754 19.3255-38.3754 41.3555 0 10.1528 4.0044 19.359 11.277 25.923 7.0544 6.3677 16.678 9.8746 27.0984 9.8746 10.4211 0 20.0455-3.507 27.0992-9.8746 7.2726-6.564 11.2777-15.7702 11.2777-25.923 0-22.03-17.9327-41.3555-38.3769-41.3555z"/>
            <path d="M151.9383 43.3442c.9254-.732 1.9689-1.6158 2.6381-2.8567.7715-1.4272.8477-3.1376.1958-4.3593-.4088-.7633-1.1435-1.3083-1.9682-1.456-.7311-.13-1.4076.0674-1.915.5578-.2561.2472-.2834.6783-.0618.9632.221.285.6088.3163.8628.069.3102-.2993.7081-.2793.919-.2416.4641.0835.8894.3925 1.111.8067.4247.7947.349 1.9545-.192 2.9562-.1915.3548-.4311.679-.6945.9809.0108-.0891-.0086-.1814-.0633-.2577l-.9578-1.3364c-.1073-.1469-.2994-.1694-.4304-.053-.1324.118-.1533.3331-.0482.48l.9585 1.3365c.0605.0842.149.1276.239.1276.0158 0 .0287-.0145.0446-.0169-.4282.443-.901.8332-1.3457 1.184-.1418.1131-.2821.2207-.4203.3258-.0086-.0289-.0158-.0586-.0316-.085l-.9586-1.6038c-.0942-.1573-.285-.1982-.4246-.0939-.1403.1044-.1784.3163-.0841.4728l.9578 1.6029c.0158.0265.0395.041.0604.061-.6397.4535-1.25.8075-1.8775 1.0403l-.9168-2.0452c-.0755-.1686-.259-.2376-.4102-.1525-.1518.0834-.2122.2897-.1374.4575l.8635 1.9272a.0204.0204 0 00-.0057.0016c-1.2486.2914-2.4942-.065-3.1779-.9086-.3677-.4535-.5591-1.1398-.4994-1.79.0497-.525.2533-.9592.5772-1.2224.2727-.2224.3331-.6486.1338-.9536-.1986-.305-.5807-.3716-.855-.1493-.6073.4936-.9887 1.2698-1.0736 2.1849-.0964 1.0394.2065 2.1037.8089 2.847.7642.9423 1.9358 1.4609 3.2124 1.4609.3684 0 .7462-.0434 1.1247-.1325 1.4292-.3339 2.6914-1.2208 3.842-2.1294M136.3704 62.0003c.7536-1.3765.9608-3.0386.569-4.559-.0942-.3694-.4682-.5948-.835-.4963-.3675.0968-.5868.4743-.4917.8436.304 1.182.1427 2.4732-.4433 3.543-.2772.5076-.6464.9461-1.0704 1.2902l-.5876-1.9744c-.0532-.1839-.2466-.2872-.4264-.2319-.1813.0545-.2845.2473-.2297.4304l.6465 2.173c-.2781.1513-.5675.2676-.8657.3343-.2249.0504-.4522.0683-.6779.0667-.0016-.0179.0024-.0358-.0016-.0545l-.5586-2.4325a.3434.3434 0 00-.4118-.2587c-.1838.0431-.2999.2294-.2564.4157l.5143 2.2413c-.578-.1432-1.1002-.4474-1.4565-.8924-.636-.794-.6658-2.0347-.0629-2.7652.2418-.2937.2031-.7306-.0886-.9746a.6815.6815 0 00-.9657.0894c-1.0155 1.2326-.993 3.2184.05 4.52.7617.951 1.9982 1.5002 3.2676 1.5002.316 0 .6336-.0342.9463-.1041 1.3985-.3149 2.6833-1.326 3.4361-2.7042M155.0685 72.897c1.9952-1.6504 2.7496-4.8087 1.7535-7.3468-.1373-.351-.5046-.5155-.8227-.3584-.3166.153-.4606.5637-.3225.9156.6971 1.7763.2358 4.019-1.0248 5.343l-.3915-2.1814c-.0338-.1899-.2005-.3134-.3673-.2733-.1697.0376-.2784.2209-.2454.409l.4533 2.5251c-.3313.2365-.6869.4263-1.0659.5466l-.2365-2.8981c-.0155-.1923-.172-.3249-.3394-.3159-.1727.018-.2983.1874-.2836.378l.2432 2.9775c-.36.0532-.7243.0483-1.0865.005v-3.0136c0-.1922-.1396-.3485-.3122-.3485-.1734 0-.3122.1563-.3122.3485v2.8908c-.6046-.1694-1.1775-.4656-1.6514-.9156-1.4368-1.3631-1.882-3.893-1.013-5.7586.1587-.3412.0397-.7626-.2666-.9385-.3078-.1775-.684-.045-.8426.2962-1.1452 2.4588-.581 5.6662 1.312 7.4613a5.1732 5.1732 0 003.5642 1.422c1.1563 0 2.3125-.387 3.258-1.17M166.276 57.2648c2.134 0 4.2371-1.2486 5.3813-3.2507 1.261-2.2058 1.2713-5.1783.0257-7.3954-.1822-.3237-.5673-.4243-.8612-.2231-.2925.2012-.3829.6263-.2014.9508.9987 1.7782.9906 4.1617-.0206 5.9319-.2109.3683-.4695.696-.7524.9954l-.9671-2.9384c-.0588-.1793-.2388-.271-.4005-.206-.1631.0648-.2462.2628-.1874.4413l.9781 2.9716a.3433.3433 0 00.1154.1647c-.4218.3512-.8877.6336-1.3852.8315l-1.2368-3.6011c-.0617-.1793-.241-.267-.4034-.2012-.161.0673-.2425.2669-.1815.4445l1.2191 3.5509c-.46.116-.931.1622-1.402.1306l-1.0641-3.1647c-.0603-.1785-.2381-.2701-.402-.2036-.1616.0657-.244.2644-.1844.4437l.948 2.8191c-1.6924-.3975-3.1658-1.7774-3.75-3.584-.116-.3595-.4725-.5493-.7988-.4179-.3255.1274-.4945.5225-.3784.881.7936 2.4573 2.9056 4.3013 5.2541 4.5885.2183.026.4365.0406.6555.0406M180.9501 72.7455c-.3004.145-.4445.549-.3232.9033.5692 1.6576.4466 3.5986-.2212 5.2073l-1.4933-2.1821c-.102-.1475-.286-.1727-.412-.0514-.1262.1206-.1455.3389-.0435.4871l1.6394 2.3947c-.2391.4366-.5113.848-.838 1.1974-.1005.1059-.2142.1922-.3217.2891l-1.86-2.9461c-.0971-.1548-.281-.1865-.41-.0709-.1302.1149-.1564.3315-.0592.4847l1.846 2.9241c-.4134.2892-.8572.5213-1.3237.6712l-2.1031-2.9592c-.104-.1474-.2894-.1661-.4135-.0423-.124.123-.1399.3412-.0358.4879l1.8964 2.6667c-1.1219.198-2.2933.0098-3.2912-.6158-1.2824-.804-2.4373-2.6244-2.0514-4.4147.08-.3714-.1096-.7485-.4231-.843-.3136-.097-.6326.1295-.7126.5001-.5402 2.503.918 4.9042 2.638 5.9827.9157.5734 1.9515.852 2.992.852 1.609 0 3.227-.668 4.4185-1.9386 1.9605-2.0917 2.6627-5.7098 1.6697-8.6022-.1226-.3551-.4658-.5237-.7635-.382M189.2427 62.743a2.166 2.166 0 00.1847.0082c.935 0 1.8596-.6891 2.3951-1.8048.429-.893.6137-1.9914.5651-3.3584-.0696-1.9636-.5706-3.8715-1.4484-5.519-.1582-.2965-.482-.3793-.7245-.1874-.2426.1933-.3109.5898-.1533.8855.594 1.1142.9904 2.363 1.172 3.6653l-.3213-.2618c-.1194-.097-.2832-.0587-.3632.0888-.08.1474-.0474.3453.0727.4438l.6962.5673c.008.1241.019.2475.0233.3724a8.25 8.25 0 01-.0393 1.142l-1.4423-.881c-.1293-.079-.2862-.0142-.3515.143-.064.158-.0117.3498.1176.4296l1.5734.9607c-.0702.3137-.157.6064-.2795.8607-.3632.7568-1.0046 1.2247-1.593 1.1683-.2962-.0286-.6027-.2415-.8003-.5544-.093-.1467-.2413-.4462-.1902-.799.0505-.3476-.1391-.6794-.4241-.741-.2918-.064-.5565.17-.6064.5175-.091.6207.0487 1.2617.3922 1.8041.378.5989.9553.9908 1.545 1.0495M156.716 86.4704c-.3328-.0203-.5984.2727-.6204.6686-.026.477-.2656.9515-.6416 1.2681-.3752.3166-.8203.4221-1.1901.2786-.3698-.1435-.6882-.5412-.8505-1.0663-.1616-.5243-.1397-1.0823.0596-1.4918.1657-.341.076-.7818-.2-.9852-.276-.2043-.6348-.0937-.7991.2473-.3807.7835-.4369 1.8093-.1486 2.7413.2883.933.8827 1.6522 1.59 1.925a1.886 1.886 0 00.6875.1274c.5177 0 1.0498-.2026 1.5093-.591.6683-.563 1.0963-1.4445 1.1463-2.3563.0212-.396-.2212-.7387-.5424-.7657M134.38 78.8807c-.6442-.0803-1.3435.2146-1.8175.7669-.4163.4848-.6087 1.1121-.5276 1.7207.047.3482.3352.5853.6483.5373.3117-.0525.5263-.3775.48-.7257-.0395-.2941.122-.532.222-.6476.2305-.2686.5745-.4172.8715-.3827.6818.084 1.2201.803 1.45 1.4783.049.1426.0785.292.1127.4405l-1.0157-.1988c-.1542-.0353-.3023.0855-.3298.2596-.0268.1734.0764.3392.232.3692l1.1202.2191a.223.223 0 00.0496.0053c.0181 0 .0342-.0068.051-.0105.0335.3107.0556.6258.0617.944-.0268-.0142-.0537-.0277-.0845-.0322l-1.7853-.2537c-.1529-.0248-.299.1013-.3192.2762-.02.1748.0905.3346.2468.3572l1.7853.2536a.199.199 0 00.0369.003c.0442 0 .0851-.0158.1233-.036 0 .048.0014.0968.0014.1448-.0007.9538-.0014 1.9398-.3091 2.7863-.2407.6634-.8186 1.3868-1.5172 1.4078-.0067.0008-.0127.0008-.0194.0008-.2896 0-.6108-.196-.8045-.4908-.0852-.1298-.2146-.388-.1307-.6619.1025-.3332-.0557-.6971-.3527-.8112-.2997-.1148-.6228.0615-.7254.3947-.1857.6026-.0798 1.2705.289 1.8333.4116.6281 1.0686 1.0123 1.7236 1.0123.0168 0 .0335-.0007.0503-.0007 1.2175-.0368 2.1547-1.1324 2.543-2.2033.3921-1.0776.3928-2.24.3934-3.2658.0007-1.0025.0014-2.138-.3606-3.1983-.4331-1.2674-1.3724-2.1664-2.3928-2.2917M173.087 94.9848c-.328.0025-.5917.3251-.5896.72.002.3922.2679.7089.5937.7089h.0042c.1884-.0177.351.1487.4437.2755.1989.2713.3028.6686.2644 1.0147-.0704.635-.45 1.281-1.1316 1.9186-2.167 2.027-5.2744 2.4024-7.7316.9324-.2958-.1772-.651-.032-.796.3209-.1459.3545-.0259.7829.2672.9584 1.1637.6964 2.4516 1.0366 3.7402 1.0366 1.8774 0 3.7556-.7224 5.2493-2.121.9356-.8761 1.4672-1.838 1.5795-2.8577.0823-.7485-.1284-1.5717-.5505-2.1487-.3627-.4931-.8379-.7762-1.343-.7586M191.4974 83.836c.8-1.607 1.0839-3.5947.7767-5.4553-.06-.3672-.3463-.6063-.6358-.5263-.2907.076-.4771.4359-.4165.8047.2503 1.5174.019 3.1404-.6339 4.4514-.6534 1.3119-1.7108 2.2758-2.9002 2.6453-.2882.0888-.4645.4584-.3937.8231.06.3104.28.5184.5214.5184a.404.404 0 00.129-.02c1.4573-.4528 2.7529-1.6342 3.553-3.2412M174.7848 38.2533c1.8592.3934 3.4517 2.896 3.5492 5.5806.0162.4184.2583.7435.5483.7435h.0297c.3029-.0231.5353-.3925.5198-.8266-.1265-3.4492-2.0968-6.5466-4.4862-7.0526-.3042-.0591-.58.2336-.6238.6621-.0446.4304.1627.8293.463.893"/>
            <path d="M173.1115 39.1674a.9005.9005 0 00.6398.2664c.232 0 .463-.0888.6397-.2664.3545-.3552.3545-.9308 0-1.287l-.2352-.2376a.9026.9026 0 00-1.2806 0c-.3534.3563-.3534.9319 0 1.2882l.2363.2364M136.1017 57.2648h.0222c.3717 0 .7134-.189.8959-.4998.1844-.3099.137-.6917-.0879-.9488-.0869-.329-.3784-.5822-.7395-.6072-.3581-.021-.725.1573-.9326.4739-.2075.3166-.2307.7166-.057 1.0437.1738.3242.5175.5295.8989.5382M155.6788 62.0134c.1135.2422.4292.3949.7687.3949.0858 0 .1717-.0095.2575-.0299.4244-.1004.6542-.4274.513-.73l-.4224-.903c-.1421-.3026-.6008-.4641-1.0271-.3657-.4244.1004-.6552.4274-.514.73l.4243.9037M162.3621 49.0357a.7506.7506 0 00-.0133-.3484.722.722 0 00.0078-.3485c-.0979-.4512-.5926-.7507-1.1085-.6587-.5447.093-.9227.512-.9183 1.02.0045.507.388.922.9339 1.008a1.098 1.098 0 00.1679.0128c.4502 0 .8483-.2829.9305-.6852M170.5628 46.6348c.5655 0 1.024-.3645 1.024-.8153v-.4259c0-.4508-.4585-.8162-1.024-.8162s-1.0228.3654-1.0228.8162v.4259c0 .4508.4573.8153 1.0228.8153M180.6691 71.011c-.4245.1004-.6544.4266-.5122.7298l.4225.9027c.1136.2422.4302.3948.7708.3948.0849 0 .1707-.0095.2556-.0292.4255-.101.6553-.428.5142-.7298l-.4245-.904c-.1421-.3019-.5971-.466-1.0264-.3643M191.037 77.1725c-.486.0898-.7821.4561-.6617.8184l.2333.7064c.1012.3074.472.5132.879.5132a1.203 1.203 0 00.2185-.0198c.4858-.0898.782-.4561.6627-.8184l-.2344-.7056c-.1204-.3623-.6137-.5823-1.0975-.4942M170.7757 97.0415c.4485 0 .811-.4594.811-1.0287 0-.5682-.3625-1.0287-.811-1.0287h-.4236c-.4485 0-.812.4605-.812 1.0287 0 .5693.3635 1.0287.812 1.0287h.4236M158.3524 83.7092c-.4717-.1348-.9858.0747-1.1462.4615l-.24.5797c-.1594.3868.0945.8067.5672.9362.0956.027.1944.039.289.039.378 0 .7286-.1938.856-.5032l.238-.5754c.1615-.3859-.0903-.8066-.564-.9378M183.7667 90.9459h-.1402c-.2405 0-.435.1964-.435.4382 0 .2417.1945.4372.435.4372h.1402c.2405 0 .435-.1955.435-.4372 0-.2418-.1945-.4382-.435-.4382M156.6937 98.1407c-.1995-.1653-.4429-.0302-.544.3036l-.212.7057c-.0993.3338-.019.7376.1814.906.0592.0493.1212.0716.1814.0716.1489 0 .293-.1367.3636-.3735l.212-.7058c.0992-.3338.019-.7391-.1824-.9076M136.8263 85.708a.1137.1137 0 00.0594.0177c.1112 0 .2125-.176.2404-.4408.0332-.3125-.0483-.6263-.181-.7028l-1.5512-.8979c-.132-.0737-.2665.1146-.2997.4244-.0332.3125.0483.6264.181.7042l1.5511.8951"/>
        </g>
        <g fill="#FFF">
            <path d="M82.9389 76.843a1.8802 1.8802 0 00-.4717-.3246c-.0407-.02-.09-.0014-.1102.0404a.0838.0838 0 00.0386.1111c.1824.087.3483.2099.4893.3558a10.295 10.295 0 01-.1295.403c-.0073.0206-.0158.0404-.023.061-.2255-.256-.5462-.419-.8878-.4433a.0837.0837 0 00-.0886.0775.081.081 0 00.0754.089c.3232.0227.6369.1971.833.457-.0425.1133-.0861.2262-.1324.3374-.2728-.2896-.6423-.4818-1.0395-.5282a.084.084 0 00-.092.0736.0823.0823 0 00.0714.0925c.3829.0442.7368.239.987.5305-.016.037-.0316.0745-.0482.1115-.0252.019-.047.043-.0584.075-.07.1951-.2742.2997-.5104.4209-.2158.1105-.4391.225-.594.4295-.0676.0894-.1144.186-.1593.2795-.0548.1141-.1068.2218-.186.285-.0813.0649-.2059.0928-.3159.1176l-1.5059.3391c-.1715.0388-.4065.0917-.5693.2676-.1287.1395-.1767.3157-.2188.4715-.0132.0488-.0263.0975-.0421.1448-.1304.3887-.498.7166-.9599.8562-.3823.1153-.8363.1186-1.3996.0069-.1262-.025-.2697-.0533-.4189-.005-.1986.0649-.3108.2302-.4099.3766-.0168.0244-.0334.049-.0501.0727-.2487.3484-.6654.5702-1.0873.5788-.1685.0034-.338-.0242-.5175-.0535-.225-.0369-.4576-.0747-.6988-.05-.4755.0493-.871.3263-1.2534.594-.384.2688-.7472.5231-1.1613.533-.3624.0092-.6897-.2228-1.0363-.468-.2333-.165-.4717-.332-.731-.4316.1996-.3252.4588-.613.7621-.8403a.0853.0853 0 00.018-.1173.0823.0823 0 00-.0543-.0326 103.568 103.568 0 0013.9602-6.6588 9.3148 9.3148 0 01-.2737 1.3642z"/>
            <path d="M77.302 83.6261a1.5845 1.5845 0 00-.1318-.5968.08.08 0 00-.1079-.04.0848.0848 0 00-.0408.1104c.0842.1909.1223.4005.1165.6105a10.8571 10.8571 0 01-.412.1901c-.065-.3036-.1975-.5942-.3897-.8317a.0803.0803 0 00-.1147-.0103.0848.0848 0 00-.0118.1172c.1817.2244.3049.5006.3623.788a9.9224 9.9224 0 01-.3207.1293c-.0764-.3416-.245-.6593-.4861-.9081a.0806.0806 0 00-.1153.0003.0846.0846 0 00-.0017.1175c.2238.231.38.5272.4484.845-1.7472.6267-3.6194.7544-5.3754.2491.3262-.1086.619-.3127.9045-.514.36-.2543.7003-.494 1.0867-.5352.1957-.021.395.0114.6058.0455.1836.0296.3738.0605.5698.056.518-.0118 1.0306-.2871 1.3367-.7185.0186-.0257.0365-.0525.0546-.0792.0749-.1108.1453-.2155.2344-.2449.0674-.022.157-.0044.2638.0167.5976.1177 1.0972.1108 1.5276-.0212.5575-.1707 1.006-.58 1.1698-1.0688a2.8381 2.8381 0 00.0478-.1633c.035-.1288.0682-.2502.1397-.3282.0844-.0915.2283-.1303.3938-.1684l1.4896-.341c.136-.0312.3055-.0697.4452-.182.1383-.1111.2123-.2655.2776-.4014.0393-.0818.0766-.1589.1232-.221.1077-.1426.286-.2351.4749-.3328.0103-.0054.021-.011.0315-.0163a10.8967 10.8967 0 01-1.7578 2.3573c-.1286-.1728-.3247-.2906-.539-.315a.0838.0838 0 00-.0913.0733.0814.0814 0 00.0706.092c.1772.0199.3404.1204.4426.268a10.6464 10.6464 0 01-.294.28 1.5233 1.5233 0 00-.8377-.4034.0832.0832 0 00-.0926.0713.0826.0826 0 00.0684.0934c.2745.0373.5348.1634.7383.3528a10.9255 10.9255 0 01-2.3039 1.5778zM68.2112 82.446a2.6224 2.6224 0 00-.179.301c-.0758-.0561-.1526-.1108-.2272-.169.1355-.0438.2707-.088.4062-.132z"/>
            <path d="M68.1316 83.1082a1.1062 1.1062 0 00-.1484-.0264c-.0343-.0249-.0692-.0489-.1032-.0746a2.248 2.248 0 01.2787-.4435c.23-.0894.4597-.1807.6892-.2721a2.9126 2.9126 0 00-.7163.8166zM64.5083 83.2823c-1.4836.4938-3.0672.9843-4.684 1.083-.918.0559-1.6101-.0428-2.1794-.3093-.6882-.3233-1.1726-.9438-1.2342-1.5812-.0803-.8279.4902-1.6149 1.059-2.2754 1.73-2.0093 3.7402-3.748 5.9738-5.1803.0014.0662.0021.1324.0048.1986-1.868 1.2526-4.1641 2.8108-5.2724 5.1198-.1843.384-.4147.9594-.2872 1.5218.1506.6655.7305 1.078 1.3524 1.2922a3.427 3.427 0 00.7263.1634c1.2812.1438 2.5493-.1804 3.8441-.5547 7.219-2.0868 14.1865-5.0575 20.7085-8.8296 2.0998-1.2144 4.132-2.6398 4.7785-4.827.229-.7746.1181-1.446-.2963-1.7958-.3988-.3366-.9637-.3097-1.4617-.2588a39.678 39.678 0 00-6.6533 1.2693 10.7183 10.7183 0 00-.1647-.1696c2.2563-.7702 4.5803-1.381 6.9162-1.8127.9704-.1795 2.0819-.334 2.98.0956.4362.2089.7537.539.8709.9054.203.6332-.1284 1.397-.9856 2.2704-2.0888 2.1279-4.6158 3.7203-7.035 5.124-6.0076 3.4851-12.3868 6.362-18.9607 8.5509zM69.5191 66.1507c.5723-.2553 1.1711-.4435 1.7861-.5696.1493.2025.2116.4743.1552.7293-.0092.0414.013.0814.05.0942.003.001.006.0018.0092.0025.0425.009.0851-.0197.095-.0644.061-.2743.0054-.5647-.1371-.7958.1294-.0238.2599-.0443.391-.0626.0838.1559.1407.3273.1653.5057.0044.031.025.055.0514.0641a.075.075 0 00.0382.0029.0842.0842 0 00.0671-.0949c-.0242-.1754-.0786-.344-.1549-.5007a9.1823 9.1823 0 01.5117-.0457l.0477.2348a.0778.0778 0 00.0505.059.0748.0748 0 00.0429.0019.0847.0847 0 00.0615-.0989l-.0416-.2052a9.5441 9.5441 0 011.5896.0614 1.4732 1.4732 0 00-.0494.192c-.0726.5292-.7066.7601-.8993.8184-.1171.0354-.2374.0644-.3575.0934-.3246.0785-.6604.1594-.9424.3673-.077.0568-.1478.1215-.2161.1842-.09.0823-.1749.1602-.2715.2195-.3437.2114-.7482.1511-1.1763.0875-.3915-.0583-.7962-.1184-1.1699.0371-.2122.0885-.393.2394-.5678.3855-.2111.1763-.4105.3428-.653.3968-.3004.067-.6355-.0528-.9966-.3516.7236-.7322 1.5724-1.3246 2.521-1.7481z"/>
            <path d="M65.8754 71.2385c-.3713-.0511-.716-.2678-.9387-.5722.2321-.5497.5112-1.0668.8346-1.5456.1053.2984.3226.5658.6165.7452.0959.0586.1962.1058.2989.1411.306.1054.6318.1063.9151-.0041.225-.0877.4209-.2297.6102-.367.2541-.1846.4943-.359.7677-.3718.2211-.0105.4442.087.6803.1901.3096.135.6297.275.9826.1821.2705-.0714.4627-.257.6485-.4368.1149-.1109.2232-.2156.3446-.2891.2603-.1574.6126-.1885.953-.2184.515-.0456 1.0477-.0927 1.3301-.5682.0466-.0783.0796-.1598.1117-.239.0491-.122.0916-.227.1685-.2862.083-.0638.2112-.0752.347-.0871l.073-.0068c.6958-.0705 1.3567-.4544 1.7676-1.0273l.036-.0507c.08-.113.2674-.3783.3662-.351.037.0104.0737.0044.1068-.0098.489.1843.9566.3994 1.4002.6417l-.6308 1.1132a.0833.0833 0 00.0302.113.0822.0822 0 00.1123-.0315l.6317-1.1146c.1014.0574.2014.1162.3002.1764l-.6237.8585a.0832.0832 0 00.0173.1158.0826.0826 0 00.115-.0184l.6312-.869c.1272.0804.2521.1639.3748.2492-.1952.1545-.3692.3373-.5085.5438a.0831.0831 0 00.0409.125.082.082 0 00.0948-.0324 2.2698 2.2698 0 01.5124-.539c.295.2126.5752.4392.8407.6775-.7363-.0058-1.4069.4716-1.774.7945-.1747.1539-.3433.3192-.5063.4791-.3811.3745-.7412.728-1.1877.9576-.205.1054-.4224.1813-.6528.2615-.301.1054-.6124.214-.8933.3947-.2031.1305-.3843.2941-.5593.4522-.2927.2646-.5691.5145-.9146.5873-.1789.0378-.3676.0253-.5673.0116-.1446-.0097-.2942-.0198-.446-.0103-.533.0332-.9953.2963-1.4422.5506-.316.18-.6426.3658-.9815.4592-.382.1052-.8063.1006-1.2164.0963-.5898-.0062-1.1995-.0125-1.734.2956-.2125.1225-.392.2842-.5657.4407-.1613.1455-.3136.2829-.4867.3865-.3745.225-.87.2464-1.3279.0575-.3469-.1433-.624-.3892-.7845-.6845.0453-.4439.1176-.8844.2188-1.3188.051.0283.1042.0536.1597.0727a.9672.9672 0 00.1887.0445.083.083 0 00.0925-.0715.0822.0822 0 00-.0702-.093.812.812 0 01-.3284-.1194c.044-.1756.0923-.3496.1454-.5229.1108.1154.246.2077.3964.2595a.9195.9195 0 00.1476.0378.0829.0829 0 00.0952-.0679.082.082 0 00-.0667-.0954c-.2023-.0346-.3892-.152-.515-.3156.0192-.059.0357-.1188.056-.1772a9.6294 9.6294 0 01.149-.3966c.187.2248.4351.3998.7104.4946.0905.0311.184.0536.2786.0668a.0832.0832 0 00.0931-.071.0834.0834 0 00-.0698-.0933z"/>
            <path d="M59.6733 79.2403c-.278.4022-.5492.8794-.4526 1.3703.1073.5451.5895.833 1.027.9836.2737.0942.5299.135.6657.1512 1.5672.1867 3.1825-.1506 4.5736-.4817 6.7166-1.5976 13.1413-4.1869 19.096-7.696 1.3914-.8199 2.9267-1.8287 3.5342-3.4285.1846-.4855.213-.905.0847-1.247-.2399-.6392-.982-.9857-2.1453-1.0024a19.6965 19.6965 0 00-4.7326.5103l-.0085-.0097a39.7358 39.7358 0 016.56-1.2247c.4662-.0463.993-.0717 1.3454.2238.5407.4542.3273 1.3546.2488 1.6199-.6274 2.1253-2.6337 3.5197-4.7083 4.7103-6.5247 3.7442-13.4974 6.6892-20.724 8.753-1.282.366-2.5366.6827-3.7928.54-.7766-.0881-1.7542-.4892-1.9472-1.3304-.1174-.511.0995-1.0489.2726-1.4091.903-1.8775 2.6279-3.255 4.2491-4.3755-1.2047.9507-2.279 2.0872-3.1458 3.3426z"/>
            <path d="M65.7846 80.2283a10.661 10.661 0 01-.5296-1.1792c.3892-.194.8844-.1493 1.2806-.0128l.0189.0065c.1899.067.379.1532.5621.2367.3612.1647.7347.3347 1.142.3747.0114.001.023.0015.0343.0022-.8695.2436-1.7015.433-2.5083.572z"/>
            <path d="M63.741 76.1373a24.8089 24.8089 0 00-3.1132 2.6062c-.5006.495-.6566.9973-.428 1.3783.137.2289.3746.3347.566.4013l.0119.004c.662.228 1.3618.2497 2.0197.239 3.1385-.0508 6.4187-.8093 10.6363-2.4592a68.0791 68.0791 0 008.555-4.0567c1.4252-.802 2.9153-1.7095 4.1578-2.9114.8022-.7757 1.071-1.6064.7196-2.2225-.2786-.4888-.841-.6491-1.2999-.7342-1.3117-.2437-2.6951-.2033-4.0121.1103a9.6887 9.6887 0 00-.2088-.2485c1.5022-.3597 3.0419-.5386 4.579-.5286.7559.005 1.7121.1642 1.9755.8928.111.3065.0797.6922-.0925 1.1464-.597 1.5756-2.1036 2.5903-3.469 3.4176-5.9327 3.5952-12.3244 6.2635-18.998 7.9313-1.4345.3586-2.9633.694-4.4932.5194-.3233-.0368-1.3883-.2181-1.5343-1.005-.0806-.4355.1739-.8837.4333-1.2646 1.051-1.5432 2.4037-2.9113 3.921-3.98.016.2554.0411.5102.074.7641z"/>
            <path d="M69.2684 75.8257c-.1532.32-.499.5542-.9251.6266-.2056.0349-.4346-.015-.5576-.122-.064-.0555-.0957-.1239-.0946-.2027a.0798.0798 0 00-.0798-.0825.0824.0824 0 00-.082.0822c-.002.1278.05.2413.15.3287.1832.159.4778.1944.6884.1588a1.6202 1.6202 0 00.5493-.1987c.0017-.0009.0034-.0007.0049-.0014.5818-.3203 1.0525-.8495 1.5078-1.3613.4201-.4724.8545-.9609 1.3685-1.271.2064-.1247.6113-.3142.9627-.1828.3345.123.5332.5361.4252.8835-.108.3474-.506.5758-.8515.4889-.1824-.0466-.3288-.1744-.372-.3268a.08.08 0 00-.1003-.0548.0837.0837 0 00-.0554.1026c.0597.21.2483.3793.4867.4387.2782.0701.5819-.0277.7972-.2222.0032-.0019.007-.0023.01-.0047.7271-.6019 1.3573-1.2843 1.7748-1.9218l.0805-.1241c.1962-.3049.3992-.62.6978-.8007.1946-.1177.4344-.1837.755-.208.1662-.0123.3734-.0105.5028.1081.2014.1857.111.549-.0272.804-.075.139-.196.3338-.3785.4238-.1464.0721-.3631.0552-.4512-.0841a.0799.0799 0 00-.112-.0238.084.084 0 00-.0249.1141c.1406.2223.4448.2466.6575.1419.0107-.0054.0203-.0121.0307-.018a.0768.0768 0 00.035-.0099c.3158-.1791.645-.379.8943-.6752.2828-.3358.4267-.755.5657-1.1604.1005-.2923.2043-.5945.3592-.8584.1147-.1967.2364-.3225.3717-.3843.2138-.0979.4687-.0442.7124.0285.0798.0229.1503.0464.2063.0884.0616.0465.1106.1208.15.2271.1026.2781.064.6013-.0794.8635a18.3998 18.3998 0 01-.1512.2133.9645.9645 0 01-.1092.1003c-.0909.0702-.2184.1265-.3078.0762-.1415-.0812-.0716-.352-.035-.4645.0142-.0433-.0153-.0866-.0514-.1033a.0814.0814 0 00-.1024.0534c-.1053.324-.067.5579.1077.658.1318.0764.3143.0432.4858-.089.1206-.0929.2172-.2133.2928-.3465.2533-.3622.4998-.7586.6047-1.138a4.2676 4.2676 0 00.0532-.224c.0367-.1678.0712-.3264.1495-.465.1048-.1858.3304-.3273.5328-.297.121.1706.2354.345.3436.5228a1.4205 1.4205 0 01-.0359.3453c-.0309.136-.0817.3006-.2029.3716-.0527.0306-.1347.0258-.1911-.011-.0247-.0161-.0533-.0445-.0487-.0864a.0804.0804 0 00-.0718-.0898.0827.0827 0 00-.0895.0741c-.01.0959.034.1836.1208.2406.1063.0703.2545.0764.3597.0151.1767-.1033.243-.31.2813-.479a1.6082 1.6082 0 00.024-.1308 8.4011 8.4011 0 01.8172 2.0283.3194.3194 0 01-.0406.0605c-.1306.1535-.347.1915-.5052.1965-.0955.0028-.1901-.0037-.2901-.0104-.1082-.0075-.22-.0152-.3323-.0098-.398.0191-.7527.1775-1.0062.445a.459.459 0 00-.0313.032c-.0012.0012-.0026.0023-.0036.0036l-.0008.0012c-.0704.0794-.1178.1798-.1284.2874-.0187.1905.0783.3821.241.4765a.0827.0827 0 00.111-.031.083.083 0 00-.0293-.1124c-.1074-.0622-.1738-.1934-.1615-.319.0123-.1257.103-.243.2205-.2853.0664-.0237.147-.0284.24-.0132.3913.0641.7046.4554.6914.8586-.0224.0126-.045.0258-.0674.0382a65.7875 65.7875 0 01-1.2822.6939l-.0944-.0305c-.1639-.053-.3324-.1235-.51-.197-.3835-.1593-.7801-.3231-1.1815-.3395h-.0004c-.159-.0165-.3874-.0083-.5724.124-.1898.1361-.2746.3848-.197.578.0384.0956.1215.1714.224.2068a.407.407 0 00.0554.0145c.1134.0216.2205-.01.2935-.0865a.0827.0827 0 00-.0008-.1162.0799.0799 0 00-.1145.0022c-.0343.0358-.0877.0497-.1466.0386-.0735-.0142-.1366-.0622-.1608-.1233-.0546-.1362.028-.3002.1391-.38.1434-.1024.3302-.1079.4619-.0943.2553.0261.5958.2987.742.5949.0436.088.082.2049.0694.323a67.404 67.404 0 01-1.56.766c-.0007 0-.0011-.0006-.0019-.0007-.1347-.021-.2715-.0504-.4037-.0786-.088-.019-.176-.0379-.2642-.0545a5.6962 5.6962 0 00-1.3735-.0906c-.0644.0036-.2605.0145-.324.1714a.0817.0817 0 00.048.1084c.001.0004.0019 0 .0028.0004a.0747.0747 0 00.047.0121c.189-.0168.3838.0794.4854.2408.0894.1416.104.33.0426.488a62.8193 62.8193 0 01-1.0628.4574c-.3877-.0147-.777-.1229-1.1566-.2288l-.1663-.0461c-.6091-.1667-1.3077-.3085-1.8709-.0955-.0018.0006-.003.0022-.0046.003-.1052.0246-.1938.0676-.2604.1337-.0862.0853-.1291.221-.1093.3455.016.1022.0734.1833.1568.2229a.0835.0835 0 00.1083-.0399.0825.0825 0 00-.0381-.1095c-.0454-.0216-.0618-.067-.067-.1017-.0116-.0717.0133-.1522.0615-.2.0836-.0827.2223-.1197.412-.109.3602.0206.766.2316.8067.5826.021.1794-.0582.3809-.2124.5392-.0225.0228-.0477.0422-.0718.0626-.47.1754-.9273.338-1.3745.4904-.0112-.0001-.0227.0004-.0338-.0001-.3783-.0135-.8016-.2042-1.2112-.3885-.4857-.2188-.9877-.4446-1.456-.4035-.0003 0-.0005 0-.0007.0002-.2437-.0164-.5032.0485-.7327.1936a.0839.0839 0 00-.0272.1135.0795.0795 0 00.1112.026c.3005-.19.6576-.2279.9323-.0955.2963.1416.4653.494.3765.7852-.1201.395-.627.5578-1.0431.5103-.391-.045-.7473-.204-1.1242-.3727-.191-.0855-.389-.174-.5896-.245-.4418-.1532-.9994-.2151-1.441-.0165a10.9025 10.9025 0 01-.732-2.9965c.1728.1172.3594.2139.557.282.3366.1158.699.1569 1.0514.1102.5773-.0766 1.0959-.3647 1.5973-.6435.2772-.1541.564-.3135.8558-.434.3546-.1461.6275-.1698.833-.0707.1364.0652.2425.1919.2986.3565.0677.198.0558.4253-.0317.608z"/>
        </g>
        <path d="M100.6335 46.6348a51.795 51.795 0 011.0234-.3032l-.3764-.3826c-.215.229-.4306.458-.647.6858zm3.0006-.5898l.0695-.7582-1.322-.3665a90.971 90.971 0 01-.3836.476l.7686.8956c.288-.0857.5777-.1675.8675-.2469zm-.0718-1.8105l.1413-1.0288c-.3382.2889-.6804.5777-1.0234.8655l.882.1633zm.9648 1.4724c.133-.0323.2667-.0638.3998-.0954l-.3814-.1063-.0184.2017zm2.5734-.1356c.0018.009.0042.0167.0054.0256.052.2743-.1286.5397-.405.592a39.3663 39.3663 0 00-2.2283.4904l-.1441 1.5535a.5043.5043 0 01-.3511.435.5092.5092 0 01-.54-.1511l-1.079-1.2442a39.0632 39.0632 0 00-3.0716 1.0978.511.511 0 01-.604-.1726.5067.5067 0 01.025-.6253 161.7468 161.7468 0 001.9252-2.2885l-1.1614-1.3393a.5044.5044 0 01-.0449-.6022.509.509 0 01.5646-.2166l1.964.5385a167.4151 167.4151 0 002.1016-2.6615.511.511 0 01.5891-.1624c.2112.0827.3421.2915.3206.5182l-.2835 3.0542 1.9868.545c.2213.0608.3702.2595.3738.4749a.5168.5168 0 01.0568.1386zM142.5915 136.4753c.2261-.1043.4537-.2055.6822-.3031l-.251-.3827c-.1432.229-.287.458-.4312.6858zm2.3322-.871l.0556-.5686-1.0575-.275c-.1017.119-.2043.2386-.307.3571l.615.6717a34.733 34.733 0 01.694-.1852zm-.0386-1.1864l.0942-.6858c-.2255.1925-.4536.385-.6822.5769l.588.1089zm.5765 1.1295c.133-.0322.2668-.0638.3998-.0953l-.3813-.1063-.0185.2016zm2.2352-.143c.0015.007.0034.0131.0043.0201.0417.2147-.1028.4224-.3239.4633a32.0963 32.0963 0 00-1.7827.3838l-.1153 1.2158c-.0148.1583-.1254.2924-.2809.3404a.4132.4132 0 01-.432-.1183l-.8631-.9737a31.7116 31.7116 0 00-2.4574.8592c-.1737.0684-.3732.013-.4832-.135a.3898.3898 0 01.02-.4895c.5168-.59 1.0312-1.1874 1.5402-1.791l-.9291-1.0481a.388.388 0 01-.036-.4713c.0958-.1471.2795-.216.4517-.1695l1.5713.4214a131.5054 131.5054 0 001.6813-2.0829c.1105-.1397.3028-.1914.4712-.1271.169.0647.2737.2282.2565.4056l-.2268 2.3902 1.5894.4266c.177.0475.2962.203.299.3716.0202.033.0355.0694.0455.1085zM112.9139 94.984c.2262-.1042.4537-.2055.6822-.303l-.2509-.3828c-.1433.229-.287.458-.4313.6859zm2.3322-.8709l.0556-.5687-1.0575-.2749c-.1017.119-.2043.2386-.307.3571l.615.6716c.2303-.0642.4621-.1256.694-.1851zm-.0386-1.1865l.0942-.6858c-.2254.1926-.4536.3851-.6822.577l.588.1088zm.5766 1.1296c.133-.0323.2667-.0638.3998-.0954l-.3814-.1063-.0184.2017zm2.2352-.143c.0014.007.0033.013.0043.02.0416.2147-.103.4224-.324.4634a32.0968 32.0968 0 00-1.7827.3837l-.1153 1.2159c-.0148.1583-.1253.2924-.2808.3404a.4132.4132 0 01-.432-.1183l-.8632-.9737a31.7116 31.7116 0 00-2.4573.8591c-.1737.0685-.3732.013-.4833-.135a.3898.3898 0 01.0201-.4894 127.316 127.316 0 001.5402-1.791l-.9292-1.0482a.388.388 0 01-.0359-.4712c.0957-.1472.2794-.2161.4517-.1695l1.5712.4214a131.5116 131.5116 0 001.6813-2.083c.1105-.1396.3029-.1913.4713-.127.1689.0647.2737.2281.2564.4055l-.2268 2.3903 1.5895.4266c.177.0474.2961.203.299.3716.02.033.0354.0693.0455.1085zM51.512 112.1292a26.589 26.589 0 01.6823-.3031l-.251-.3827c-.1433.229-.287.458-.4313.6858zm2.3323-.871l.0556-.5686-1.0576-.275c-.1016.1191-.2043.2386-.307.3571l.615.6717c.2303-.0643.4621-.1257.694-.1852zm-.0387-1.1864l.0943-.6858c-.2255.1925-.4536.385-.6823.577l.588.1088zm.5766 1.1295c.133-.0322.2668-.0638.3998-.0953l-.3814-.1063-.0184.2016zm2.2352-.143c.0014.007.0033.0131.0043.0201.0416.2147-.1029.4224-.324.4633a32.0972 32.0972 0 00-1.7826.3838l-.1153 1.2158c-.0149.1583-.1254.2924-.2809.3404a.4132.4132 0 01-.432-.1183l-.8632-.9737a31.7117 31.7117 0 00-2.4573.8592c-.1737.0684-.3732.013-.4833-.135a.3898.3898 0 01.0201-.4895 127.304 127.304 0 001.5402-1.791l-.9292-1.0481a.388.388 0 01-.0359-.4713c.0957-.1471.2795-.216.4517-.1695l1.5712.4214a131.5066 131.5066 0 001.6813-2.0829c.1106-.1397.3029-.1914.4713-.1271.1689.0647.2737.2282.2565.4056l-.2268 2.3902 1.5894.4266c.177.0475.2962.203.299.3716a.3996.3996 0 01.0455.1085zM68.227 149.1627c.2262-.1043.4537-.2055.6822-.3031l-.251-.3827c-.1432.229-.287.458-.4312.6858zm2.3322-.871l.0556-.5686-1.0575-.275a69.213 69.213 0 01-.307.3571l.615.6717c.2303-.0643.4621-.1257.694-.1852zm-.0386-1.1864l.0942-.6858c-.2255.1925-.4536.385-.6822.5769l.588.1089zm.5766 1.1295c.133-.0322.2667-.0638.3998-.0953l-.3814-.1063-.0184.2016zm2.2351-.143c.0015.007.0034.0131.0043.0201.0417.2147-.1028.4224-.3239.4633a32.0981 32.0981 0 00-1.7827.3837l-.1153 1.2159c-.0148.1583-.1253.2924-.2808.3404a.4132.4132 0 01-.432-.1183l-.8632-.9737a31.7117 31.7117 0 00-2.4574.8592c-.1736.0684-.3732.013-.4832-.135a.3898.3898 0 01.0201-.4895c.5167-.59 1.031-1.1874 1.5401-1.791l-.9291-1.0481a.388.388 0 01-.0359-.4713c.0957-.1471.2794-.216.4517-.1695l1.5712.4214a131.5066 131.5066 0 001.6813-2.0829c.1105-.1397.3028-.1914.4713-.1271.1689.0647.2736.2282.2564.4056l-.2268 2.3902 1.5895.4266c.177.0475.2961.203.299.3716a.3996.3996 0 01.0454.1085z" fill="#FFF"/>
        <g>
            <path d="M94.5 176.4534c11.6593 0 21.6163 7.2769 25.615 17.5461 1.213-3.1066 1.885-6.4856 1.885-10.0246 0-15.2305-12.3121-27.5749-27.4993-27.5749C79.3131 156.4012 67 168.7451 67 183.9744c0 3.5392.6713 6.9188 1.8828 10.0256 4.0019-10.2697 13.9588-17.5464 25.6172-17.5466" fill="#CCE7E3"/>
            <path d="M94.5007 179.8495c3.3795 0 6.6362.5302 9.6957 1.5032 4.5388-9.2156 7.279-21.1019 7.279-34.0905 0-20.6337-6.9026-38.499-16.9744-47.2622-10.0733 8.7633-16.9763 26.628-16.9763 47.2612 0 12.9889 2.7401 24.8766 7.2818 34.0915a31.9181 31.9181 0 019.6942-1.5032" fill="#F6AA6C"/>
            <path d="M92.464 144.0945c-5.242 0-9.5062-4.2926-9.5072-9.572.0005-5.2768 4.2648-9.5703 9.5066-9.5698 5.2414 0 9.5062 4.2925 9.5057 9.5703.0005 5.2793-4.2638 9.572-9.5052 9.5715" fill="#F4F2FC"/>
            <path d="M92.4634 127.8976c-3.629-.0005-6.5814 2.9723-6.5816 6.6257.0004 3.656 2.952 6.6264 6.5816 6.6264 3.628-.0005 6.5815-2.971 6.5808-6.627 0-3.6528-2.9527-6.6253-6.5808-6.625" fill="#FFFFFE"/>
            <g>
                <path d="M103.6672 156.7418c-2.621 0-4.7531-2.1463-4.7536-4.786.0002-2.6384 2.1324-4.7851 4.7533-4.7849 2.6207 0 4.7531 2.1462 4.7529 4.7852.0002 2.6396-2.132 4.786-4.7526 4.7857" fill="#F4F2FC"/>
                <path d="M103.667 148.6434c-1.8146-.0003-3.2908 1.4861-3.291 3.3128.0003 1.828 1.476 3.3132 3.291 3.3132 1.814-.0003 3.2906-1.4855 3.2903-3.3135 0-1.8264-1.4764-3.3127-3.2904-3.3125" fill="#FFFFFE"/>
            </g>
        </g>
        <g>
            <path d="M97.445 183c2.3792 0 4.3077 2.1299 4.3077 4.758 2.379 0 4.308 2.1299 4.308 4.7577 0 .878-.2164 1.7-.592 2.406 2.5163.7841 4.361 3.3366 4.361 6.3666 0 2.6352-1.395 4.9102-3.4137 5.9744.1616.4777.2504.9945.2504 1.5344 0 2.4224-1.7781 4.386-3.9711 4.386l-.074-.002c-.931 1.5261-2.5099 2.53-4.3012 2.53-1.4238 0-2.7136-.6342-3.6503-1.6607-.9357 1.0265-2.2254 1.6607-3.6492 1.6607-1.7914 0-3.3703-1.0039-4.3012-2.53l-.074.002c-2.193 0-3.9711-1.9636-3.9711-4.386 0-.5399.0887-1.0567.2503-1.5344-2.0186-1.0642-3.4136-3.3392-3.4136-5.9744 0-3.03 1.8447-5.5825 4.361-6.3667-.3757-.706-.592-1.5279-.592-2.406 0-2.6277 1.9289-4.7576 4.308-4.7576 0-2.6281 1.9285-4.758 4.3076-4.758 1.0576 0 2.0262.4209 2.7759 1.1193.7482-.6988 1.7164-1.1193 2.7736-1.1193z" fill="#EA4E78"/>
            <path d="M89.8753 228.8296H55.383c-4.078 0-7.383-3.3067-7.383-7.3864 0-4.0794 3.305-7.3862 7.383-7.3862 0-4.0794 3.305-7.3869 7.3826-7.3869a7.343 7.343 0 013.7333 1.015c1.2168-4.3146 5.1776-7.4777 9.8792-7.4777 4.0892 0 7.6193 2.392 9.2706 5.8533a6.786 6.786 0 012.381-.4292c3.759 0 6.8057 3.0488 6.8057 6.8093 0 .0426-.0022.0848-.0031.1268 2.3682 1.5963 3.926 4.3036 3.926 7.3752 0 4.9081-3.977 8.8868-8.883 8.8868" fill="#EE7394"/>
            <path d="M99.1247 228.8296h34.4923c4.078 0 7.383-3.3067 7.383-7.3864 0-4.0794-3.305-7.3862-7.383-7.3862 0-4.0794-3.305-7.3869-7.3826-7.3869a7.343 7.343 0 00-3.7333 1.015c-1.2168-4.3146-5.1776-7.4777-9.8792-7.4777-4.0892 0-7.6193 2.392-9.2706 5.8533a6.786 6.786 0 00-2.381-.4292c-3.759 0-6.8057 3.0488-6.8057 6.8093 0 .0426.0022.0848.0031.1268-2.3682 1.5963-3.926 4.3036-3.926 7.3752 0 4.9081 3.977 8.8868 8.883 8.8868" fill="#E88BA4"/>
        </g>
    </g>
</symbol>
</svg>
