<svg xmlns="http://www.w3.org/2000/svg" width="46" height="46" viewBox="0 0 46 46">
    <g fill="#3E9BE9" fill-rule="evenodd">
        <path fill-opacity=".5" d="M34.083 14.042a7.892 7.892 0 0 0-1.004-3.901 8.852 8.852 0 0 0-2.62-2.955 13.49 13.49 0 0 0-3.58-1.805 12.492 12.492 0 0 0-3.974-.655c-1.34 0-2.664.219-3.974.655a13.49 13.49 0 0 0-3.58 1.805 8.852 8.852 0 0 0-2.62 2.955 7.892 7.892 0 0 0-1.005 3.9c0 1.96.66 3.707 1.98 5.24.194.214.49.534.888.961.397.427.693.747.887.96 2.485 2.97 3.853 5.862 4.105 8.676h6.637c.253-2.814 1.62-5.706 4.105-8.675.194-.214.49-.534.888-.96.398-.428.694-.748.888-.961 1.32-1.534 1.98-3.28 1.98-5.24z"/>
        <path d="M29.426 14.042c0 .252-.093.47-.277.655a.895.895 0 0 1-.655.276.895.895 0 0 1-.655-.276.895.895 0 0 1-.276-.655c0-.893-.524-1.582-1.572-2.067-1.048-.485-2.077-.728-3.086-.728a.895.895 0 0 1-.655-.277.895.895 0 0 1-.277-.655c0-.252.092-.47.277-.655a.895.895 0 0 1 .655-.276c.97 0 1.936.155 2.896.466a6.19 6.19 0 0 1 2.533 1.572c.728.737 1.092 1.61 1.092 2.62zm4.657 0a7.892 7.892 0 0 0-1.004-3.901 8.852 8.852 0 0 0-2.62-2.955 13.49 13.49 0 0 0-3.58-1.805 12.492 12.492 0 0 0-3.974-.655c-1.34 0-2.664.219-3.974.655a13.49 13.49 0 0 0-3.58 1.805 8.852 8.852 0 0 0-2.62 2.955 7.892 7.892 0 0 0-1.005 3.9c0 1.96.66 3.707 1.98 5.24.194.214.49.534.888.961.397.427.693.747.887.96 2.485 2.97 3.853 5.862 4.105 8.676h6.637c.253-2.814 1.62-5.706 4.105-8.675.194-.214.49-.534.888-.96.398-.428.694-.748.888-.961 1.32-1.534 1.98-3.28 1.98-5.24zm3.727 0c0 3.008-1 5.608-2.999 7.801a41.095 41.095 0 0 0-2.169 2.533c-.572.738-1.15 1.664-1.732 2.78-.582 1.116-.912 2.16-.99 3.13.913.543 1.369 1.339 1.369 2.387a2.65 2.65 0 0 1-.728 1.863 2.65 2.65 0 0 1 .728 1.863c0 1.009-.437 1.795-1.31 2.358.252.446.378.902.378 1.368 0 .893-.306 1.582-.917 2.067-.611.485-1.363.728-2.256.728a4.697 4.697 0 0 1-1.747 2.037 4.557 4.557 0 0 1-2.532.757 4.557 4.557 0 0 1-2.533-.757 4.697 4.697 0 0 1-1.747-2.037c-.892 0-1.644-.243-2.256-.728-.611-.485-.917-1.174-.917-2.067 0-.466.127-.922.379-1.368-.874-.563-1.31-1.349-1.31-2.358 0-.718.242-1.34.728-1.863a2.65 2.65 0 0 1-.728-1.863c0-1.048.456-1.844 1.368-2.387-.078-.97-.408-2.014-.99-3.13-.582-1.116-1.16-2.042-1.732-2.78a41.095 41.095 0 0 0-2.169-2.533C9 19.65 8 17.05 8 14.042c0-1.922.432-3.712 1.295-5.371.864-1.66 2-3.038 3.406-4.134 1.407-1.097 2.999-1.96 4.775-2.59A16.11 16.11 0 0 1 22.905 1c1.843 0 3.653.315 5.429.946 1.776.63 3.367 1.494 4.774 2.591 1.407 1.096 2.542 2.474 3.406 4.134.864 1.659 1.296 3.45 1.296 5.37z"/>
    </g>
</svg>
