<svg xmlns="http://www.w3.org/2000/svg" width="17" height="15" viewBox="0 0 17 15">
    <path fill="#989B9E" fill-rule="evenodd" d="M13.054 3.567c1.189.784 2.504 2.05 3.946 3.795a54.945 54.945 0 0 1-1.29 1.366c-.253.253-.721.676-1.404 1.27-.683.595-1.271 1.032-1.765 1.31-.493.278-1.106.544-1.84.797a6.715 6.715 0 0 1-2.201.38c-1.265 0-2.429-.279-3.491-.835L2.087 14.57l-.873-.872 2.694-2.695C3.15 10.474 1.847 9.234 0 7.286c1.62-1.771 3.074-3.08 4.364-3.928 1.29-.847 2.669-1.27 4.136-1.27 1.164 0 2.327.29 3.491.872L14.913 0l.873.873-2.732 2.694zm-7.97 3.719c0 .683.203 1.328.608 1.935l1.025-1.025c-.127-.227-.19-.53-.19-.91 0-.557.19-1.031.569-1.423.38-.392.847-.588 1.404-.588h.304c-.203.253-.304.518-.304.796 0 .127.013.228.038.304l1.935-1.897A3.236 3.236 0 0 0 8.5 3.833c-.936 0-1.74.341-2.41 1.024-.67.683-1.005 1.493-1.005 2.429zM8.5 10.739c.936 0 1.74-.342 2.41-1.025.67-.683 1.005-1.492 1.005-2.428 0-.709-.202-1.366-.607-1.973L9.411 7.248a.987.987 0 0 0 .303.038c.253 0 .506-.089.76-.266v.266c0 .556-.19 1.03-.57 1.423-.38.392-.847.588-1.404.588-.354 0-.658-.076-.91-.228l-1.063 1.025c.582.43 1.24.645 1.973.645z"/>
</svg>
