<svg xmlns="http://www.w3.org/2000/svg" width="29" height="26" viewBox="0 0 29 26">
  <path fill="#F03268" d="M2.93968163,24.9811905 L25.0603184,24.9811905 C27.3223224,24.9811905 28.7324028,22.5282381 27.6014008,20.5746892 L16.5410824,1.4651617 C15.4100804,-0.488387232 12.5899196,-0.488387232 11.4589176,1.4651617 L0.398599188,20.5746892 C-0.732402823,22.5282381 0.677677607,24.9811905 2.93968163,24.9811905 Z M14,14.6993541 C13.1921414,14.6993541 12.5311662,14.0383789 12.5311662,13.2305203 L12.5311662,10.2928527 C12.5311662,9.48499414 13.1921414,8.82401894 14,8.82401894 C14.8078586,8.82401894 15.4688338,9.48499414 15.4688338,10.2928527 L15.4688338,13.2305203 C15.4688338,14.0383789 14.8078586,14.6993541 14,14.6993541 Z M15.4688338,20.5746892 L12.5311662,20.5746892 L12.5311662,17.6370216 L15.4688338,17.6370216 L15.4688338,20.5746892 Z" transform="translate(.171 .715)"/>
</svg>
