<svg xmlns="http://www.w3.org/2000/svg" width="24" height="24" viewBox="0 0 24 24">
  <path fill="#413F8A" d="M6.78231071 5.21197563C7.21752455 5.55198644 7.29470186 6.1804302 6.95469104 6.61564404 6.61468022 7.05085789 5.98623647 7.12803519 5.55102262 6.78802437L2.88435596 4.70469104C2.44914211 4.36468022 2.37196481 3.73623647 2.71197563 3.30102262 3.05198644 2.86580878 3.6804302 2.78863148 4.11564404 3.12864229L6.78231071 5.21197563zM10.4459459 3.59234234C10.6250653 4.11477386 10.3467558 4.68349323 9.82432432 4.86261261 9.3018928 5.04173199 8.73317343 4.76342251 8.55405405 4.24099099L7.55405405 1.32432432C7.37493468.801892804 7.65324416.233173432 8.17567568.0540540541 8.6981072-.125065324 9.26682657.153244156 9.44594595.675675676L10.4459459 3.59234234zM4.77472113 8.95514272C5.30575614 9.10686701 5.61324824 9.66035278 5.46152395 10.1913878 5.30979966 10.7224228 4.75631388 11.0299149 4.22527887 10.8781906L.725278872 9.87819061C.194243859 9.72646632-.113248237 9.17298055.0384760524 8.64194554.190200342 8.11091053.743686115 7.80341843 1.27472113 7.95514272L4.77472113 8.95514272zM21.6826455 17.6892504C22.1342083 18.1110874 22.0989096 18.8374365 21.6085709 19.2134996L18.7335099 21.4185148C18.3204485 21.7353103 17.7334355 21.6822305 17.383901 21.2964784L13.8466941 17.3927576 12.1123449 19.1271069C11.5296569 19.7097949 10.5318262 19.3771847 10.4152886 18.5614214L9.17671717 9.89142136C9.07628146 9.18837135 9.72021897 8.60761167 10.4092023 8.7798575L20.3177738 11.2570004C21.2184602 11.482172 21.3528436 12.7063742 20.5224518 13.1215701L18.0932717 14.3361601 21.6826455 17.6892504z" transform="translate(1 1)"/>
</svg>
