<svg xmlns="http://www.w3.org/2000/svg" width="24" height="24" viewBox="0 0 24 24">
  <path fill="#413F8A" fill-rule="evenodd" d="M14,12.9749114 L14,17 L10,13 L3.8458278,13 C2.50854969,13 2.02362033,12.8607616 1.53473144,12.5993009 C1.04584256,12.3378403 0.662159695,11.9541574 0.400699056,11.4652686 C0.139238417,10.9763797 1.58427466e-12,10.4914503 1.13686838e-13,9.1541722 L4.34174302e-12,3.8458278 C4.34157926e-12,2.50854969 0.139238417,2.02362033 0.400699056,1.53473144 C0.662159695,1.04584256 1.04584256,0.662159695 1.53473144,0.400699056 C2.02362033,0.139238417 2.50854969,2.45654003e-16 3.8458278,0 L13.1541722,6.17908881e-16 C14.4914503,-8.15486681e-16 14.9763797,0.139238417 15.4652686,0.400699056 C15.9541574,0.662159695 16.3378403,1.04584256 16.5993009,1.53473144 C16.8607616,2.02362033 17,2.50854969 17,3.8458278 L17,9.1541722 C17,10.4914503 16.8607616,10.9763797 16.5993009,11.4652686 C16.3378403,11.9541574 15.9541574,12.3378403 15.4652686,12.5993009 C15.0967994,12.7963604 14.7305795,12.9239922 14,12.9749114 Z M5,4 C4.44771525,4 4,4.44771525 4,5 C4,5.55228475 4.44771525,6 5,6 L12,6 C12.5522847,6 13,5.55228475 13,5 C13,4.44771525 12.5522847,4 12,4 L5,4 Z M5,7 C4.44771525,7 4,7.44771525 4,8 C4,8.55228475 4.44771525,9 5,9 L9,9 C9.55228475,9 10,8.55228475 10,8 C10,7.44771525 9.55228475,7 9,7 L5,7 Z" transform="translate(3 4)"/>
</svg>
