<svg xmlns="http://www.w3.org/2000/svg" width="25" height="12" viewBox="0 0 25 12">
  <path fill="#C5C5C5" d="M10.8984069 7.99640474L13.0199862 5.87482546 14.4787715 7.28872509 21.5625597.422899636C22.1574264-.153663511 23.107058-.138825518 23.6836211.456041221 24.2601843 1.05090796 24.2453463 2.00053951 23.6504795 2.57710266L15.5227314 10.4547662C14.9409663 11.0186308 14.0165767 11.0186308 13.4348116 10.4547662L10.8984069 7.99640474zM5.31210485 7.28872509L12.395893.422899636C12.9907598-.153663511 13.9403913-.138825518 14.5169545.456041221 15.0935176 1.05090796 15.0786796 2.00053951 14.4838129 2.57710266L6.35606478 10.4547662C5.77429966 11.0186308 4.84991004 11.0186308 4.26814492 10.4547662L.456041221 6.759958C-.138825518 6.18339485-.153663511 5.2337633.422899636 4.63889656.999462784 4.04402982 1.94909434 4.02919182 2.54396108 4.60575497L5.31210485 7.28872509z" transform="translate(0 1)"/>
</svg>
