<svg xmlns="http://www.w3.org/2000/svg" width="18" height="12" viewBox="0 0 18 12">
  <path fill="#4285F4" d="M11.25 6C12.9075 6 14.25 4.6575 14.25 3 14.25 1.3425 12.9075 5.32907052e-15 11.25 5.32907052e-15 9.5925 5.32907052e-15 8.25 1.3425 8.25 3 8.25 4.6575 9.5925 6 11.25 6zM11.25 7.5C9.2475 7.5 5.25 8.505 5.25 10.5L5.25 11.25C5.25 11.6625 5.5875 12 6 12L16.5 12C16.9125 12 17.25 11.6625 17.25 11.25L17.25 10.5C17.25 8.505 13.2525 7.5 11.25 7.5zM1 6.25C.44771525 6.25-1.82076576e-14 5.80228475-1.82076576e-14 5.25-1.82076576e-14 4.69771525.44771525 4.25 1 4.25L5 4.25C5.55228475 4.25 6 4.69771525 6 5.25 6 5.80228475 5.55228475 6.25 5 6.25L1 6.25z"/>
</svg>
