<svg xmlns="http://www.w3.org/2000/svg" width="13" height="16" viewBox="0 0 13 16">
  <path fill="#5F6368" d="M551.4,702.6 C552.28,702.6 553,701.88 553,701 L549.8,701 C549.8,701.88 550.512,702.6 551.4,702.6 Z M556.2,697.8 L556.2,693.8 C556.2,691.344 554.888,689.288 552.6,688.744 L552.6,688.2 C552.6,687.536 552.064,687 551.4,687 C550.736,687 550.2,687.536 550.2,688.2 L550.2,688.744 C547.904,689.288 546.6,691.336 546.6,693.8 L546.6,697.8 L545,699.4 L545,700.2 L557.8,700.2 L557.8,699.4 L556.2,697.8 Z" transform="translate(-545 -687)"/>
</svg>
