<svg xmlns="http://www.w3.org/2000/svg" width="14" height="16" viewBox="0 0 14 16">
  <path fill="#9EA4AC" d="M11.6,19.1857864 L11.6,15.8 C11.6,13.336 12.904,11.288 15.2,10.744 L15.2,10.2 C15.2,9.536 15.736,9 16.4,9 C17.064,9 17.6,9.536 17.6,10.2 L17.6,10.744 C18.232712,10.894435 18.7907877,11.1604951 19.2671218,11.5186646 L20.6356911,10.1500954 C21.0262154,9.75957108 21.6593803,9.75957108 22.0499046,10.1500954 C22.4404289,10.5406197 22.4404289,11.1737846 22.0499046,11.5643089 L10.7071068,22.9071068 C10.3165825,23.2976311 9.68341751,23.2976311 9.29289322,22.9071068 C8.90236893,22.5165825 8.90236893,21.8834175 9.29289322,21.4928932 L11.6,19.1857864 Z M13.3142136,22.2 L21.0607401,14.4534735 C21.1528162,14.8828744 21.2,15.3342445 21.2,15.8 L21.2,19.8 L22.8,21.4 L22.8,22.2 L13.3142136,22.2 Z M16.4,24.6 C15.512,24.6 14.8,23.88 14.8,23 L18,23 C18,23.88 17.28,24.6 16.4,24.6 Z" transform="translate(-9 -9)"/>
</svg>
