<svg xmlns="http://www.w3.org/2000/svg" width="14" height="14" viewBox="0 0 14 14">
  <path fill="#777" d="M9.375,8.25 L8.7825,8.25 L8.5725,8.0475 C9.3075,7.1925 9.75,6.0825 9.75,4.875 C9.75,2.1825 7.5675,3.55271368e-15 4.875,3.55271368e-15 C2.1825,3.55271368e-15 3.19744231e-14,2.1825 3.19744231e-14,4.875 C3.19744231e-14,7.5675 2.1825,9.75 4.875,9.75 C6.0825,9.75 7.1925,9.3075 8.0475,8.5725 L8.25,8.7825 L8.25,9.375 L12,13.1175 L13.1175,12 L9.375,8.25 Z M4.875,8.25 C3.0075,8.25 1.5,6.7425 1.5,4.875 C1.5,3.0075 3.0075,1.5 4.875,1.5 C6.7425,1.5 8.25,3.0075 8.25,4.875 C8.25,6.7425 6.7425,8.25 4.875,8.25 Z"/>
</svg>
