<svg xmlns="http://www.w3.org/2000/svg" width="15px" height="13px" viewBox="0 0 15 13">
    <g stroke="none" stroke-width="1" fill="none" fill-rule="evenodd">
        <g transform="translate(-4.000000, -5.000000)" fill="#35A753">
            <path d="M19,16 L19,18 L4,18 L4,16 L19,16 Z M19,12 L19,14 L4,14 L4,12 L19,12 Z M18,5 C18.5522847,5 19,5.44771525 19,6 L19,6 L19,9 C19,9.55228475 18.5522847,10 18,10 L18,10 L5,10 C4.44771525,10 4,9.55228475 4,9 L4,9 L4,6 C4,5.44771525 4.44771525,5 5,5 L5,5 Z" />
        </g>
    </g>
</svg>