<?xml version="1.0" encoding="UTF-8"?>
<svg width="16px" height="18px" viewBox="0 0 16 18" version="1.1" xmlns="http://www.w3.org/2000/svg" xmlns:xlink="http://www.w3.org/1999/xlink">
    <!-- Generator: Sketch 55.1 (78136) - https://sketchapp.com -->
    <title>trash-can-outline</title>
    <desc>Created with Sketch.</desc>
    <g id="People-View-V2" stroke="none" stroke-width="1" fill="none" fill-rule="evenodd">
        <g id="Edit-Label" transform="translate(-708.000000, -517.000000)" fill="#EE5B5B" fill-rule="nonzero">
            <g id="modal" transform="translate(419.000000, 205.000000)">
                <g id="Group-18" transform="translate(289.000000, 312.000000)">
                    <g id="trash-can-outline">
                        <path d="M5,0 L5,1 L0,1 L0,3 L1,3 L1,16 C1,17.1045695 1.8954305,18 3,18 L13,18 C14.1045695,18 15,17.1045695 15,16 L15,3 L16,3 L16,1 L11,1 L11,0 L5,0 L5,0 Z M3,3 L13,3 L13,16 L3,16 L3,3 L3,3 Z M5,5 L5,14 L7,14 L7,5 L5,5 L5,5 Z M9,5 L9,14 L11,14 L11,5 L9,5 Z" id="Shape"></path>
                    </g>
                </g>
            </g>
        </g>
    </g>
</svg>