<svg xmlns="http://www.w3.org/2000/svg" width="24" height="24" viewBox="0 0 24 24">
  <path fill="#423E87" d="M9.99,0 C4.47,0 0,4.48 0,10 C0,15.52 4.47,20 9.99,20 C15.52,20 20,15.52 20,10 C20,4.48 15.52,0 9.99,0 Z M13.22,15.39 L10,13.45 L6.78,15.39 C6.4,15.62 5.93,15.28 6.03,14.85 L6.88,11.19 L4.05,8.74 C3.72,8.45 3.9,7.9 4.34,7.86 L8.08,7.54 L9.54,4.09 C9.71,3.68 10.29,3.68 10.46,4.09 L11.92,7.53 L15.66,7.85 C16.1,7.89 16.28,8.44 15.94,8.73 L13.11,11.18 L13.96,14.85 C14.06,15.28 13.6,15.62 13.22,15.39 Z" transform="translate(2 2)"/>
</svg>
