<svg xmlns="http://www.w3.org/2000/svg" width="18" height="17" viewBox="0 0 18 17">
  <path fill="#AAA" d="M8.04367562 3.27235188C8.01484034 3.5108715 8 3.75370268 8 4 8 6.30243513 9.29687865 8.30196802 11.2 9.30796272L11.2 12.2 12.8 13.8 12.8 14.6 0 14.6 0 13.8 1.6 12.2 1.6 8.2C1.6 5.736 2.904 3.688 5.2 3.144L5.2 2.6C5.2 1.936 5.736 1.4 6.4 1.4 7.064 1.4 7.6 1.936 7.6 2.6L7.6 3.144C7.75224634 3.18019843 7.90017121 3.2230916 8.04367562 3.27235188zM6.4 17C5.512 17 4.8 16.28 4.8 15.4L8 15.4C8 16.28 7.28 17 6.4 17zM16.9383215 4.36326461C16.9542168 4.23610207 16.9701122 4.10893954 16.9701122 3.97382934 16.9701122 3.83871914 16.9621645 3.7115566 16.9383215 3.58439406L17.7807733 2.92473839C17.8523023 2.86115712 17.8761452 2.75783756 17.8284593 2.67041331L17.0336934 1.29546836C16.9860075 1.20804412 16.8826879 1.17625348 16.787316 1.20804412L15.8018063 1.60542705C15.5951672 1.44647388 15.3726328 1.31136368 15.1262553 1.21599178L14.9752498.166900832C14.9673022.0715289281 14.8798779 0 14.784506 0L13.1949743 0C13.0996024 0 13.0121781.0715289281 12.9962828.166900832L12.8452773 1.21599178C12.6068475 1.31931134 12.3763654 1.44647388 12.1697263 1.60542705L11.1842166 1.20804412C11.0967924 1.17625348 10.9934728 1.20804412 10.9378392 1.29546836L10.1430733 2.67041331C10.0953874 2.75783756 10.1112827 2.86115712 10.1907593 2.92473839L11.0332111 3.58439406C11.0173158 3.7115566 11.0093681 3.83871914 11.0093681 3.97382934 11.0093681 4.10893954 11.0173158 4.23610207 11.0332111 4.36326461L10.1907593 5.02292028C10.1192304 5.08650155 10.0953874 5.18982112 10.1430733 5.27724536L10.9378392 6.65219031C10.9855252 6.73961456 11.0888447 6.77140519 11.1842166 6.73961456L12.1697263 6.34223162C12.3763654 6.5011848 12.5988999 6.63629499 12.8452773 6.7316669L12.9962828 7.78075784C13.0121781 7.87612975 13.0916547 7.94765868 13.1949743 7.94765868L14.784506 7.94765868C14.8798779 7.94765868 14.9673022 7.87612975 14.9831975 7.78075784L15.134203 6.7316669C15.3726328 6.62834734 15.6031149 6.5011848 15.8018063 6.34223162L16.7952637 6.73961456C16.8826879 6.77140519 16.9860075 6.73961456 17.0416411 6.65219031L17.8364069 5.27724536C17.8840929 5.18982112 17.8602499 5.08650155 17.788721 5.02292028L16.9383215 4.36326461zM13.9897401 5.16597814C13.3300845 5.16597814 12.7975913 4.63348501 12.7975913 3.97382934 12.7975913 3.31417367 13.3300845 2.78168054 13.9897401 2.78168054 14.6493958 2.78168054 15.1818889 3.31417367 15.1818889 3.97382934 15.1818889 4.63348501 14.6493958 5.16597814 13.9897401 5.16597814z"/>
</svg>
