<svg height="36" viewBox="0 0 32 36" width="32" xmlns="http://www.w3.org/2000/svg"><g fill="none"><path d="m1.12843222 9.11600306 13.53846158-8.72368335c.8117986-.52309295 1.8544138-.52309295 2.6662124 0l13.5384616 8.72368335c.7033939.45324099 1.1284322 1.23282874 1.1284322 2.06972394v12.1986358c0 .6798746-.5510341 1.2310218-1.2307692 1.2310218h-29.53846157c-.67973508 0-1.23076923-.5511472-1.23076923-1.2310218v-12.1986358c0-.8368952.42503828-1.61648295 1.12843222-2.06972394z" fill="#00b878"/><path d="m4.30769231 3.07692308h23.38461539c.6797351 0 1.2307692.55103415 1.2307692 1.23076923v8.41766759c0 .8833399-.4733195 1.6989546-1.2402734 2.1372139l-10.4615384 5.978022c-.7567574.4324328-1.6857728.4324328-2.4425302 0l-10.46153844-5.978022c-.76695384-.4382593-1.24027338-1.253874-1.24027338-2.1372139v-8.41766759c0-.67973508.55103415-1.23076923 1.23076923-1.23076923z" fill="#fff"/><path d="m27.6923077 3.07692308c.6797351 0 1.2307692.55103415 1.2307692 1.23076923v8.41766759c0 .8833399-.4733195 1.6989546-1.2402734 2.1372139l-10.4615384 5.978022c-.7567574.4324328-1.6857728.4324328-2.4425302 0l-10.46153844-5.978022c-.76695384-.4382593-1.24027338-1.253874-1.24027338-2.1372139v-8.41766759c0-.67973508.55103415-1.23076923 1.23076923-1.23076923zm0 .61538461h-23.38461539c-.31559129 0-.57569672.23756319-.61124447.54361777l-.00414015.07176685v8.41766759c0 .6210984.31200263 1.1975537.82496583 1.5380203l.10523921.0648901 10.46153847 5.978022c.5297301.302703 1.1720022.3228831 1.716738.0605406l.1151596-.0605406 10.4615385-5.978022c.5392644-.3081511.884971-.8650471.9260778-1.4793426l.0041272-.1235678v-8.41766759c0-.31559129-.2375632-.57569672-.5436177-.61124447z" fill="#f4f4f4"/><path d="m28.3076923 12.3076923v2.0459665c-.1763574.1999127-.3864304.3726531-.6248888.508915l-10.4615384 5.978022c-.7567574.4324328-1.6857728.4324328-2.4425302 0l-10.46153844-5.978022c-.23895671-.1365467-.44940934-.3097245-.62592338-.5101688l.00103461-2.0447127z" fill="#fff"/><path d="m15.3117595 12.7096389 1.4218153-1.4548672.8643895.8825143 4.2029217-4.22098711c.557948-.61611118 1.0886592-.68541964 1.5921336-.20792538.5034744.47749427.4783739 1.0144559-.0753014 1.61088504l-4.90387 4.96127655c-.1966937.2196055-.4686551.3294083-.8158839.3294083-.3472289 0-.6547283-.1719446-.9224984-.5158336zm-6.69635279-.8635833c-.44752225-.4862543-.45977743-.97121-.03676569-1.4548672.42301181-.48365717.90920545-.48365717 1.45858088 0l1.9098401 1.9111258 4.2029217-4.22098709c.5579481-.61611118 1.0886592-.68541971 1.5921336-.20792544.5034744.47749426.4783739 1.01445596-.0753014 1.61088504l-4.9038699 4.96127659c-.1966939.2196054-.4686551.3294083-.815884.3294083s-.6547283-.1719446-.9224983-.5158337z" fill="#6964ce"/><rect fill="#dedede" height="13.617" rx="2.723" width="29.277" x="1.362" y="21.787"/><rect fill="#fff" height="12.255" rx="2.723" width="27.915" x="2.043" y="22.468"/><path d="m8.91431176 31v-2.1186441h2.06107564v-.7781202h-2.06107564v-1.3174114h2.25478574v-.7858243h-3.1690975v5zm4.23837744 0v-1.9491525h.6973564l1.1080219 1.9491525h1.1932543l-1.3482224-2.0338983c.377089-.097586.6663628-.2722137.8678213-.5238829s.3021878-.5546995.3021878-.9090909c0-.4673857-.1627165-.8371854-.4881495-1.1093991-.3305986-.2824858-.7929201-.4237288-1.3869645-.4237288h-1.8596171v5zm.8600729-2.5577812h-.8600729v-1.6563945h.9453053c.3099362 0 .5423884.0757576.6973565.2272728.1549681.1515151.2324521.3518233.2324521.6009245s-.0852325.4494093-.2556974.6009245c-.1704649.1515151-.4235794.2272727-.7593436.2272727zm6.4466727 2.5577812v-.7935285h-2.3245214v-1.3174114h2.1773017v-.7858244h-2.1773017v-1.3174114h2.3245214v-.7858243h-3.2388332v5zm4.5405652 0v-.7935285h-2.3245214v-1.3174114h2.1773017v-.7858244h-2.1773017v-1.3174114h2.3245214v-.7858243h-3.2388332v5z" fill="#5396e5"/></g></svg>