<svg xmlns="http://www.w3.org/2000/svg" width="32" height="36" viewBox="0 0 32 36">
  <g fill="none">
    <path fill="#00B878" d="M1.12843222,9.11600306 L14.6668938,0.392319712 C15.4786924,-0.130773237 16.5213076,-0.130773237 17.3331062,0.392319712 L30.8715678,9.11600306 C31.5749617,9.56924405 32,10.3488318 32,11.185727 L32,23.3843628 C32,24.0642374 31.4489659,24.6153846 30.7692308,24.6153846 L1.23076923,24.6153846 C0.551034151,24.6153846 0,24.0642374 0,23.3843628 L0,11.185727 C0,10.3488318 0.425038277,9.56924405 1.12843222,9.11600306 Z"/>
    <path fill="#FFF" d="M4.30769231,3.07692308 L27.6923077,3.07692308 C28.3720428,3.07692308 28.9230769,3.62795723 28.9230769,4.30769231 L28.9230769,12.7253599 C28.9230769,13.6086998 28.4497574,14.4243145 27.6828035,14.8625738 L17.2212651,20.8405958 C16.4645077,21.2730286 15.5354923,21.2730286 14.7787349,20.8405958 L4.31719646,14.8625738 C3.55024262,14.4243145 3.07692308,13.6086998 3.07692308,12.7253599 L3.07692308,4.30769231 C3.07692308,3.62795723 3.62795723,3.07692308 4.30769231,3.07692308 Z"/>
    <path fill="#F4F4F4" d="M27.6923077,3.07692308 C28.3720428,3.07692308 28.9230769,3.62795723 28.9230769,4.30769231 L28.9230769,12.7253599 C28.9230769,13.6086998 28.4497574,14.4243145 27.6828035,14.8625738 L17.2212651,20.8405958 C16.4645077,21.2730286 15.5354923,21.2730286 14.7787349,20.8405958 L4.31719646,14.8625738 C3.55024262,14.4243145 3.07692308,13.6086998 3.07692308,12.7253599 L3.07692308,4.30769231 C3.07692308,3.62795723 3.62795723,3.07692308 4.30769231,3.07692308 L27.6923077,3.07692308 Z M27.6923077,3.69230769 L4.30769231,3.69230769 C3.99210102,3.69230769 3.73199559,3.92987088 3.69644784,4.23592546 L3.69230769,4.30769231 L3.69230769,12.7253599 C3.69230769,13.3464583 4.00431032,13.9229136 4.51727352,14.2633802 L4.62251273,14.3282703 L15.0840512,20.3062923 C15.6137813,20.6089953 16.2560534,20.6291754 16.8007892,20.3668329 L16.9159488,20.3062923 L27.3774873,14.3282703 C27.9167517,14.0201192 28.2624583,13.4632232 28.3035651,12.8489277 L28.3076923,12.7253599 L28.3076923,4.30769231 C28.3076923,3.99210102 28.0701291,3.73199559 27.7640746,3.69644783 L27.6923077,3.69230769 Z"/>
    <path fill="#FFF" d="M28.3076923,12.3076923 L28.3076923,14.3536588 C28.1313349,14.5535715 27.9212619,14.7263119 27.6828035,14.8625738 L17.2212651,20.8405958 C16.4645077,21.2730286 15.5354923,21.2730286 14.7787349,20.8405958 L4.31719646,14.8625738 C4.07823975,14.7260271 3.86778712,14.5528493 3.69127308,14.352405 L3.69230769,12.3076923 L28.3076923,12.3076923 Z"/>
    <path fill="#6964CE" d="M15.3117595,12.7096389 L16.7335748,11.2547717 L17.5979643,12.137286 L21.800886,7.91629889 C22.358834,7.30018771 22.8895452,7.23087925 23.3930196,7.70837351 C23.896494,8.18586778 23.8713935,8.72282941 23.3177182,9.31925855 L18.4138482,14.2805351 C18.2171545,14.5001406 17.9451931,14.6099434 17.5979643,14.6099434 C17.2507354,14.6099434 16.943236,14.4379988 16.6754659,14.0941098 L15.3117595,12.7096389 Z M8.61540671,11.8460556 C8.16788446,11.3598013 8.15562928,10.8748456 8.57864102,10.3911884 C9.00165283,9.90753123 9.48784647,9.90753123 10.0372219,10.3911884 L11.947062,12.3023142 L16.1499837,8.08132711 C16.7079318,7.46521593 17.2386429,7.3959074 17.7421173,7.87340167 C18.2455917,8.35089593 18.2204912,8.88785763 17.6668159,9.4842867 L12.762946,14.4455633 C12.5662521,14.6651687 12.2942909,14.7749716 11.947062,14.7749716 C11.5998331,14.7749716 11.2923337,14.603027 11.0245637,14.2591379 L8.61540671,11.8460556 Z"/>
    <rect width="29.277" height="13.617" x="1.362" y="21.787" fill="#DEDEDE" rx="2.723"/>
    <rect width="27.915" height="12.255" x="2.043" y="22.468" fill="#FFF" rx="2.723"/>
    <path fill="#5396E5" d="M9.99893447,31 L10.3665424,29.9214176 L12.292488,29.9214176 L12.6521044,31 L13.6510389,31 L11.9488546,26 L10.7661161,26 L9,31 L9.99893447,31 Z M12.0607352,29.2357473 L10.6062866,29.2357473 L11.3415024,27.0862866 L12.0607352,29.2357473 Z M16.2482685,31 C17.0367608,31 17.673415,30.7740113 18.1582312,30.3220339 C18.6483751,29.8700565 18.893447,29.2639959 18.893447,28.5038521 C18.893447,27.7385721 18.6483751,27.1299435 18.1582312,26.6779661 C17.673415,26.2259887 17.0367608,26 16.2482685,26 L16.2482685,26 L14.5620671,26 L14.5620671,31 L16.2482685,31 Z M16.2482685,30.1756549 L15.5130527,30.1756549 L15.5130527,26.8243451 L16.2482685,26.8243451 C16.74374,26.8243451 17.14065,26.9809964 17.4389984,27.2942989 C17.7266915,27.6024653 17.8705381,28.0056497 17.8705381,28.5038521 C17.8705381,28.9917822 17.7266915,29.3898305 17.4389984,29.6979969 C17.1353223,30.0164356 16.7384124,30.1756549 16.2482685,30.1756549 L16.2482685,30.1756549 Z M22.2179009,31 L24,26 L23.009057,26 L21.7304209,29.8597843 L20.4677677,26 L19.4688332,26 L21.2269579,31 L22.2179009,31 Z"/>
  </g>
</svg>
