<svg xmlns="http://www.w3.org/2000/svg" width="32" height="36" viewBox="0 0 32 36">
  <g fill="none">
    <path fill="#00B878" d="M1.12843222,9.11600306 L14.6668938,0.392319714 C15.4786924,-0.130773238 16.5213076,-0.130773238 17.3331062,0.392319714 L30.8715678,9.11600306 C31.5749617,9.56924405 32,10.3488318 32,11.185727 L32,23.3843628 C32,24.0642374 31.4489659,24.6153846 30.7692308,24.6153846 L1.23076923,24.6153846 C0.551034154,24.6153846 0,24.0642374 0,23.3843628 L0,11.185727 C0,10.3488318 0.425038279,9.56924405 1.12843222,9.11600306 Z"/>
    <path fill="#FFF" d="M4.30769231,3.07692308 L27.6923077,3.07692308 C28.3720428,3.07692308 28.9230769,3.62795723 28.9230769,4.30769231 L28.9230769,12.7253599 C28.9230769,13.6086998 28.4497574,14.4243145 27.6828035,14.8625738 L17.2212651,20.8405958 C16.4645077,21.2730286 15.5354923,21.2730286 14.7787349,20.8405958 L4.31719646,14.8625738 C3.55024262,14.4243145 3.07692308,13.6086998 3.07692308,12.7253599 L3.07692308,4.30769231 C3.07692308,3.62795723 3.62795723,3.07692308 4.30769231,3.07692308 Z"/>
    <path fill="#F4F4F4" d="M27.6923077,3.07692308 C28.3720428,3.07692308 28.9230769,3.62795723 28.9230769,4.30769231 L28.9230769,12.7253599 C28.9230769,13.6086998 28.4497574,14.4243145 27.6828035,14.8625738 L17.2212651,20.8405958 C16.4645077,21.2730286 15.5354923,21.2730286 14.7787349,20.8405958 L4.31719646,14.8625738 C3.55024262,14.4243145 3.07692308,13.6086998 3.07692308,12.7253599 L3.07692308,4.30769231 C3.07692308,3.62795723 3.62795723,3.07692308 4.30769231,3.07692308 L27.6923077,3.07692308 Z M27.6923077,3.69230769 L4.30769231,3.69230769 C3.99210102,3.69230769 3.73199559,3.92987088 3.69644784,4.23592546 L3.69230769,4.30769231 L3.69230769,12.7253599 C3.69230769,13.3464583 4.00431032,13.9229136 4.51727352,14.2633802 L4.62251273,14.3282703 L15.0840512,20.3062923 C15.6137813,20.6089953 16.2560534,20.6291754 16.8007892,20.3668329 L16.9159488,20.3062923 L27.3774873,14.3282703 C27.9167517,14.0201192 28.2624583,13.4632232 28.3035651,12.8489277 L28.3076923,12.7253599 L28.3076923,4.30769231 C28.3076923,3.99210102 28.0701291,3.73199559 27.7640746,3.69644784 L27.6923077,3.69230769 Z"/>
    <path fill="#FFF" d="M28.3076923,12.3076923 L28.3076923,14.3536588 C28.1313349,14.5535715 27.9212619,14.7263119 27.6828035,14.8625738 L17.2212651,20.8405958 C16.4645077,21.2730286 15.5354923,21.2730286 14.7787349,20.8405958 L4.31719646,14.8625738 C4.07823975,14.7260271 3.86778712,14.5528493 3.69127308,14.352405 L3.69230769,12.3076923 L28.3076923,12.3076923 Z"/>
    <path fill="#6964CE" d="M15.3117595,12.7096389 L16.7335748,11.2547717 L17.5979643,12.137286 L21.800886,7.91629889 C22.358834,7.30018771 22.8895452,7.23087925 23.3930196,7.70837351 C23.896494,8.18586778 23.8713935,8.72282941 23.3177182,9.31925855 L18.4138482,14.2805351 C18.2171545,14.5001406 17.9451931,14.6099434 17.5979643,14.6099434 C17.2507354,14.6099434 16.943236,14.4379988 16.6754659,14.0941098 L15.3117595,12.7096389 Z M8.61540671,11.8460556 C8.16788446,11.3598013 8.15562928,10.8748456 8.57864102,10.3911884 C9.00165283,9.90753123 9.48784647,9.90753123 10.0372219,10.3911884 L11.947062,12.3023142 L16.1499837,8.08132711 C16.7079318,7.46521593 17.2386429,7.3959074 17.7421173,7.87340167 C18.2455917,8.35089593 18.2204912,8.88785763 17.6668159,9.48428671 L12.762946,14.4455633 C12.5662521,14.6651687 12.2942909,14.7749716 11.947062,14.7749716 C11.5998331,14.7749716 11.2923337,14.603027 11.0245637,14.2591379 L8.61540671,11.8460556 Z"/>
    <g transform="translate(1.362 21.787)">
      <rect width="29.277" height="13.617" fill="#DEDEDE" rx="2.723"/>
      <rect width="27.915" height="12.255" x=".681" y=".681" fill="#FFF" rx="2.723"/>
    </g>
    <path fill="#5396E5" d="M0.93412766,5.19657572 L0.93412766,3.34402003 L1.79760701,3.34402003 C2.37325993,3.34402003 2.82200751,3.20403169 3.14384981,2.92405507 C3.46569212,2.64407845 3.62661327,2.24373802 3.62661327,1.72303379 C3.62661327,1.20232956 3.46569212,0.801989134 3.14384981,0.522012516 C2.82200751,0.242035897 2.37325993,0.102047559 1.79760701,0.102047559 L1.79760701,0.102047559 L0,0.102047559 L0,5.19657572 L0.93412766,5.19657572 Z M1.79760701,2.53548936 L0.93412766,2.53548936 L0.93412766,0.902728411 L1.79760701,0.902728411 C2.08543344,0.902728411 2.30261162,0.97991825 2.44914143,1.13429787 C2.59567124,1.28867749 2.66893617,1.4849228 2.66893617,1.72303379 C2.66893617,1.96114478 2.59567124,2.15608175 2.44914143,2.30784481 C2.30261162,2.45960786 2.08543344,2.53548936 1.79760701,2.53548936 L1.79760701,2.53548936 Z M5.51056821,5.19657572 L5.51056821,3.21057322 L6.21705131,3.21057322 L7.33957447,5.19657572 L8.54844556,5.19657572 L7.18257822,3.12422528 C7.5646024,3.02479434 7.85766208,2.84686523 8.0617572,2.59043805 C8.26585232,2.33401087 8.36789987,2.02525156 8.36789987,1.6641602 C8.36789987,1.18793827 8.20305382,0.811147286 7.8733617,0.533787234 C7.5384364,0.245960803 7.07006423,0.102047559 6.46824531,0.102047559 L6.46824531,0.102047559 L4.58429036,0.102047559 L4.58429036,5.19657572 L5.51056821,5.19657572 Z M6.38189737,2.59043805 L5.51056821,2.59043805 L5.51056821,0.902728411 L6.46824531,0.902728411 C6.7822378,0.902728411 7.01773217,0.97991825 7.17472841,1.13429787 C7.33172466,1.28867749 7.41022278,1.49277261 7.41022278,1.74658323 C7.41022278,2.00039384 7.32387484,2.20448896 7.15117897,2.35886859 C6.9784831,2.51324821 6.72205592,2.59043805 6.38189737,2.59043805 L6.38189737,2.59043805 Z M11.5863229,5.30647309 C12.292806,5.30647309 12.8501427,5.08667835 13.2583329,4.64708886 C13.687456,4.17610013 13.9020175,3.50886608 13.9020175,2.64538673 C13.9020175,1.78714057 13.687456,1.12775634 13.2583329,0.667234043 C13.0542378,0.447439299 12.8108936,0.281284958 12.5283004,0.168770964 C12.2457071,0.0562569692 11.9343313,0 11.5941727,0 C10.8824564,0 10.3251198,0.217178121 9.9221627,0.651534418 C9.49303965,1.11205672 9.2784781,1.77667419 9.2784781,2.64538673 C9.2784781,3.50363289 9.49303965,4.16563369 9.9221627,4.63138924 C10.3303529,5.08144516 10.885073,5.30647309 11.5863229,5.30647309 Z M11.5941727,4.46654318 C11.1807493,4.46654318 10.8510572,4.31085522 10.6050964,3.99947935 C10.3591356,3.68810348 10.2361552,3.24066418 10.2361552,2.65716145 C10.2361552,2.07365872 10.3591356,1.62360286 10.6050964,1.30699374 C10.8510572,0.990384629 11.1807493,0.8320801 11.5941727,0.8320801 C12.0075961,0.8320801 12.33598,0.990384629 12.5793242,1.30699374 C12.8226683,1.62360286 12.9443404,2.07496706 12.9443404,2.66108636 C12.9443404,3.24197247 12.8226683,3.68810348 12.5793242,3.99947935 C12.33598,4.31085522 12.0075961,4.46654318 11.5941727,4.46654318 Z" transform="translate(9 26)"/>
  </g>
</svg>
