<?xml version="1.0" encoding="UTF-8"?>
<svg width="30px" height="35px" viewBox="0 0 30 35" version="1.1" xmlns="http://www.w3.org/2000/svg" xmlns:xlink="http://www.w3.org/1999/xlink">
    <!-- Generator: Sketch 63.1 (92452) - https://sketch.com -->
    <title>mt-logo-icon-sales copy@2x</title>
    <desc>Created with Sketch.</desc>
    <defs>
        <path d="M26.4565259,13.0538886 L15.5412586,19.6193948 C15.0826392,19.919893 14.345437,19.9167365 13.8899762,19.6099253 L3.30193312,13.0633581 C2.84836741,12.7571782 2.48071386,12.0703253 2.48071386,11.5217267 L2.48071386,3.57746426 C2.48071386,3.03202221 2.92164543,2.59011314 3.4687038,2.59011314 L26.2992308,2.59011314 C26.8450258,2.59011314 27.2872208,3.02886572 27.2872208,3.57746426 L27.2872208,11.522358 C27.2865891,12.0671688 26.9170404,12.7514966 26.4565259,13.0538886 Z" id="path-1"></path>
        <filter x="-14.1%" y="-26.1%" width="128.2%" height="140.6%" filterUnits="objectBoundingBox" id="filter-2">
            <feOffset dx="0" dy="-1" in="SourceAlpha" result="shadowOffsetOuter1"></feOffset>
            <feGaussianBlur stdDeviation="1" in="shadowOffsetOuter1" result="shadowBlurOuter1"></feGaussianBlur>
            <feColorMatrix values="0 0 0 0 0   0 0 0 0 0   0 0 0 0 0  0 0 0 0.319001311 0" type="matrix" in="shadowBlurOuter1"></feColorMatrix>
        </filter>
        <rect id="path-3" x="1.125" y="20.6849564" width="27.75" height="11.4074202" rx="2"></rect>
        <filter x="-7.2%" y="-8.8%" width="114.4%" height="135.1%" filterUnits="objectBoundingBox" id="filter-4">
            <feOffset dx="0" dy="1" in="SourceAlpha" result="shadowOffsetOuter1"></feOffset>
            <feGaussianBlur stdDeviation="0.5" in="shadowOffsetOuter1" result="shadowBlurOuter1"></feGaussianBlur>
            <feColorMatrix values="0 0 0 0 0   0 0 0 0 0   0 0 0 0 0  0 0 0 0.319001311 0" type="matrix" in="shadowBlurOuter1"></feColorMatrix>
        </filter>
    </defs>
    <g id="Page-1" stroke="none" stroke-width="1" fill="none" fill-rule="evenodd">
        <g id="SALES" transform="translate(-1.000000, -1.000000)">
            <g id="mt-logo-icon-sales-copy" transform="translate(1.000000, 2.000000)">
                <g id="sobre-copy" fill-rule="nonzero">
                    <path d="M-7.99360578e-15,10.72124 C-7.99360578e-15,10.0640581 0.443458399,9.23958205 0.989885058,8.88037311 L14.0997029,0.265671433 C14.6467613,-0.093537511 15.5292561,-0.0884871216 16.0756828,0.280822601 L28.7812081,8.86459064 C29.3257397,9.23263776 29.7673029,10.0672146 29.7673029,10.72124 L29.7673029,22.0246427 C29.7673029,22.6818247 29.2379324,23.215272 28.5822204,23.215272 L1.18508256,23.215272 C0.530633981,23.215272 -7.99360578e-15,22.6786682 -7.99360578e-15,22.0246427 L-7.99360578e-15,10.72124 Z" id="Rectangle-5" fill="#92D08C"></path>
                    <g id="path-1_1_">
                        <use fill="black" fill-opacity="1" filter="url(#filter-2)" xlink:href="#path-1"></use>
                        <use fill="#FFFFFF" xlink:href="#path-1"></use>
                    </g>
                </g>
                <g id="doble-check-copy" transform="translate(7.295505, 7.068884)" fill="#405958">
                    <path d="M6.71082467,5.07920559 L8.0658808,3.68861867 L8.88968418,4.53214089 L12.8952643,0.497649492 C13.4270147,-0.091240087 13.9328072,-0.157486307 14.4126417,0.298910832 C14.8924763,0.755307972 14.8685543,1.26854509 14.340876,1.83862219 L9.66725965,6.58069488 C9.47980126,6.79059758 9.22060944,6.89554892 8.88968418,6.89554892 C8.55875893,6.89554892 8.26569765,6.73120141 8.01050036,6.40250637 L6.71082467,5.07920559 Z" id="Path"></path>
                    <path d="M0.328888617,4.25377795 C-0.097620896,3.78900779 -0.109300687,3.32547881 0.293849244,2.86319103 C0.696999174,2.40090325 1.16036434,2.40090325 1.68394475,2.86319103 L3.50411122,4.68987764 L7.50969135,0.655386235 C8.04144179,0.0664966561 8.54723426,0.000250436222 9.02706878,0.456647575 C9.50690329,0.913044715 9.48298137,1.42628184 8.95530302,1.99635894 L4.28168668,6.73843162 C4.0942283,6.94833432 3.83503648,7.05328567 3.50411122,7.05328567 C3.17318597,7.05328567 2.88012469,6.88893815 2.6249274,6.56024311 L0.328888617,4.25377795 Z" id="Path-Copy"></path>
                </g>
                <g id="Rectangle-Copy" fill-rule="nonzero">
                    <use fill="black" fill-opacity="1" filter="url(#filter-4)" xlink:href="#path-3"></use>
                    <use fill="#FFFFFF" xlink:href="#path-3"></use>
                </g>
                <path d="M5.18169844,29.0672529 C5.45169844,29.0672529 5.71382344,29.0130959 5.96807344,28.904782 C6.22232344,28.796468 6.43044844,28.6328688 6.59244844,28.4139844 C6.75444844,28.1950999 6.83544844,27.9276999 6.83544844,27.6117842 C6.83544844,27.2281722 6.72407344,26.9178979 6.50132344,26.6809611 C6.27857344,26.4440243 5.95794844,26.2533467 5.53944844,26.1089281 L5.53944844,26.1089281 L5.23569844,26.0073837 C4.95669844,25.912609 4.75644844,25.8144495 4.63494844,25.7129052 C4.51344844,25.6113608 4.45269844,25.4883794 4.45269844,25.3439608 C4.45269844,25.1950291 4.51682344,25.0743041 4.64507344,24.981786 C4.77332344,24.8892678 4.93644844,24.8430087 5.13444844,24.8430087 C5.32794844,24.8430087 5.48657344,24.8937809 5.61032344,24.9953252 C5.73407344,25.0968695 5.82069844,25.2221076 5.87019844,25.3710392 L5.87019844,25.3710392 L6.67344844,25.0325581 C6.57894844,24.7572602 6.40569844,24.5169386 6.15369844,24.3115934 C5.90169844,24.1062482 5.55744844,24.0035756 5.12094844,24.0035756 C4.81944844,24.0035756 4.54944844,24.0633739 4.31094844,24.1829706 C4.07244844,24.3025672 3.88794844,24.4661664 3.75744844,24.6737682 C3.62694844,24.8813699 3.56169844,25.1115371 3.56169844,25.3642696 C3.56169844,25.7027507 3.67194844,25.98369 3.89244844,26.2070876 C4.11294844,26.4304851 4.37844844,26.5963408 4.68894844,26.7046548 L4.68894844,26.7046548 L4.98594844,26.8129688 C5.33694844,26.9438481 5.58107344,27.0668296 5.71832344,27.1819132 C5.85557344,27.2969967 5.92419844,27.4448001 5.92419844,27.6253234 C5.92419844,27.8058467 5.85219844,27.9468805 5.70819844,28.0484248 C5.56419844,28.1499691 5.39094844,28.2007413 5.18844844,28.2007413 C4.94544844,28.2007413 4.74294844,28.1240189 4.58094844,27.9705741 C4.41894844,27.8171294 4.30419844,27.6117842 4.23669844,27.3545385 L4.23669844,27.3545385 L3.37944844,27.6930196 C3.50994844,28.1307885 3.73719844,28.4692696 4.06119844,28.7084629 C4.38519844,28.9476563 4.75869844,29.0672529 5.18169844,29.0672529 Z M9.19646906,28.958939 L9.60146906,27.8013336 L11.4509691,27.8013336 L11.8559691,28.958939 L12.8617191,28.958939 L11.0459691,24.1118895 L9.99971906,24.1118895 L8.19071906,28.958939 L9.19646906,28.958939 Z M11.1539691,26.9619004 L9.89171906,26.9619004 L10.3237191,25.7433685 L10.4992191,25.161181 L10.5532191,25.161181 L10.7287191,25.7433685 L11.1539691,26.9619004 Z M17.4839897,28.958939 L17.4839897,28.0924273 L15.4387397,28.0924273 L15.4387397,24.1118895 L14.5274897,24.1118895 L14.5274897,28.958939 L17.4839897,28.958939 Z M22.3222603,28.958939 L22.3222603,28.0924273 L20.1690103,28.0924273 L20.1690103,26.9686701 L22.1062603,26.9686701 L22.1062603,26.1021584 L20.1690103,26.1021584 L20.1690103,24.9784012 L22.3222603,24.9784012 L22.3222603,24.1118895 L19.2577603,24.1118895 L19.2577603,28.958939 L22.3222603,28.958939 Z M25.7295309,29.0672529 C25.9995309,29.0672529 26.2616559,29.0130959 26.5159059,28.904782 C26.7701559,28.796468 26.9782809,28.6328688 27.1402809,28.4139844 C27.3022809,28.1950999 27.3832809,27.9276999 27.3832809,27.6117842 C27.3832809,27.2281722 27.2719059,26.9178979 27.0491559,26.6809611 C26.8264059,26.4440243 26.5057809,26.2533467 26.0872809,26.1089281 L26.0872809,26.1089281 L25.7835309,26.0073837 C25.5045309,25.912609 25.3042809,25.8144495 25.1827809,25.7129052 C25.0612809,25.6113608 25.0005309,25.4883794 25.0005309,25.3439608 C25.0005309,25.1950291 25.0646559,25.0743041 25.1929059,24.981786 C25.3211559,24.8892678 25.4842809,24.8430087 25.6822809,24.8430087 C25.8757809,24.8430087 26.0344059,24.8937809 26.1581559,24.9953252 C26.2819059,25.0968695 26.3685309,25.2221076 26.4180309,25.3710392 L26.4180309,25.3710392 L27.2212809,25.0325581 C27.1267809,24.7572602 26.9535309,24.5169386 26.7015309,24.3115934 C26.4495309,24.1062482 26.1052809,24.0035756 25.6687809,24.0035756 C25.3672809,24.0035756 25.0972809,24.0633739 24.8587809,24.1829706 C24.6202809,24.3025672 24.4357809,24.4661664 24.3052809,24.6737682 C24.1747809,24.8813699 24.1095309,25.1115371 24.1095309,25.3642696 C24.1095309,25.7027507 24.2197809,25.98369 24.4402809,26.2070876 C24.6607809,26.4304851 24.9262809,26.5963408 25.2367809,26.7046548 L25.2367809,26.7046548 L25.5337809,26.8129688 C25.8847809,26.9438481 26.1289059,27.0668296 26.2661559,27.1819132 C26.4034059,27.2969967 26.4720309,27.4448001 26.4720309,27.6253234 C26.4720309,27.8058467 26.4000309,27.9468805 26.2560309,28.0484248 C26.1120309,28.1499691 25.9387809,28.2007413 25.7362809,28.2007413 C25.4932809,28.2007413 25.2907809,28.1240189 25.1287809,27.9705741 C24.9667809,27.8171294 24.8520309,27.6117842 24.7845309,27.3545385 L24.7845309,27.3545385 L23.9272809,27.6930196 C24.0577809,28.1307885 24.2850309,28.4692696 24.6090309,28.7084629 C24.9330309,28.9476563 25.3065309,29.0672529 25.7295309,29.0672529 Z" id="SALES" fill="#4A90E4" fill-rule="nonzero"></path>
            </g>
        </g>
    </g>
</svg>