<svg xmlns="http://www.w3.org/2000/svg" width="24" height="24" viewBox="0 0 24 24">
  <g fill="#413F8A" transform="translate(3 4)">
    <path d="M2.48102187,5.95795101 C2.18236151,6.13928051 2,6.46334134 2,6.81273853 L2,13 C2,13.5522847 2.44771525,14 3,14 L15,14 C15.5522847,14 16,13.5522847 16,13 L16,6.81273853 C16,6.46334134 15.8176385,6.13928051 15.5189781,5.95795101 L9.51897813,2.31509387 C9.20008013,2.12147722 8.79991987,2.12147722 8.48102187,2.31509387 L2.48102187,5.95795101 Z M1.70255466,4.67576974 L7.70255466,1.03291259 C8.49979968,0.548870978 9.50020032,0.548870978 10.2974453,1.03291259 L16.2974453,4.67576974 C17.0440962,5.12909349 17.5,5.93924556 17.5,6.81273853 L17.5,13 C17.5,14.3807119 16.3807119,15.5 15,15.5 L3,15.5 C1.61928813,15.5 0.5,14.3807119 0.5,13 L0.5,6.81273853 C0.5,5.93924556 0.955903783,5.12909349 1.70255466,4.67576974 Z"/>
    <path d="M2.3354102,6.45417961 L8.44098301,9.50696601 C8.79289237,9.68292069 9.20710763,9.68292069 9.55901699,9.50696601 L15.6645898,6.45417961 C16.1632656,6.2048417 16.75,6.56746348 16.75,7.125 L16.75,13 C16.75,13.9664983 15.9664983,14.75 15,14.75 L3,14.75 C2.03350169,14.75 1.25,13.9664983 1.25,13 L1.25,7.125 C1.25,6.56746348 1.83673438,6.2048417 2.3354102,6.45417961 Z"/>
  </g>
</svg>
