<svg xmlns="http://www.w3.org/2000/svg" width="24" height="24" viewBox="0 0 24 24">
  <path fill="#413F8A" fill-rule="evenodd" d="M6,0 L12,0 C12.5522847,-1.01453063e-16 13,0.44771525 13,1 L13,15 C13,15.5522847 12.5522847,16 12,16 L6,16 C5.44771525,16 5,15.5522847 5,15 L5,1 C5,0.44771525 5.44771525,1.01453063e-16 6,0 Z M15,1 L17,1 C17.5522847,1 18,1.44771525 18,2 L18,14 C18,14.5522847 17.5522847,15 17,15 L15,15 C14.4477153,15 14,14.5522847 14,14 L14,2 C14,1.44771525 14.4477153,1 15,1 Z M1,1 L3,1 C3.55228475,1 4,1.44771525 4,2 L4,14 C4,14.5522847 3.55228475,15 3,15 L1,15 C0.44771525,15 6.76353751e-17,14.5522847 0,14 L0,2 C-6.76353751e-17,1.44771525 0.44771525,1 1,1 Z" transform="translate(3 4)"/>
</svg>
