<svg xmlns="http://www.w3.org/2000/svg" width="24" height="24" viewBox="0 0 24 24">
  <path fill="#413F8A" d="M15.8766355,9.882 C15.9136455,9.594 15.9414029,9.306 15.9414029,9 C15.9414029,8.694 15.9136455,8.406 15.8766355,8.118 L17.8289086,6.633 C18.0047057,6.498 18.0509681,6.255 17.9399384,6.057 L16.0894426,2.943 C15.9784128,2.745 15.7285959,2.673 15.5250413,2.745 L13.2211741,3.645 C12.7400452,3.285 12.2219063,2.988 11.6575051,2.763 L11.3059109,0.378 C11.2781535,0.162 11.0838514,0 10.8525394,0 L7.15154784,0 C6.92023586,0 6.7259338,0.162 6.69817637,0.378 L6.34658216,2.763 C5.78218094,2.988 5.26404212,3.294 4.78291321,3.645 L2.47904594,2.745 C2.26623892,2.664 2.02567447,2.745 1.91464472,2.943 L0.064148921,6.057 C-0.0561333061,6.255 -0.000618432059,6.498 0.175178669,6.633 L2.12745174,8.118 C2.09044182,8.406 2.06268439,8.703 2.06268439,9 C2.06268439,9.297 2.09044182,9.594 2.12745174,9.882 L0.175178669,11.367 C-0.000618432059,11.502 -0.0468808271,11.745 0.064148921,11.943 L1.91464472,15.057 C2.02567447,15.255 2.2754914,15.327 2.47904594,15.255 L4.78291321,14.355 C5.26404212,14.715 5.78218094,15.012 6.34658216,15.237 L6.69817637,17.622 C6.7259338,17.838 6.92023586,18 7.15154784,18 L10.8525394,18 C11.0838514,18 11.2781535,17.838 11.3059109,17.622 L11.6575051,15.237 C12.2219063,15.012 12.7400452,14.706 13.2211741,14.355 L15.5250413,15.255 C15.7378483,15.336 15.9784128,15.255 16.0894426,15.057 L17.9399384,11.943 C18.0509681,11.745 18.0047057,11.502 17.8289086,11.367 L15.8766355,9.882 Z M9.00204364,12.15 C7.21631519,12.15 5.76367599,10.737 5.76367599,9 C5.76367599,7.263 7.21631519,5.85 9.00204364,5.85 C10.7877721,5.85 12.2404113,7.263 12.2404113,9 C12.2404113,10.737 10.7877721,12.15 9.00204364,12.15 Z" transform="translate(3 3)"/>
</svg>
