<svg xmlns="http://www.w3.org/2000/svg" width="25" height="12" viewBox="0 0 25 12">
  <g fill="none" transform="translate(0 1)">
    <path fill="#C5C5C5" d="M10.8984069,7.99640474 L13.0199862,5.87482546 L14.4787715,7.28872509 L21.5625597,0.422899636 C22.1574264,-0.153663511 23.107058,-0.138825518 23.6836211,0.456041221 C24.2601843,1.05090796 24.2453463,2.00053951 23.6504795,2.57710266 L15.5227314,10.4547662 C14.9409663,11.0186308 14.0165767,11.0186308 13.4348116,10.4547662 L10.8984069,7.99640474 Z"/>
    <path fill="#66CB87" d="M5.31210485,7.28872509 L12.395893,0.422899636 C12.9907598,-0.153663511 13.9403913,-0.138825518 14.5169545,0.456041221 C15.0935176,1.05090796 15.0786796,2.00053951 14.4838129,2.57710266 L6.35606478,10.4547662 C5.77429966,11.0186308 4.84991004,11.0186308 4.26814492,10.4547662 L0.456041221,6.759958 C-0.138825518,6.18339485 -0.153663511,5.2337633 0.422899636,4.63889656 C0.999462784,4.04402982 1.94909434,4.02919182 2.54396108,4.60575497 L5.31210485,7.28872509 Z"/>
  </g>
</svg>
