<svg xmlns="http://www.w3.org/2000/svg" width="24" height="24" viewBox="0 0 24 24">
  <path fill="#413F8A" d="M1,-1.5 L13,-1.5 C14.3807119,-1.5 15.5,-0.380711875 15.5,1 L15.5,8.5 C15.5,9.88071187 14.3807119,11 13,11 L1,11 C-0.380711875,11 -1.5,9.88071187 -1.5,8.5 L-1.5,1 C-1.5,-0.380711875 -0.380711875,-1.5 1,-1.5 Z M0.917594713,4.4408921e-16 C0.821949767,4.4408921e-16 0.732037053,0.0456059936 0.675535867,0.122778345 C0.57765905,0.256463754 0.606687649,0.444182029 0.740373058,0.542058846 L6.40926115,4.69249477 C6.76099065,4.95001101 7.23900935,4.95001101 7.59073885,4.69249477 L13.2596269,0.542058846 C13.3367993,0.48555766 13.3824053,0.395644947 13.3824053,0.3 C13.3824053,0.134314575 13.2480907,2.22044605e-16 13.0824053,1.33226763e-15 L0.917594713,0 Z" transform="translate(5 7)"/>
</svg>
