<svg width="32" height="32" xmlns="http://www.w3.org/2000/svg" xmlns:xlink="http://www.w3.org/1999/xlink"><defs><rect id="b" x="0" y="0" width="28" height="28" rx="2"/><filter x="-14.3%" y="-7.1%" width="128.6%" height="128.6%" filterUnits="objectBoundingBox" id="a"><feOffset dy="2" in="SourceAlpha" result="shadowOffsetOuter1"/><feGaussianBlur stdDeviation="1" in="shadowOffsetOuter1" result="shadowBlurOuter1"/><feColorMatrix values="0 0 0 0 0 0 0 0 0 0 0 0 0 0 0 0 0 0 0.283825861 0" in="shadowBlurOuter1"/></filter></defs><g fill="none" fill-rule="evenodd"><g transform="translate(2)"><use fill="#000" filter="url(#a)" xlink:href="#b"/><use fill="#F9F9F9" xlink:href="#b"/></g><path d="M22.438 4.07a.4.4 0 0 0-.24.116l-9.144 9.342a.416.416 0 0 0-.12.251l-.285 2.626a.418.418 0 0 0 .116.34.4.4 0 0 0 .333.118l2.57-.297a.4.4 0 0 0 .24-.116l9.144-9.342a.417.417 0 0 0 0-.587l-2.286-2.335a.4.4 0 0 0-.328-.116zm.044.993L24.2 6.818l-.568.58-1.718-1.754.568-.58zM8.197 6.134c-.237.008-.399.227-.404.413v14.864c0 .216.193.413.404.413h14.55a.425.425 0 0 0 .405-.413v-8.877a.426.426 0 0 0-.405-.42.426.426 0 0 0-.404.42v8.464H8.601V6.96h8.286a.425.425 0 0 0 .41-.413.425.425 0 0 0-.41-.413h-8.69zm13.142.097l1.718 1.755-7.61 7.774-1.939.22.215-1.969 7.616-7.78z" opacity=".5" fill-rule="nonzero" fill="#000"/></g></svg>