<svg width="85" height="69" viewBox="418 -613 85 69" xmlns="http://www.w3.org/2000/svg"><g fill-rule="evenodd"><path d="M420.49-576.826l80.018-.004c.917 0 1.66-.747 1.66-1.672 0-.925-.743-1.674-1.66-1.674l-80.017.003c-.916 0-1.66.749-1.66 1.673s.745 1.674 1.66 1.674z"/><path d="M453.34-545.374a1.684 1.684 0 0 0 0-2.365L422.838-578.5l30.502-30.764a1.685 1.685 0 0 0 0-2.365 1.651 1.651 0 0 0-2.348 0l-31.673 31.948a1.671 1.671 0 0 0-.488 1.182c0 .444.176.869.488 1.181l31.673 31.945a1.648 1.648 0 0 0 2.348-.001z"/></g></svg>