<svg width="85" height="85" xmlns="http://www.w3.org/2000/svg"><path d="M42.192 84.444C18.927 84.444 0 65.504 0 42.222S18.927 0 42.192 0s42.192 18.94 42.192 42.222-18.927 42.222-42.192 42.222zm0-77.407c-19.387 0-35.16 15.784-35.16 35.185 0 19.401 15.773 35.185 35.16 35.185 19.387 0 35.16-15.784 35.16-35.185 0-19.4-15.773-35.185-35.16-35.185zm-3.516 52.778a3.503 3.503 0 0 1-2.486-1.031L22.126 44.71a3.516 3.516 0 0 1 0-4.975 3.51 3.51 0 0 1 4.972 0L38.296 50.94 56.96 26.037a3.517 3.517 0 0 1 4.919-.704 3.517 3.517 0 0 1 .703 4.926L41.485 58.407a3.507 3.507 0 0 1-2.563 1.397l-.246.01z" fill-rule="evenodd"/></svg>