<svg width="136" height="76" xmlns="http://www.w3.org/2000/svg"><defs><filter x="-27.4%" y="-22.1%" width="154.8%" height="153.5%" filterUnits="objectBoundingBox" id="a"><feOffset dy="2" in="SourceAlpha" result="shadowOffsetOuter1"/><feGaussianBlur stdDeviation="3.5" in="shadowOffsetOuter1" result="shadowBlurOuter1"/><feColorMatrix values="0 0 0 0 0 0 0 0 0 0 0 0 0 0 0 0 0 0 0.13 0" in="shadowBlurOuter1" result="shadowMatrixOuter1"/><feMerge><feMergeNode in="shadowMatrixOuter1"/><feMergeNode in="SourceGraphic"/></feMerge></filter><filter x="-27.4%" y="-24.4%" width="154.8%" height="155.8%" filterUnits="objectBoundingBox" id="b"><feOffset dy="2" in="SourceAlpha" result="shadowOffsetOuter1"/><feGaussianBlur stdDeviation="3.5" in="shadowOffsetOuter1" result="shadowBlurOuter1"/><feColorMatrix values="0 0 0 0 0 0 0 0 0 0 0 0 0 0 0 0 0 0 0.13 0" in="shadowBlurOuter1" result="shadowMatrixOuter1"/><feMerge><feMergeNode in="shadowMatrixOuter1"/><feMergeNode in="SourceGraphic"/></feMerge></filter><filter x="-28%" y="-21.6%" width="156.1%" height="152.3%" filterUnits="objectBoundingBox" id="c"><feOffset dy="2" in="SourceAlpha" result="shadowOffsetOuter1"/><feGaussianBlur stdDeviation="3.5" in="shadowOffsetOuter1" result="shadowBlurOuter1"/><feColorMatrix values="0 0 0 0 0 0 0 0 0 0 0 0 0 0 0 0 0 0 0.13 0" in="shadowBlurOuter1" result="shadowMatrixOuter1"/><feMerge><feMergeNode in="shadowMatrixOuter1"/><feMergeNode in="SourceGraphic"/></feMerge></filter></defs><g fill="none" fill-rule="evenodd"><g filter="url(#a)" transform="rotate(-23 62.214 -3.237)"><path fill="#FFF" d="M.019.415h41.169V42.79H.019z"/><path d="M9.902 21.786l2.531-7.477h1.934l2.548 7.483.635.136v.732h-3.468v-.732l.79-.142-.395-1.349H11.72l-.383 1.371.87.12v.732h-2.95l-.011-.732.657-.142zm4.328-2.19l-.991-3.38-.17-.77-.17.77-.942 3.38h2.273zm4.757 2.196V15.27l-.817-.153v-.77h1.677c.2 0 .442-.009.723-.027.493-.025.88-.038 1.161-.038.815 0 1.458.094 1.929.284.47.19.805.463 1.002.822.198.358.296.813.296 1.363 0 .63-.131 1.17-.394 1.619-.263.45-.646.794-1.148 1.032-.502.239-1.102.358-1.8.358-.171 0-.332-.004-.482-.01a2.113 2.113 0 0 1-.296-.028v2.064l1.452.142v.732h-4.158v-.732l.855-.136zm3.66-3.294c.266-.338.4-.906.4-1.704 0-.612-.125-1.06-.373-1.343-.249-.284-.623-.426-1.123-.426-.212 0-.399.014-.56.043-.04.008-.092.015-.158.022v3.862c.172.036.422.054.75.054.442 0 .797-.17 1.063-.508zm3.277 3.288l2.53-7.477h1.935l2.547 7.483.636.136v.732h-3.468v-.732l.789-.142-.395-1.349h-2.756l-.383 1.371.871.12v.732h-2.953l-.01-.732.657-.142zm4.328-2.19l-.992-3.38-.17-.77-.17.77-.942 3.38h2.274z" fill="#000"/></g><g filter="url(#b)" transform="rotate(3 -77.348 943.543)"><path fill="#FFF" d="M0 0h41.169v42.859H0z"/><path d="M7.418 23.046l.762-6.521-1.101-.153v-.77h3.626l1.43 4.833.203 1.06.18-1.06 1.2-4.833h3.666v.77l-1.19.158.976 6.51.931.143v.731H14.35v-.731l.925-.137-.564-4.812-.214-1.999-.323 1.546-1.506 5.817h-1.343l-1.77-5.413-.481-1.983-.132 2.027-.356 4.812 1.112.142v.731H6.471v-.731l.947-.137zm12.4-.005v-6.51l-.844-.16v-.77h3.747v.77l-1.04.16v6.504l2.158-.12.723-2.114 1.025.153-.324 2.96h-6.3v-.731l.855-.142zm6.828 0l2.53-7.478h1.935l2.547 7.483.636.137v.731h-3.468v-.731l.789-.142-.395-1.35h-2.755l-.384 1.371.871.12v.732H26l-.01-.731.657-.142zm4.328-2.19l-.992-3.382-.17-.77-.17.77-.942 3.381h2.274z" fill="#000"/></g><g filter="url(#c)" transform="rotate(30 29.51 181.235)"><path fill="#FFF" d="M.53.051h39.831v43.065H.53z"/><path d="M4.333 18.686a2.58 2.58 0 0 1 1.037-1.042c.44-.24.937-.36 1.492-.36.227 0 .45.014.667.039.217.025.461.061.732.107.213.033.347.052.403.057l-.092 1.706h-.82l-.269-1.155c-.043-.059-.124-.106-.242-.143a1.64 1.64 0 0 0-.475-.056 1.04 1.04 0 0 0-.708.264c-.2.176-.356.439-.466.79-.11.35-.165.78-.165 1.29a5 5 0 0 0 .152 1.286c.1.379.256.678.466.897.21.22.47.329.782.329.2 0 .355-.024.466-.071a.702.702 0 0 0 .263-.182l.368-.845.744.07-.146 1.284c-.082.008-.159.02-.232.038a7.553 7.553 0 0 0-.282.077 5.75 5.75 0 0 1-.554.137c-.172.033-.386.05-.642.05-.621 0-1.145-.119-1.572-.356a2.276 2.276 0 0 1-.963-1.017c-.215-.44-.322-.968-.322-1.582 0-.62.126-1.157.378-1.612zm5.703 3.894v-5.081l-.56-.1v-.47l1.546-.187h.023l.226.168.008 1.686-.061.707c.17-.152.388-.288.65-.405.262-.117.547-.176.857-.176.327 0 .582.061.765.184a.975.975 0 0 1 .385.554c.074.247.111.578.111.99v2.126l.499.077v.512h-2.163v-.509l.422-.076v-2.126c0-.25-.016-.445-.048-.585a.535.535 0 0 0-.178-.313c-.087-.069-.215-.103-.384-.103-.15 0-.3.028-.447.086-.147.057-.275.13-.385.22v2.817l.456.077v.512H9.622v-.512l.414-.073zm5.771-.004V19.64l-.517-.157v-.585l1.51-.191h.02l.238.168v3.705l.49.073v.512h-2.254v-.512l.513-.077zm-.101-5.479a.661.661 0 0 1 .253-.273.75.75 0 0 1 .397-.101h.004c.145 0 .27.03.374.088a.614.614 0 0 1 .32.554c0 .22-.067.398-.2.537-.133.14-.323.209-.571.209h-.004a.684.684 0 0 1-.341-.085.616.616 0 0 1-.318-.55c0-.138.028-.264.086-.379zm5.497 1.646c.15.03.317.07.498.12.125.039.221.063.288.073l-.054 1.358h-.77l-.2-.818a.279.279 0 0 0-.15-.165.605.605 0 0 0-.264-.053c-.532 0-.798.514-.798 1.544 0 .375.042.688.127.94.084.253.201.441.352.565a.8.8 0 0 0 .522.185c.22 0 .414-.029.583-.086.169-.057.324-.132.468-.224l.21.463a1.517 1.517 0 0 1-.348.271c-.156.095-.34.174-.55.24a2.275 2.275 0 0 1-.662.097c-.46 0-.841-.094-1.143-.283a1.698 1.698 0 0 1-.67-.78 2.911 2.911 0 0 1-.22-1.155c0-.458.093-.864.278-1.217a2.01 2.01 0 0 1 .788-.824 2.33 2.33 0 0 1 1.185-.295c.202 0 .379.015.53.044zm4.148 1.581c0-.19-.02-.343-.063-.455a.453.453 0 0 0-.232-.252c-.112-.056-.273-.084-.483-.084-.26 0-.497.029-.708.086-.21.057-.422.132-.634.224h-.004l-.25-.517a2.15 2.15 0 0 1 .42-.25 3.94 3.94 0 0 1 .687-.252c.262-.073.53-.11.803-.11.41 0 .73.054.965.16.234.105.4.273.5.502.1.23.15.54.15.93v2.343h.418v.485c-.13.028-.294.056-.491.085a3.73 3.73 0 0 1-.518.042 1.04 1.04 0 0 1-.312-.037.253.253 0 0 1-.156-.13.64.64 0 0 1-.046-.273v-.119a1.68 1.68 0 0 1-.51.385 1.59 1.59 0 0 1-.74.166c-.245 0-.47-.05-.673-.151-.203-.1-.365-.25-.485-.446a1.336 1.336 0 0 1-.18-.71c0-.48.225-.841.675-1.085.45-.243 1.072-.368 1.867-.376v-.16zm0 .677c-.427.003-.735.079-.926.23a.7.7 0 0 0-.285.573c0 .234.054.415.162.54a.55.55 0 0 0 .44.19c.09 0 .193-.023.312-.07a.978.978 0 0 0 .297-.178V21zm4.314.642c-.248 0-.458-.018-.629-.053a.881.881 0 0 0-.073.195.763.763 0 0 0-.027.18c0 .112.029.196.085.254a.48.48 0 0 0 .262.118c.12.022.286.033.5.033h.783c.547 0 .956.098 1.227.294.271.196.407.501.407.914 0 .334-.116.63-.347.887a2.274 2.274 0 0 1-.913.598 3.373 3.373 0 0 1-1.194.212h-.004c-.716 0-1.239-.11-1.569-.33-.33-.22-.494-.516-.494-.885 0-.22.069-.426.207-.62.138-.193.31-.335.517-.424a.7.7 0 0 1-.368-.646c0-.176.056-.344.169-.505a1.18 1.18 0 0 1 .456-.382c-.289-.115-.502-.284-.64-.509a1.502 1.502 0 0 1-.207-.803c0-.298.088-.558.264-.782a1.67 1.67 0 0 1 .714-.512 2.66 2.66 0 0 1 .985-.178h.004c.657 0 1.137.128 1.438.383.077-.097.193-.187.347-.27.155-.083.323-.124.505-.124h.237v.944h-.747c.038.138.057.287.057.448.003.31-.073.584-.228.82a1.508 1.508 0 0 1-.673.548c-.294.13-.643.195-1.047.195h-.004zm.07-2.435c-.226 0-.393.076-.503.227-.11.152-.165.38-.165.687 0 .318.053.564.16.736.108.172.283.258.526.258h.004c.225 0 .386-.083.483-.247.097-.164.146-.4.146-.705 0-.332-.051-.574-.153-.727-.103-.153-.268-.23-.495-.23h-.004zm-.84 4.561c0 .612.326.918.981.918h.008a1.3 1.3 0 0 0 .492-.096.902.902 0 0 0 .384-.287.74.74 0 0 0 .148-.466.79.79 0 0 0-.071-.367.41.41 0 0 0-.24-.193 1.464 1.464 0 0 0-.468-.06h-.706c-.13 0-.27-.008-.418-.026-.074.158-.11.35-.11.577zm7.41-4.8c.313.18.552.438.717.776.165.338.247.739.247 1.202 0 .508-.1.935-.299 1.281-.2.347-.465.604-.798.773a2.402 2.402 0 0 1-1.1.252c-.435 0-.809-.09-1.122-.27a1.762 1.762 0 0 1-.717-.776c-.165-.337-.248-.738-.248-1.202 0-.495.1-.915.302-1.262.2-.347.467-.607.801-.782a2.325 2.325 0 0 1 1.095-.262c.435 0 .808.09 1.122.27zm-.576.726c-.124-.3-.326-.449-.607-.449-.266 0-.464.135-.595.405-.13.27-.195.69-.195 1.258 0 .594.064 1.042.193 1.344.13.302.334.453.616.453.263 0 .458-.134.585-.403.126-.27.19-.689.19-1.26 0-.599-.063-1.048-.187-1.348z" fill="#000"/></g></g></svg>