<svg width="198" height="146" viewBox="1153 194 198 146" xmlns="http://www.w3.org/2000/svg"><g fill="none" fill-rule="evenodd"><g transform="rotate(2 -5018.344 33289.975)" opacity=".673"><path d="M17.592 34.979c9.716 0 17.592-7.704 17.592-17.207 0-9.504-7.876-17.208-17.592-17.208C7.876.564 0 8.268 0 17.772c0 9.503 7.876 17.207 17.592 17.207z" fill="#FFA4BE"/><ellipse fill="#FFDE70" cx="29.081" cy="120.878" rx="15.438" ry="15.1"/><path d="M83.652 99.206c17.647 0 31.953-13.992 31.953-31.254 0-17.26-14.306-31.254-31.953-31.254S51.7 50.691 51.7 67.952c0 17.262 14.306 31.254 31.953 31.254z" fill="#FFFB78"/><ellipse fill="#B4FFEC" cx="126.64" cy="125.206" rx="11.035" ry="10.794"/><ellipse fill="#FBBDFF" cx="172.053" cy="54.688" rx="18.392" ry="17.989"/></g><path d="M1272.317 265.984l38.977-5.119m-53.194 31.624l16.79 23.266M1214.5 247.5l-26.272-21.893m28.722 62.204l-22.206 18.665" stroke="#E5E5E5" stroke-linecap="square"/></g></svg>