<svg width="39" height="62" viewBox="-3334 -1630 39 62" xmlns="http://www.w3.org/2000/svg"><path d="M-3327.778-1628.909l12.867 12.994 12.867-12.994a3.633 3.633 0 0 1 5.147 0 3.713 3.713 0 0 1 0 5.21l-15.438 15.583a3.633 3.633 0 0 1-5.147 0l-15.446-15.583a3.717 3.717 0 0 1 0-5.21 3.636 3.636 0 0 1 5.15 0zm30.881 59.001a3.633 3.633 0 0 1-5.147 0l-12.867-12.994-12.867 12.994a3.624 3.624 0 0 1-5.14 0 3.705 3.705 0 0 1 0-5.206l15.437-15.583a3.626 3.626 0 0 1 5.148 0l15.438 15.583a3.71 3.71 0 0 1-.002 5.206z" fill-rule="evenodd"/></svg>