<svg width="21" height="21" viewBox="0 0 95 101" xmlns="http://www.w3.org/2000/svg"><g fill="#fff" fill-rule="evenodd"><path d="M32.692.037c-2.673.348-4.959 2.366-5.64 4.99-.174.67-.23 1.26-.23 2.34v.963H14.18C-.015 8.33 1.281 8.294.8 8.725c-.363.328-.472.563-.502 1.07-.02.37-.005.456.102.697.174.384.405.625.748.794l.292.144 3.033.015 3.032.015.026.164c.015.093.087 1.281.158 2.649.073 1.368.237 4.302.365 6.53.312 5.636.604 10.81.814 14.575.097 1.762.226 4.006.281 4.994.057.983.205 3.638.333 5.892.328 5.906.661 11.802.897 16.008.113 2.013.323 5.711.46 8.221.144 2.505.303 5.364.36 6.353.056.983.26 4.687.461 8.221.47 8.416.496 8.806.61 9.324a7.177 7.177 0 0 0 2.284 3.857c.989.855 2.039 1.373 3.36 1.66.41.087 1.645.092 28.887.092h28.457l.532-.118c3.135-.701 5.41-3.279 5.666-6.413.014-.21.179-3.059.358-6.327.18-3.268.354-6.347.384-6.838.031-.493.169-2.961.308-5.482.287-5.169.492-8.811.717-12.78.149-2.624.415-7.403 1.46-25.973.266-4.79.558-9.932.64-11.423.492-8.704.718-12.78.718-12.97v-.216l3.395-.015c3.351-.015 3.397-.015 3.632-.128.6-.277.933-.794.933-1.45 0-.62-.297-1.106-.83-1.368l-.292-.143-12.704-.026-12.705-.025-.03-1.255c-.02-.907-.052-1.368-.118-1.654-.297-1.359-.896-2.445-1.87-3.423-.788-.788-1.603-1.296-2.627-1.639-1.046-.354.312-.323-15.486-.333-8.104-.005-14.445.01-14.646.036zm28.698 3.15a3.515 3.515 0 0 1 1.905 1.046c.405.415.677.86.855 1.408.128.385.14.487.16 1.547l.02 1.142H29.936l.021-1.116c.03-1.235.082-1.496.43-2.167a3.72 3.72 0 0 1 2.623-1.89c.134-.021 6.485-.042 14.113-.046 12.5-.005 13.908.004 14.267.077zm21.525 8.417c0 .077-.103 1.972-.23 4.21-.226 4.073-.513 9.175-.897 16.003-.277 4.949-.538 9.59-.691 12.295-.073 1.24-.221 3.913-.333 5.942l-.385 6.839c-.098 1.731-.308 5.42-.461 8.196-.153 2.776-.328 5.85-.384 6.839l-.846 15.086c-.348 6.224-.363 6.496-.465 6.88-.39 1.506-1.738 2.72-3.274 2.956-.25.036-8.734.05-28.38.04-26.494-.015-28.036-.02-28.328-.102a6.627 6.627 0 0 1-.794-.333c-.415-.205-.563-.317-1.004-.758-.465-.461-.543-.569-.778-1.05-.323-.666-.4-1.035-.472-2.357a4302.59 4302.59 0 0 0-.64-11.5c-.128-2.254-.486-8.616-.794-14.138-.307-5.523-.666-11.895-.794-14.165-.128-2.27-.302-5.347-.384-6.838-.087-1.495-.21-3.755-.282-5.02-.071-1.27-.174-3.1-.23-4.073-.056-.973-.354-6.31-.666-11.858-.313-5.553-.6-10.676-.64-11.393a57.391 57.391 0 0 1-.077-1.573v-.277h72.229v.149z"/><path d="M31.135 22.439a1.61 1.61 0 0 0-1.112 1.07c-.066.24-.077 3.621-.066 30.26l.016 29.992.122.251c.36.733 1.22 1.081 1.968.8.399-.149.752-.502.896-.887l.112-.297V53.671c0-26.669-.01-29.983-.076-30.219-.102-.338-.497-.778-.83-.922a1.666 1.666 0 0 0-1.03-.091zm15.717-.027a1.65 1.65 0 0 0-1.148.923l-.107.236V83.71l.133.287c.159.338.43.615.757.774.36.178.953.169 1.348-.026a1.57 1.57 0 0 0 .717-.718l.118-.214.016-30.044c.01-26.67 0-30.07-.067-30.312-.102-.343-.492-.783-.83-.927-.287-.118-.682-.169-.937-.118zm14.563.006c-.513.108-1.024.558-1.168 1.04-.066.23-.077 3.647-.077 30.213v29.957l.107.292c.134.349.462.696.805.856.349.159.968.159 1.3-.005.313-.155.6-.44.76-.753l.127-.257v-60.19l-.107-.236c-.312-.677-1.045-1.06-1.747-.917z"/></g></svg>