<svg width="317" height="295" xmlns="http://www.w3.org/2000/svg"><g fill="none" fill-rule="evenodd"><path fill="#FFE06A" d="M0 0h317v295H0z"/><path d="M83.078 87.877c-.225.36-.461.63-.709.81-.247.18-.566.27-.956.27-.345 0-.716-.108-1.114-.326-.397-.217-.847-.461-1.35-.731a11.203 11.203 0 0 0-1.721-.731c-.645-.218-1.38-.326-2.205-.326-1.425 0-2.486.303-3.184.91-.697.608-1.046 1.43-1.046 2.465 0 .66.21 1.207.63 1.642.42.435.971.81 1.654 1.125.682.315 1.462.604 2.34.866.877.263 1.773.555 2.689.878.915.322 1.81.701 2.688 1.136a8.95 8.95 0 0 1 2.34 1.665c.683.675 1.234 1.496 1.654 2.464.42.967.63 2.133.63 3.499 0 1.515-.262 2.932-.788 4.252a9.957 9.957 0 0 1-2.283 3.454c-.998.982-2.228 1.755-3.69 2.317-1.463.563-3.124.844-4.984.844-1.02 0-2.059-.105-3.116-.315a18.506 18.506 0 0 1-3.072-.889 17.81 17.81 0 0 1-2.79-1.361 11.855 11.855 0 0 1-2.272-1.755l2.25-3.555c.165-.27.397-.487.698-.653.3-.165.622-.247.967-.247.45 0 .904.142 1.361.428.458.285.975.6 1.553.944.577.346 1.241.66 1.991.946.75.285 1.635.427 2.655.427 1.38 0 2.452-.304 3.218-.911.765-.608 1.147-1.571 1.147-2.891 0-.766-.21-1.388-.63-1.868-.42-.48-.971-.877-1.654-1.192a15.237 15.237 0 0 0-2.329-.833c-.87-.24-1.762-.506-2.677-.799a19.589 19.589 0 0 1-2.677-1.08 8.45 8.45 0 0 1-2.33-1.687c-.682-.698-1.233-1.568-1.653-2.61-.42-1.043-.63-2.329-.63-3.859a9.293 9.293 0 0 1 2.925-6.727c.96-.916 2.137-1.647 3.532-2.194 1.396-.548 2.993-.822 4.793-.822 1.005 0 1.984.08 2.936.237.953.157 1.856.39 2.712.697.855.308 1.653.675 2.396 1.103.742.427 1.406.911 1.991 1.451l-1.89 3.532zm19.899 20.116c1.02 0 1.931-.17 2.734-.507a5.53 5.53 0 0 0 2.036-1.451c.555-.63.979-1.399 1.271-2.306.293-.908.439-1.939.439-3.094V81.217h7.605v19.418c0 2.01-.326 3.855-.979 5.535-.652 1.68-1.586 3.127-2.801 4.343-1.215 1.215-2.692 2.16-4.432 2.834-1.74.676-3.698 1.013-5.873 1.013-2.19 0-4.155-.337-5.895-1.013-1.74-.675-3.217-1.62-4.432-2.834-1.216-1.216-2.145-2.663-2.79-4.343-.646-1.68-.968-3.525-.968-5.535V81.217h7.605v19.395c0 1.156.146 2.187.439 3.094.292.908.716 1.68 1.271 2.318a5.471 5.471 0 0 0 2.036 1.462c.803.338 1.714.507 2.734.507zm35.941-8.978c.3.57.59 1.162.867 1.778.277.615.543 1.244.798 1.89.256-.66.525-1.302.81-1.924a46.28 46.28 0 0 1 .878-1.811l8.415-16.56a2.75 2.75 0 0 1 .461-.664 1.51 1.51 0 0 1 .529-.349c.195-.075.416-.12.664-.135.247-.015.536-.022.866-.022h5.805V114h-6.705V95.145c0-.915.045-1.905.135-2.97l-8.685 16.853c-.27.525-.634.922-1.091 1.192a3.02 3.02 0 0 1-1.564.405h-1.035a3.018 3.018 0 0 1-1.564-.405c-.457-.27-.821-.667-1.091-1.192l-8.73-16.876a28.085 28.085 0 0 1 .18 2.993V114h-6.705V81.218h5.805c.33 0 .619.007.866.022.248.015.469.06.664.135.195.075.371.191.529.349.157.157.311.378.461.663l8.438 16.628zm42.4 0c.3.57.588 1.162.866 1.778.277.615.543 1.244.798 1.89.256-.66.525-1.302.81-1.924a46.28 46.28 0 0 1 .878-1.811l8.415-16.56a2.75 2.75 0 0 1 .461-.664 1.51 1.51 0 0 1 .529-.349c.195-.075.416-.12.664-.135.247-.015.536-.022.866-.022h5.805V114h-6.705V95.145c0-.915.045-1.905.135-2.97l-8.685 16.853c-.27.525-.634.922-1.091 1.192a3.02 3.02 0 0 1-1.564.405h-1.035a3.018 3.018 0 0 1-1.564-.405c-.457-.27-.821-.667-1.091-1.192l-8.73-16.876a28.085 28.085 0 0 1 .18 2.993V114h-6.705V81.218h5.805c.33 0 .619.007.866.022.248.015.469.06.664.135.195.075.371.191.529.349.157.157.311.378.461.663l8.438 16.628zm46.741-17.797v5.85h-13.455v7.65h10.305v5.624h-10.305v7.808h13.455V114h-21.105V81.218h21.105zm12.069 20.654V114h-7.605V81.218h10.665c2.37 0 4.391.243 6.064.73 1.672.488 3.037 1.167 4.095 2.037 1.057.87 1.826 1.897 2.306 3.082.48 1.186.72 2.475.72 3.87 0 1.066-.142 2.07-.427 3.016a9.13 9.13 0 0 1-1.272 2.62 9.838 9.838 0 0 1-2.07 2.15 10.992 10.992 0 0 1-2.824 1.552c.51.255.987.57 1.43.945.442.375.828.832 1.158 1.373L259.343 114h-6.885c-1.275 0-2.19-.48-2.745-1.44l-5.445-9.517c-.24-.42-.521-.72-.844-.9-.322-.18-.776-.27-1.361-.27h-1.935zm0-5.242h3.06c1.035 0 1.916-.131 2.644-.394.727-.262 1.323-.626 1.788-1.091a4.156 4.156 0 0 0 1.013-1.631 6.26 6.26 0 0 0 .315-2.014c0-1.44-.469-2.565-1.406-3.375-.938-.81-2.389-1.215-4.354-1.215h-3.06v9.72zM75.104 50.67h1.61c.173 0 .317.043.43.13.113.087.19.197.23.33l2.96 9.96c.053.18.102.373.145.58.043.207.085.423.125.65.047-.227.093-.445.14-.655.047-.21.1-.402.16-.575l3.37-9.96a.732.732 0 0 1 .235-.315.644.644 0 0 1 .425-.145h.56c.173 0 .315.043.425.13a.71.71 0 0 1 .235.33l3.35 9.96c.12.347.227.743.32 1.19.04-.22.077-.43.11-.63s.077-.387.13-.56l2.97-9.96a.625.625 0 0 1 .225-.32.659.659 0 0 1 .425-.14h1.51L90.724 65h-1.74l-3.63-10.93a6.048 6.048 0 0 1-.2-.72l-.095.385c-.03.123-.062.235-.095.335L81.314 65h-1.74l-4.47-14.33zm30.954 0v1.58h-6.88v4.76h5.57v1.52h-5.57v4.89h6.88V65h-8.83V50.67h8.83zM120.782 65h-1.5a.645.645 0 0 1-.42-.13.8.8 0 0 1-.24-.33l-1.34-3.46h-6.43l-1.34 3.46a.781.781 0 0 1-.24.32.639.639 0 0 1-.42.14h-1.5l5.73-14.33h1.97l5.73 14.33zm-9.39-5.32h5.35l-2.25-5.83c-.147-.36-.29-.81-.43-1.35-.073.273-.145.525-.215.755a8.77 8.77 0 0 1-.205.605l-2.25 5.82zm8.324-9.01h1.55c.173 0 .313.043.42.13a.8.8 0 0 1 .24.33l4.05 10.11c.093.227.178.473.255.74.077.267.152.543.225.83.06-.287.125-.563.195-.83s.152-.513.245-.74l4.03-10.11a.838.838 0 0 1 .24-.315.625.625 0 0 1 .42-.145h1.56L127.306 65h-1.75l-5.84-14.33zM145.55 65h-1.5a.645.645 0 0 1-.42-.13.8.8 0 0 1-.24-.33l-1.34-3.46h-6.43l-1.34 3.46a.781.781 0 0 1-.24.32.639.639 0 0 1-.42.14h-1.5l5.73-14.33h1.97L145.55 65zm-9.39-5.32h5.35l-2.25-5.83c-.147-.36-.29-.81-.43-1.35-.073.273-.145.525-.215.755a8.77 8.77 0 0 1-.205.605l-2.25 5.82zm17.478-.04V65h-1.93V50.67h4.23c.907 0 1.695.105 2.365.315.67.21 1.225.508 1.665.895.44.387.768.853.985 1.4.217.547.325 1.157.325 1.83 0 .667-.117 1.277-.35 1.83a3.937 3.937 0 0 1-1.025 1.43c-.45.4-1.008.712-1.675.935-.667.223-1.43.335-2.29.335h-2.3zm0-1.54h2.3c.553 0 1.042-.073 1.465-.22a3.004 3.004 0 0 0 1.065-.615c.287-.263.503-.578.65-.945.147-.367.22-.77.22-1.21 0-.913-.282-1.627-.845-2.14-.563-.513-1.415-.77-2.555-.77h-2.3v5.9zm12.364.92V65h-1.93V50.67h4.05c.907 0 1.69.092 2.35.275.66.183 1.205.448 1.635.795.43.347.748.765.955 1.255.207.49.31 1.038.31 1.645 0 .507-.08.98-.24 1.42a3.75 3.75 0 0 1-.695 1.185c-.303.35-.673.648-1.11.895a5.495 5.495 0 0 1-1.485.56c.24.14.453.343.64.61l4.18 5.69h-1.72c-.353 0-.613-.137-.78-.41l-3.72-5.12a1.083 1.083 0 0 0-.37-.345c-.133-.07-.333-.105-.6-.105h-1.47zm0-1.41h2.03c.567 0 1.065-.068 1.495-.205.43-.137.79-.33 1.08-.58.29-.25.508-.548.655-.895.147-.347.22-.73.22-1.15 0-.853-.282-1.497-.845-1.93-.563-.433-1.402-.65-2.515-.65h-2.12v5.41zm19.724-6.94v1.58h-6.88v4.76h5.57v1.52h-5.57v4.89h6.88V65h-8.83V50.67h8.83zm9.984 9.15c.093.16.175.328.245.505s.138.355.205.535c.067-.187.137-.365.21-.535a6.55 6.55 0 0 1 .25-.515l4.85-8.81c.087-.153.177-.247.27-.28.093-.033.227-.05.4-.05h1.43V65h-1.7V54.47a10.845 10.845 0 0 1 .04-.94L197 62.49c-.167.3-.4.45-.7.45h-.28c-.3 0-.533-.15-.7-.45l-5.02-8.99a9.32 9.32 0 0 1 .06.97V65h-1.7V50.67h1.43c.173 0 .307.017.4.05.093.033.183.127.27.28l4.95 8.82zM209.504 65h-1.94V50.67h1.94V65zm9.554-1.54c.593 0 1.123-.1 1.59-.3.467-.2.862-.48 1.185-.84.323-.36.57-.79.74-1.29.17-.5.255-1.05.255-1.65v-8.71h1.93v8.71c0 .827-.132 1.593-.395 2.3a5.344 5.344 0 0 1-1.13 1.835 5.167 5.167 0 0 1-1.795 1.215c-.707.293-1.5.44-2.38.44-.88 0-1.673-.147-2.38-.44a5.219 5.219 0 0 1-1.8-1.215 5.305 5.305 0 0 1-1.135-1.835 6.536 6.536 0 0 1-.395-2.3v-8.71h1.93v8.7c0 .6.085 1.15.255 1.65.17.5.417.93.74 1.29s.72.642 1.19.845c.47.203 1.002.305 1.595.305zm16.224-3.64c.093.16.175.328.245.505s.138.355.205.535c.067-.187.137-.365.21-.535a6.55 6.55 0 0 1 .25-.515l4.85-8.81c.087-.153.177-.247.27-.28.093-.033.227-.05.4-.05h1.43V65h-1.7V54.47a10.845 10.845 0 0 1 .04-.94l-4.91 8.96c-.167.3-.4.45-.7.45h-.28c-.3 0-.533-.15-.7-.45l-5.02-8.99a9.32 9.32 0 0 1 .06.97V65h-1.7V50.67h1.43c.173 0 .307.017.4.05.093.033.183.127.27.28l4.95 8.82zm-115.268 72.057c-.225.36-.46.63-.708.81-.248.18-.566.27-.956.27-.346 0-.717-.108-1.114-.326-.398-.217-.848-.461-1.35-.731a11.203 11.203 0 0 0-1.721-.731c-.646-.218-1.38-.327-2.206-.327-1.425 0-2.486.304-3.183.912-.698.607-1.046 1.428-1.046 2.464 0 .66.21 1.207.63 1.642.42.435.97.81 1.653 1.125a17.71 17.71 0 0 0 2.34.866 58.55 58.55 0 0 1 2.689.878c.915.322 1.811.701 2.689 1.136.877.435 1.657.99 2.34 1.665.682.675 1.233 1.496 1.654 2.464.42.967.63 2.133.63 3.499 0 1.515-.263 2.932-.788 4.252a9.957 9.957 0 0 1-2.284 3.454c-.997.982-2.227 1.755-3.69 2.317-1.462.563-3.123.844-4.984.844-1.02 0-2.058-.105-3.116-.315a18.506 18.506 0 0 1-3.071-.889 17.81 17.81 0 0 1-2.79-1.361 11.855 11.855 0 0 1-2.273-1.755l2.25-3.555c.166-.27.398-.487.698-.653.3-.165.622-.247.968-.247.45 0 .903.142 1.36.427.458.286.976.6 1.553.946.578.345 1.241.66 1.992.945.75.285 1.634.427 2.654.427 1.38 0 2.453-.304 3.218-.911.765-.608 1.147-1.571 1.147-2.892 0-.765-.21-1.387-.63-1.867-.42-.48-.97-.877-1.653-1.192a15.237 15.237 0 0 0-2.329-.833c-.87-.24-1.762-.506-2.678-.799a19.589 19.589 0 0 1-2.677-1.08 8.45 8.45 0 0 1-2.329-1.687c-.682-.698-1.233-1.568-1.654-2.61-.42-1.043-.63-2.329-.63-3.859 0-1.23.248-2.43.743-3.6a9.293 9.293 0 0 1 2.183-3.127c.96-.916 2.137-1.647 3.532-2.194 1.395-.548 2.992-.822 4.793-.822 1.005 0 1.983.08 2.936.237.952.157 1.856.39 2.711.697.855.308 1.654.675 2.396 1.103.743.427 1.406.911 1.992 1.451l-1.89 3.532zM156.79 158h-5.895c-.66 0-1.204-.154-1.632-.461a2.382 2.382 0 0 1-.888-1.181l-1.935-5.715h-12.465l-1.935 5.714c-.15.42-.443.8-.878 1.137-.435.337-.967.506-1.597.506h-5.94l12.69-32.782h7.785L156.788 158zm-21.06-12.532h8.954l-3.014-8.978c-.196-.57-.424-1.241-.687-2.014a51.2 51.2 0 0 1-.776-2.508 44.71 44.71 0 0 1-.742 2.542 36.4 36.4 0 0 1-.72 2.025l-3.016 8.933zm31.463 6.457h12.15V158h-19.755v-32.782h7.606v26.707zm37-26.708v5.85h-13.456v7.65h10.306v5.625h-10.305v7.808h13.454V158h-21.105v-32.782h21.105z" fill="#000"/><path fill="#160C13" d="M89 173h131v35H89z"/><path d="M108.935 200.063a10.89 10.89 0 0 1-2.744-.832c-.87-.396-1.606-.873-2.206-1.431l1.2-1.738c.1-.141.235-.26.406-.356.171-.096.352-.143.544-.143.2 0 .404.052.612.156.209.104.436.231.682.381.246.15.514.302.806.456.292.154.625.281 1 .381l.463-4.725a20.35 20.35 0 0 1-1.788-.587 5.826 5.826 0 0 1-1.6-.912 4.344 4.344 0 0 1-1.156-1.463c-.296-.592-.444-1.333-.444-2.225 0-.658.133-1.3.4-1.925a5.19 5.19 0 0 1 1.169-1.688c.512-.5 1.143-.91 1.894-1.23.75-.322 1.608-.507 2.575-.557l.137-1.387c.025-.234.13-.444.313-.632a.953.953 0 0 1 .712-.281h1.425l-.25 2.463c.9.166 1.675.435 2.325.806.65.37 1.2.768 1.65 1.194l-.95 1.387c-.142.208-.285.36-.431.456a.923.923 0 0 1-.519.144c-.133 0-.283-.03-.45-.088a7.881 7.881 0 0 1-.55-.218l-.644-.281a6.038 6.038 0 0 0-.731-.263l-.438 4.438c.4.116.8.243 1.2.38.4.138.786.297 1.157.476.37.179.716.385 1.037.619.321.233.6.508.838.825.237.316.423.68.556 1.093.133.413.2.881.2 1.406 0 .792-.133 1.536-.4 2.232a5.4 5.4 0 0 1-1.175 1.844 6.087 6.087 0 0 1-1.9 1.306c-.75.337-1.608.543-2.575.618l-.15 1.563a1.05 1.05 0 0 1-.313.631.953.953 0 0 1-.712.281h-1.425l.25-2.575zm4.725-5.325c0-.476-.152-.855-.456-1.138-.304-.283-.706-.52-1.206-.713l-.4 4.125c1.375-.241 2.062-1 2.062-2.274zm-5.3-8.088c0 .492.156.89.469 1.194.312.304.723.56 1.231.769l.375-3.775a4.012 4.012 0 0 0-.969.256 2.072 2.072 0 0 0-.637.406 1.475 1.475 0 0 0-.356.531 1.715 1.715 0 0 0-.113.619zm17.575-5.063c.9 0 1.7.128 2.4.382s1.292.598 1.775 1.031c.483.433.85.935 1.1 1.506.25.571.375 1.173.375 1.806 0 .576-.058 1.082-.175 1.52a3.48 3.48 0 0 1-.519 1.137c-.229.32-.512.593-.85.819a5.055 5.055 0 0 1-1.156.562c2.017.7 3.025 2.07 3.025 4.113 0 .966-.175 1.808-.525 2.525a5.192 5.192 0 0 1-1.406 1.787 6.017 6.017 0 0 1-2.044 1.069 8.23 8.23 0 0 1-2.425.356c-.867 0-1.637-.094-2.313-.281a5.325 5.325 0 0 1-1.8-.875 5.795 5.795 0 0 1-1.38-1.519c-.397-.617-.74-1.35-1.032-2.2l1.725-.7a1.81 1.81 0 0 1 .444-.137c.146-.025.29-.038.431-.038.267 0 .506.052.719.156.212.104.373.256.481.457.375.691.773 1.193 1.194 1.506.42.312.914.469 1.481.469.433 0 .81-.073 1.131-.22.321-.145.588-.333.8-.562.213-.229.373-.49.481-.781.109-.292.163-.587.163-.887a6.22 6.22 0 0 0-.081-1.057 1.38 1.38 0 0 0-.456-.806c-.25-.225-.628-.398-1.132-.519-.504-.12-1.206-.181-2.106-.181v-2.675c.758 0 1.37-.058 1.837-.175.467-.117.828-.277 1.082-.481.254-.204.423-.452.506-.744.083-.292.125-.612.125-.962 0-.717-.173-1.27-.519-1.657-.346-.387-.873-.581-1.581-.581a2.403 2.403 0 0 0-1.45.463 2.248 2.248 0 0 0-.494.5 2.64 2.64 0 0 0-.331.625c-.133.375-.302.645-.506.812-.204.167-.481.25-.832.25a3.778 3.778 0 0 1-.563-.05l-2.049-.362c.133-.909.39-1.7.769-2.375a5.709 5.709 0 0 1 1.412-1.688 5.73 5.73 0 0 1 1.931-1.006 7.984 7.984 0 0 1 2.338-.332zm7.375 16.45a2.112 2.112 0 0 1 .631-1.512 2.207 2.207 0 0 1 1.569-.625c.308 0 .596.056.863.169.266.112.5.264.7.456a2.069 2.069 0 0 1 .637 1.512 2.11 2.11 0 0 1-.638 1.525 2.18 2.18 0 0 1-.7.45 2.27 2.27 0 0 1-.862.163 2.29 2.29 0 0 1-.875-.163 2.121 2.121 0 0 1-.694-.45 2.12 2.12 0 0 1-.631-1.525zm11.55-5.137a5.221 5.221 0 0 1-1.775-.319 4.79 4.79 0 0 1-1.606-.968 4.926 4.926 0 0 1-1.169-1.638c-.3-.658-.45-1.437-.45-2.338 0-.825.152-1.604.456-2.337a5.738 5.738 0 0 1 1.3-1.925 6.226 6.226 0 0 1 2.019-1.306c.783-.321 1.658-.481 2.625-.481.983 0 1.862.15 2.638.45.775.3 1.43.72 1.968 1.262s.95 1.185 1.238 1.931c.287.746.431 1.569.431 2.469a9.398 9.398 0 0 1-.544 3.194c-.17.479-.377.937-.619 1.375a13.89 13.89 0 0 1-.812 1.293l-3.925 5.575c-.167.242-.43.446-.787.613-.359.167-.763.25-1.213.25h-3.575l5.775-6.9.331-.406c.104-.13.207-.26.306-.394-.375.2-.783.35-1.225.45-.441.1-.904.15-1.387.15zm3.975-5.55c0-.442-.065-.831-.194-1.169a2.33 2.33 0 0 0-.537-.844 2.256 2.256 0 0 0-.832-.512 3.123 3.123 0 0 0-1.062-.175c-.392 0-.74.069-1.044.206a2.254 2.254 0 0 0-.775.569 2.509 2.509 0 0 0-.487.856c-.113.33-.169.686-.169 1.069 0 1.817.842 2.725 2.525 2.725.825 0 1.46-.248 1.906-.744.446-.496.669-1.156.669-1.981zm10.525 5.55a5.221 5.221 0 0 1-1.775-.319 4.79 4.79 0 0 1-1.606-.968 4.926 4.926 0 0 1-1.169-1.638c-.3-.658-.45-1.437-.45-2.338 0-.825.152-1.604.456-2.337a5.738 5.738 0 0 1 1.3-1.925 6.226 6.226 0 0 1 2.019-1.306c.783-.321 1.658-.481 2.625-.481.983 0 1.862.15 2.638.45.775.3 1.43.72 1.968 1.262s.95 1.185 1.238 1.931c.287.746.431 1.569.431 2.469a9.398 9.398 0 0 1-.544 3.194c-.17.479-.377.937-.619 1.375a13.89 13.89 0 0 1-.812 1.293l-3.925 5.575c-.167.242-.43.446-.787.613-.359.167-.763.25-1.213.25h-3.575l5.775-6.9.331-.406c.104-.13.207-.26.306-.394-.375.2-.783.35-1.225.45-.441.1-.904.15-1.387.15zm3.975-5.55c0-.442-.065-.831-.194-1.169a2.33 2.33 0 0 0-.537-.844 2.256 2.256 0 0 0-.832-.512 3.123 3.123 0 0 0-1.062-.175c-.392 0-.74.069-1.044.206a2.254 2.254 0 0 0-.775.569 2.509 2.509 0 0 0-.487.856c-.113.33-.169.686-.169 1.069 0 1.817.842 2.725 2.525 2.725.825 0 1.46-.248 1.906-.744.446-.496.669-1.156.669-1.981zm9.595 12.86a1.042 1.042 0 0 1-.415.52c-.183.113-.372.17-.565.17h-.75l6.01-14.97a1.08 1.08 0 0 1 .37-.49.96.96 0 0 1 .57-.17h.75l-5.97 14.94zm6.43-.21v-10.13h1.06c.253 0 .413.123.48.37l.13 1.04a5.19 5.19 0 0 1 1.255-1.13c.463-.293 1.002-.44 1.615-.44.687 0 1.242.19 1.665.57.423.38.728.893.915 1.54a3.17 3.17 0 0 1 1.33-1.61 3.3 3.3 0 0 1 .915-.38c.323-.08.652-.12.985-.12.533 0 1.008.085 1.425.255.417.17.77.418 1.06.745.29.327.512.728.665 1.205.153.477.23 1.022.23 1.635V200h-1.78v-6.45c0-.793-.173-1.395-.52-1.805-.347-.41-.85-.615-1.51-.615-.293 0-.572.052-.835.155a2.012 2.012 0 0 0-1.17 1.21 2.928 2.928 0 0 0-.175 1.055V200h-1.78v-6.45c0-.813-.163-1.42-.49-1.82-.327-.4-.803-.6-1.43-.6-.44 0-.848.118-1.225.355a4.01 4.01 0 0 0-1.035.965V200h-1.78zm20.52-10.29c.74 0 1.408.123 2.005.37a4.228 4.228 0 0 1 1.52 1.05c.417.453.737 1.002.96 1.645.223.643.335 1.362.335 2.155 0 .8-.112 1.52-.335 2.16a4.655 4.655 0 0 1-.96 1.64 4.175 4.175 0 0 1-1.52 1.045c-.597.243-1.265.365-2.005.365s-1.408-.122-2.005-.365a4.222 4.222 0 0 1-1.525-1.045c-.42-.453-.743-1-.97-1.64-.227-.64-.34-1.36-.34-2.16 0-.793.113-1.512.34-2.155.227-.643.55-1.192.97-1.645.42-.453.928-.803 1.525-1.05.597-.247 1.265-.37 2.005-.37zm0 9.04c1 0 1.747-.335 2.24-1.005.493-.67.74-1.605.74-2.805 0-1.207-.247-2.147-.74-2.82s-1.24-1.01-2.24-1.01c-.507 0-.947.087-1.32.26a2.47 2.47 0 0 0-.935.75c-.25.327-.437.728-.56 1.205a6.46 6.46 0 0 0-.185 1.615c0 .6.062 1.137.185 1.61.123.473.31.872.56 1.195.25.323.562.572.935.745.373.173.813.26 1.32.26z" fill="#FFF"/><path d="M16.925 200.063a10.89 10.89 0 0 1-2.744-.832c-.87-.396-1.606-.873-2.206-1.431l1.2-1.738c.1-.141.235-.26.406-.356.171-.096.352-.144.544-.144.2 0 .404.053.613.157.208.104.435.231.68.381.247.15.515.302.807.456.292.154.625.281 1 .381l.462-4.725a20.35 20.35 0 0 1-1.787-.587 5.826 5.826 0 0 1-1.6-.913 4.344 4.344 0 0 1-1.156-1.462c-.296-.592-.444-1.333-.444-2.225 0-.658.133-1.3.4-1.925a5.19 5.19 0 0 1 1.169-1.688c.512-.5 1.143-.91 1.894-1.23.75-.322 1.608-.507 2.575-.557l.137-1.388c.025-.233.13-.443.313-.63a.953.953 0 0 1 .712-.282h1.425l-.25 2.462c.9.167 1.675.436 2.325.807.65.37 1.2.768 1.65 1.194l-.95 1.387c-.142.208-.285.36-.431.456a.923.923 0 0 1-.519.144c-.133 0-.283-.03-.45-.088a7.88 7.88 0 0 1-.55-.218 738.9 738.9 0 0 0-.644-.281 6.038 6.038 0 0 0-.731-.263l-.438 4.438c.4.116.8.243 1.2.38.4.138.786.297 1.157.476.37.179.716.385 1.037.619.321.233.6.508.838.825.237.316.423.68.556 1.093.133.413.2.881.2 1.406 0 .792-.133 1.536-.4 2.232a5.4 5.4 0 0 1-1.175 1.843 6.087 6.087 0 0 1-1.9 1.307c-.75.337-1.608.543-2.575.618l-.15 1.563a1.05 1.05 0 0 1-.313.631.953.953 0 0 1-.712.281h-1.425l.25-2.575zm4.725-5.325c0-.476-.152-.855-.456-1.138-.304-.283-.706-.52-1.206-.712l-.4 4.125c1.375-.242 2.062-1 2.062-2.275zm-5.3-8.088c0 .492.156.89.469 1.194.312.304.723.56 1.231.769l.375-3.775a4.012 4.012 0 0 0-.969.256 2.072 2.072 0 0 0-.637.406 1.475 1.475 0 0 0-.357.531 1.715 1.715 0 0 0-.112.619zm23.525-4.863v1.625c0 .459-.05.83-.15 1.113-.1.283-.196.525-.288.725l-6.362 13.475c-.167.358-.412.66-.738.906-.325.246-.754.369-1.287.369h-2.825l6.5-13.037a6.59 6.59 0 0 1 .569-.963 8.24 8.24 0 0 1 .669-.813H27.95a.813.813 0 0 1-.331-.068.895.895 0 0 1-.275-.188.993.993 0 0 1-.194-.275.73.73 0 0 1-.075-.319v-2.55h12.8zm1.425 16.25a2.112 2.112 0 0 1 .631-1.512 2.207 2.207 0 0 1 1.569-.625c.308 0 .596.056.862.169.267.112.5.264.7.456a2.069 2.069 0 0 1 .638 1.512 2.11 2.11 0 0 1-.637 1.525 2.19 2.19 0 0 1-.7.45 2.27 2.27 0 0 1-.863.163 2.29 2.29 0 0 1-.875-.163 2.121 2.121 0 0 1-.694-.45 2.12 2.12 0 0 1-.631-1.525zm11.55-5.137a5.221 5.221 0 0 1-1.775-.319 4.79 4.79 0 0 1-1.606-.969 4.926 4.926 0 0 1-1.169-1.637c-.3-.658-.45-1.437-.45-2.338 0-.825.152-1.604.456-2.337a5.738 5.738 0 0 1 1.3-1.925 6.226 6.226 0 0 1 2.019-1.306c.783-.321 1.658-.482 2.625-.482.983 0 1.862.15 2.638.45.775.3 1.43.721 1.968 1.263a5.53 5.53 0 0 1 1.238 1.931c.287.746.431 1.569.431 2.469a9.398 9.398 0 0 1-.544 3.194c-.17.479-.377.937-.619 1.375a13.89 13.89 0 0 1-.812 1.293l-3.925 5.575c-.167.242-.43.446-.788.613-.358.167-.762.25-1.212.25H49.05l5.775-6.9.331-.406c.104-.13.206-.26.307-.394-.376.2-.784.35-1.226.45-.441.1-.904.15-1.387.15zm3.975-5.55c0-.442-.065-.831-.194-1.169a2.33 2.33 0 0 0-.537-.844 2.256 2.256 0 0 0-.831-.512 3.123 3.123 0 0 0-1.063-.175c-.392 0-.74.069-1.044.206a2.254 2.254 0 0 0-.775.569 2.509 2.509 0 0 0-.487.856c-.113.33-.169.686-.169 1.069 0 1.817.842 2.725 2.525 2.725.825 0 1.46-.248 1.906-.744.446-.496.669-1.156.669-1.981zm10.525 5.55a5.221 5.221 0 0 1-1.775-.319 4.79 4.79 0 0 1-1.606-.969 4.926 4.926 0 0 1-1.169-1.637c-.3-.658-.45-1.437-.45-2.338 0-.825.152-1.604.456-2.337a5.738 5.738 0 0 1 1.3-1.925 6.226 6.226 0 0 1 2.019-1.306c.783-.321 1.658-.482 2.625-.482.983 0 1.862.15 2.638.45.775.3 1.43.721 1.968 1.263a5.53 5.53 0 0 1 1.238 1.931c.287.746.431 1.569.431 2.469a9.398 9.398 0 0 1-.544 3.194c-.17.479-.377.937-.618 1.375a13.89 13.89 0 0 1-.813 1.293l-3.925 5.575c-.167.242-.43.446-.787.613-.359.167-.763.25-1.213.25H63.55l5.775-6.9.331-.406c.104-.13.206-.26.306-.394-.375.2-.783.35-1.225.45-.441.1-.904.15-1.387.15zm3.975-5.55c0-.442-.065-.831-.194-1.169a2.33 2.33 0 0 0-.537-.844 2.256 2.256 0 0 0-.831-.512 3.123 3.123 0 0 0-1.063-.175c-.392 0-.74.069-1.044.206a2.254 2.254 0 0 0-.775.569 2.509 2.509 0 0 0-.487.856c-.113.33-.169.686-.169 1.069 0 1.817.842 2.725 2.525 2.725.825 0 1.46-.248 1.906-.744.446-.496.669-1.156.669-1.981z" fill="#484848"/><path fill="#FF3838" d="M18.313 202.397l-1.379-4.807 55.753-15.987 1.379 4.807z"/><path d="M49.697 225.387c0 .267-.041.509-.125.726a1.475 1.475 0 0 1-.393.568c-.18.163-.415.288-.707.375a3.684 3.684 0 0 1-1.05.131h-4.35l-.512 3.013c.342-.058.67-.102.987-.131.317-.03.625-.044.925-.044.959 0 1.805.146 2.538.438.733.291 1.35.69 1.85 1.193.5.504.877 1.096 1.131 1.775.254.68.382 1.406.382 2.181 0 .976-.173 1.865-.52 2.67a6.203 6.203 0 0 1-1.443 2.08 6.487 6.487 0 0 1-2.206 1.357c-.854.32-1.79.481-2.806.481a7.457 7.457 0 0 1-1.694-.188 8.16 8.16 0 0 1-2.819-1.243c-.4-.28-.762-.577-1.087-.894l1.2-1.6a1.29 1.29 0 0 1 .437-.381 1.14 1.14 0 0 1 .537-.132c.25 0 .486.07.707.207l.725.45c.262.162.568.31.918.444.35.133.784.2 1.3.2.517 0 .959-.086 1.325-.257.367-.17.665-.404.894-.7.23-.296.396-.641.5-1.037a4.97 4.97 0 0 0 .157-1.269c0-.883-.25-1.556-.75-2.019-.5-.462-1.209-.694-2.125-.694a6.5 6.5 0 0 0-2.4.463l-2.4-.65 1.55-9.113h9.325v1.6zm16.17 7.5c0 1.592-.171 2.971-.513 4.138-.342 1.167-.815 2.133-1.419 2.9-.604.767-1.32 1.337-2.15 1.712a6.46 6.46 0 0 1-2.693.563c-.967 0-1.86-.187-2.682-.563-.82-.375-1.531-.945-2.131-1.712-.6-.767-1.069-1.733-1.406-2.9-.338-1.167-.506-2.546-.506-4.138 0-1.591.168-2.97.506-4.137.337-1.167.806-2.133 1.406-2.9.6-.767 1.31-1.335 2.131-1.706a6.436 6.436 0 0 1 2.682-.556c.966 0 1.864.185 2.693.556.83.37 1.546.94 2.15 1.706.604.767 1.077 1.733 1.419 2.9.342 1.167.513 2.546.513 4.137zm-4 0c0-1.258-.08-2.29-.238-3.093-.158-.804-.369-1.436-.631-1.894-.263-.458-.56-.773-.894-.944a2.199 2.199 0 0 0-1.012-.256c-.342 0-.678.085-1.007.256-.329.171-.62.486-.875.944-.254.458-.458 1.09-.612 1.894-.154.804-.231 1.835-.231 3.093 0 1.267.077 2.3.23 3.1.155.8.36 1.432.613 1.894.254.463.546.78.875.95.33.171.665.257 1.007.257.341 0 .679-.086 1.012-.257.333-.17.631-.487.894-.95.262-.462.473-1.093.631-1.893.158-.8.238-1.834.238-3.1zM75.86 228.2a4.488 4.488 0 0 1-1.326 3.244 4.25 4.25 0 0 1-1.393.919 4.33 4.33 0 0 1-1.656.325 4.56 4.56 0 0 1-1.744-.325 4.046 4.046 0 0 1-1.375-.92 4.204 4.204 0 0 1-.907-1.418 4.939 4.939 0 0 1-.325-1.825c0-.692.109-1.319.325-1.881a4.233 4.233 0 0 1 .907-1.444c.387-.4.846-.71 1.375-.931a4.477 4.477 0 0 1 1.743-.331c.634 0 1.22.11 1.757.33.537.222 1 .532 1.387.932.388.4.69.881.906 1.444.217.562.326 1.19.326 1.881zm-2.976 0a4.39 4.39 0 0 0-.106-1.056 1.88 1.88 0 0 0-.293-.669 1.015 1.015 0 0 0-.444-.35 1.51 1.51 0 0 0-.556-.1c-.2 0-.384.033-.55.1a.947.947 0 0 0-.426.35 1.96 1.96 0 0 0-.275.669c-.066.279-.1.631-.1 1.056 0 .4.034.733.1 1 .067.267.159.48.275.638.117.158.259.27.425.337.167.067.35.1.55.1.2 0 .386-.033.557-.1.17-.067.318-.18.444-.338.125-.158.222-.37.293-.637.071-.267.106-.6.106-1zm8.7-3.837c.126-.142.28-.273.463-.394s.437-.181.763-.181h2.824L71.91 241.45a1.384 1.384 0 0 1-1.15.55h-2.9l13.725-17.637zm4.75 13.362a4.532 4.532 0 0 1-1.325 3.256 4.25 4.25 0 0 1-1.393.919 4.33 4.33 0 0 1-1.657.325 4.56 4.56 0 0 1-1.743-.325 4.046 4.046 0 0 1-1.375-.919 4.19 4.19 0 0 1-.906-1.425 4.988 4.988 0 0 1-.326-1.831c0-.692.109-1.319.326-1.881a4.233 4.233 0 0 1 .906-1.444c.387-.4.846-.71 1.375-.931a4.478 4.478 0 0 1 1.743-.332c.634 0 1.22.11 1.757.332.537.22 1 .531 1.387.931.388.4.69.881.906 1.444.217.562.325 1.19.325 1.881zm-2.974 0c0-.417-.036-.765-.107-1.044a1.88 1.88 0 0 0-.294-.669 1.015 1.015 0 0 0-.443-.35 1.53 1.53 0 0 0-.556-.1c-.2 0-.384.034-.55.1a.947.947 0 0 0-.425.35 1.96 1.96 0 0 0-.276.67c-.066.278-.1.626-.1 1.043 0 .4.034.733.1 1 .067.267.159.48.276.638.116.158.258.27.424.337.167.067.35.1.55.1.2 0 .386-.033.557-.1.17-.067.318-.18.444-.337.125-.159.222-.371.293-.638.071-.267.106-.6.106-1zm15.987-8.887c.984 0 1.88.154 2.688.462a5.89 5.89 0 0 1 2.081 1.325 5.968 5.968 0 0 1 1.35 2.094c.321.82.481 1.743.481 2.769 0 1.033-.16 1.964-.48 2.793a6.01 6.01 0 0 1-1.35 2.113 5.923 5.923 0 0 1-2.082 1.337c-.808.313-1.704.469-2.688.469-.991 0-1.893-.156-2.706-.469a6.04 6.04 0 0 1-2.1-1.337 5.923 5.923 0 0 1-1.362-2.113c-.321-.829-.482-1.76-.482-2.793 0-1.026.16-1.948.482-2.77a5.88 5.88 0 0 1 1.362-2.093 6.01 6.01 0 0 1 2.1-1.325c.813-.308 1.715-.463 2.707-.463zm0 10.487c.892 0 1.548-.315 1.97-.944.42-.629.63-1.585.63-2.869 0-1.283-.21-2.237-.63-2.862-.422-.625-1.078-.938-1.97-.938-.916 0-1.587.313-2.012.938-.425.625-.638 1.58-.638 2.862 0 1.284.213 2.24.638 2.87.425.628 1.096.943 2.013.943zm9.445 2.675v-10.3l-.85-.175a1.755 1.755 0 0 1-.707-.313c-.179-.141-.269-.35-.269-.624v-1.525h1.826v-.738c0-.742.118-1.412.356-2.012.237-.6.579-1.113 1.025-1.538a4.63 4.63 0 0 1 1.631-.988c.642-.233 1.37-.35 2.188-.35.316 0 .61.02.88.057.272.037.553.098.844.181l-.075 1.887a.625.625 0 0 1-.106.332.75.75 0 0 1-.231.212 1.042 1.042 0 0 1-.306.119 1.524 1.524 0 0 1-.331.037c-.342 0-.646.034-.913.1-.267.067-.49.186-.669.357-.179.17-.314.396-.406.675-.092.279-.138.631-.138 1.056v.613h3.05v2.65h-2.924V242h-3.876zm9.194 0v-10.3l-.85-.175a1.755 1.755 0 0 1-.707-.313c-.179-.141-.269-.35-.269-.624v-1.525h1.826v-.738c0-.742.118-1.412.356-2.012.237-.6.579-1.113 1.025-1.538a4.63 4.63 0 0 1 1.631-.988c.642-.233 1.37-.35 2.188-.35.316 0 .61.02.88.057.272.037.553.098.845.181l-.076 1.887a.625.625 0 0 1-.106.332.75.75 0 0 1-.231.212 1.042 1.042 0 0 1-.306.119 1.524 1.524 0 0 1-.331.037c-.342 0-.646.034-.913.1-.267.067-.49.186-.669.357-.179.17-.314.396-.406.675-.092.279-.137.631-.137 1.056v.613h3.05v2.65h-2.925V242h-3.875zm14.162 0v-10.3l-.85-.175a1.755 1.755 0 0 1-.706-.313c-.179-.141-.268-.35-.268-.624v-1.525h1.825v-.738c0-.742.118-1.412.356-2.012.237-.6.579-1.113 1.025-1.538a4.63 4.63 0 0 1 1.631-.988c.642-.233 1.37-.35 2.188-.35.316 0 .61.02.88.057.272.037.553.098.845.181l-.075 1.887a.625.625 0 0 1-.107.332.75.75 0 0 1-.231.212 1.042 1.042 0 0 1-.306.119 1.524 1.524 0 0 1-.332.037c-.341 0-.645.034-.912.1-.267.067-.49.186-.669.357-.179.17-.314.396-.406.675-.092.279-.138.631-.138 1.056v.613h3.05v2.65h-2.925V242h-3.875zm14.394-13.162c.984 0 1.88.154 2.688.462a5.89 5.89 0 0 1 2.081 1.325 5.968 5.968 0 0 1 1.35 2.094c.321.82.481 1.743.481 2.769 0 1.033-.16 1.964-.48 2.793a6.01 6.01 0 0 1-1.35 2.113 5.923 5.923 0 0 1-2.082 1.337c-.808.313-1.704.469-2.688.469-.991 0-1.893-.156-2.706-.469a6.04 6.04 0 0 1-2.1-1.337 5.923 5.923 0 0 1-1.362-2.113c-.321-.829-.482-1.76-.482-2.793 0-1.026.16-1.948.482-2.77a5.88 5.88 0 0 1 1.362-2.093 6.01 6.01 0 0 1 2.1-1.325c.813-.308 1.715-.463 2.707-.463zm0 10.487c.892 0 1.548-.315 1.97-.944.42-.629.63-1.585.63-2.869 0-1.283-.21-2.237-.63-2.862-.422-.625-1.078-.938-1.97-.938-.916 0-1.587.313-2.012.938-.425.625-.638 1.58-.638 2.862 0 1.284.213 2.24.638 2.87.425.628 1.096.943 2.012.943zm8.87 2.675v-12.963h2.3c.191 0 .352.017.48.05.13.034.238.086.326.157.087.07.154.164.2.281.046.117.085.258.119.425l.212 1.213c.475-.734 1.008-1.313 1.6-1.738a3.25 3.25 0 0 1 1.938-.638c.591 0 1.066.142 1.424.425l-.5 2.85c-.033.176-.1.298-.2.37a.679.679 0 0 1-.4.106c-.141 0-.308-.02-.5-.057a3.876 3.876 0 0 0-.725-.056c-1.016 0-1.816.542-2.4 1.625V242h-3.875zm20.987-13.162c.859 0 1.644.133 2.357.4a5.122 5.122 0 0 1 1.837 1.162 5.306 5.306 0 0 1 1.2 1.869c.288.737.431 1.573.431 2.506 0 .292-.012.53-.037.713a1.12 1.12 0 0 1-.137.437.523.523 0 0 1-.27.225 1.259 1.259 0 0 1-.43.063h-7.476c.126 1.083.455 1.868.988 2.356.533.487 1.22.731 2.063.731.45 0 .837-.054 1.162-.163.325-.108.615-.229.869-.362.254-.133.487-.254.7-.363.212-.108.435-.162.668-.162.309 0 .542.112.7.338l1.125 1.387a5.76 5.76 0 0 1-1.293 1.119 6.723 6.723 0 0 1-1.425.675 7.724 7.724 0 0 1-1.463.337c-.487.063-.952.094-1.393.094a7.28 7.28 0 0 1-2.557-.444 5.874 5.874 0 0 1-2.087-1.319c-.596-.583-1.067-1.308-1.413-2.175-.346-.866-.519-1.874-.519-3.024 0-.867.148-1.688.444-2.463a6.065 6.065 0 0 1 1.275-2.037 6.07 6.07 0 0 1 2.013-1.388c.787-.342 1.677-.512 2.668-.512zm.076 2.674c-.742 0-1.321.21-1.738.632-.417.42-.692 1.027-.825 1.819h4.837c0-.309-.04-.609-.118-.9a2.182 2.182 0 0 0-.388-.782 1.972 1.972 0 0 0-.706-.556c-.292-.142-.646-.213-1.063-.213zM191.269 242h-3.525l-5.024-12.963h3.225c.275 0 .506.065.693.194.188.13.315.29.381.482l1.8 5.812c.142.475.278.937.407 1.387.129.45.24.9.331 1.35.092-.45.204-.9.338-1.35.133-.45.274-.912.424-1.387l1.876-5.813a.975.975 0 0 1 .375-.48 1.1 1.1 0 0 1 .65-.195h3.075L191.27 242zm11.844-13.162c.859 0 1.644.133 2.357.4a5.122 5.122 0 0 1 1.837 1.162 5.306 5.306 0 0 1 1.2 1.869c.288.737.431 1.573.431 2.506 0 .292-.012.53-.037.713-.025.183-.07.329-.138.437a.523.523 0 0 1-.268.225 1.259 1.259 0 0 1-.431.063h-7.475c.125 1.083.454 1.868.987 2.356.533.487 1.22.731 2.063.731.45 0 .837-.054 1.162-.163.325-.108.615-.229.869-.362.254-.133.487-.254.7-.363.212-.108.435-.162.668-.162.309 0 .542.112.7.338l1.125 1.387a5.76 5.76 0 0 1-1.293 1.119 6.723 6.723 0 0 1-1.425.675 7.724 7.724 0 0 1-1.463.337c-.487.063-.952.094-1.393.094a7.28 7.28 0 0 1-2.557-.444 5.874 5.874 0 0 1-2.087-1.319c-.596-.583-1.067-1.308-1.413-2.175-.346-.866-.518-1.874-.518-3.024 0-.867.147-1.688.443-2.463a6.065 6.065 0 0 1 1.275-2.037 6.07 6.07 0 0 1 2.013-1.388c.787-.342 1.677-.512 2.668-.512zm.076 2.674c-.742 0-1.321.21-1.738.632-.417.42-.692 1.027-.825 1.819h4.838c0-.309-.04-.609-.12-.9a2.182 2.182 0 0 0-.387-.782 1.972 1.972 0 0 0-.706-.556c-.292-.142-.646-.213-1.063-.213zM211.308 242v-12.963h2.3c.191 0 .352.017.48.05.13.034.238.086.326.157.087.07.154.164.2.281.046.117.085.258.118.425l.213 1.213c.475-.734 1.008-1.313 1.6-1.738a3.25 3.25 0 0 1 1.938-.638c.591 0 1.066.142 1.424.425l-.5 2.85c-.033.176-.1.298-.2.37a.679.679 0 0 1-.4.106c-.141 0-.308-.02-.5-.057a3.876 3.876 0 0 0-.724-.056c-1.017 0-1.817.542-2.4 1.625V242h-3.875zm15.769 3.363c-.117.258-.259.447-.425.568-.167.121-.434.181-.8.181h-2.9l2.5-5.25-5.175-11.825h3.425c.3 0 .533.067.7.2.166.134.283.292.35.476l2.124 5.587c.2.517.363 1.033.488 1.55.083-.267.175-.53.275-.787.1-.259.196-.521.287-.788l1.925-5.563a.948.948 0 0 1 .394-.48 1.12 1.12 0 0 1 .631-.195h3.125l-6.924 16.326zm13.944-16.525c.983 0 1.879.154 2.687.462a5.89 5.89 0 0 1 2.081 1.325 5.968 5.968 0 0 1 1.35 2.094c.321.82.481 1.743.481 2.769 0 1.033-.16 1.964-.48 2.793a6.01 6.01 0 0 1-1.35 2.113 5.923 5.923 0 0 1-2.082 1.337c-.808.313-1.704.469-2.688.469-.991 0-1.893-.156-2.706-.469a6.04 6.04 0 0 1-2.1-1.337 5.923 5.923 0 0 1-1.362-2.113c-.321-.829-.482-1.76-.482-2.793 0-1.026.16-1.948.482-2.77a5.88 5.88 0 0 1 1.362-2.093 6.01 6.01 0 0 1 2.1-1.325c.813-.308 1.715-.463 2.707-.463zm0 10.487c.891 0 1.547-.315 1.968-.944.421-.629.631-1.585.631-2.869 0-1.283-.21-2.237-.63-2.862-.422-.625-1.078-.938-1.97-.938-.916 0-1.587.313-2.012.938-.425.625-.638 1.58-.638 2.862 0 1.284.213 2.24.638 2.87.425.628 1.096.943 2.012.943zM249.89 242v-12.963h2.4c.241 0 .443.055.606.163.162.108.277.27.344.488l.224.75c.25-.234.509-.45.775-.65.267-.2.553-.37.857-.507a5.082 5.082 0 0 1 2.144-.444c.708 0 1.335.123 1.88.37a3.904 3.904 0 0 1 1.382 1.024c.375.438.658.959.85 1.563a6.48 6.48 0 0 1 .288 1.968V242h-3.875v-8.238c0-.633-.146-1.127-.438-1.48-.292-.355-.72-.532-1.288-.532-.425 0-.824.092-1.2.275-.375.183-.733.43-1.075.737V242h-3.875zm20.194-13.162c.858 0 1.643.133 2.356.4a5.122 5.122 0 0 1 1.837 1.162 5.306 5.306 0 0 1 1.2 1.869c.288.737.432 1.573.432 2.506 0 .292-.013.53-.038.713a1.12 1.12 0 0 1-.137.437.523.523 0 0 1-.27.225 1.259 1.259 0 0 1-.43.063h-7.476c.126 1.083.455 1.868.988 2.356.533.487 1.22.731 2.063.731.45 0 .837-.054 1.162-.163.325-.108.615-.229.869-.362.254-.133.487-.254.7-.363.212-.108.435-.162.669-.162.308 0 .541.112.7.338l1.125 1.387a5.76 5.76 0 0 1-1.294 1.119 6.723 6.723 0 0 1-1.425.675 7.724 7.724 0 0 1-1.463.337c-.487.063-.952.094-1.393.094a7.28 7.28 0 0 1-2.557-.444 5.874 5.874 0 0 1-2.087-1.319c-.596-.583-1.067-1.308-1.413-2.175-.346-.866-.519-1.874-.519-3.024 0-.867.148-1.688.444-2.463a6.065 6.065 0 0 1 1.275-2.037 6.07 6.07 0 0 1 2.013-1.388c.787-.342 1.677-.512 2.668-.512zm.075 2.674c-.742 0-1.321.21-1.738.632-.417.42-.692 1.027-.825 1.819h4.837c0-.309-.04-.609-.118-.9a2.182 2.182 0 0 0-.388-.782 1.972 1.972 0 0 0-.706-.556c-.292-.142-.646-.213-1.063-.213z" fill="#E90066"/></g></svg>