<svg class="edit-icon-svg" width="21" height="21" viewBox="2531 -649 104 104" xmlns="http://www.w3.org/2000/svg"><g fill-rule="evenodd"><path d="M2554.989-581.057l.005-.005c19.999-19.999 39.635-40.366 59.996-59.996a9.04 9.04 0 0 1 2.782-1.8 8.998 8.998 0 0 1 3.768-.653 8.949 8.949 0 0 1 2.917.635 8.889 8.889 0 0 1 3.013 2.024 8.985 8.985 0 0 1 1.67 2.405 8.95 8.95 0 0 1 .514 6.173 8.903 8.903 0 0 1-.63 1.613 9.437 9.437 0 0 1-1.652 2.3l-59.827 59.826c-.025.025-.049.049-.083.062a.426.426 0 0 1-.107.087.846.846 0 0 1-.199.135 1.322 1.322 0 0 1-.234.089c-.005.004-.01.01-.024.003-3.797 1.017-7.642 1.852-11.485 2.687a3.02 3.02 0 0 1-1.218-.015 2.955 2.955 0 0 1-1.914-1.389 2.9 2.9 0 0 1-.333-.858 3.217 3.217 0 0 1-.015-1.218c.837-3.805 1.77-7.601 2.661-11.397.004-.003-.003-.018 0-.02.028-.112.071-.218.128-.316a.564.564 0 0 1 .124-.208c.01-.01.012-.033.022-.043l.12-.12zm8.558 10.648l-6.677-6.677-2.028 8.694.005.017.006-.007 8.694-2.027zm54.54-52.534l-8.516-8.516-51.408 51.408c2.849 2.71 5.639 5.5 8.36 8.359 17.134-17.135 34.683-33.869 51.564-51.251zm4.116-4.283l-8.433-8.432-2.1 2.1 8.475 8.473c.69-.71 1.378-1.42 2.058-2.14zm2.047-2.152l1.176-1.238c.419-.44.758-.947 1.018-1.5a5.949 5.949 0 0 0 .4-3.973 5.958 5.958 0 0 0-1.494-2.686l-.116-.114a6.043 6.043 0 0 0-1.703-1.16 5.964 5.964 0 0 0-4.653-.07 5.943 5.943 0 0 0-1.964 1.317l-1.044 1.044 8.38 8.38z"/><path d="M2628.196-553.611a6.52 6.52 0 0 1-.35 2.111 6.3 6.3 0 0 1-.64 1.397 6.977 6.977 0 0 1-3.635 2.995 7.197 7.197 0 0 1-2.19.407c-27.28.51-54.584.51-81.876 0a6.973 6.973 0 0 1-5.743-3.26 7.455 7.455 0 0 1-.664-1.377 6.993 6.993 0 0 1-.407-2.183 2068.51 2068.51 0 0 1 0-82.013 6.984 6.984 0 0 1 .617-2.702 6.93 6.93 0 0 1 1.305-1.948 7.004 7.004 0 0 1 2.737-1.773 7.056 7.056 0 0 1 2.318-.396h52.383v2.333c-17.496 0-35.004-.33-52.5 0a4.678 4.678 0 0 0-1.584.322c-.349.14-.675.32-.99.539a4.647 4.647 0 0 0-1.957 3.743c-.104 27.298-.885 54.61 0 81.894.012.438.094.873.233 1.29.117.362.28.707.49 1.03.535.876 1.397 1.551 2.364 1.898.49.173.99.263 1.515.273 27.245.164 54.525.849 81.76-.004a4.767 4.767 0 0 0 1.514-.309 4.742 4.742 0 0 0 2.318-1.957 4.86 4.86 0 0 0 .664-2.4v-52.561h2.33c0 17.55.139 35.102-.012 52.65z"/></g></svg>