<svg width="326" height="360" viewBox="-2334 69 326 360" xmlns="http://www.w3.org/2000/svg"><g fill="none" fill-rule="evenodd"><path fill="#FFF373" opacity=".502" d="M-2230 69h186v52h-186z"/><path d="M-2285.86 85.112c-.096.181-.235.272-.416.272-.139 0-.317-.099-.536-.296a6.994 6.994 0 0 0-.888-.656 7.02 7.02 0 0 0-1.4-.664c-.56-.203-1.25-.304-2.072-.304-.821 0-1.544.117-2.168.352-.624.235-1.147.555-1.568.96a4.086 4.086 0 0 0-.96 1.408 4.386 4.386 0 0 0-.328 1.68c0 .768.163 1.403.488 1.904.325.501.755.928 1.288 1.28a8.336 8.336 0 0 0 1.816.888c.677.24 1.373.477 2.088.712.715.235 1.41.493 2.088.776a7.529 7.529 0 0 1 1.816 1.064c.533.427.963.952 1.288 1.576.325.624.488 1.4.488 2.328 0 .95-.163 1.843-.488 2.68a6.254 6.254 0 0 1-1.416 2.184c-.619.619-1.376 1.107-2.272 1.464-.896.357-1.92.536-3.072.536-1.493 0-2.779-.264-3.856-.792a9.086 9.086 0 0 1-2.832-2.168l.448-.704c.128-.16.277-.24.448-.24.096 0 .219.064.368.192.15.128.33.285.544.472.213.187.47.39.768.608.299.219.645.421 1.04.608s.848.344 1.36.472a7.212 7.212 0 0 0 1.744.192c.896 0 1.696-.136 2.4-.408a5.253 5.253 0 0 0 1.784-1.112 4.714 4.714 0 0 0 1.112-1.672 5.567 5.567 0 0 0 .384-2.072c0-.8-.163-1.459-.488-1.976a4.205 4.205 0 0 0-1.288-1.296 8.307 8.307 0 0 0-1.816-.872 73.847 73.847 0 0 0-2.088-.688 26.141 26.141 0 0 1-2.088-.752 7.196 7.196 0 0 1-1.816-1.064 4.87 4.87 0 0 1-1.288-1.616c-.325-.645-.488-1.453-.488-2.424 0-.757.144-1.488.432-2.192a5.452 5.452 0 0 1 1.264-1.864c.555-.539 1.24-.97 2.056-1.296.816-.325 1.747-.488 2.792-.488 1.173 0 2.227.187 3.16.56.933.373 1.784.944 2.552 1.712l-.384.736zm9.024 20.144c-1.077 0-1.917-.299-2.52-.896s-.904-1.52-.904-2.768v-10.88h-2.288a.427.427 0 0 1-.288-.096.339.339 0 0 1-.112-.272v-.592l2.72-.192.384-5.696a.581.581 0 0 1 .128-.256.339.339 0 0 1 .272-.112h.72v6.08h5.024v1.136h-5.024v10.8c0 .437.056.813.168 1.128.112.315.267.573.464.776.197.203.43.352.696.448.267.096.555.144.864.144.384 0 .715-.056.992-.168a4.16 4.16 0 0 0 .72-.368 4.54 4.54 0 0 0 .496-.368c.128-.112.23-.168.304-.168.085 0 .17.053.256.16l.416.672c-.405.448-.92.808-1.544 1.08a4.816 4.816 0 0 1-1.944.408zm15.52-7.952c-1.515.053-2.819.173-3.912.36s-1.995.44-2.704.76c-.71.32-1.235.701-1.576 1.144a2.41 2.41 0 0 0-.512 1.512c0 .533.088.995.264 1.384.176.39.41.71.704.96.293.25.632.435 1.016.552.384.117.784.176 1.2.176a6.82 6.82 0 0 0 1.704-.2 6.31 6.31 0 0 0 1.44-.56c.443-.24.856-.525 1.24-.856.384-.33.763-.688 1.136-1.072v-4.16zm-9.36-5.968c.832-.832 1.707-1.461 2.624-1.888.917-.427 1.957-.64 3.12-.64.853 0 1.6.136 2.24.408a4.14 4.14 0 0 1 1.592 1.168c.421.507.739 1.12.952 1.84.213.72.32 1.523.32 2.408V105h-.608c-.32 0-.517-.15-.592-.448l-.224-2.048c-.437.427-.872.81-1.304 1.152-.432.341-.883.63-1.352.864a6.94 6.94 0 0 1-1.52.544 7.824 7.824 0 0 1-1.792.192 5.28 5.28 0 0 1-1.584-.24 3.993 3.993 0 0 1-1.368-.736c-.4-.33-.72-.755-.96-1.272s-.36-1.139-.36-1.864c0-.672.192-1.296.576-1.872.384-.576.987-1.077 1.808-1.504.821-.427 1.875-.768 3.16-1.024 1.285-.256 2.83-.405 4.632-.448v-1.664c0-1.472-.317-2.605-.952-3.4-.635-.795-1.576-1.192-2.824-1.192-.768 0-1.421.107-1.96.32a6.94 6.94 0 0 0-1.368.704c-.373.256-.677.49-.912.704-.235.213-.432.32-.592.32a.484.484 0 0 1-.288-.08.721.721 0 0 1-.192-.208l-.272-.464zm17.392 1.584a9.87 9.87 0 0 1 .84-1.736 5.502 5.502 0 0 1 1.088-1.288c.41-.352.87-.621 1.376-.808a4.852 4.852 0 0 1 1.688-.28c.33 0 .656.03.976.088.32.059.603.163.848.312l-.128 1.056c-.053.17-.155.256-.304.256-.128 0-.323-.037-.584-.112-.261-.075-.605-.112-1.032-.112-.619 0-1.165.093-1.64.28a3.782 3.782 0 0 0-1.28.84c-.379.373-.71.835-.992 1.384-.283.55-.541 1.181-.776 1.896V105h-1.536V89.08h.816c.181 0 .31.037.384.112.075.075.123.203.144.384l.112 3.344zm14.208 12.336c-1.077 0-1.917-.299-2.52-.896s-.904-1.52-.904-2.768v-10.88h-2.288a.427.427 0 0 1-.288-.096.339.339 0 0 1-.112-.272v-.592l2.72-.192.384-5.696a.581.581 0 0 1 .128-.256.339.339 0 0 1 .272-.112h.72v6.08h5.024v1.136h-5.024v10.8c0 .437.056.813.168 1.128.112.315.267.573.464.776.197.203.43.352.696.448.267.096.555.144.864.144.384 0 .715-.056.992-.168a4.16 4.16 0 0 0 .72-.368 4.54 4.54 0 0 0 .496-.368c.128-.112.23-.168.304-.168.085 0 .17.053.256.16l.416.672c-.405.448-.92.808-1.544 1.08a4.816 4.816 0 0 1-1.944.408zm33.488-22.896V105h-1.648V94.152h-14.176V105h-1.648V82.36h1.648v10.56h14.176V82.36h1.648zm7.408 6.72V105h-1.52V89.08h1.52zm.656-5.488c0 .192-.04.37-.12.536-.08.165-.184.312-.312.44s-.277.23-.448.304c-.17.075-.352.112-.544.112-.192 0-.373-.037-.544-.112a1.448 1.448 0 0 1-.752-.744 1.287 1.287 0 0 1-.112-.536 1.4 1.4 0 0 1 .112-.552 1.423 1.423 0 0 1 .752-.76c.17-.075.352-.112.544-.112.192 0 .373.037.544.112a1.461 1.461 0 0 1 .76.76c.08.176.12.36.12.552zm9.968 14.368c.683 0 1.29-.099 1.824-.296a3.785 3.785 0 0 0 1.344-.824 3.53 3.53 0 0 0 .832-1.264c.192-.49.288-1.035.288-1.632s-.099-1.144-.296-1.64a3.552 3.552 0 0 0-.848-1.272 3.788 3.788 0 0 0-1.344-.816c-.528-.192-1.128-.288-1.8-.288-.672 0-1.272.096-1.8.288a3.788 3.788 0 0 0-1.344.816 3.466 3.466 0 0 0-.84 1.272 4.507 4.507 0 0 0-.288 1.64c0 .597.096 1.141.288 1.632.192.49.472.912.84 1.264s.816.627 1.344.824c.528.197 1.128.296 1.8.296zm5.952 8.112c0-.501-.13-.904-.392-1.208-.261-.304-.61-.541-1.048-.712a6.228 6.228 0 0 0-1.512-.36c-.57-.07-1.168-.12-1.792-.152l-1.88-.096a14.846 14.846 0 0 1-1.776-.192c-.405.16-.779.344-1.12.552a4.047 4.047 0 0 0-.88.712 3.174 3.174 0 0 0-.576.872 2.491 2.491 0 0 0-.208 1.016c0 .47.12.904.36 1.304s.592.747 1.056 1.04c.464.293 1.032.525 1.704.696.672.17 1.445.256 2.32.256.81 0 1.565-.09 2.264-.272.699-.181 1.307-.437 1.824-.768.517-.33.923-.725 1.216-1.184.293-.459.44-.96.44-1.504zm1.664-16.288v.528c0 .235-.15.379-.448.432l-2.432.176c.299.405.528.859.688 1.36.16.501.24 1.045.24 1.632 0 .768-.136 1.464-.408 2.088a4.557 4.557 0 0 1-1.152 1.6 5.285 5.285 0 0 1-1.792 1.032c-.699.245-1.47.368-2.312.368-.907 0-1.733-.139-2.48-.416-.448.256-.803.557-1.064.904s-.392.69-.392 1.032c0 .459.163.81.488 1.056.325.245.752.424 1.28.536.528.112 1.13.184 1.808.216.677.032 1.368.067 2.072.104.704.037 1.395.104 2.072.2a6.59 6.59 0 0 1 1.808.504c.528.24.955.576 1.28 1.008.325.432.488 1.005.488 1.72a3.93 3.93 0 0 1-.496 1.904c-.33.608-.808 1.147-1.432 1.616-.624.47-1.379.845-2.264 1.128-.885.283-1.877.424-2.976.424-1.12 0-2.101-.115-2.944-.344-.843-.23-1.55-.539-2.12-.928-.57-.39-1-.84-1.288-1.352a3.278 3.278 0 0 1-.432-1.632c0-.843.277-1.565.832-2.168.555-.603 1.312-1.075 2.272-1.416-.533-.181-.963-.445-1.288-.792-.325-.347-.488-.819-.488-1.416 0-.224.043-.459.128-.704.085-.245.213-.488.384-.728.17-.24.379-.467.624-.68.245-.213.523-.405.832-.576a4.744 4.744 0 0 1-1.768-1.744c-.421-.725-.632-1.573-.632-2.544 0-.768.136-1.464.408-2.088a4.59 4.59 0 0 1 1.16-1.608 5.302 5.302 0 0 1 1.8-1.04c.699-.245 1.475-.368 2.328-.368.704 0 1.352.085 1.944.256a5.74 5.74 0 0 1 1.592.72h4.08zm5.056 1.984a8.953 8.953 0 0 1 2.52-2.144c.944-.533 2.003-.8 3.176-.8.875 0 1.645.139 2.312.416a4.245 4.245 0 0 1 1.656 1.2c.437.523.768 1.152.992 1.888.224.736.336 1.568.336 2.496V105h-1.536V94.824c0-1.493-.341-2.664-1.024-3.512-.683-.848-1.723-1.272-3.12-1.272a5.649 5.649 0 0 0-2.904.792c-.901.528-1.704 1.261-2.408 2.2V105h-1.536V81.72h1.536v10.048zm17.744-10.048V105h-1.536V81.72h1.536zm7.088 7.36V105h-1.52V89.08h1.52zm.656-5.488c0 .192-.04.37-.12.536-.08.165-.184.312-.312.44s-.277.23-.448.304c-.17.075-.352.112-.544.112-.192 0-.373-.037-.544-.112a1.448 1.448 0 0 1-.752-.744 1.287 1.287 0 0 1-.112-.536 1.4 1.4 0 0 1 .112-.552 1.423 1.423 0 0 1 .752-.76c.17-.075.352-.112.544-.112.192 0 .373.037.544.112a1.461 1.461 0 0 1 .76.76c.08.176.12.36.12.552zm9.968 14.368c.683 0 1.29-.099 1.824-.296a3.785 3.785 0 0 0 1.344-.824 3.53 3.53 0 0 0 .832-1.264c.192-.49.288-1.035.288-1.632s-.099-1.144-.296-1.64a3.552 3.552 0 0 0-.848-1.272 3.788 3.788 0 0 0-1.344-.816c-.528-.192-1.128-.288-1.8-.288-.672 0-1.272.096-1.8.288a3.788 3.788 0 0 0-1.344.816 3.466 3.466 0 0 0-.84 1.272 4.507 4.507 0 0 0-.288 1.64c0 .597.096 1.141.288 1.632.192.49.472.912.84 1.264s.816.627 1.344.824c.528.197 1.128.296 1.8.296zm5.952 8.112c0-.501-.13-.904-.392-1.208-.261-.304-.61-.541-1.048-.712a6.228 6.228 0 0 0-1.512-.36c-.57-.07-1.168-.12-1.792-.152l-1.88-.096a14.846 14.846 0 0 1-1.776-.192c-.405.16-.779.344-1.12.552a4.047 4.047 0 0 0-.88.712 3.174 3.174 0 0 0-.576.872 2.491 2.491 0 0 0-.208 1.016c0 .47.12.904.36 1.304s.592.747 1.056 1.04c.464.293 1.032.525 1.704.696.672.17 1.445.256 2.32.256.81 0 1.565-.09 2.264-.272.699-.181 1.307-.437 1.824-.768.517-.33.923-.725 1.216-1.184.293-.459.44-.96.44-1.504zm1.664-16.288v.528c0 .235-.15.379-.448.432l-2.432.176c.299.405.528.859.688 1.36.16.501.24 1.045.24 1.632 0 .768-.136 1.464-.408 2.088a4.557 4.557 0 0 1-1.152 1.6 5.285 5.285 0 0 1-1.792 1.032c-.699.245-1.47.368-2.312.368-.907 0-1.733-.139-2.48-.416-.448.256-.803.557-1.064.904s-.392.69-.392 1.032c0 .459.163.81.488 1.056.325.245.752.424 1.28.536.528.112 1.13.184 1.808.216.677.032 1.368.067 2.072.104.704.037 1.395.104 2.072.2a6.59 6.59 0 0 1 1.808.504c.528.24.955.576 1.28 1.008.325.432.488 1.005.488 1.72a3.93 3.93 0 0 1-.496 1.904c-.33.608-.808 1.147-1.432 1.616-.624.47-1.379.845-2.264 1.128-.885.283-1.877.424-2.976.424-1.12 0-2.101-.115-2.944-.344-.843-.23-1.55-.539-2.12-.928-.57-.39-1-.84-1.288-1.352a3.278 3.278 0 0 1-.432-1.632c0-.843.277-1.565.832-2.168.555-.603 1.312-1.075 2.272-1.416-.533-.181-.963-.445-1.288-.792-.325-.347-.488-.819-.488-1.416 0-.224.043-.459.128-.704.085-.245.213-.488.384-.728.17-.24.379-.467.624-.68.245-.213.523-.405.832-.576a4.744 4.744 0 0 1-1.768-1.744c-.421-.725-.632-1.573-.632-2.544 0-.768.136-1.464.408-2.088a4.59 4.59 0 0 1 1.16-1.608 5.302 5.302 0 0 1 1.8-1.04c.699-.245 1.475-.368 2.328-.368.704 0 1.352.085 1.944.256a5.74 5.74 0 0 1 1.592.72h4.08zm5.056 1.984a8.953 8.953 0 0 1 2.52-2.144c.944-.533 2.003-.8 3.176-.8.875 0 1.645.139 2.312.416a4.245 4.245 0 0 1 1.656 1.2c.437.523.768 1.152.992 1.888.224.736.336 1.568.336 2.496V105h-1.536V94.824c0-1.493-.341-2.664-1.024-3.512-.683-.848-1.723-1.272-3.12-1.272a5.649 5.649 0 0 0-2.904.792c-.901.528-1.704 1.261-2.408 2.2V105h-1.536V81.72h1.536v10.048zm20.208 13.488c-1.077 0-1.917-.299-2.52-.896s-.904-1.52-.904-2.768v-10.88h-2.288a.427.427 0 0 1-.288-.096.339.339 0 0 1-.112-.272v-.592l2.72-.192.384-5.696a.581.581 0 0 1 .128-.256.339.339 0 0 1 .272-.112h.72v6.08h5.024v1.136h-5.024v10.8c0 .437.056.813.168 1.128.112.315.267.573.464.776.197.203.43.352.696.448.267.096.555.144.864.144.384 0 .715-.056.992-.168a4.16 4.16 0 0 0 .72-.368 4.54 4.54 0 0 0 .496-.368c.128-.112.23-.168.304-.168.085 0 .17.053.256.16l.416.672c-.405.448-.92.808-1.544 1.08a4.816 4.816 0 0 1-1.944.408zm8.304-16.176V105h-1.52V89.08h1.52zm.656-5.488c0 .192-.04.37-.12.536-.08.165-.184.312-.312.44s-.277.23-.448.304c-.17.075-.352.112-.544.112-.192 0-.373-.037-.544-.112a1.448 1.448 0 0 1-.752-.744 1.287 1.287 0 0 1-.112-.536 1.4 1.4 0 0 1 .112-.552 1.423 1.423 0 0 1 .752-.76c.17-.075.352-.112.544-.112.192 0 .373.037.544.112a1.461 1.461 0 0 1 .76.76c.08.176.12.36.12.552zm6.224 8.272a9.024 9.024 0 0 1 2.552-2.208c.965-.555 2.04-.832 3.224-.832.875 0 1.645.139 2.312.416a4.245 4.245 0 0 1 1.656 1.2c.437.523.768 1.152.992 1.888.224.736.336 1.568.336 2.496V105h-1.536V94.824c0-1.493-.341-2.664-1.024-3.512-.683-.848-1.723-1.272-3.12-1.272a5.649 5.649 0 0 0-2.904.792c-.901.528-1.704 1.261-2.408 2.2V105h-1.536V89.08h.848c.267 0 .421.133.464.4l.144 2.384zm21.344 6.096c.683 0 1.29-.099 1.824-.296a3.785 3.785 0 0 0 1.344-.824 3.53 3.53 0 0 0 .832-1.264c.192-.49.288-1.035.288-1.632s-.099-1.144-.296-1.64a3.552 3.552 0 0 0-.848-1.272 3.788 3.788 0 0 0-1.344-.816c-.528-.192-1.128-.288-1.8-.288-.672 0-1.272.096-1.8.288a3.788 3.788 0 0 0-1.344.816 3.466 3.466 0 0 0-.84 1.272 4.507 4.507 0 0 0-.288 1.64c0 .597.096 1.141.288 1.632.192.49.472.912.84 1.264s.816.627 1.344.824c.528.197 1.128.296 1.8.296zm5.952 8.112c0-.501-.13-.904-.392-1.208-.261-.304-.61-.541-1.048-.712a6.228 6.228 0 0 0-1.512-.36c-.57-.07-1.168-.12-1.792-.152l-1.88-.096a14.846 14.846 0 0 1-1.776-.192c-.405.16-.779.344-1.12.552a4.047 4.047 0 0 0-.88.712 3.174 3.174 0 0 0-.576.872 2.491 2.491 0 0 0-.208 1.016c0 .47.12.904.36 1.304s.592.747 1.056 1.04c.464.293 1.032.525 1.704.696.672.17 1.445.256 2.32.256.81 0 1.565-.09 2.264-.272.699-.181 1.307-.437 1.824-.768.517-.33.923-.725 1.216-1.184.293-.459.44-.96.44-1.504zm1.664-16.288v.528c0 .235-.15.379-.448.432l-2.432.176c.299.405.528.859.688 1.36.16.501.24 1.045.24 1.632 0 .768-.136 1.464-.408 2.088a4.557 4.557 0 0 1-1.152 1.6 5.285 5.285 0 0 1-1.792 1.032c-.699.245-1.47.368-2.312.368-.907 0-1.733-.139-2.48-.416-.448.256-.803.557-1.064.904s-.392.69-.392 1.032c0 .459.163.81.488 1.056.325.245.752.424 1.28.536.528.112 1.13.184 1.808.216.677.032 1.368.067 2.072.104.704.037 1.395.104 2.072.2a6.59 6.59 0 0 1 1.808.504c.528.24.955.576 1.28 1.008.325.432.488 1.005.488 1.72a3.93 3.93 0 0 1-.496 1.904c-.33.608-.808 1.147-1.432 1.616-.624.47-1.379.845-2.264 1.128-.885.283-1.877.424-2.976.424-1.12 0-2.101-.115-2.944-.344-.843-.23-1.55-.539-2.12-.928-.57-.39-1-.84-1.288-1.352a3.278 3.278 0 0 1-.432-1.632c0-.843.277-1.565.832-2.168.555-.603 1.312-1.075 2.272-1.416-.533-.181-.963-.445-1.288-.792-.325-.347-.488-.819-.488-1.416 0-.224.043-.459.128-.704.085-.245.213-.488.384-.728.17-.24.379-.467.624-.68.245-.213.523-.405.832-.576a4.744 4.744 0 0 1-1.768-1.744c-.421-.725-.632-1.573-.632-2.544 0-.768.136-1.464.408-2.088a4.59 4.59 0 0 1 1.16-1.608 5.302 5.302 0 0 1 1.8-1.04c.699-.245 1.475-.368 2.328-.368.704 0 1.352.085 1.944.256a5.74 5.74 0 0 1 1.592.72h4.08zm5.728-7.424v9.152c0 .48-.005.933-.016 1.36-.01.427-.024.861-.04 1.304-.016.443-.04.91-.072 1.4-.032.49-.064 1.035-.096 1.632h-1.04a141.89 141.89 0 0 0-.096-1.632c-.032-.49-.056-.957-.072-1.4-.016-.443-.03-.877-.04-1.304a58 58 0 0 1-.016-1.36V82.36h1.488zm-2.272 21.408c0-.203.037-.395.112-.576a1.43 1.43 0 0 1 .312-.472c.133-.133.288-.24.464-.32.176-.08.37-.12.584-.12.203 0 .395.04.576.12.181.08.339.187.472.32.133.133.24.29.32.472.08.181.12.373.12.576 0 .213-.04.408-.12.584-.08.176-.187.33-.32.464a1.43 1.43 0 0 1-.472.312 1.498 1.498 0 0 1-.576.112c-.416 0-.765-.141-1.048-.424a1.424 1.424 0 0 1-.424-1.048z" fill="#848484"/><path fill="#B2B2B2" opacity=".147" d="M-2334 189h325.643v240H-2334z"/><path d="M-2296.291 274.74v4.741a8.145 8.145 0 0 1-2.136 1.084c-.756.252-1.607.377-2.552.377-1.058 0-2.01-.162-2.853-.485a6.11 6.11 0 0 1-2.16-1.376 5.983 5.983 0 0 1-1.37-2.154c-.318-.842-.477-1.778-.477-2.808 0-1.03.156-1.965.467-2.804a6.015 6.015 0 0 1 1.342-2.149 5.97 5.97 0 0 1 2.112-1.376c.826-.323 1.755-.485 2.788-.485.51 0 .982.035 1.413.104.432.069.833.17 1.205.306.372.135.718.302 1.04.5.32.197.63.425.926.683l-.265.414c-.088.151-.22.186-.397.104a1.907 1.907 0 0 1-.406-.264 4.165 4.165 0 0 0-.728-.433 6.239 6.239 0 0 0-1.148-.406c-.457-.119-1.013-.179-1.668-.179-.87 0-1.655.139-2.358.415a4.98 4.98 0 0 0-1.795 1.187 5.26 5.26 0 0 0-1.144 1.885c-.268.742-.402 1.574-.402 2.498 0 .936.134 1.778.402 2.526a5.205 5.205 0 0 0 1.162 1.903c.508.522 1.123.92 1.848 1.197.724.277 1.54.415 2.448.415a6.967 6.967 0 0 0 2.065-.287 6.31 6.31 0 0 0 .888-.34c.286-.135.578-.287.874-.457v-3.59h-2.561a.247.247 0 0 1-.175-.067.201.201 0 0 1-.07-.15v-.528h3.685zm6.388-3.477c.674 0 1.277.115 1.81.344.532.23.981.555 1.346.976.366.42.645.928.837 1.522.192.593.288 1.258.288 1.993 0 .735-.096 1.398-.288 1.989a4.323 4.323 0 0 1-.837 1.517 3.641 3.641 0 0 1-1.346.97c-.533.227-1.136.34-1.81.34-.674 0-1.277-.113-1.81-.34a3.684 3.684 0 0 1-1.351-.97 4.283 4.283 0 0 1-.841-1.517c-.192-.591-.288-1.254-.288-1.989 0-.735.096-1.4.288-1.993a4.277 4.277 0 0 1 .841-1.522 3.732 3.732 0 0 1 1.351-.976c.533-.23 1.136-.344 1.81-.344zm0 8.944c.56 0 1.05-.096 1.47-.287a2.781 2.781 0 0 0 1.049-.825c.28-.358.49-.79.628-1.296a6.437 6.437 0 0 0 .208-1.701c0-.622-.07-1.187-.208-1.696a3.679 3.679 0 0 0-.628-1.306 2.802 2.802 0 0 0-1.05-.834c-.418-.195-.908-.292-1.469-.292-.56 0-1.05.097-1.47.292a2.805 2.805 0 0 0-1.048.834 3.74 3.74 0 0 0-.634 1.306 6.316 6.316 0 0 0-.212 1.696c0 .628.07 1.195.212 1.701s.353.938.634 1.296c.28.358.63.633 1.049.825.419.191.908.287 1.47.287zm14.525.735c-.636 0-1.132-.176-1.488-.528-.356-.351-.534-.895-.534-1.63v-6.409h-1.352a.253.253 0 0 1-.17-.056.2.2 0 0 1-.066-.16v-.35l1.607-.112.226-3.355a.342.342 0 0 1 .076-.151.2.2 0 0 1 .16-.066h.426v3.581h2.967v.67h-2.967v6.36c0 .258.033.48.1.665.065.186.157.338.273.457.117.12.254.208.411.264a1.5 1.5 0 0 0 .51.085c.227 0 .423-.033.586-.099.164-.066.306-.138.426-.217.12-.078.217-.15.293-.216.075-.066.135-.1.18-.1.05 0 .1.032.15.095l.246.396a2.62 2.62 0 0 1-.912.636c-.368.16-.751.24-1.148.24zm7.598-9.679c.674 0 1.277.115 1.81.344.532.23.98.555 1.346.976.366.42.644.928.837 1.522.192.593.288 1.258.288 1.993 0 .735-.096 1.398-.288 1.989a4.323 4.323 0 0 1-.837 1.517 3.641 3.641 0 0 1-1.346.97c-.533.227-1.136.34-1.81.34-.674 0-1.277-.113-1.81-.34a3.684 3.684 0 0 1-1.351-.97 4.283 4.283 0 0 1-.841-1.517c-.192-.591-.288-1.254-.288-1.989 0-.735.096-1.4.288-1.993a4.277 4.277 0 0 1 .84-1.522 3.732 3.732 0 0 1 1.352-.976c.533-.23 1.136-.344 1.81-.344zm0 8.944c.56 0 1.05-.096 1.47-.287a2.781 2.781 0 0 0 1.048-.825c.28-.358.49-.79.629-1.296a6.437 6.437 0 0 0 .208-1.701c0-.622-.07-1.187-.208-1.696a3.679 3.679 0 0 0-.629-1.306 2.806 2.806 0 0 0-1.049-.834c-.419-.195-.908-.292-1.47-.292-.56 0-1.05.097-1.469.292a2.805 2.805 0 0 0-1.049.834 3.74 3.74 0 0 0-.633 1.306 6.316 6.316 0 0 0-.212 1.696c0 .628.07 1.195.212 1.701s.353.938.633 1.296c.28.358.63.633 1.05.825.418.191.908.287 1.469.287zm15.678-8.944c.674 0 1.277.115 1.81.344.532.23.98.555 1.346.976.366.42.644.928.836 1.522.193.593.289 1.258.289 1.993 0 .735-.096 1.398-.289 1.989a4.323 4.323 0 0 1-.836 1.517 3.641 3.641 0 0 1-1.347.97c-.532.227-1.135.34-1.81.34-.673 0-1.277-.113-1.809-.34a3.684 3.684 0 0 1-1.351-.97 4.283 4.283 0 0 1-.841-1.517c-.193-.591-.289-1.254-.289-1.989 0-.735.096-1.4.289-1.993a4.277 4.277 0 0 1 .84-1.522 3.732 3.732 0 0 1 1.352-.976c.532-.23 1.136-.344 1.81-.344zm0 8.944c.56 0 1.05-.096 1.47-.287a2.781 2.781 0 0 0 1.048-.825c.28-.358.49-.79.629-1.296a6.437 6.437 0 0 0 .208-1.701c0-.622-.07-1.187-.208-1.696a3.679 3.679 0 0 0-.629-1.306 2.806 2.806 0 0 0-1.049-.834c-.419-.195-.909-.292-1.47-.292-.56 0-1.05.097-1.469.292a2.805 2.805 0 0 0-1.049.834 3.74 3.74 0 0 0-.633 1.306 6.316 6.316 0 0 0-.212 1.696c0 .628.07 1.195.212 1.701s.353.938.633 1.296c.28.358.63.633 1.05.825.418.191.908.287 1.469.287zm14.118-8.793v9.377h-.5c-.158 0-.25-.081-.275-.245l-.085-1.394c-.434.54-.937.973-1.507 1.3-.57.327-1.205.49-1.904.49-.523 0-.98-.082-1.37-.245a2.514 2.514 0 0 1-.974-.707 3.126 3.126 0 0 1-.586-1.112 5.033 5.033 0 0 1-.198-1.47v-5.994h.907v5.994c0 .88.202 1.57.605 2.069.403.5 1.017.749 1.843.749.61 0 1.182-.156 1.715-.467a4.84 4.84 0 0 0 1.422-1.295v-7.05h.907zm3.95 2.262c.145-.383.31-.724.497-1.023.185-.298.4-.551.642-.758.243-.208.514-.366.813-.476.3-.11.632-.165.997-.165.195 0 .387.017.576.052.19.034.356.095.501.183l-.075.622c-.032.101-.092.151-.18.151-.075 0-.19-.022-.345-.066a2.291 2.291 0 0 0-.61-.066 2.64 2.64 0 0 0-.968.165c-.28.11-.532.275-.756.495-.224.22-.419.492-.586.815a7.68 7.68 0 0 0-.458 1.117v6.07h-.907v-9.378h.481c.108 0 .183.022.227.066.044.044.073.12.085.226l.066 1.97zm23.994-2.554l-3.08 9.67h-1.871c-.215 0-.363-.139-.445-.415l-1.738-5.589a13.666 13.666 0 0 1-.156-.56 6.82 6.82 0 0 1-.118-.562 13.332 13.332 0 0 1-.284 1.14l-1.767 5.57c-.076.277-.243.415-.501.415h-1.796l-3.07-9.67h1.86c.17 0 .316.042.436.123a.57.57 0 0 1 .236.311l1.389 5.165c.07.283.13.56.184.83.054.27.1.54.137.81.07-.27.144-.54.222-.81a46.2 46.2 0 0 1 .25-.83l1.607-5.183a.592.592 0 0 1 .222-.311.656.656 0 0 1 .402-.123h1.03c.164 0 .304.04.42.123a.577.577 0 0 1 .232.31l1.56 5.184c.081.283.159.56.231.834l.213.815c.082-.534.198-1.084.35-1.649l1.426-5.165a.637.637 0 0 1 .236-.31.677.677 0 0 1 .407-.123h1.776zm7.41 3.723c0-.302-.043-.586-.128-.853a2.026 2.026 0 0 0-.383-.703 1.78 1.78 0 0 0-.647-.475 2.227 2.227 0 0 0-.912-.175c-.674 0-1.205.192-1.593.575-.387.383-.634.927-.741 1.63h4.403zm-4.452 1.404c.038.496.126.925.265 1.286s.321.66.548.896c.227.235.496.411.808.527.312.117.657.175 1.035.175.378 0 .704-.044.978-.132.274-.088.513-.186.718-.292.205-.107.384-.205.539-.293a.906.906 0 0 1 .449-.132c.195 0 .34.073.434.217l.671.848a3.887 3.887 0 0 1-.869.76 4.881 4.881 0 0 1-1.006.49 5.54 5.54 0 0 1-1.068.258c-.363.05-.714.076-1.054.076a5.192 5.192 0 0 1-1.88-.335 4.21 4.21 0 0 1-1.513-.99 4.624 4.624 0 0 1-1.01-1.62c-.247-.644-.37-1.39-.37-2.239 0-.66.108-1.28.322-1.861a4.473 4.473 0 0 1 .921-1.517c.4-.43.889-.772 1.465-1.023.577-.251 1.227-.377 1.952-.377.61 0 1.175.097 1.691.292.517.195.96.48 1.333.853.371.374.663.833.874 1.376.21.544.316 1.164.316 1.861 0 .352-.037.59-.113.712-.076.123-.22.184-.435.184h-6zm10.632 2.035c.264.32.553.547.865.679a2.5 2.5 0 0 0 .987.198c.36 0 .682-.064.969-.193.286-.13.53-.33.732-.603.202-.274.356-.622.463-1.047.107-.424.16-.931.16-1.522 0-1.061-.176-1.83-.528-2.304-.353-.474-.86-.711-1.522-.711-.447 0-.838.102-1.172.306a3.83 3.83 0 0 0-.954.862v4.335zm0-5.975a4.81 4.81 0 0 1 1.3-.975c.475-.242 1.018-.363 1.63-.363.56 0 1.066.11 1.516.33.45.22.835.536 1.153.947.318.412.562.91.732 1.494.17.584.256 1.24.256 1.97 0 .785-.098 1.498-.293 2.139-.196.64-.474 1.189-.837 1.645a3.802 3.802 0 0 1-1.309 1.06 3.797 3.797 0 0 1-1.7.377c-.303 0-.577-.03-.823-.09a3.068 3.068 0 0 1-.68-.25 2.747 2.747 0 0 1-.572-.39 4.816 4.816 0 0 1-.496-.514l-.104.65c-.038.163-.102.28-.194.349a.605.605 0 0 1-.373.103h-1.54v-14.004h2.334v5.522zm18.106 4.354c-.674.032-1.24.09-1.7.175-.46.085-.83.193-1.106.325-.278.132-.476.286-.596.462a.998.998 0 0 0-.18.575c0 .408.122.7.365.876.242.176.559.264.95.264.478 0 .892-.086 1.242-.26a3.69 3.69 0 0 0 1.025-.786v-1.63zm-5.348-4.193c1.115-1.018 2.457-1.527 4.025-1.527.567 0 1.075.092 1.522.278.447.185.825.443 1.134.773.309.33.543.724.704 1.182.16.46.24.962.24 1.508v6.107h-1.058c-.22 0-.39-.033-.51-.099s-.214-.2-.283-.4l-.208-.698c-.246.22-.485.414-.719.58a4.23 4.23 0 0 1-.727.42 3.935 3.935 0 0 1-.808.259c-.287.06-.603.09-.95.09a3.73 3.73 0 0 1-1.134-.166 2.494 2.494 0 0 1-.898-.495 2.221 2.221 0 0 1-.586-.82 2.902 2.902 0 0 1-.207-1.14 2.134 2.134 0 0 1 .524-1.423c.186-.22.427-.427.723-.622s.66-.364 1.091-.509a9.452 9.452 0 0 1 1.508-.353 15.096 15.096 0 0 1 1.965-.165v-.566c0-.647-.138-1.126-.415-1.437-.278-.31-.678-.466-1.2-.466-.379 0-.692.044-.94.132a3.875 3.875 0 0 0-.658.296c-.189.11-.36.21-.515.297a1.022 1.022 0 0 1-.515.132.674.674 0 0 1-.416-.127 1.064 1.064 0 0 1-.274-.297l-.415-.744zm12.152 5.814c.265.32.553.547.865.679.312.132.65.198 1.016.198.353 0 .671-.066.955-.198a1.87 1.87 0 0 0 .722-.603c.199-.27.352-.611.459-1.023.107-.411.16-.897.16-1.456 0-.565-.045-1.044-.137-1.437-.09-.393-.222-.712-.392-.957a1.548 1.548 0 0 0-.619-.537 1.935 1.935 0 0 0-.827-.17c-.485 0-.897.103-1.238.307-.34.204-.661.492-.964.862v4.335zm-.122-5.843a5.055 5.055 0 0 1 1.351-1.084c.504-.276 1.096-.414 1.777-.414.529 0 1.012.11 1.45.33.438.22.816.538 1.134.956.318.418.564.933.737 1.546.174.612.26 1.315.26 2.106a6.59 6.59 0 0 1-.293 2.008 4.908 4.908 0 0 1-.836 1.602c-.362.452-.8.806-1.314 1.06a3.83 3.83 0 0 1-1.724.382c-.542 0-1.005-.084-1.39-.25a3.395 3.395 0 0 1-1.03-.693v3.959h-2.334v-12.827h1.427c.303 0 .501.141.596.424l.189.895zm10.858 5.843c.264.32.553.547.865.679.311.132.65.198 1.015.198.353 0 .671-.066.955-.198a1.87 1.87 0 0 0 .723-.603c.198-.27.351-.611.458-1.023.107-.411.16-.897.16-1.456 0-.565-.045-1.044-.136-1.437-.092-.393-.222-.712-.392-.957a1.548 1.548 0 0 0-.62-.537 1.935 1.935 0 0 0-.826-.17c-.485 0-.898.103-1.238.307-.34.204-.662.492-.964.862v4.335zm-.123-5.843a5.055 5.055 0 0 1 1.351-1.084c.504-.276 1.097-.414 1.777-.414.53 0 1.013.11 1.45.33.438.22.816.538 1.135.956.318.418.564.933.737 1.546.173.612.26 1.315.26 2.106a6.62 6.62 0 0 1-.293 2.008 4.908 4.908 0 0 1-.837 1.602 3.86 3.86 0 0 1-1.313 1.06 3.83 3.83 0 0 1-1.725.382c-.542 0-1.005-.084-1.39-.25a3.395 3.395 0 0 1-1.03-.693v3.959h-2.333v-12.827h1.427c.302 0 .5.141.595.424l.189.895zm47.412 8.501c-.637 0-1.133-.176-1.489-.528-.356-.351-.534-.895-.534-1.63v-6.409h-1.351a.253.253 0 0 1-.17-.056.2.2 0 0 1-.066-.16v-.35l1.606-.112.227-3.355a.342.342 0 0 1 .076-.151.2.2 0 0 1 .16-.066h.425v3.581h2.968v.67h-2.968v6.36c0 .258.033.48.1.665.066.186.157.338.274.457.116.12.253.208.41.264a1.5 1.5 0 0 0 .511.085c.227 0 .422-.033.586-.099a2.574 2.574 0 0 0 .718-.433c.076-.066.136-.1.18-.1.05 0 .1.032.151.095l.246.396a2.62 2.62 0 0 1-.912.636c-.369.16-.752.24-1.148.24zm7.597-9.679c.675 0 1.278.115 1.81.344.533.23.981.555 1.347.976.365.42.644.928.836 1.522.192.593.288 1.258.288 1.993 0 .735-.096 1.398-.288 1.989a4.323 4.323 0 0 1-.836 1.517 3.641 3.641 0 0 1-1.347.97c-.532.227-1.135.34-1.81.34-.674 0-1.277-.113-1.81-.34a3.684 3.684 0 0 1-1.35-.97 4.283 4.283 0 0 1-.842-1.517c-.192-.591-.288-1.254-.288-1.989 0-.735.096-1.4.288-1.993a4.277 4.277 0 0 1 .841-1.522 3.732 3.732 0 0 1 1.352-.976c.532-.23 1.135-.344 1.81-.344zm0 8.944c.561 0 1.051-.096 1.47-.287a2.781 2.781 0 0 0 1.049-.825c.28-.358.49-.79.628-1.296a6.437 6.437 0 0 0 .208-1.701c0-.622-.069-1.187-.208-1.696a3.679 3.679 0 0 0-.628-1.306 2.806 2.806 0 0 0-1.049-.834c-.419-.195-.909-.292-1.47-.292-.56 0-1.05.097-1.469.292a2.805 2.805 0 0 0-1.049.834 3.74 3.74 0 0 0-.633 1.306 6.316 6.316 0 0 0-.213 1.696c0 .628.071 1.195.213 1.701a3.7 3.7 0 0 0 .633 1.296c.28.358.63.633 1.049.825.419.191.909.287 1.47.287zm11.955.584v-9.377h.5c.158 0 .25.079.275.236l.085 1.357a4.897 4.897 0 0 1 1.257-1.263 2.78 2.78 0 0 1 1.597-.48c.687 0 1.236.197 1.649.593.413.396.691.946.836 1.65a3.3 3.3 0 0 1 .477-1 2.99 2.99 0 0 1 .705-.702 2.84 2.84 0 0 1 .864-.41 3.52 3.52 0 0 1 .96-.132c.466 0 .885.077 1.256.231.372.154.687.382.945.683.259.302.457.673.596 1.112.138.44.208.943.208 1.508v5.994h-.898v-5.994c0-.917-.199-1.616-.596-2.097-.396-.48-.963-.72-1.7-.72-.328 0-.642.06-.94.179-.3.119-.565.296-.795.532-.23.236-.412.53-.548.881-.135.352-.203.76-.203 1.225v5.994h-.907v-5.994c0-.91-.181-1.608-.544-2.092-.362-.484-.893-.726-1.592-.726-.51 0-.983.151-1.417.453-.435.301-.823.72-1.163 1.253v7.106h-.907zm20.478-4.533c-.894.032-1.664.102-2.31.212-.646.11-1.178.26-1.597.448-.42.188-.73.413-.931.674-.202.26-.302.557-.302.89 0 .315.052.586.155.816.104.229.243.417.416.565.174.148.374.256.6.325.227.07.463.104.71.104.365 0 .7-.04 1.006-.118a3.68 3.68 0 0 0 .85-.33c.262-.141.506-.31.733-.504.226-.195.45-.405.67-.631v-2.45zm-5.528-3.515c.492-.49 1.008-.86 1.55-1.112.542-.252 1.156-.377 1.843-.377.504 0 .945.08 1.323.24.378.16.691.39.94.688.249.299.436.66.562 1.084.126.424.19.897.19 1.418v6.107h-.36c-.189 0-.305-.088-.35-.264l-.132-1.206a9.857 9.857 0 0 1-.77.679c-.255.2-.521.37-.798.509a4.106 4.106 0 0 1-.898.32 4.633 4.633 0 0 1-1.059.113 3.13 3.13 0 0 1-.935-.141 2.36 2.36 0 0 1-.808-.434 2.102 2.102 0 0 1-.567-.749c-.142-.305-.213-.67-.213-1.098 0-.396.114-.763.34-1.103.227-.339.583-.634 1.068-.885.485-.252 1.107-.453 1.867-.604.759-.15 1.67-.238 2.735-.264v-.98c0-.867-.187-1.534-.562-2.002-.375-.468-.93-.703-1.668-.703-.453 0-.84.063-1.157.189a4.103 4.103 0 0 0-.808.415c-.22.15-.4.289-.54.414-.138.126-.254.189-.349.189a.286.286 0 0 1-.17-.047.425.425 0 0 1-.113-.123l-.16-.273zm10.272.31c.435-.54.938-.973 1.508-1.3a3.761 3.761 0 0 1 1.904-.49c.517 0 .972.082 1.366.245.393.164.72.4.978.707.258.308.453.679.586 1.112.132.434.198.924.198 1.47v5.994h-.907v-5.994c0-.88-.202-1.569-.605-2.068-.403-.5-1.018-.75-1.843-.75-.611 0-1.183.156-1.715.467a4.84 4.84 0 0 0-1.422 1.296v7.05h-.908v-9.378h.501c.158 0 .25.079.274.236l.085 1.404zm14.8 3.205c-.895.032-1.665.102-2.311.212-.646.11-1.178.26-1.597.448-.42.188-.73.413-.931.674-.202.26-.302.557-.302.89 0 .315.052.586.155.816.104.229.243.417.416.565.174.148.374.256.6.325.227.07.463.104.71.104.365 0 .7-.04 1.006-.118a3.68 3.68 0 0 0 .85-.33c.262-.141.506-.31.732-.504.227-.195.45-.405.671-.631v-2.45zm-5.529-3.515a5.47 5.47 0 0 1 1.55-1.112c.542-.252 1.156-.377 1.843-.377.504 0 .945.08 1.323.24.378.16.691.39.94.688.249.299.436.66.562 1.084.126.424.19.897.19 1.418v6.107h-.36c-.189 0-.305-.088-.35-.264l-.132-1.206a9.857 9.857 0 0 1-.77.679 4.7 4.7 0 0 1-.799.509 4.106 4.106 0 0 1-.897.32 4.633 4.633 0 0 1-1.059.113 3.13 3.13 0 0 1-.935-.141 2.36 2.36 0 0 1-.808-.434 2.102 2.102 0 0 1-.567-.749c-.142-.305-.213-.67-.213-1.098 0-.396.114-.763.34-1.103.227-.339.583-.634 1.068-.885.485-.252 1.107-.453 1.867-.604.759-.15 1.67-.238 2.735-.264v-.98c0-.867-.187-1.534-.562-2.002-.375-.468-.93-.703-1.668-.703-.453 0-.84.063-1.157.189a4.103 4.103 0 0 0-.808.415c-.221.15-.4.289-.54.414-.138.126-.254.189-.349.189a.286.286 0 0 1-.17-.047.425.425 0 0 1-.113-.123l-.16-.273zm12.484 3.902c.403 0 .762-.059 1.077-.175.315-.116.58-.278.794-.485.214-.207.378-.456.491-.745.114-.289.17-.61.17-.96 0-.353-.058-.675-.174-.967a2.092 2.092 0 0 0-.501-.75 2.238 2.238 0 0 0-.794-.48 3.106 3.106 0 0 0-1.063-.17c-.397 0-.752.057-1.063.17a2.238 2.238 0 0 0-.794.48 2.041 2.041 0 0 0-.496.75c-.114.292-.17.614-.17.966s.056.672.17.961c.113.29.278.538.496.745.217.207.482.369.794.485a3.03 3.03 0 0 0 1.063.175zm3.515 4.778c0-.295-.077-.533-.231-.712a1.531 1.531 0 0 0-.62-.42 3.687 3.687 0 0 0-.892-.211c-.337-.041-.69-.07-1.059-.09l-1.11-.056a8.792 8.792 0 0 1-1.05-.113 4.22 4.22 0 0 0-.66.325 2.39 2.39 0 0 0-.52.42 1.87 1.87 0 0 0-.34.513 1.464 1.464 0 0 0-.123.598c0 .277.07.533.212.768.142.236.35.44.624.613s.61.31 1.006.41c.397.1.854.15 1.37.15.48 0 .925-.053 1.338-.16a3.73 3.73 0 0 0 1.077-.452 2.31 2.31 0 0 0 .718-.697c.174-.27.26-.566.26-.886zm.983-9.594v.31c0 .139-.088.224-.265.255l-1.436.104c.176.239.312.506.406.8.095.296.142.617.142.962 0 .453-.08.863-.24 1.23a2.703 2.703 0 0 1-.681.943c-.293.26-.646.463-1.059.607a4.108 4.108 0 0 1-1.365.217 4.189 4.189 0 0 1-1.465-.245 2.019 2.019 0 0 0-.628.533c-.155.204-.232.406-.232.608 0 .27.096.477.288.622.192.144.444.25.756.315.312.066.668.109 1.068.127l1.224.062c.416.022.824.061 1.224.118a3.9 3.9 0 0 1 1.068.296c.311.142.563.34.756.594.192.255.288.592.288 1.013 0 .39-.098.764-.293 1.122a2.973 2.973 0 0 1-.846.952 4.469 4.469 0 0 1-1.337.664 5.779 5.779 0 0 1-1.758.25c-.661 0-1.241-.068-1.739-.203-.497-.135-.915-.317-1.252-.546a2.397 2.397 0 0 1-.76-.797 1.927 1.927 0 0 1-.256-.961c0-.496.164-.922.492-1.277.327-.355.775-.633 1.342-.834a1.827 1.827 0 0 1-.761-.467c-.192-.204-.288-.482-.288-.834 0-.132.025-.27.075-.414.05-.145.126-.288.227-.43.1-.14.224-.274.369-.4.145-.125.308-.239.491-.339a2.798 2.798 0 0 1-1.044-1.027c-.25-.428-.374-.927-.374-1.499 0-.452.08-.862.241-1.23.161-.367.39-.683.686-.947.296-.264.65-.468 1.063-.612a4.139 4.139 0 0 1 1.375-.217c.416 0 .798.05 1.148.15.35.101.663.242.94.425h2.41zm8.552 3.327c0-.503-.07-.954-.212-1.353a2.868 2.868 0 0 0-.6-1.013 2.618 2.618 0 0 0-.922-.636 3.042 3.042 0 0 0-1.176-.222c-.485 0-.92.076-1.304.227a2.83 2.83 0 0 0-.997.65 3.25 3.25 0 0 0-.676 1.018c-.17.396-.284.838-.34 1.329h6.227zm-6.274.574v.18c0 .703.081 1.322.245 1.856.164.534.397.982.7 1.343.302.361.667.633 1.096.815.428.183.907.274 1.436.274a4.31 4.31 0 0 0 1.229-.156 4.586 4.586 0 0 0 1.436-.697c.139-.104.24-.156.303-.156.081 0 .144.032.189.094l.245.302a2.562 2.562 0 0 1-.6.528 4.287 4.287 0 0 1-.831.42 6.072 6.072 0 0 1-.983.277c-.35.07-.701.104-1.054.104a4.482 4.482 0 0 1-1.758-.335 3.726 3.726 0 0 1-1.36-.975c-.379-.427-.67-.95-.875-1.57-.204-.618-.307-1.327-.307-2.125 0-.672.096-1.292.288-1.86a4.26 4.26 0 0 1 .832-1.471 3.79 3.79 0 0 1 1.333-.966c.526-.233 1.123-.349 1.79-.349.53 0 1.02.091 1.475.274a3.34 3.34 0 0 1 1.18.796c.335.349.598.777.79 1.286.192.51.288 1.094.288 1.753 0 .139-.019.233-.057.283-.037.05-.1.075-.189.075h-6.841zm-264.095 24.495c-.416.17-.792.377-1.13.622a4.169 4.169 0 0 0-.855.82 3.594 3.594 0 0 0-.538.97 3.112 3.112 0 0 0-.19 1.075c0 .483.094.904.28 1.263.185.358.426.658.723.9.296.241.625.422.987.541.362.12.72.18 1.073.18a5.02 5.02 0 0 0 3.308-1.211c.289-.249.55-.517.784-.806l-4.338-4.25-.104-.104zm8.26 6.955h-.842a.865.865 0 0 1-.278-.038.763.763 0 0 1-.25-.17l-1.938-1.894a6.778 6.778 0 0 1-.926.9c-.34.274-.709.51-1.106.712a6.053 6.053 0 0 1-1.276.471c-.453.113-.929.17-1.427.17a4.3 4.3 0 0 1-1.398-.236 3.81 3.81 0 0 1-1.234-.693 3.518 3.518 0 0 1-.878-1.121c-.224-.443-.336-.947-.336-1.513 0-.452.082-.884.246-1.296.164-.411.387-.788.67-1.13a4.98 4.98 0 0 1 1.012-.92c.39-.27.813-.49 1.266-.66-.453-.508-.79-.998-1.01-1.47a3.536 3.536 0 0 1-.332-1.517c0-.44.08-.846.241-1.22a2.87 2.87 0 0 1 .686-.976c.296-.276.65-.493 1.063-.65a3.866 3.866 0 0 1 1.384-.236 3.343 3.343 0 0 1 2.188.802c.28.245.504.529.67.852.168.324.258.662.27 1.014l-.51.103a.229.229 0 0 1-.175-.033.349.349 0 0 1-.128-.184 2.277 2.277 0 0 0-.203-.574 2.236 2.236 0 0 0-.44-.604 2.29 2.29 0 0 0-1.673-.67 2.93 2.93 0 0 0-1.029.176 2.228 2.228 0 0 0-1.309 1.24 2.409 2.409 0 0 0-.184.95c0 .516.132 1.01.397 1.48.264.472.674.977 1.228 1.518l4.225 4.137a6.806 6.806 0 0 0 .992-2.827.402.402 0 0 1 .075-.193c.038-.048.095-.071.17-.071h.52a6.186 6.186 0 0 1-.33 1.824 7.205 7.205 0 0 1-.898 1.795l2.806 2.752zm13.58-5.636c0-.503-.072-.953-.213-1.352a2.868 2.868 0 0 0-.6-1.014 2.618 2.618 0 0 0-.922-.636 3.042 3.042 0 0 0-1.176-.221c-.485 0-.92.075-1.304.226-.385.15-.717.368-.997.65a3.25 3.25 0 0 0-.676 1.018 4.71 4.71 0 0 0-.34 1.329h6.227zm-6.276.575v.179c0 .704.082 1.323.246 1.857.164.534.397.981.7 1.343.302.36.667.633 1.096.815.428.182.907.273 1.436.273a4.31 4.31 0 0 0 1.229-.155 4.586 4.586 0 0 0 1.436-.698c.139-.103.24-.155.302-.155a.22.22 0 0 1 .19.094l.245.302a2.562 2.562 0 0 1-.6.527 4.287 4.287 0 0 1-.832.42 6.072 6.072 0 0 1-.982.278c-.35.069-.701.103-1.054.103a4.482 4.482 0 0 1-1.758-.334 3.726 3.726 0 0 1-1.36-.976c-.379-.427-.67-.95-.875-1.569-.204-.619-.307-1.327-.307-2.125 0-.672.096-1.293.288-1.861a4.26 4.26 0 0 1 .832-1.47 3.79 3.79 0 0 1 1.332-.967c.527-.232 1.123-.348 1.791-.348.53 0 1.02.09 1.474.273.454.182.848.448 1.182.796.334.35.597.778.789 1.287.192.509.288 1.093.288 1.753 0 .138-.019.232-.057.283-.037.05-.1.075-.189.075h-6.842zm16.33 5.06h-.86a.272.272 0 0 1-.208-.08 1.016 1.016 0 0 1-.122-.155l-2.854-4.156a1.007 1.007 0 0 1-.142.33l-2.722 3.826c-.044.057-.09.11-.137.16a.241.241 0 0 1-.184.076h-.813l3.421-4.797-3.288-4.58h.86c.088 0 .154.018.198.056a.572.572 0 0 1 .113.132l2.76 3.968a.788.788 0 0 1 .061-.16 4.41 4.41 0 0 1 .09-.17l2.58-3.629a.685.685 0 0 1 .123-.14.253.253 0 0 1 .17-.057h.822l-3.28 4.523 3.412 4.854zm2.873-2.044c.183.27.373.498.572.683.198.185.408.336.628.452.22.117.456.2.704.25.25.05.512.076.79.076.554 0 1.039-.101 1.455-.302a2.863 2.863 0 0 0 1.044-.853c.28-.368.491-.807.633-1.32a6.33 6.33 0 0 0 .213-1.691c0-1.395-.258-2.42-.775-3.077s-1.257-.985-2.22-.985c-.625 0-1.188.16-1.692.48-.504.321-.955.767-1.352 1.339v4.948zm-.038-5.646a4.978 4.978 0 0 1 1.46-1.347 3.588 3.588 0 0 1 1.876-.5c1.153 0 2.053.4 2.698 1.197.646.798.969 1.995.969 3.59 0 .686-.09 1.325-.27 1.919a4.55 4.55 0 0 1-.793 1.545 3.77 3.77 0 0 1-1.285 1.032c-.508.252-1.092.377-1.753.377-.637 0-1.188-.116-1.654-.348a3.414 3.414 0 0 1-1.21-1.028v4.571h-.907v-12.694h.5c.158 0 .25.078.275.235l.094 1.451zm13.278-1.837c.674 0 1.277.114 1.81.344.532.229.98.554 1.346.975.366.421.644.928.837 1.522.192.594.288 1.258.288 1.993 0 .736-.096 1.398-.288 1.989a4.323 4.323 0 0 1-.837 1.517 3.641 3.641 0 0 1-1.346.971c-.533.226-1.136.34-1.81.34-.674 0-1.277-.114-1.81-.34a3.684 3.684 0 0 1-1.351-.97 4.283 4.283 0 0 1-.841-1.518c-.192-.59-.288-1.253-.288-1.989 0-.735.096-1.4.288-1.993a4.277 4.277 0 0 1 .84-1.522 3.732 3.732 0 0 1 1.352-.975c.533-.23 1.136-.344 1.81-.344zm0 8.944c.56 0 1.05-.096 1.47-.288a2.781 2.781 0 0 0 1.048-.825c.28-.358.49-.79.629-1.295a6.437 6.437 0 0 0 .208-1.702c0-.622-.07-1.187-.208-1.696a3.679 3.679 0 0 0-.629-1.305c-.28-.361-.63-.64-1.049-.834-.419-.195-.908-.292-1.47-.292-.56 0-1.05.097-1.469.292a2.805 2.805 0 0 0-1.049.834 3.74 3.74 0 0 0-.633 1.305 6.316 6.316 0 0 0-.212 1.696c0 .629.07 1.196.212 1.702.142.505.353.937.633 1.295.28.359.63.633 1.05.825.418.192.908.288 1.469.288zm7.683-6.532c.145-.383.31-.724.496-1.022.186-.299.4-.551.643-.759.242-.207.513-.366.812-.476.3-.11.632-.165.997-.165.196 0 .388.018.577.052.189.035.356.096.5.184l-.075.622c-.031.1-.091.15-.18.15-.075 0-.19-.021-.344-.065a2.291 2.291 0 0 0-.61-.066 2.64 2.64 0 0 0-.969.165c-.28.11-.532.275-.756.494-.223.22-.419.492-.586.816a7.68 7.68 0 0 0-.458 1.117v6.069h-.907v-9.377h.482c.107 0 .183.022.227.065.044.044.072.12.085.227l.066 1.97zm8.392 7.267c-.637 0-1.133-.176-1.489-.528-.356-.352-.534-.895-.534-1.63v-6.41h-1.351a.253.253 0 0 1-.17-.056.2.2 0 0 1-.066-.16v-.349l1.606-.113.227-3.355a.342.342 0 0 1 .076-.15.2.2 0 0 1 .16-.067h.426v3.582h2.967v.669h-2.967v6.361c0 .258.033.48.099.665.066.185.157.337.274.457.116.12.253.207.41.264a1.5 1.5 0 0 0 .511.085c.227 0 .422-.033.586-.1.164-.065.306-.138.425-.216.12-.079.218-.151.293-.217.076-.066.136-.099.18-.099.05 0 .1.032.151.094l.246.396a2.62 2.62 0 0 1-.912.636c-.369.16-.751.24-1.148.24zm9.941-7.945a5.279 5.279 0 0 1 1.489-1.263 3.754 3.754 0 0 1 1.875-.471c.517 0 .972.081 1.366.245.394.163.72.399.978.707.258.307.454.678.586 1.112.132.433.198.923.198 1.47v5.994h-.907v-5.994c0-.88-.201-1.57-.605-2.069-.403-.5-1.017-.749-1.842-.749-.611 0-1.183.155-1.716.466a4.84 4.84 0 0 0-1.422 1.296v7.05h-.907v-13.713h.907v5.919zm10.49-1.583v9.377h-.898v-9.377h.898zm.387-3.233a.714.714 0 0 1-.07.316.947.947 0 0 1-.185.259.855.855 0 0 1-.264.179.795.795 0 0 1-.322.066.795.795 0 0 1-.321-.066.855.855 0 0 1-.444-.438.822.822 0 0 1 0-.64.838.838 0 0 1 .765-.515.8.8 0 0 1 .322.066.855.855 0 0 1 .448.448.762.762 0 0 1 .071.325zm5.888 8.463c.403 0 .762-.058 1.077-.174.315-.116.58-.278.794-.486a2.07 2.07 0 0 0 .491-.744c.114-.29.17-.61.17-.961 0-.352-.058-.674-.174-.966a2.092 2.092 0 0 0-.501-.75 2.238 2.238 0 0 0-.794-.48 3.106 3.106 0 0 0-1.063-.17c-.397 0-.751.057-1.063.17a2.238 2.238 0 0 0-.794.48 2.041 2.041 0 0 0-.496.75c-.114.292-.17.614-.17.966 0 .351.056.672.17.96.113.29.279.538.496.745.217.208.482.37.794.486a3.03 3.03 0 0 0 1.063.174zm3.515 4.778c0-.295-.077-.532-.231-.711a1.531 1.531 0 0 0-.62-.42 3.687 3.687 0 0 0-.892-.212c-.337-.04-.69-.07-1.059-.09l-1.11-.056a8.792 8.792 0 0 1-1.05-.113 4.357 4.357 0 0 0-.66.325 2.39 2.39 0 0 0-.52.42 1.87 1.87 0 0 0-.34.513 1.464 1.464 0 0 0-.123.599c0 .276.07.532.212.768.142.235.35.44.624.612.274.173.61.31 1.006.41.397.1.854.151 1.37.151.48 0 .925-.053 1.338-.16a3.73 3.73 0 0 0 1.077-.452 2.31 2.31 0 0 0 .718-.698c.174-.27.26-.565.26-.886zm.983-9.594v.311c0 .138-.088.223-.265.255l-1.436.103c.176.24.312.506.406.801.095.296.142.616.142.962 0 .452-.08.862-.24 1.23a2.695 2.695 0 0 1-.681.942c-.293.26-.646.463-1.059.608a4.108 4.108 0 0 1-1.365.217 4.189 4.189 0 0 1-1.465-.245c-.265.15-.474.328-.628.532-.155.204-.232.407-.232.608 0 .27.096.478.288.622.192.145.444.25.756.316s.668.108 1.068.127l1.224.061c.416.022.824.061 1.224.118a3.9 3.9 0 0 1 1.068.297c.312.141.564.34.756.594.192.254.288.592.288 1.013 0 .39-.098.763-.293 1.121a2.973 2.973 0 0 1-.846.952 4.469 4.469 0 0 1-1.337.665 5.779 5.779 0 0 1-1.758.25c-.661 0-1.24-.068-1.739-.203-.497-.135-.915-.318-1.252-.547a2.397 2.397 0 0 1-.76-.796 1.927 1.927 0 0 1-.256-.962c0-.496.164-.922.492-1.277.327-.355.775-.633 1.342-.834a1.827 1.827 0 0 1-.761-.466c-.192-.204-.288-.482-.288-.834 0-.132.025-.27.075-.415.05-.144.126-.287.227-.429.1-.141.224-.275.369-.4.145-.126.308-.239.491-.34a2.798 2.798 0 0 1-1.044-1.027c-.249-.427-.373-.927-.373-1.498 0-.453.08-.863.24-1.23.161-.368.39-.683.686-.947.296-.264.65-.468 1.063-.613a4.139 4.139 0 0 1 1.375-.217c.416 0 .798.05 1.148.151.35.1.663.242.94.424h2.41zm2.986 1.169a5.279 5.279 0 0 1 1.489-1.263 3.754 3.754 0 0 1 1.876-.471c.516 0 .971.081 1.365.245.394.163.72.399.978.707.259.307.454.678.586 1.112.132.433.199.923.199 1.47v5.994h-.908v-5.994c0-.88-.201-1.57-.604-2.069-.404-.5-1.018-.749-1.843-.749-.611 0-1.183.155-1.715.466a4.84 4.84 0 0 0-1.423 1.296v7.05h-.907v-13.713h.907v5.919zm10.48-5.919v13.713h-.907v-13.713h.908zm4.187 4.336v9.377h-.898v-9.377h.898zm.387-3.233a.714.714 0 0 1-.07.316.947.947 0 0 1-.185.259.855.855 0 0 1-.264.179.795.795 0 0 1-.322.066.795.795 0 0 1-.32-.066.855.855 0 0 1-.445-.438.822.822 0 0 1 0-.64.838.838 0 0 1 .765-.515.8.8 0 0 1 .322.066.855.855 0 0 1 .449.448c.047.103.07.212.07.325zm5.888 8.463c.403 0 .762-.058 1.077-.174.315-.116.58-.278.794-.486a2.07 2.07 0 0 0 .491-.744c.114-.29.17-.61.17-.961 0-.352-.058-.674-.174-.966a2.092 2.092 0 0 0-.501-.75 2.238 2.238 0 0 0-.794-.48 3.106 3.106 0 0 0-1.063-.17c-.397 0-.751.057-1.063.17a2.238 2.238 0 0 0-.794.48 2.041 2.041 0 0 0-.496.75c-.114.292-.17.614-.17.966 0 .351.056.672.17.96.113.29.279.538.496.745.217.208.482.37.794.486a3.03 3.03 0 0 0 1.063.174zm3.515 4.778c0-.295-.077-.532-.231-.711a1.531 1.531 0 0 0-.62-.42 3.687 3.687 0 0 0-.892-.212c-.337-.04-.69-.07-1.059-.09l-1.11-.056a8.792 8.792 0 0 1-1.049-.113c-.24.094-.46.203-.661.325a2.39 2.39 0 0 0-.52.42 1.87 1.87 0 0 0-.34.513 1.464 1.464 0 0 0-.123.599c0 .276.07.532.212.768.142.235.35.44.624.612.274.173.61.31 1.007.41.396.1.853.151 1.37.151.479 0 .924-.053 1.337-.16a3.73 3.73 0 0 0 1.077-.452 2.31 2.31 0 0 0 .719-.698c.173-.27.26-.565.26-.886zm.983-9.594v.311c0 .138-.088.223-.264.255l-1.437.103c.177.24.312.506.407.801.094.296.141.616.141.962 0 .452-.08.862-.24 1.23a2.695 2.695 0 0 1-.681.942c-.293.26-.646.463-1.059.608a4.108 4.108 0 0 1-1.365.217 4.189 4.189 0 0 1-1.465-.245c-.264.15-.474.328-.628.532-.155.204-.232.407-.232.608 0 .27.096.478.288.622.193.145.445.25.756.316.312.066.668.108 1.068.127l1.224.061c.416.022.824.061 1.224.118a3.9 3.9 0 0 1 1.068.297c.312.141.564.34.756.594.192.254.288.592.288 1.013 0 .39-.098.763-.293 1.121a2.973 2.973 0 0 1-.846.952 4.469 4.469 0 0 1-1.337.665 5.779 5.779 0 0 1-1.758.25c-.661 0-1.24-.068-1.738-.203s-.916-.318-1.253-.547a2.397 2.397 0 0 1-.76-.796 1.927 1.927 0 0 1-.256-.962c0-.496.164-.922.492-1.277.327-.355.775-.633 1.342-.834a1.827 1.827 0 0 1-.76-.466c-.193-.204-.29-.482-.29-.834 0-.132.026-.27.076-.415.05-.144.126-.287.227-.429.101-.141.224-.275.369-.4.145-.126.308-.239.491-.34a2.798 2.798 0 0 1-1.044-1.027c-.249-.427-.373-.927-.373-1.498 0-.453.08-.863.24-1.23.161-.368.39-.683.686-.947.296-.264.65-.468 1.063-.613a4.139 4.139 0 0 1 1.375-.217c.416 0 .798.05 1.148.151.35.1.663.242.94.424h2.41zm2.986 1.169a5.279 5.279 0 0 1 1.489-1.263 3.754 3.754 0 0 1 1.876-.471c.516 0 .972.081 1.365.245.394.163.72.399.978.707.259.307.454.678.586 1.112.133.433.199.923.199 1.47v5.994h-.907v-5.994c0-.88-.202-1.57-.605-2.069-.403-.5-1.018-.749-1.843-.749-.611 0-1.183.155-1.715.466a4.84 4.84 0 0 0-1.423 1.296v7.05h-.907v-13.713h.907v5.919zm11.936 7.945c-.636 0-1.132-.176-1.488-.528-.356-.352-.534-.895-.534-1.63v-6.41h-1.352a.253.253 0 0 1-.17-.056.2.2 0 0 1-.066-.16v-.349l1.607-.113.226-3.355a.342.342 0 0 1 .076-.15.2.2 0 0 1 .16-.067h.426v3.582h2.967v.669h-2.967v6.361c0 .258.033.48.1.665.065.185.157.337.273.457.117.12.254.207.411.264a1.5 1.5 0 0 0 .51.085c.227 0 .423-.033.587-.1a2.438 2.438 0 0 0 .718-.433c.075-.066.135-.099.18-.099.05 0 .1.032.15.094l.246.396a2.62 2.62 0 0 1-.912.636c-.368.16-.751.24-1.148.24zm9.072-8.37a.238.238 0 0 1-.217.133c-.07 0-.158-.04-.265-.118a3.494 3.494 0 0 0-1.096-.528 3.423 3.423 0 0 0-.964-.118c-.34 0-.65.049-.93.146a2.31 2.31 0 0 0-.719.391 1.724 1.724 0 0 0-.458.57c-.107.217-.16.445-.16.684 0 .295.075.54.226.735.151.195.348.361.59.5.243.138.522.257.837.358.315.1.635.2.959.301.324.1.644.212.96.335.314.122.593.275.836.457.242.182.439.405.59.669.151.264.227.584.227.961 0 .409-.072.789-.217 1.14a2.541 2.541 0 0 1-.638.915 3.08 3.08 0 0 1-1.035.612 4.06 4.06 0 0 1-1.408.227c-.662 0-1.232-.106-1.71-.316a4.803 4.803 0 0 1-1.286-.825l.208-.32a.342.342 0 0 1 .109-.113.314.314 0 0 1 .165-.038c.082 0 .181.05.298.15.116.101.272.21.468.326.195.116.436.225.723.325.286.1.64.15 1.063.15.397 0 .746-.054 1.049-.164.302-.11.554-.26.756-.448a1.87 1.87 0 0 0 .458-.664 2.11 2.11 0 0 0 .156-.806c0-.314-.076-.575-.227-.782a1.942 1.942 0 0 0-.595-.528 4.167 4.167 0 0 0-.837-.367 65.98 65.98 0 0 0-.959-.302c-.327-.1-.647-.21-.959-.33a3.49 3.49 0 0 1-.836-.452 2.184 2.184 0 0 1-.596-.665c-.15-.26-.226-.586-.226-.975 0-.333.072-.654.217-.961.145-.308.351-.578.619-.81a3.04 3.04 0 0 1 .978-.557 3.806 3.806 0 0 1 1.295-.207c.573 0 1.082.081 1.526.245a3.6 3.6 0 0 1 1.214.754l-.189.31zm-136.007 47.368v13.628h-2.24v-8.803c0-.351.02-.732.057-1.14l-4.13 7.738c-.195.37-.494.556-.897.556h-.36c-.402 0-.702-.186-.897-.556l-4.177-7.766c.019.207.035.411.047.612.013.201.02.387.02.556v8.803h-2.24v-13.628h1.918c.113 0 .21.003.293.01a.794.794 0 0 1 .222.047.482.482 0 0 1 .18.122c.053.057.105.132.155.226l4.092 7.568c.107.201.207.409.298.622.091.214.181.434.27.66.087-.233.179-.457.273-.674a9.1 9.1 0 0 1 .303-.627l4.035-7.549a.951.951 0 0 1 .16-.226.525.525 0 0 1 .185-.122.794.794 0 0 1 .222-.048c.082-.006.18-.009.293-.009h1.918zm7.551 9.5c-.674.031-1.241.09-1.701.174-.46.085-.828.193-1.106.325-.277.132-.475.286-.595.462a1 1 0 0 0-.18.575c0 .409.122.7.364.877.243.176.56.263.95.263.479 0 .893-.086 1.243-.259a3.69 3.69 0 0 0 1.025-.787v-1.63zm-5.349-4.194c1.115-1.018 2.457-1.527 4.026-1.527.567 0 1.074.093 1.521.278a3.21 3.21 0 0 1 1.134.773c.31.33.544.724.705 1.183.16.459.24.961.24 1.508v6.107h-1.058c-.22 0-.39-.033-.51-.1-.12-.065-.214-.199-.284-.4l-.208-.697c-.245.22-.485.413-.718.58a4.23 4.23 0 0 1-.728.419c-.252.113-.52.2-.807.26a4.727 4.727 0 0 1-.95.089c-.41 0-.788-.055-1.134-.165a2.494 2.494 0 0 1-.898-.495 2.221 2.221 0 0 1-.586-.82 2.902 2.902 0 0 1-.208-1.14c0-.245.041-.489.123-.73.082-.243.216-.474.402-.693a3.3 3.3 0 0 1 .723-.622c.296-.195.66-.365 1.091-.51a9.452 9.452 0 0 1 1.507-.353 15.096 15.096 0 0 1 1.966-.165v-.565c0-.647-.139-1.126-.416-1.437-.277-.311-.677-.467-1.2-.467-.378 0-.691.044-.94.132a3.875 3.875 0 0 0-.657.297c-.189.11-.36.209-.515.297a1.022 1.022 0 0 1-.515.132.674.674 0 0 1-.416-.128 1.064 1.064 0 0 1-.274-.296l-.416-.745zm12.002-.16a6.22 6.22 0 0 1 .619-.542 3.873 3.873 0 0 1 1.47-.697c.277-.066.579-.1.907-.1.529 0 .998.09 1.408.27.41.178.751.43 1.025.753.274.324.482.71.624 1.16a4.9 4.9 0 0 1 .212 1.484v6.154h-2.334v-6.154c0-.59-.135-1.048-.406-1.372-.271-.323-.684-.485-1.238-.485a2.44 2.44 0 0 0-1.134.273c-.353.183-.687.43-1.002.745v6.993h-2.334v-9.67h1.427c.302 0 .5.142.595.424l.16.764zm13.599 4.354c-.674.031-1.241.09-1.701.174-.46.085-.829.193-1.106.325-.277.132-.476.286-.595.462a1 1 0 0 0-.18.575c0 .409.121.7.364.877.243.176.56.263.95.263.479 0 .893-.086 1.242-.259a3.69 3.69 0 0 0 1.026-.787v-1.63zm-5.35-4.194c1.116-1.018 2.458-1.527 4.027-1.527.567 0 1.074.093 1.521.278.447.186.826.443 1.134.773.309.33.544.724.704 1.183.16.459.241.961.241 1.508v6.107h-1.058c-.22 0-.39-.033-.51-.1-.12-.065-.215-.199-.284-.4l-.208-.697c-.246.22-.485.413-.718.58a4.23 4.23 0 0 1-.728.419c-.252.113-.521.2-.808.26a4.713 4.713 0 0 1-.95.089c-.409 0-.787-.055-1.134-.165a2.494 2.494 0 0 1-.897-.495 2.221 2.221 0 0 1-.586-.82 2.902 2.902 0 0 1-.208-1.14c0-.245.04-.489.123-.73a2.13 2.13 0 0 1 .401-.693c.186-.22.427-.428.723-.622.296-.195.66-.365 1.092-.51a9.452 9.452 0 0 1 1.507-.353 15.096 15.096 0 0 1 1.966-.165v-.565c0-.647-.139-1.126-.416-1.437-.277-.311-.677-.467-1.2-.467-.378 0-.692.044-.94.132a3.875 3.875 0 0 0-.657.297l-.515.297a1.022 1.022 0 0 1-.515.132.674.674 0 0 1-.416-.128 1.064 1.064 0 0 1-.274-.296l-.416-.745zm13.363 3.251c.29 0 .542-.039.756-.117a1.48 1.48 0 0 0 .534-.325 1.34 1.34 0 0 0 .322-.5c.072-.195.108-.408.108-.64 0-.478-.143-.857-.43-1.136-.286-.28-.716-.42-1.29-.42-.573 0-1.003.14-1.29.42-.286.28-.43.658-.43 1.135 0 .226.037.437.11.632.072.194.179.362.32.504.142.141.322.251.54.33.217.078.467.117.75.117zm2.637 5.504a.643.643 0 0 0-.17-.461 1.118 1.118 0 0 0-.463-.278 3.433 3.433 0 0 0-.685-.147 12.67 12.67 0 0 0-.832-.07c-.293-.016-.595-.03-.907-.043a10.598 10.598 0 0 1-.912-.075 2.184 2.184 0 0 0-.628.509 1.031 1.031 0 0 0-.114 1.154c.085.148.22.275.407.382.185.107.426.19.722.25.297.06.659.09 1.087.09.435 0 .81-.034 1.125-.1a2.71 2.71 0 0 0 .78-.273 1.17 1.17 0 0 0 .448-.415c.095-.16.142-.334.142-.523zm2.325-9.773v.867c0 .277-.167.446-.501.51l-.87.16c.133.332.199.697.199 1.093 0 .477-.096.91-.288 1.295a2.883 2.883 0 0 1-.799.985c-.34.27-.742.48-1.205.627a4.905 4.905 0 0 1-1.498.222c-.189 0-.371-.01-.548-.029a6.894 6.894 0 0 1-.52-.075c-.302.182-.453.386-.453.612 0 .195.09.338.27.43.179.09.417.155.713.192.296.038.633.062 1.011.071.378.01.765.03 1.162.061.397.032.785.087 1.163.165a3.42 3.42 0 0 1 1.01.373c.297.17.535.4.714.692.18.292.27.668.27 1.127 0 .427-.106.841-.317 1.244a3.32 3.32 0 0 1-.917 1.074c-.4.314-.891.567-1.474.759-.583.191-1.246.287-1.989.287-.73 0-1.367-.07-1.909-.212-.542-.141-.992-.33-1.351-.565-.36-.236-.627-.508-.804-.816a1.907 1.907 0 0 1-.264-.961c0-.452.137-.83.41-1.136.275-.304.651-.548 1.13-.73a1.626 1.626 0 0 1-.614-.528c-.151-.22-.227-.509-.227-.867 0-.144.027-.294.08-.447.054-.154.133-.307.237-.458.104-.15.234-.293.392-.428.157-.135.343-.256.557-.363a3.056 3.056 0 0 1-1.157-1.056c-.28-.44-.42-.955-.42-1.545 0-.478.095-.91.287-1.296.193-.387.46-.717.804-.99.343-.273.75-.482 1.219-.627.47-.144.981-.216 1.535-.216.416 0 .807.042 1.172.127a4 4 0 0 1 1.002.372h2.788zm7.55 3.393c0-.302-.042-.586-.127-.853a2.026 2.026 0 0 0-.383-.702 1.78 1.78 0 0 0-.647-.476 2.227 2.227 0 0 0-.912-.174c-.674 0-1.205.191-1.592.575-.388.383-.635.926-.742 1.63h4.404zm-4.45 1.404c.037.497.125.925.264 1.287.139.361.321.66.548.895.227.236.496.412.808.528a2.95 2.95 0 0 0 1.035.174c.378 0 .704-.044.978-.132.274-.088.514-.185.718-.292.205-.107.385-.204.539-.292a.906.906 0 0 1 .449-.132c.195 0 .34.072.435.217l.67.848a3.887 3.887 0 0 1-.869.759 4.881 4.881 0 0 1-1.006.49c-.35.122-.706.209-1.068.259a7.71 7.71 0 0 1-1.054.075 5.192 5.192 0 0 1-1.88-.334 4.21 4.21 0 0 1-1.513-.99 4.642 4.642 0 0 1-1.01-1.62c-.246-.645-.37-1.391-.37-2.24 0-.659.108-1.28.322-1.86a4.473 4.473 0 0 1 .921-1.518c.4-.43.889-.771 1.465-1.022.577-.252 1.227-.377 1.952-.377.61 0 1.175.097 1.691.292.517.194.961.479 1.333.853.371.373.663.832.874 1.376.21.543.316 1.164.316 1.86 0 .353-.037.59-.113.712-.076.123-.22.184-.435.184h-6zm18.805-3.242a.622.622 0 0 1-.198.212.515.515 0 0 1-.265.062.835.835 0 0 1-.364-.095 24.87 24.87 0 0 0-.448-.212 4.119 4.119 0 0 0-.582-.212 2.79 2.79 0 0 0-.77-.094c-.46 0-.82.097-1.082.292a.909.909 0 0 0-.392.763.73.73 0 0 0 .203.524c.136.14.315.265.539.372.223.107.477.202.76.287.284.085.572.178.865.278.293.1.581.215.865.344.283.13.537.292.76.49.224.198.404.435.54.712.135.276.202.61.202.999 0 .465-.083.894-.25 1.286a2.78 2.78 0 0 1-.742 1.018 3.501 3.501 0 0 1-1.214.67c-.482.16-1.038.24-1.668.24-.334 0-.66-.03-.978-.09a5.786 5.786 0 0 1-.917-.25 5.08 5.08 0 0 1-.813-.377 3.944 3.944 0 0 1-.656-.47l.538-.887a.76.76 0 0 1 .246-.245.69.69 0 0 1 .36-.085c.144 0 .281.041.41.123.13.082.279.17.45.264.17.094.37.182.6.264.23.081.52.122.873.122.278 0 .515-.033.714-.099.198-.066.362-.152.491-.259a.973.973 0 0 0 .284-.372c.06-.142.09-.288.09-.438a.78.78 0 0 0-.204-.556 1.778 1.778 0 0 0-.538-.377 5.211 5.211 0 0 0-.766-.288c-.286-.085-.58-.177-.879-.278a8.101 8.101 0 0 1-.879-.353 2.996 2.996 0 0 1-.765-.514 2.325 2.325 0 0 1-.539-.763c-.135-.302-.203-.666-.203-1.094 0-.395.079-.772.236-1.13a2.66 2.66 0 0 1 .695-.938c.306-.267.687-.48 1.143-.641.457-.16.985-.24 1.583-.24.668 0 1.276.11 1.824.33a4.12 4.12 0 0 1 1.37.866l-.529.84zm4.725-.848a5.068 5.068 0 0 1 1.248-.858c.453-.22.986-.33 1.597-.33.53 0 .998.09 1.408.27.41.178.751.43 1.025.753.274.324.482.71.624 1.16a4.9 4.9 0 0 1 .213 1.484v6.154h-2.335v-6.154c0-.59-.135-1.048-.406-1.372-.27-.323-.683-.485-1.238-.485a2.44 2.44 0 0 0-1.134.273c-.353.183-.687.43-1.002.745v6.993h-2.334v-14.005h2.334v5.372zm12.616-1.187a5.3 5.3 0 0 1 1.961.348 4.3 4.3 0 0 1 1.512.99c.42.427.742.949.969 1.564.227.616.34 1.304.34 2.064 0 .767-.113 1.458-.34 2.074a4.44 4.44 0 0 1-.969 1.574 4.234 4.234 0 0 1-1.512.998 5.3 5.3 0 0 1-1.96.35 5.359 5.359 0 0 1-1.976-.35 4.226 4.226 0 0 1-1.516-.998 4.495 4.495 0 0 1-.974-1.574c-.23-.616-.345-1.307-.345-2.074 0-.76.115-1.448.345-2.064.23-.615.555-1.137.974-1.564a4.288 4.288 0 0 1 1.516-.99c.593-.232 1.25-.348 1.975-.348zm0 8.17c.807 0 1.404-.27 1.791-.81.388-.54.581-1.332.581-2.375s-.193-1.838-.58-2.384c-.388-.547-.985-.82-1.792-.82-.819 0-1.425.275-1.819.824-.394.55-.59 1.343-.59 2.38s.196 1.827.59 2.37c.394.544 1 .816 1.82.816zm8.77-6.342c.303-.578.662-1.032 1.077-1.362.416-.33.908-.495 1.475-.495.447 0 .806.098 1.077.292l-.151 1.744a.45.45 0 0 1-.137.24.379.379 0 0 1-.241.071c-.095 0-.235-.016-.42-.047a3.258 3.258 0 0 0-.544-.047 1.96 1.96 0 0 0-.69.113 1.736 1.736 0 0 0-.543.325 2.21 2.21 0 0 0-.426.514c-.122.2-.237.43-.345.688v5.956h-2.334v-9.67h1.37c.24 0 .407.043.501.128.095.084.158.237.19.457l.141 1.093zm8.08 8.143c-.844 0-1.492-.238-1.942-.712-.45-.474-.676-1.13-.676-1.965v-5.4h-.992a.456.456 0 0 1-.321-.123c-.088-.081-.133-.204-.133-.367v-.924l1.56-.254.491-2.64a.517.517 0 0 1 .18-.291.535.535 0 0 1 .34-.104h1.21v3.044h2.589v1.659h-2.59v5.24c0 .301.075.537.223.707.148.17.35.254.61.254.144 0 .265-.017.363-.052.098-.034.183-.07.255-.108.073-.038.137-.074.194-.108a.325.325 0 0 1 .17-.052c.07 0 .126.017.17.052a.787.787 0 0 1 .142.155l.7 1.131a3.534 3.534 0 0 1-1.173.64 4.372 4.372 0 0 1-1.37.218zm10.67-7.776c-.07.088-.138.158-.204.208a.47.47 0 0 1-.288.075.643.643 0 0 1-.35-.108 11.256 11.256 0 0 0-.406-.245 3.042 3.042 0 0 0-.562-.245 2.59 2.59 0 0 0-.808-.109c-.41 0-.769.074-1.078.222a2.04 2.04 0 0 0-.77.636 2.863 2.863 0 0 0-.458 1.004 5.36 5.36 0 0 0-.151 1.333c0 .515.055.974.165 1.376.11.402.27.74.477 1.013.208.274.46.481.756.622.296.142.63.212 1.002.212s.672-.045.902-.136a2.85 2.85 0 0 0 .582-.302c.157-.11.294-.21.41-.301a.62.62 0 0 1 .393-.137c.189 0 .33.072.425.217l.671.848a4.216 4.216 0 0 1-.841.759 4.55 4.55 0 0 1-.94.49 4.792 4.792 0 0 1-1.002.259 7.07 7.07 0 0 1-1.025.075 4.31 4.31 0 0 1-1.692-.334 3.996 3.996 0 0 1-1.39-.976 4.656 4.656 0 0 1-.94-1.569c-.23-.619-.344-1.324-.344-2.116 0-.71.102-1.368.307-1.974a4.47 4.47 0 0 1 .902-1.574 4.14 4.14 0 0 1 1.474-1.041c.586-.252 1.26-.377 2.023-.377.724 0 1.36.116 1.904.348a4.653 4.653 0 0 1 1.47 1l-.615.847zm10.517-2.045v9.67h-1.427c-.308 0-.504-.142-.586-.424l-.16-.773a5.207 5.207 0 0 1-1.314.975c-.479.249-1.042.373-1.691.373-.53 0-.997-.09-1.404-.269a2.81 2.81 0 0 1-1.025-.759 3.319 3.319 0 0 1-.628-1.164 4.914 4.914 0 0 1-.213-1.484v-6.145h2.334v6.145c0 .59.137 1.048.411 1.371.274.324.685.486 1.233.486.404 0 .782-.09 1.134-.269a3.964 3.964 0 0 0 1.002-.74v-6.993h2.334zm5.538 9.82c-.844 0-1.491-.237-1.942-.71-.45-.475-.676-1.13-.676-1.966v-5.4h-.992a.456.456 0 0 1-.321-.123c-.088-.081-.132-.204-.132-.367v-.924l1.559-.254.491-2.64a.517.517 0 0 1 .18-.291.535.535 0 0 1 .34-.104h1.21v3.044h2.589v1.659h-2.59v5.24c0 .301.075.537.223.707.148.17.35.254.61.254.144 0 .265-.017.363-.052.098-.034.183-.07.255-.108.073-.038.137-.074.194-.108a.325.325 0 0 1 .17-.052c.07 0 .126.017.17.052a.787.787 0 0 1 .142.155l.7 1.131a3.534 3.534 0 0 1-1.173.64 4.372 4.372 0 0 1-1.37.218zm9.715-7.935a.622.622 0 0 1-.199.212.515.515 0 0 1-.264.062.835.835 0 0 1-.364-.095 24.87 24.87 0 0 0-.449-.212 4.119 4.119 0 0 0-.581-.212 2.79 2.79 0 0 0-.77-.094c-.46 0-.82.097-1.082.292a.909.909 0 0 0-.392.763c0 .208.067.382.203.524.135.14.315.265.538.372.224.107.478.202.761.287.284.085.572.178.865.278.293.1.581.215.864.344.284.13.538.292.761.49.224.198.403.435.539.712.135.276.203.61.203.999 0 .465-.083.894-.25 1.286a2.78 2.78 0 0 1-.742 1.018 3.501 3.501 0 0 1-1.215.67c-.482.16-1.037.24-1.668.24-.333 0-.66-.03-.978-.09a5.786 5.786 0 0 1-.916-.25 5.08 5.08 0 0 1-.813-.377 3.944 3.944 0 0 1-.657-.47l.539-.887a.76.76 0 0 1 .246-.245.69.69 0 0 1 .359-.085c.145 0 .282.041.41.123.13.082.28.17.45.264.17.094.37.182.6.264.23.081.521.122.874.122.277 0 .515-.033.713-.099.199-.066.363-.152.492-.259a.973.973 0 0 0 .283-.372c.06-.142.09-.288.09-.438a.78.78 0 0 0-.203-.556 1.778 1.778 0 0 0-.539-.377 5.211 5.211 0 0 0-.765-.288 25.03 25.03 0 0 1-.88-.278 8.168 8.168 0 0 1-.878-.353 2.996 2.996 0 0 1-.765-.514 2.325 2.325 0 0 1-.54-.763c-.135-.302-.202-.666-.202-1.094 0-.395.078-.772.236-1.13.157-.359.389-.671.695-.938.305-.267.686-.48 1.143-.641.457-.16.984-.24 1.583-.24.668 0 1.276.11 1.824.33a4.12 4.12 0 0 1 1.37.866l-.53.84zm8.826 5.74c.366.54.767.919 1.205 1.135.438.217.931.326 1.48.326.56 0 1.05-.101 1.469-.302a2.817 2.817 0 0 0 1.049-.862c.28-.374.49-.828.628-1.362a7.174 7.174 0 0 0 .208-1.8c0-1.295-.258-2.268-.775-2.922-.517-.653-1.241-.98-2.173-.98-.668 0-1.251.16-1.749.48-.497.321-.945.767-1.342 1.339v4.948zm0-5.702a4.74 4.74 0 0 1 1.437-1.305c.548-.318 1.184-.476 1.909-.476.567 0 1.074.103 1.521.31.448.208.827.506 1.139.896.312.39.55.869.713 1.437.164.569.246 1.214.246 1.937 0 .76-.091 1.453-.274 2.078-.183.625-.449 1.16-.798 1.602a3.6 3.6 0 0 1-1.281 1.028c-.504.241-1.08.362-1.73.362-.667 0-1.236-.127-1.705-.381-.47-.255-.874-.633-1.214-1.136l-.067 1.16c-.018.156-.104.235-.255.235h-.548v-13.713h.907v5.966zm16.888-1.63l-5.406 12.393a.642.642 0 0 1-.146.216c-.06.057-.147.085-.26.085h-.643l1.654-3.666-3.978-9.029h.746a.344.344 0 0 1 .34.227l3.166 7.294c.038.094.071.19.1.288.028.097.055.196.08.297a8.2 8.2 0 0 1 .208-.585l3.128-7.294a.406.406 0 0 1 .132-.165.316.316 0 0 1 .189-.062h.69zm9.62 5.23c.403 0 .762-.058 1.077-.174.315-.117.58-.278.794-.486.214-.207.378-.455.492-.744.113-.29.17-.61.17-.961 0-.352-.059-.674-.175-.966a2.092 2.092 0 0 0-.5-.75 2.238 2.238 0 0 0-.795-.48 3.106 3.106 0 0 0-1.063-.17c-.397 0-.751.057-1.063.17a2.238 2.238 0 0 0-.794.48 2.041 2.041 0 0 0-.496.75c-.113.292-.17.614-.17.966 0 .351.057.672.17.96.113.29.279.538.496.745.217.208.482.37.794.486a3.03 3.03 0 0 0 1.063.174zm3.516 4.778c0-.295-.078-.532-.232-.711a1.531 1.531 0 0 0-.619-.42 3.687 3.687 0 0 0-.893-.212c-.337-.04-.69-.07-1.058-.09l-1.11-.056a8.792 8.792 0 0 1-1.05-.113c-.24.094-.46.203-.661.325a2.39 2.39 0 0 0-.52.42 1.87 1.87 0 0 0-.34.513 1.464 1.464 0 0 0-.123.599c0 .276.07.532.213.768.141.235.35.44.623.612.274.173.61.31 1.007.41.397.1.853.151 1.37.151.479 0 .924-.053 1.337-.16a3.73 3.73 0 0 0 1.077-.452 2.31 2.31 0 0 0 .719-.698c.173-.27.26-.565.26-.886zm.982-9.594v.311c0 .138-.088.223-.264.255l-1.437.103c.177.24.312.506.407.801.094.296.141.616.141.962 0 .452-.08.862-.24 1.23a2.705 2.705 0 0 1-.68.942c-.294.26-.647.463-1.06.608a4.108 4.108 0 0 1-1.365.217 4.189 4.189 0 0 1-1.465-.245c-.264.15-.474.328-.628.532-.154.204-.232.407-.232.608 0 .27.096.477.289.622.192.145.444.25.756.316.311.066.667.108 1.067.127l1.224.061c.416.022.824.061 1.224.118a3.9 3.9 0 0 1 1.068.297c.312.141.564.34.756.594.192.254.288.592.288 1.013a2.3 2.3 0 0 1-.293 1.121 2.973 2.973 0 0 1-.846.952 4.469 4.469 0 0 1-1.337.665 5.779 5.779 0 0 1-1.758.25c-.661 0-1.24-.068-1.738-.203s-.915-.318-1.252-.547a2.397 2.397 0 0 1-.761-.796 1.927 1.927 0 0 1-.255-.962c0-.496.163-.922.491-1.277.328-.355.775-.633 1.342-.834a1.827 1.827 0 0 1-.76-.466c-.193-.204-.289-.482-.289-.834 0-.132.025-.27.076-.415.05-.144.126-.287.226-.429.101-.141.224-.275.369-.4.145-.126.309-.239.491-.34a2.798 2.798 0 0 1-1.044-1.027c-.249-.427-.373-.927-.373-1.498 0-.453.08-.863.24-1.23.161-.368.39-.683.686-.947.296-.264.65-.468 1.063-.613a4.139 4.139 0 0 1 1.375-.217c.416 0 .799.05 1.148.151.35.1.663.242.94.424h2.41zm5.68-.565c.674 0 1.277.114 1.81.344.532.229.98.554 1.346.975.366.421.644.928.837 1.522.192.594.288 1.258.288 1.993 0 .736-.096 1.398-.288 1.989a4.323 4.323 0 0 1-.837 1.517 3.641 3.641 0 0 1-1.346.971c-.533.226-1.136.34-1.81.34-.674 0-1.277-.114-1.81-.34a3.684 3.684 0 0 1-1.351-.97 4.283 4.283 0 0 1-.841-1.518c-.192-.59-.288-1.253-.288-1.989 0-.735.096-1.4.288-1.993a4.277 4.277 0 0 1 .84-1.522 3.732 3.732 0 0 1 1.352-.975c.533-.23 1.136-.344 1.81-.344zm0 8.944c.56 0 1.05-.096 1.47-.288a2.781 2.781 0 0 0 1.048-.825c.28-.358.49-.79.629-1.295a6.437 6.437 0 0 0 .208-1.702c0-.622-.07-1.187-.208-1.696a3.679 3.679 0 0 0-.629-1.305c-.28-.362-.63-.64-1.049-.834-.419-.195-.908-.292-1.47-.292-.56 0-1.05.097-1.469.292a2.805 2.805 0 0 0-1.049.834 3.74 3.74 0 0 0-.633 1.305 6.316 6.316 0 0 0-.212 1.696c0 .629.07 1.196.212 1.702.142.505.353.937.633 1.295.28.359.63.633 1.05.825.418.192.908.288 1.469.288zm7.825-8.794v9.378h-.898v-9.378h.898zm.387-3.232a.714.714 0 0 1-.07.316.947.947 0 0 1-.185.259.855.855 0 0 1-.265.179.795.795 0 0 1-.32.066.795.795 0 0 1-.322-.066.855.855 0 0 1-.444-.438.822.822 0 0 1 0-.64.838.838 0 0 1 .765-.515c.113 0 .22.022.321.066a.855.855 0 0 1 .45.448c.047.103.07.212.07.325zm3.676 4.872c.435-.54.937-.974 1.508-1.3a3.761 3.761 0 0 1 1.904-.49c.516 0 .972.081 1.365.245.394.163.72.399.978.707.259.307.454.678.586 1.112.133.433.199.923.199 1.47v5.994h-.907v-5.994c0-.88-.202-1.57-.605-2.069-.403-.5-1.018-.749-1.843-.749-.611 0-1.183.155-1.715.466a4.84 4.84 0 0 0-1.423 1.296v7.05h-.907v-9.378h.501c.158 0 .249.079.274.236l.085 1.404zm12.607 3.591c.403 0 .762-.058 1.077-.174.315-.117.58-.278.794-.486a2.07 2.07 0 0 0 .491-.744c.114-.29.17-.61.17-.961 0-.352-.058-.674-.174-.966a2.092 2.092 0 0 0-.501-.75 2.238 2.238 0 0 0-.794-.48 3.106 3.106 0 0 0-1.063-.17c-.397 0-.752.057-1.063.17a2.238 2.238 0 0 0-.794.48 2.041 2.041 0 0 0-.496.75c-.114.292-.17.614-.17.966 0 .351.056.672.17.96.113.29.278.538.496.745.217.208.482.37.794.486a3.03 3.03 0 0 0 1.063.174zm3.515 4.778c0-.295-.077-.532-.231-.711a1.531 1.531 0 0 0-.62-.42 3.687 3.687 0 0 0-.892-.212c-.337-.04-.69-.07-1.059-.09l-1.11-.056a8.792 8.792 0 0 1-1.05-.113 4.31 4.31 0 0 0-.66.325 2.39 2.39 0 0 0-.52.42 1.87 1.87 0 0 0-.34.513 1.464 1.464 0 0 0-.123.599c0 .276.07.532.212.768.142.235.35.44.624.612.274.173.61.31 1.006.41.397.1.854.151 1.37.151.48 0 .925-.053 1.338-.16a3.73 3.73 0 0 0 1.077-.452 2.31 2.31 0 0 0 .718-.698c.174-.27.26-.565.26-.886zm.983-9.594v.311c0 .138-.088.223-.265.255l-1.436.103c.176.24.312.506.406.801.095.296.142.616.142.962 0 .452-.08.862-.24 1.23a2.695 2.695 0 0 1-.681.942c-.293.26-.646.463-1.059.608a4.108 4.108 0 0 1-1.365.217 4.189 4.189 0 0 1-1.465-.245c-.265.15-.474.328-.628.532-.155.204-.232.407-.232.608 0 .27.096.477.288.622.192.145.444.25.756.316s.668.108 1.068.127l1.224.061c.416.022.824.061 1.224.118a3.9 3.9 0 0 1 1.068.297c.311.141.563.34.756.594.192.254.288.592.288 1.013 0 .39-.098.763-.293 1.121a2.973 2.973 0 0 1-.846.952 4.469 4.469 0 0 1-1.337.665 5.779 5.779 0 0 1-1.758.25c-.661 0-1.24-.068-1.739-.203-.497-.135-.915-.318-1.252-.547a2.397 2.397 0 0 1-.76-.796 1.927 1.927 0 0 1-.256-.962c0-.496.164-.922.492-1.277.327-.355.775-.633 1.342-.834a1.827 1.827 0 0 1-.761-.466c-.192-.204-.288-.482-.288-.834 0-.132.025-.27.075-.415.05-.144.126-.287.227-.429.1-.141.224-.275.369-.4.145-.126.308-.239.491-.34a2.798 2.798 0 0 1-1.044-1.027c-.25-.427-.373-.927-.373-1.498 0-.453.08-.863.24-1.23.161-.368.39-.683.686-.947.296-.264.65-.468 1.063-.613a4.139 4.139 0 0 1 1.375-.217c.416 0 .798.05 1.148.151.35.1.663.242.94.424h2.41zm9.781 9.114c-.636 0-1.132-.176-1.488-.528-.356-.352-.534-.895-.534-1.63v-6.41h-1.352a.253.253 0 0 1-.17-.056.2.2 0 0 1-.066-.16v-.349l1.607-.113.226-3.355a.342.342 0 0 1 .076-.15.2.2 0 0 1 .16-.067h.426v3.582h2.967v.669h-2.967v6.361c0 .258.033.48.1.665.065.185.157.337.273.457.117.12.254.207.411.264a1.5 1.5 0 0 0 .51.085c.227 0 .423-.033.586-.1a2.414 2.414 0 0 0 .719-.433c.075-.066.135-.099.18-.099.05 0 .1.031.15.094l.246.396a2.62 2.62 0 0 1-.912.636c-.368.16-.751.24-1.148.24zm7.598-9.68c.674 0 1.277.115 1.81.345.532.229.98.554 1.346.975.366.421.644.928.837 1.522.192.594.288 1.258.288 1.993 0 .736-.096 1.398-.288 1.989a4.323 4.323 0 0 1-.837 1.517 3.641 3.641 0 0 1-1.346.971c-.533.226-1.136.34-1.81.34-.674 0-1.277-.114-1.81-.34a3.684 3.684 0 0 1-1.351-.97 4.283 4.283 0 0 1-.841-1.518c-.192-.59-.288-1.253-.288-1.989 0-.735.096-1.4.288-1.993a4.277 4.277 0 0 1 .84-1.522 3.732 3.732 0 0 1 1.352-.975c.533-.23 1.136-.344 1.81-.344zm0 8.945c.56 0 1.05-.096 1.47-.288a2.781 2.781 0 0 0 1.048-.825c.28-.358.49-.79.629-1.295a6.437 6.437 0 0 0 .208-1.702c0-.622-.07-1.187-.208-1.696a3.679 3.679 0 0 0-.629-1.305c-.28-.362-.63-.64-1.049-.834-.419-.195-.908-.292-1.47-.292-.56 0-1.05.097-1.469.292a2.805 2.805 0 0 0-1.049.834 3.74 3.74 0 0 0-.633 1.305 6.316 6.316 0 0 0-.212 1.696c0 .629.07 1.196.212 1.702.142.505.353.937.633 1.295.28.359.63.633 1.05.825.418.192.908.288 1.469.288zm-239.987 26.972v-9.377h.5c.158 0 .25.079.275.236l.085 1.357a4.897 4.897 0 0 1 1.257-1.263 2.78 2.78 0 0 1 1.597-.48c.686 0 1.236.197 1.649.593.412.396.691.946.836 1.65a3.3 3.3 0 0 1 .477-1c.205-.283.44-.517.704-.702a2.84 2.84 0 0 1 .865-.41 3.52 3.52 0 0 1 .96-.132c.465 0 .884.077 1.256.231.372.154.687.382.945.683.258.302.457.673.596 1.112.138.44.207.943.207 1.508v5.994h-.897v-5.994c0-.917-.199-1.616-.596-2.097-.397-.48-.964-.72-1.7-.72-.328 0-.642.06-.941.179-.3.119-.564.296-.794.532-.23.236-.412.53-.548.881-.135.352-.203.76-.203 1.225v5.994h-.907v-5.994c0-.91-.181-1.608-.544-2.092-.362-.484-.893-.726-1.592-.726-.51 0-.983.151-1.418.453-.434.301-.822.72-1.162 1.253v7.106h-.907zm21.81-5.636c0-.502-.07-.953-.212-1.352a2.868 2.868 0 0 0-.6-1.013 2.618 2.618 0 0 0-.921-.636 3.042 3.042 0 0 0-1.177-.222c-.485 0-.92.076-1.304.227-.384.15-.717.367-.997.65a3.25 3.25 0 0 0-.676 1.018c-.17.395-.283.838-.34 1.328h6.228zm-6.274.575v.18c0 .703.082 1.322.246 1.856.163.534.397.982.699 1.343.302.361.668.633 1.096.815.429.182.907.274 1.437.274a4.31 4.31 0 0 0 1.228-.156 4.586 4.586 0 0 0 1.437-.697c.138-.104.239-.156.302-.156.082 0 .145.032.189.094l.246.302a2.562 2.562 0 0 1-.6.528 4.287 4.287 0 0 1-.832.42 6.072 6.072 0 0 1-.983.277c-.35.07-.7.104-1.054.104a4.482 4.482 0 0 1-1.757-.335 3.726 3.726 0 0 1-1.361-.975 4.418 4.418 0 0 1-.874-1.57c-.205-.618-.307-1.327-.307-2.125 0-.672.096-1.292.288-1.86a4.26 4.26 0 0 1 .831-1.471 3.79 3.79 0 0 1 1.333-.966c.526-.233 1.123-.349 1.79-.349.53 0 1.021.091 1.475.274.454.182.847.447 1.181.796.334.349.597.777.79 1.286.191.51.288 1.094.288 1.753 0 .138-.02.233-.057.283-.038.05-.101.075-.19.075h-6.841zm10.395-2.676c.435-.54.937-.974 1.507-1.3a3.761 3.761 0 0 1 1.905-.49c.516 0 .971.08 1.365.244.394.164.72.4.978.707.259.308.454.679.586 1.112.132.434.199.924.199 1.47v5.994h-.908v-5.994c0-.88-.201-1.569-.604-2.068-.404-.5-1.018-.75-1.843-.75-.611 0-1.183.156-1.715.467a4.84 4.84 0 0 0-1.423 1.296v7.05h-.907v-9.378h.501c.157 0 .249.079.274.236l.085 1.404zm16.83-1.64v9.377h-.5c-.158 0-.249-.081-.274-.245l-.085-1.395c-.435.54-.937.974-1.507 1.301a3.76 3.76 0 0 1-1.905.49c-.523 0-.98-.082-1.37-.245a2.514 2.514 0 0 1-.973-.707 3.126 3.126 0 0 1-.586-1.112 5.033 5.033 0 0 1-.199-1.47v-5.994h.908v5.994c0 .88.201 1.57.604 2.069.404.5 1.018.749 1.843.749.611 0 1.183-.156 1.715-.467a4.84 4.84 0 0 0 1.423-1.296v-7.049h.907zm33.634 3.402h4.394v.764H-2231v-.764zm15.007-.546v.386l-7.088 3.638v-.613c0-.069.02-.13.057-.184a.499.499 0 0 1 .189-.146l5.235-2.648c.101-.05.207-.094.317-.132.11-.038.228-.072.354-.103a2.942 2.942 0 0 1-.67-.246l-5.236-2.638c-.164-.088-.246-.198-.246-.33v-.613l7.088 3.629zm13.495-1.697a.238.238 0 0 1-.218.132c-.069 0-.157-.04-.264-.118a3.494 3.494 0 0 0-1.096-.528 3.423 3.423 0 0 0-.964-.117c-.34 0-.65.048-.931.146a2.31 2.31 0 0 0-.718.391 1.724 1.724 0 0 0-.459.57c-.107.217-.16.445-.16.683 0 .296.075.54.226.736.152.194.348.36.591.499.243.138.521.258.836.358.315.1.635.201.96.302.324.1.644.212.959.334a3.5 3.5 0 0 1 .836.457c.243.183.44.406.59.67.152.263.228.584.228.96 0 .41-.073.79-.218 1.141a2.541 2.541 0 0 1-.638.914c-.28.258-.625.462-1.035.613a4.06 4.06 0 0 1-1.408.226c-.661 0-1.231-.105-1.71-.316a4.803 4.803 0 0 1-1.285-.824l.208-.32a.342.342 0 0 1 .108-.114.314.314 0 0 1 .166-.037c.082 0 .18.05.297.15.117.1.273.21.468.325.195.117.436.225.723.326.287.1.641.15 1.063.15a3.07 3.07 0 0 0 1.05-.165c.302-.11.554-.259.755-.447.202-.189.355-.41.459-.665a2.11 2.11 0 0 0 .155-.805c0-.315-.075-.575-.226-.783a1.942 1.942 0 0 0-.596-.527 4.167 4.167 0 0 0-.836-.368c-.312-.1-.632-.201-.96-.302-.327-.1-.647-.21-.958-.33a3.49 3.49 0 0 1-.837-.452 2.184 2.184 0 0 1-.595-.664c-.151-.26-.227-.586-.227-.976 0-.333.073-.653.217-.96.145-.309.352-.579.62-.811.267-.233.593-.418.977-.556a3.806 3.806 0 0 1 1.295-.208c.573 0 1.082.082 1.526.245a3.6 3.6 0 0 1 1.215.754l-.19.311zm9.46 2.582c0-.502-.072-.953-.213-1.352a2.868 2.868 0 0 0-.6-1.013 2.618 2.618 0 0 0-.922-.636 3.042 3.042 0 0 0-1.176-.222c-.485 0-.92.076-1.304.227a2.83 2.83 0 0 0-.997.65 3.25 3.25 0 0 0-.676 1.018c-.17.395-.284.838-.34 1.328h6.227zm-6.276.575v.18c0 .703.082 1.322.246 1.856.164.534.397.982.7 1.343.302.361.667.633 1.096.815.428.182.907.274 1.436.274a4.31 4.31 0 0 0 1.229-.156 4.586 4.586 0 0 0 1.436-.697c.139-.104.24-.156.302-.156.082 0 .145.032.19.094l.245.302a2.562 2.562 0 0 1-.6.528 4.287 4.287 0 0 1-.832.42 6.072 6.072 0 0 1-.982.277c-.35.07-.701.104-1.054.104a4.482 4.482 0 0 1-1.758-.335 3.726 3.726 0 0 1-1.36-.975c-.379-.427-.67-.95-.875-1.57-.205-.618-.307-1.327-.307-2.125 0-.672.096-1.292.288-1.86a4.26 4.26 0 0 1 .832-1.471 3.79 3.79 0 0 1 1.332-.966c.526-.233 1.123-.349 1.791-.349a3.9 3.9 0 0 1 1.474.274c.454.182.848.447 1.182.796.334.349.597.777.789 1.286.192.51.288 1.094.288 1.753 0 .138-.019.233-.057.283-.037.05-.1.075-.189.075h-6.842zm23.106 5.061h-.907v-8.416h-5.254v6.362c0 .257.033.479.099.664.066.186.157.338.274.457.116.12.253.208.41.264a1.5 1.5 0 0 0 .511.085c.227 0 .422-.033.586-.099a2.574 2.574 0 0 0 .718-.433c.076-.066.136-.1.18-.1.05 0 .1.032.151.095l.246.396a2.62 2.62 0 0 1-.912.636c-.369.16-.751.24-1.148.24-.637 0-1.133-.176-1.489-.528-.356-.352-.534-.895-.534-1.63v-6.409h-5.074v6.362c0 .257.033.479.099.664.066.186.157.338.274.457.116.12.253.208.411.264a1.5 1.5 0 0 0 .51.085c.227 0 .422-.033.586-.099a2.574 2.574 0 0 0 .718-.433c.076-.066.136-.1.18-.1.05 0 .1.032.151.095l.246.396a2.62 2.62 0 0 1-.912.636c-.369.16-.751.24-1.148.24-.637 0-1.133-.176-1.489-.528-.356-.352-.534-.895-.534-1.63v-6.409h-1.351a.253.253 0 0 1-.17-.056.2.2 0 0 1-.066-.16v-.35l1.606-.112.227-3.355a.342.342 0 0 1 .076-.151.2.2 0 0 1 .16-.066h.426v3.581h5.093l.227-3.364a.342.342 0 0 1 .076-.151.2.2 0 0 1 .16-.066h.426v3.581h6.161v9.085zm.406-12.723a.714.714 0 0 1-.07.316.9.9 0 0 1-.459.438.795.795 0 0 1-.321.066.795.795 0 0 1-.321-.066.855.855 0 0 1-.445-.438.822.822 0 0 1 0-.64.838.838 0 0 1 .766-.514c.113 0 .22.022.321.065.101.044.19.104.27.18a.863.863 0 0 1 .189.268c.047.104.07.212.07.325zm3.658 4.986a5.31 5.31 0 0 1 1.507-1.3 3.761 3.761 0 0 1 1.904-.49c.517 0 .972.08 1.366.244.393.164.72.4.978.707.258.308.453.679.586 1.112.132.434.198.924.198 1.47v5.994h-.907v-5.994c0-.88-.202-1.569-.605-2.068-.403-.5-1.017-.75-1.843-.75-.61 0-1.182.156-1.715.467a4.84 4.84 0 0 0-1.422 1.296v7.05h-.907v-9.378h.5c.158 0 .25.079.275.236l.085 1.404zm12.606 3.59a3.11 3.11 0 0 0 1.078-.174c.315-.116.58-.278.793-.485.215-.207.378-.456.492-.745.113-.289.17-.61.17-.961 0-.352-.058-.674-.175-.966a2.092 2.092 0 0 0-.5-.75 2.238 2.238 0 0 0-.795-.48 3.106 3.106 0 0 0-1.063-.17c-.397 0-.751.057-1.063.17a2.238 2.238 0 0 0-.794.48 2.041 2.041 0 0 0-.496.75c-.113.292-.17.614-.17.966s.057.672.17.961c.114.29.279.538.496.745a2.3 2.3 0 0 0 .794.485 3.03 3.03 0 0 0 1.063.175zm3.516 4.779c0-.296-.078-.533-.232-.712a1.531 1.531 0 0 0-.619-.42 3.687 3.687 0 0 0-.893-.211c-.337-.041-.69-.07-1.058-.09l-1.11-.056a8.792 8.792 0 0 1-1.05-.113 4.19 4.19 0 0 0-.661.325 2.39 2.39 0 0 0-.52.42 1.87 1.87 0 0 0-.34.513 1.464 1.464 0 0 0-.123.598c0 .277.07.533.213.768.141.236.35.44.623.613.274.173.61.31 1.007.41.397.1.853.15 1.37.15.479 0 .925-.053 1.337-.16a3.73 3.73 0 0 0 1.078-.452 2.31 2.31 0 0 0 .718-.697c.173-.27.26-.566.26-.886zm.982-9.594v.31c0 .139-.088.224-.264.255l-1.437.104c.177.239.312.506.407.8.094.296.142.617.142.962 0 .453-.08.863-.241 1.23a2.7 2.7 0 0 1-.68.943 3.14 3.14 0 0 1-1.06.607 4.108 4.108 0 0 1-1.365.217 4.189 4.189 0 0 1-1.465-.245c-.264.15-.474.328-.628.533-.154.204-.232.406-.232.607 0 .27.097.478.289.622.192.145.444.25.756.316s.668.109 1.068.127l1.223.062c.416.022.824.061 1.224.118a3.9 3.9 0 0 1 1.068.296c.312.142.564.34.756.594.192.255.288.592.288 1.013 0 .39-.097.764-.293 1.122a2.973 2.973 0 0 1-.845.952 4.469 4.469 0 0 1-1.338.664 5.779 5.779 0 0 1-1.757.25c-.662 0-1.242-.068-1.74-.203-.497-.135-.914-.317-1.251-.546a2.397 2.397 0 0 1-.761-.797 1.927 1.927 0 0 1-.255-.961c0-.496.164-.922.491-1.277.328-.355.775-.633 1.342-.834a1.827 1.827 0 0 1-.76-.467c-.193-.204-.289-.482-.289-.834 0-.132.025-.27.076-.414a1.73 1.73 0 0 1 .226-.43c.101-.14.224-.274.37-.4.144-.125.308-.239.49-.34a2.798 2.798 0 0 1-1.044-1.026c-.249-.428-.373-.927-.373-1.499 0-.452.08-.862.24-1.23a2.73 2.73 0 0 1 .686-.947c.296-.264.65-.468 1.063-.612a4.139 4.139 0 0 1 1.375-.217c.416 0 .799.05 1.148.15.35.101.663.242.94.425h2.41zm7.249.744a.238.238 0 0 1-.218.132c-.069 0-.157-.04-.264-.118a3.494 3.494 0 0 0-1.096-.528 3.423 3.423 0 0 0-.964-.117c-.34 0-.65.048-.931.146a2.31 2.31 0 0 0-.718.391 1.724 1.724 0 0 0-.459.57c-.107.217-.16.445-.16.683 0 .296.075.54.226.736.152.194.349.36.591.499.243.138.521.258.836.358.315.1.635.201.96.302.324.1.644.212.959.334a3.5 3.5 0 0 1 .836.457c.243.183.44.406.59.67.152.263.228.584.228.96 0 .41-.073.79-.218 1.141a2.541 2.541 0 0 1-.638.914c-.28.258-.625.462-1.034.613a4.06 4.06 0 0 1-1.409.226c-.661 0-1.231-.105-1.71-.316a4.803 4.803 0 0 1-1.285-.824l.208-.32a.342.342 0 0 1 .108-.114.314.314 0 0 1 .166-.037c.082 0 .18.05.297.15.117.1.273.21.468.325.195.117.436.225.723.326.287.1.641.15 1.063.15a3.07 3.07 0 0 0 1.05-.165c.302-.11.554-.259.755-.447.202-.189.355-.41.459-.665a2.11 2.11 0 0 0 .156-.805c0-.315-.076-.575-.227-.783a1.942 1.942 0 0 0-.596-.527 4.167 4.167 0 0 0-.836-.368c-.312-.1-.632-.201-.96-.302-.327-.1-.647-.21-.958-.33a3.49 3.49 0 0 1-.837-.452 2.184 2.184 0 0 1-.595-.664c-.151-.26-.227-.586-.227-.976 0-.333.073-.653.217-.96.145-.309.352-.579.62-.811.267-.233.593-.418.978-.556a3.806 3.806 0 0 1 1.294-.208c.574 0 1.082.082 1.526.245a3.6 3.6 0 0 1 1.215.754l-.19.311z" fill="#727272"/><path d="M-2118.632 383.118a3.353 3.353 0 0 1-1.024-2.427 3.4 3.4 0 0 1 1.024-2.428c.11-.11.22-.193.36-.303.193-.138.248-.386.193-.607-.221-.8-.553-1.572-.94-2.29a.562.562 0 0 0-.554-.275c-.193.027-.332.027-.47.027-1.908 0-3.457-1.544-3.457-3.42 0-.138 0-.304.027-.469a.56.56 0 0 0-.276-.552 11.14 11.14 0 0 0-2.296-.938.621.621 0 0 0-.609.194c-.11.137-.22.275-.304.358a3.508 3.508 0 0 1-2.434.993 3.459 3.459 0 0 1-2.434-.993c-.11-.11-.193-.22-.304-.358-.138-.194-.387-.249-.608-.194-.803.249-1.577.552-2.296.938a.56.56 0 0 0-.277.552c.028.193.028.331.028.469 0 1.903-1.549 3.42-3.458 3.42-.138 0-.304 0-.47-.027a.562.562 0 0 0-.553.276c-.387.717-.719 1.49-.94 2.289-.056.22 0 .469.193.607.166.11.277.22.36.303 1.355 1.324 1.355 3.503 0 4.855-.11.11-.221.193-.36.303-.193.138-.249.387-.193.607.249.8.553 1.573.94 2.29.11.193.332.303.553.276.194-.028.332-.028.47-.028 1.909 0 3.458 1.545 3.458 3.42 0 .138 0 .304-.028.47a.56.56 0 0 0 .277.551c.719.386 1.493.717 2.296.938.22.055.47 0 .608-.193.11-.138.221-.276.304-.359a3.508 3.508 0 0 1 2.434-.993 3.46 3.46 0 0 1 2.434.993c.11.11.194.22.304.359.111.138.277.22.443.22.055 0 .11 0 .166-.027a12.917 12.917 0 0 0 2.296-.938.56.56 0 0 0 .276-.552c-.027-.193-.027-.33-.027-.469 0-1.903 1.549-3.42 3.457-3.42.138 0 .304 0 .47.028a.562.562 0 0 0 .553-.276c.388-.717.72-1.49.94-2.29.056-.22 0-.469-.193-.607-.138-.11-.276-.193-.36-.303zm-1.19 2.345h-.249c-2.517 0-4.563 2.04-4.563 4.523v.249c-.443.22-.913.413-1.411.579l-.166-.166a4.503 4.503 0 0 0-3.208-1.324 4.503 4.503 0 0 0-3.209 1.324l-.166.166c-.47-.166-.94-.359-1.41-.58v-.248c0-2.51-2.047-4.523-4.564-4.523h-.25c-.22-.442-.414-.91-.58-1.407l.166-.166c1.77-1.765 1.77-4.634 0-6.427l-.166-.165c.166-.47.36-.938.58-1.407h.25c2.517 0 4.564-2.041 4.564-4.524v-.248c.442-.22.912-.414 1.41-.58l.166.166a4.503 4.503 0 0 0 3.209 1.324 4.503 4.503 0 0 0 3.208-1.324l.166-.165c.47.165.94.358 1.41.58v.247c0 2.51 2.047 4.524 4.564 4.524h.25c.22.441.414.91.58 1.407l-.166.165a4.478 4.478 0 0 0-1.327 3.2 4.48 4.48 0 0 0 1.327 3.2l.166.165c-.166.524-.36.993-.58 1.435zm-9.57-11.337c-3.623 0-6.583 2.951-6.583 6.565 0 3.613 2.96 6.565 6.583 6.565 3.624 0 6.583-2.952 6.583-6.565 0-3.614-2.96-6.565-6.583-6.565zm0 12.026c-3.015 0-5.476-2.455-5.476-5.461 0-3.007 2.461-5.462 5.476-5.462s5.477 2.455 5.477 5.462c0 3.006-2.462 5.461-5.477 5.461z" opacity=".37" fill="#000"/><path d="M-2254.134 374.094h15.12v1.885h-15.12zm0 5.655h15.12v1.885h-15.12zm0 5.654h15.12v1.885h-15.12z" opacity=".366" fill="#000"/><path d="M-2294.637 217.225h-5.3v15.113h-3.763v-15.113h-5.3V214.2h14.362v3.025zm6.037 15.113h-3.775V214.2h3.775v18.138zm9.925-9.113c1.175 0 2.035-.283 2.581-.85.546-.567.819-1.342.819-2.325 0-.45-.069-.86-.206-1.231a2.456 2.456 0 0 0-.625-.95 2.816 2.816 0 0 0-1.056-.607c-.426-.141-.93-.212-1.513-.212h-2.375v6.175h2.375zm0-9.025c1.242 0 2.315.146 3.219.438.904.291 1.648.697 2.231 1.218a4.788 4.788 0 0 1 1.294 1.857c.279.716.418 1.495.418 2.337 0 .892-.145 1.708-.437 2.45a5.009 5.009 0 0 1-1.325 1.912c-.592.534-1.337.948-2.238 1.244-.9.296-1.954.444-3.162.444h-2.375v6.238h-3.75V214.2h6.125zm19.375 3.475a1.424 1.424 0 0 1-.356.419.78.78 0 0 1-.469.131c-.183 0-.381-.065-.594-.194-.212-.129-.46-.268-.743-.418a7.207 7.207 0 0 0-.975-.42 3.91 3.91 0 0 0-1.288-.193c-.867 0-1.517.194-1.95.581-.433.388-.65.894-.65 1.519 0 .4.119.731.356.994.238.262.55.49.938.681.387.192.827.362 1.319.512.491.15.995.315 1.512.494.517.18 1.02.39 1.513.631a5.32 5.32 0 0 1 1.318.913c.388.367.7.815.938 1.344.237.529.356 1.173.356 1.931a6.2 6.2 0 0 1-.431 2.319 5.498 5.498 0 0 1-1.244 1.887c-.542.538-1.21.96-2.006 1.269-.796.308-1.698.463-2.707.463a8.563 8.563 0 0 1-1.718-.175 9.914 9.914 0 0 1-1.65-.488 9.102 9.102 0 0 1-1.494-.75 6.566 6.566 0 0 1-1.225-.975l1.1-1.775a1.11 1.11 0 0 1 .362-.331.928.928 0 0 1 .475-.132c.226 0 .463.084.713.25.25.167.537.35.862.55.326.2.703.384 1.132.55.429.167.943.25 1.543.25.876 0 1.553-.2 2.032-.6.479-.4.718-.995.718-1.787 0-.458-.118-.83-.356-1.113a2.865 2.865 0 0 0-.931-.712 7.38 7.38 0 0 0-1.313-.494c-.491-.137-.995-.29-1.512-.456a12.41 12.41 0 0 1-1.513-.6 4.68 4.68 0 0 1-1.312-.925 4.381 4.381 0 0 1-.931-1.425c-.238-.567-.357-1.27-.357-2.113a5.01 5.01 0 0 1 1.576-3.65c.516-.491 1.152-.887 1.906-1.187.754-.3 1.618-.45 2.594-.45 1.091 0 2.102.169 3.03.506.93.338 1.715.806 2.357 1.406l-.925 1.763z" fill="#B0B0B0"/><g opacity=".53"><path fill="#000" fill-rule="nonzero" d="M-2138.083 284.833v-7.75h5.166v7.75h6.459V274.5h3.875l-12.917-11.625-12.917 11.625h3.875v10.333z"/><path d="M-2151 259h31v31h-31z"/></g></g></svg>