<svg width="121" height="130" viewBox="530 -644 121 130" xmlns="http://www.w3.org/2000/svg" xmlns:xlink="http://www.w3.org/1999/xlink"><defs><radialGradient cx="50%" cy="50%" fx="50%" fy="50%" r="55.539%" id="a"><stop stop-color="#55FFD6" offset="0%"/><stop stop-color="#FFF" stop-opacity="0" offset="100%"/></radialGradient><radialGradient cx="50%" cy="50%" fx="50%" fy="50%" r="62.917%" id="b"><stop stop-color="#FFBD00" offset="0%"/><stop stop-color="#FFF" stop-opacity="0" offset="100%"/></radialGradient><radialGradient cx="50%" cy="50%" fx="50%" fy="50%" r="57.426%" id="c"><stop stop-color="#FF52EC" stop-opacity=".694" offset="0%"/><stop stop-color="#FFF" stop-opacity="0" offset="100%"/></radialGradient><path d="M33.393 92.066l-8.242 7.432-8.617-7.432 4.12-3.53-4.12-3.438 4.12-3.623-4.12-3.437V66.332l4.12-3.437-4.12-3.438V47.74C6.925 44.492 0 35.314 0 24.5 0 10.969 10.84 0 24.21 0c13.37 0 24.21 10.968 24.21 24.499 0 10.24-6.21 19.014-15.027 22.674v44.893zm-.916-74.738c0-4.62-3.701-8.365-8.267-8.365-4.566 0-8.267 3.745-8.267 8.365s3.701 8.366 8.267 8.366c4.566 0 8.267-3.746 8.267-8.366z" id="e"/><filter x="-50%" y="-50%" width="200%" height="200%" filterUnits="objectBoundingBox" id="d"><feMorphology radius=".5" operator="dilate" in="SourceAlpha" result="shadowSpreadOuter1"/><feOffset dy="1" in="shadowSpreadOuter1" result="shadowOffsetOuter1"/><feGaussianBlur stdDeviation="1" in="shadowOffsetOuter1" result="shadowBlurOuter1"/><feComposite in="shadowBlurOuter1" in2="SourceAlpha" operator="out" result="shadowBlurOuter1"/><feColorMatrix values="0 0 0 0 0.565942529 0 0 0 0 0.41407195 0 0 0 0 0.592660502 0 0 0 0.295204937 0" in="shadowBlurOuter1"/></filter></defs><g fill="none" fill-rule="evenodd"><path d="M64.755 127.765c28.583 0 51.755-23.453 51.755-52.383C116.51 46.452 93.338 23 64.755 23 36.17 23 13 46.452 13 75.382c0 28.93 23.171 52.383 51.755 52.383z" fill="url(#a)" opacity=".26" transform="translate(534 -644)"/><path d="M52.65 122.965c28.583 0 51.754-23.452 51.754-52.382 0-28.93-23.171-52.382-51.755-52.382C24.066 18.2.894 41.653.894 70.583c0 28.93 23.172 52.382 51.755 52.382z" fill="url(#b)" opacity=".26" transform="translate(534 -644)"/><path d="M61.293 105.636c28.583 0 51.755-23.452 51.755-52.382 0-28.93-23.172-52.382-51.755-52.382-28.584 0-51.755 23.452-51.755 52.382 0 28.93 23.171 52.382 51.755 52.382z" fill="url(#c)" opacity=".26" transform="translate(534 -644)"/><g transform="rotate(38 1208.08 552.389)"><use fill="#000" filter="url(#d)" xlink:href="#e"/><use stroke="#987D9D" fill="#F9F9F9" xlink:href="#e"/></g><path d="M563.866-537.346a.594.594 0 0 0 .097.834c.257.201.63.153.833-.107l26.522-33.947a.594.594 0 0 0-.097-.834.594.594 0 0 0-.833.107l-26.522 33.947z" fill="#B3A5B5"/></g></svg>