<svg width="63" height="63" viewBox="223 -610 63 63" xmlns="http://www.w3.org/2000/svg"><path d="M280.2-568.737v8.635c-.008 6.794-5.532 12.318-12.326 12.326h-31.772c-6.794-.008-12.318-5.532-12.326-12.326v-31.772c.008-6.794 5.532-12.318 12.326-12.326h8.635a2.175 2.175 0 0 1 0 4.35h-8.635c-4.372.008-7.968 3.604-7.976 7.976v31.772c.008 4.372 3.604 7.968 7.976 7.975h31.772c4.372-.008 7.968-3.604 7.976-7.975v-8.635a2.175 2.175 0 0 1 4.35 0zm5.8-39.088l-.637-1.538-1.538-.637h-17.492a2.175 2.175 0 1 0 0 4.35h12.24l-21.521 21.522a2.176 2.176 0 0 0 3.076 3.076l21.521-21.521v12.241a2.175 2.175 0 0 0 4.35 0l.001-17.493z" fill-rule="evenodd"/></svg>