<svg width="234" height="161" xmlns="http://www.w3.org/2000/svg" xmlns:xlink="http://www.w3.org/1999/xlink"><defs><path id="a" d="M21.403 16.661h203v127h-203z"/><path id="b" d="M8 11.262h203v127H8z"/><path id="c" d="M0 0h204v128H0z"/></defs><g fill="none" fill-rule="evenodd"><g transform="rotate(-10 122.903 80.16)"><use fill="#FFF" xlink:href="#a"/><path stroke="#B1B1B1" stroke-width="5" d="M23.903 19.161h198v122h-198z"/></g><g transform="rotate(-6 109.5 74.762)"><use fill="#FFF" xlink:href="#b"/><path stroke="#B1B1B1" stroke-width="5" d="M10.5 13.762h198v122h-198z"/></g><g transform="translate(0 5)"><use fill="#94F5FF" xlink:href="#c"/><path stroke="#5E5E5E" stroke-width="5" d="M2.5 2.5h199v123H2.5z"/><circle stroke="#5F5F5F" stroke-width="5" fill="#FEED54" cx="136" cy="48" r="14"/><path stroke="#5F5F5F" stroke-width="5" fill="#B8F478" d="M121.805 99.295l33.619-23.933 45.368 33.456.895 15.556-105.508 1.435z"/><path stroke="#5F5F5F" stroke-width="5" fill="#C9FF86" d="M2.919 113.03l71.544-49.108 76.778 61.916-148.058.744z"/></g></g></svg>