<svg width="103" height="49" xmlns="http://www.w3.org/2000/svg"><path d="M95.9 41.427c-4.513 4.522-10.513 7.016-16.893 7.016-6.38 0-12.38-2.494-16.893-7.016l-7.469-7.483 6.28-6.292 7.468 7.483a14.887 14.887 0 0 0 10.614 4.4c4.001 0 7.769-1.56 10.603-4.4 5.857-5.869 5.857-15.401 0-21.27a14.882 14.882 0 0 0-10.603-4.4c-4.012 0-7.78 1.56-10.614 4.4l-7.468 7.483L57.79 24.5l-6.29 6.303-3.145 3.14-7.469 7.484c-4.512 4.522-10.514 7.016-16.893 7.016-6.38 0-12.381-2.494-16.893-7.016A23.816 23.816 0 0 1 .098 24.5c0-6.392 2.49-12.406 7.002-16.927C11.612 3.05 17.613.557 23.993.557c6.38 0 12.38 2.494 16.893 7.016l7.469 7.483-6.28 6.292-7.468-7.483a14.888 14.888 0 0 0-10.614-4.4c-4.001 0-7.769 1.56-10.603 4.4A14.952 14.952 0 0 0 8.99 24.5c0 4.01 1.556 7.795 4.401 10.624a14.847 14.847 0 0 0 10.603 4.41c4.012 0 7.78-1.559 10.614-4.399l7.468-7.483L45.21 24.5l6.291-6.303 3.145-3.14 7.469-7.484C66.627 3.05 72.628.557 79.007.557c6.38 0 12.381 2.494 16.893 7.016 9.314 9.332 9.314 24.522 0 33.854z" fill-rule="evenodd"/></svg>