<svg width="90" height="90" xmlns="http://www.w3.org/2000/svg"><g fill-rule="evenodd"><path d="M30.792 61.746c1.727 0 3.465-.146 5.195-.443h.002c3.335-.572 7.607-2.468 7.787-2.549.36-.162 1.071-.031 1.354.251l1.437 1.435c.002.002.002.004.004.004L48 61.876c.426.425.823 1.472.787 2.072l-.158 2.69-.156 2.692c-.111 1.901 1.278 3.604 3.164 3.873l3.797.543 3.795.543c.313.044.664.423.688.735l.24 3.346.24 3.347a3.562 3.562 0 0 0 3.746 3.289l2.693-.159h.001l2.692-.16c.693-.043 1.398.162 1.523.239l.816.817 2.971 2.97c.648.647 1.704 1.067 2.646 1.067.091 0 .181-.004.268-.012l4.521-.41 4.043-.365c1.554-.141 2.877-1.465 3.016-3.018l.361-4.039c.002-.006 0-.012 0-.017 0-.006.004-.012.004-.021l.294-4.385c.063-.992-.38-2.177-1.082-2.877l-4.71-4.712L61.986 47.71l-2.898-2.917c-.297-.3-.438-1.024-.275-1.413.078-.185 1.901-4.563 2.396-7.953 1.412-9.725-1.757-19.278-8.692-26.212-12-11.997-31.519-11.995-43.518.002-11.997 11.998-11.997 31.52 0 43.518a30.853 30.853 0 0 0 21.793 9.011zM11.251 11.47C22.007.714 39.506.712 50.262 11.468c6.219 6.217 9.059 14.781 7.793 23.501-.436 2.986-2.162 7.139-2.181 7.179-.66 1.576-.25 3.679.954 4.891l2.227 2.24c.01.01.016.021.026.031l.961.961.422.426.015.012L81.95 72.186l4.7 4.697c.07.085.162.33.164.426l-.293 4.366-.357 4.013c-.014.047-.092.127-.13.137l-4.043.365-4.505.408a.925.925 0 0 1-.391-.136l-2.973-2.97-.814-.814c-.906-.908-2.693-1.24-3.966-1.169l-2.694.16-2.691.158a.354.354 0 0 1-.385-.336l-.239-3.347-.239-3.346c-.129-1.799-1.629-3.406-3.412-3.662l-3.798-.543-3.796-.543c-.232-.033-.447-.296-.434-.531l.156-2.692.158-2.688c.09-1.507-.648-3.447-1.716-4.515l-1.433-1.433s-.002 0-.002-.002l-1.438-1.438c-1.222-1.22-3.33-1.61-4.904-.906-.041.02-4.09 1.813-7.03 2.318h-.001a27.644 27.644 0 0 1-24.196-7.685C.496 39.726.496 22.226 11.251 11.47z"/><path d="M26.092 37.222c2.914 0 5.653-1.135 7.715-3.198 4.252-4.254 4.251-11.176-.001-15.43a10.84 10.84 0 0 0-7.715-3.192 10.84 10.84 0 0 0-7.713 3.192c-4.253 4.254-4.253 11.176 0 15.432a10.839 10.839 0 0 0 7.714 3.196zm-5.463-16.375a7.677 7.677 0 0 1 5.46-2.261c2.064 0 4.004.804 5.463 2.261 3.011 3.012 3.011 7.912.001 10.926a7.674 7.674 0 0 1-5.461 2.263 7.681 7.681 0 0 1-5.462-2.261c-3.011-3.016-3.012-7.917-.001-10.928z"/></g></svg>