<svg width="221" height="343" xmlns="http://www.w3.org/2000/svg" xmlns:xlink="http://www.w3.org/1999/xlink"><defs><path d="M0 8.003C0 3.583 3.58 0 8.006 0h175.988A8 8 0 0 1 192 8.003v67.86c0 4.42-3.58 8.003-7.997 8.003h-35.744L133.427 101l-16.902-17.134H8.009A8.002 8.002 0 0 1 0 75.863V8.003z" id="b"/><filter x="-6.8%" y="-10.9%" width="113.5%" height="125.7%" filterUnits="objectBoundingBox" id="a"><feOffset dy="2" in="SourceAlpha" result="shadowOffsetOuter1"/><feGaussianBlur stdDeviation="4" in="shadowOffsetOuter1" result="shadowBlurOuter1"/><feColorMatrix values="0 0 0 0 0 0 0 0 0 0 0 0 0 0 0 0 0 0 0.291836504 0" in="shadowBlurOuter1"/></filter></defs><g fill="none" fill-rule="evenodd"><path fill="#FFDF00" d="M.911 109h154.873v21.273H.911z"/><path fill="#FFB700" d="M.911 144.455H215v21.273H.911z"/><path fill="#FF7596" d="M.911 179.909H152.14v21.273H.911z"/><path fill="#F581FF" d="M40.996 215.364H215v21.273H40.996z"/><path fill="#BEF600" d="M0 250.818h174.004v21.273H0z"/><path fill="#00F6EB" d="M23.004 286.273h191.085v21.273H23.004z"/><path fill="#75B0DF" d="M0 321.727h151.229V343H0z"/><g transform="translate(21 6)"><use fill="#000" filter="url(#a)" xlink:href="#b"/><use fill="#FFF" xlink:href="#b"/></g><g opacity=".802" transform="translate(37.225 18.625)"><ellipse fill="#FF77A3" cx="12.711" cy="12.686" rx="12.711" ry="12.686"/><ellipse fill="#FFB700" cx="45.147" cy="12.686" rx="12.711" ry="12.686"/><ellipse fill="#FFDF00" cx="78.46" cy="12.686" rx="12.711" ry="12.686"/><ellipse fill="#BDF600" cx="112.649" cy="12.686" rx="12.711" ry="12.686"/><ellipse fill="#00F6EB" cx="146.838" cy="12.686" rx="12.711" ry="12.686"/><ellipse fill="#C5C5C5" cx="12.711" cy="45.931" rx="12.711" ry="12.686"/><ellipse fill="#FF8475" cx="45.147" cy="45.931" rx="12.711" ry="12.686"/><ellipse fill="#FFB700" cx="78.46" cy="45.931" rx="12.711" ry="12.686"/><ellipse fill="#F481FF" cx="112.649" cy="45.931" rx="12.711" ry="12.686"/><ellipse fill="#75B0DE" cx="146.838" cy="45.931" rx="12.711" ry="12.686"/></g></g></svg>