<svg width="112" height="81" xmlns="http://www.w3.org/2000/svg"><path d="M50.23 69.825c1.173 0 2.09.34 2.75 1.017.66.679.99 1.568.99 2.668V80H.95v-3.685c0-.733.147-1.512.44-2.338.293-.825.788-1.567 1.485-2.227l24.97-25.025c2.09-2.09 3.978-4.107 5.665-6.05 1.687-1.943 3.117-3.877 4.29-5.803a27.185 27.185 0 0 0 2.723-5.912c.641-2.017.962-4.143.962-6.38 0-2.2-.348-4.134-1.045-5.802-.697-1.669-1.65-3.053-2.86-4.153-1.21-1.1-2.64-1.925-4.29-2.475s-3.428-.825-5.335-.825-3.657.275-5.252.825c-1.596.55-3.016 1.32-4.263 2.31a13.69 13.69 0 0 0-3.135 3.52 14.494 14.494 0 0 0-1.815 4.4c-.513 1.393-1.164 2.328-1.953 2.805-.788.477-1.934.587-3.437.33l-5.61-.99c.513-3.667 1.522-6.893 3.025-9.68s3.392-5.124 5.665-7.013c2.273-1.888 4.886-3.309 7.837-4.262C21.97.617 25.15.14 28.56.14c3.447 0 6.627.504 9.542 1.513 2.916 1.008 5.436 2.465 7.563 4.372s3.795 4.226 5.005 6.957c1.21 2.732 1.815 5.821 1.815 9.268 0 2.933-.43 5.656-1.292 8.168a32.176 32.176 0 0 1-3.52 7.177 51.856 51.856 0 0 1-5.17 6.627 202.46 202.46 0 0 1-6.243 6.518L16.24 71.2c1.54-.403 3.09-.733 4.648-.99a27.29 27.29 0 0 1 4.427-.385H50.23zm33.3 7.205c.91 0 1.703-.082 2.378-.247a10.014 10.014 0 0 0 1.927-.683v-3.945H85.12c-.26 0-.465-.072-.615-.218a.712.712 0 0 1-.225-.532v-2.28h7.215V77.9c-.55.4-1.123.747-1.718 1.042-.595.296-1.23.538-1.905.728-.675.19-1.397.333-2.167.427-.77.096-1.6.143-2.49.143-1.58 0-3.035-.275-4.365-.825a10.37 10.37 0 0 1-3.45-2.295c-.97-.98-1.728-2.15-2.272-3.51-.546-1.36-.818-2.845-.818-4.455 0-1.63.265-3.125.795-4.485.53-1.36 1.283-2.53 2.257-3.51.976-.98 2.158-1.74 3.548-2.28 1.39-.54 2.95-.81 4.68-.81 1.77 0 3.302.262 4.597.787 1.296.526 2.393 1.208 3.293 2.048l-1.17 1.83c-.23.37-.535.555-.915.555-.24 0-.485-.08-.735-.24-.32-.19-.647-.38-.982-.57a6.647 6.647 0 0 0-1.11-.495 9.05 9.05 0 0 0-1.365-.345 10.05 10.05 0 0 0-1.748-.135c-1.07 0-2.037.18-2.902.54a6.14 6.14 0 0 0-2.213 1.545c-.61.67-1.08 1.475-1.41 2.415-.33.94-.495 1.99-.495 3.15 0 1.25.175 2.362.525 3.337.35.976.84 1.798 1.47 2.468.63.67 1.38 1.182 2.25 1.537.87.356 1.82.533 2.85.533zM95.26 80V58.31h7.485c1.42 0 2.632.135 3.637.405 1.006.27 1.83.655 2.476 1.155a4.481 4.481 0 0 1 1.417 1.815c.3.71.45 1.51.45 2.4 0 .51-.075.997-.225 1.463-.15.465-.382.9-.697 1.304a5.225 5.225 0 0 1-1.2 1.103c-.485.33-1.063.61-1.733.84 2.98.67 4.47 2.28 4.47 4.83 0 .92-.175 1.77-.525 2.55-.35.78-.86 1.452-1.53 2.017-.67.566-1.495 1.008-2.475 1.328-.98.32-2.1.48-3.36.48h-8.19zm4.035-9.51v6.36h4.095c.75 0 1.377-.09 1.883-.27.504-.18.91-.42 1.214-.72.306-.3.526-.65.66-1.05.136-.4.203-.825.203-1.275 0-.47-.075-.892-.225-1.267a2.377 2.377 0 0 0-.705-.96c-.32-.266-.73-.468-1.23-.608-.5-.14-1.105-.21-1.815-.21h-4.08zm0-2.79h3.225c1.37 0 2.41-.25 3.12-.75s1.065-1.295 1.065-2.385c0-1.13-.32-1.935-.96-2.415-.64-.48-1.64-.72-3-.72h-3.45v6.27z" fill="#004D86" fill-rule="evenodd"/></svg>