<svg width="177" height="87" xmlns="http://www.w3.org/2000/svg" xmlns:xlink="http://www.w3.org/1999/xlink"><defs><path d="M.714.08A.637.637 0 0 0 .08.714V19.31c0 .35.286.635.635.635h21.393c.35 0 .635-.286.635-.635V2.748a.637.637 0 0 0-.635-.635H8.138c-.35 0-.837-.202-1.084-.45L5.92.53C5.673.28 5.185.079 4.836.079H.714z" id="a"/><path d="M.714.08A.637.637 0 0 0 .08.714V19.31c0 .35.286.635.635.635h21.393c.35 0 .635-.286.635-.635V2.748a.637.637 0 0 0-.635-.635H8.138c-.35 0-.837-.202-1.084-.45L5.92.53C5.673.28 5.185.079 4.836.079H.714z" id="c"/><path d="M.714.08A.637.637 0 0 0 .08.714V19.31c0 .35.286.635.635.635h21.393c.35 0 .635-.286.635-.635V2.748a.637.637 0 0 0-.635-.635H8.138c-.35 0-.837-.202-1.084-.45L5.92.53C5.673.28 5.185.079 4.836.079H.714z" id="e"/></defs><g fill="none" fill-rule="evenodd"><g transform="translate(3 3)"><mask id="b" fill="#fff"><use xlink:href="#a"/></mask><path stroke="#00CADC" stroke-width="2.5" d="M.714-1.17c-1.04 0-1.885.845-1.885 1.885V19.31c0 1.04.845 1.885 1.885 1.885h21.393c1.04 0 1.885-.846 1.885-1.885V2.748c0-1.04-.845-1.885-1.885-1.885H8.138c-.017 0-.187-.07-.2-.083L6.805-.355c-.481-.482-1.287-.816-1.968-.816H.714z"/><path fill="#94F6FF" mask="url(#b)" d="M0 5.07h23.12v15.478H0z"/><path fill="#2EEEFF" mask="url(#b)" d="M-.266-.534h23.12v5.871H-.266z"/><path d="M-.186 5.164h23.573" stroke="#00CADC" stroke-width="2.5" mask="url(#b)"/></g><g transform="translate(32.744 33.827)"><mask id="d" fill="#fff"><use xlink:href="#c"/></mask><path stroke="#00CADC" stroke-width="2.5" d="M.714-1.17c-1.04 0-1.885.845-1.885 1.885V19.31c0 1.04.845 1.885 1.885 1.885h21.393c1.04 0 1.885-.846 1.885-1.885V2.748c0-1.04-.845-1.885-1.885-1.885H8.138c-.017 0-.187-.07-.2-.083L6.805-.355c-.481-.482-1.287-.816-1.968-.816H.714z"/><path fill="#94F6FF" mask="url(#d)" d="M0 5.07h23.12v15.478H0z"/><path fill="#2EEEFF" mask="url(#d)" d="M-.266-.534h23.12v5.871H-.266z"/><path d="M-.186 5.164h23.573" stroke="#00CADC" stroke-width="2.5" mask="url(#d)"/></g><g transform="translate(32.744 63.66)"><mask id="f" fill="#fff"><use xlink:href="#e"/></mask><path stroke="#00CADC" stroke-width="2.5" d="M.714-1.17c-1.04 0-1.885.845-1.885 1.885V19.31c0 1.04.845 1.885 1.885 1.885h21.393c1.04 0 1.885-.846 1.885-1.885V2.748c0-1.04-.845-1.885-1.885-1.885H8.138c-.017 0-.187-.07-.2-.083L6.805-.355c-.481-.482-1.287-.816-1.968-.816H.714h0z"/><path fill="#94F6FF" mask="url(#f)" d="M0 5.07h23.12v15.478H0z"/><path fill="#2EEEFF" mask="url(#f)" d="M-.266-.534h23.12v5.871H-.266z"/><path d="M-.186 5.164h23.573" stroke="#00CADC" stroke-width="2.5" mask="url(#f)"/></g><path stroke="#B6E1EB" stroke-width="7" d="M13.896 30.424l.551 15.337H26.03M13.896 60.257l.551 15.337H26.03"/><path d="M49.46 16.335c.092 0 .176.038.251.113l.66.723a5.32 5.32 0 0 1-1.853 1.383c-.726.33-1.6.496-2.624.496-.896 0-1.709-.155-2.438-.465a5.343 5.343 0 0 1-1.865-1.306 5.904 5.904 0 0 1-1.197-2.014c-.284-.783-.425-1.644-.425-2.584 0-.94.152-1.801.455-2.584a5.907 5.907 0 0 1 1.28-2.02 5.748 5.748 0 0 1 1.973-1.309c.767-.31 1.613-.465 2.538-.465.914 0 1.702.142 2.364.426.662.284 1.25.67 1.765 1.157l-.546.775a.597.597 0 0 1-.139.143.381.381 0 0 1-.226.057.438.438 0 0 1-.238-.083 12.046 12.046 0 0 1-.3-.204 6.457 6.457 0 0 0-.407-.261 3.569 3.569 0 0 0-.555-.261 4.576 4.576 0 0 0-.746-.205 5.178 5.178 0 0 0-.98-.082 4.72 4.72 0 0 0-1.827.343 4.089 4.089 0 0 0-1.427.98c-.399.423-.71.939-.933 1.548-.222.61-.334 1.29-.334 2.045 0 .777.112 1.47.334 2.08.223.609.527 1.123.911 1.544.385.42.84.741 1.367.961.526.22 1.093.331 1.7.331.37 0 .703-.022.998-.065.295-.044.568-.112.82-.205.251-.093.485-.21.702-.352.217-.142.435-.312.655-.51.099-.086.194-.13.286-.13zm6.436-6.378c.642 0 1.222.108 1.74.322.517.215.957.52 1.319.914.361.394.639.871.832 1.431.194.56.29 1.185.29 1.875 0 .696-.096 1.323-.29 1.88a4.054 4.054 0 0 1-.832 1.427 3.621 3.621 0 0 1-1.32.91 4.556 4.556 0 0 1-1.739.317 4.556 4.556 0 0 1-1.739-.318 3.663 3.663 0 0 1-1.323-.91 4.07 4.07 0 0 1-.841-1.426c-.197-.557-.295-1.184-.295-1.88 0-.69.098-1.315.295-1.875.196-.56.477-1.037.841-1.431a3.71 3.71 0 0 1 1.323-.914 4.502 4.502 0 0 1 1.74-.322zm0 7.866c.868 0 1.516-.291 1.944-.874.428-.583.642-1.397.642-2.44 0-1.05-.214-1.869-.642-2.455-.428-.586-1.076-.879-1.944-.879-.44 0-.82.076-1.145.227-.324.15-.594.368-.81.652a2.902 2.902 0 0 0-.487 1.049c-.107.415-.16.883-.16 1.405s.053.99.16 1.401c.107.412.27.758.486 1.04.217.281.487.497.811.648.324.15.706.226 1.145.226zm7.808-11.73v12.818H62.16V6.094h1.544zm4.442 0v12.818h-1.544V6.094h1.544zm6.203 3.864c.526 0 1.012.089 1.457.266.445.177.83.432 1.154.765.324.334.577.746.759 1.236.182.49.273 1.048.273 1.675 0 .244-.026.406-.078.487-.052.081-.15.122-.295.122h-5.847c.012.557.087 1.041.226 1.453.138.412.33.756.572 1.031.243.276.532.482.868.618.335.136.711.205 1.128.205a3.3 3.3 0 0 0 1.002-.135c.28-.09.522-.187.724-.292.202-.104.372-.201.507-.291.136-.09.253-.135.352-.135a.34.34 0 0 1 .295.148l.433.565c-.19.232-.419.434-.685.605-.266.171-.55.312-.854.422a5.732 5.732 0 0 1-1.904.33 4.457 4.457 0 0 1-1.68-.308 3.684 3.684 0 0 1-1.327-.905 4.154 4.154 0 0 1-.871-1.475c-.209-.586-.313-1.259-.313-2.019 0-.615.094-1.189.282-1.723.188-.533.459-.996.811-1.387a3.734 3.734 0 0 1 1.293-.923c.509-.223 1.081-.335 1.718-.335zm.034 1.14c-.746 0-1.333.216-1.76.648-.429.433-.695 1.032-.799 1.797h4.78c0-.36-.049-.689-.147-.987a2.202 2.202 0 0 0-.434-.775 1.942 1.942 0 0 0-.698-.504 2.35 2.35 0 0 0-.942-.179zm11.573.566a.69.69 0 0 1-.139.148.327.327 0 0 1-.2.052.495.495 0 0 1-.281-.109 4.107 4.107 0 0 0-.386-.24 3.227 3.227 0 0 0-.568-.238 2.674 2.674 0 0 0-.82-.11 2.66 2.66 0 0 0-1.137.231 2.2 2.2 0 0 0-.828.666c-.223.29-.39.641-.503 1.053-.113.412-.17.873-.17 1.383 0 .534.061 1.008.183 1.423.121.415.292.763.512 1.044.22.282.487.496.802.644.315.148.67.222 1.063.222.376 0 .685-.045.928-.135.243-.09.445-.19.607-.3.162-.11.295-.21.4-.3a.48.48 0 0 1 .312-.135c.133 0 .23.05.295.148l.433.565c-.381.47-.859.814-1.431 1.031a5.062 5.062 0 0 1-1.813.327c-.55 0-1.06-.102-1.531-.305a3.491 3.491 0 0 1-1.228-.883 4.193 4.193 0 0 1-.82-1.423c-.2-.562-.3-1.203-.3-1.923 0-.655.092-1.261.274-1.818a4.124 4.124 0 0 1 .798-1.44c.35-.403.783-.718 1.297-.944.515-.227 1.105-.34 1.77-.34.613 0 1.157.1 1.63.3.475.2.894.483 1.259.849l-.408.557zm4.771 7.387c-.694 0-1.227-.194-1.6-.583-.373-.388-.56-.948-.56-1.68v-5.394H87.51a.345.345 0 0 1-.234-.083c-.064-.055-.096-.14-.096-.256v-.618l1.44-.183.356-2.723a.33.33 0 0 1 .113-.214.358.358 0 0 1 .243-.082h.78v3.037h2.516v1.122h-2.515v5.29c0 .372.09.647.268.827.18.18.411.27.694.27.162 0 .303-.022.421-.065a1.85 1.85 0 0 0 .308-.144c.087-.052.16-.1.221-.144a.289.289 0 0 1 .16-.065c.082 0 .154.05.218.148l.45.74c-.265.25-.586.445-.962.587a3.261 3.261 0 0 1-1.163.213zm5.527-8.953v8.814h-1.545v-8.814h1.545zM96.6 7.33c0 .15-.03.291-.091.422-.061.13-.142.246-.243.348a1.128 1.128 0 0 1-.352.239 1.052 1.052 0 0 1-.425.087c-.15 0-.29-.03-.42-.087a1.144 1.144 0 0 1-.586-.587 1.092 1.092 0 0 1 0-.853 1.118 1.118 0 0 1 .585-.596c.13-.058.27-.087.421-.087.15 0 .292.029.425.087a1.149 1.149 0 0 1 .595.596c.06.136.09.28.09.43zm5.933 2.627c.642 0 1.222.108 1.74.322.517.215.957.52 1.318.914.362.394.64.871.833 1.431.194.56.29 1.185.29 1.875 0 .696-.096 1.323-.29 1.88a4.054 4.054 0 0 1-.833 1.427 3.621 3.621 0 0 1-1.318.91 4.556 4.556 0 0 1-1.74.317 4.556 4.556 0 0 1-1.739-.318 3.663 3.663 0 0 1-1.323-.91 4.07 4.07 0 0 1-.841-1.426c-.197-.557-.295-1.184-.295-1.88 0-.69.098-1.315.295-1.875.196-.56.477-1.037.841-1.431a3.71 3.71 0 0 1 1.323-.914 4.502 4.502 0 0 1 1.74-.322zm0 7.866c.868 0 1.516-.291 1.944-.874.428-.583.642-1.397.642-2.44 0-1.05-.214-1.869-.642-2.455-.428-.586-1.076-.879-1.944-.879-.44 0-.82.076-1.145.227-.324.15-.594.368-.81.652a2.902 2.902 0 0 0-.487 1.049c-.107.415-.16.883-.16 1.405s.053.99.16 1.401c.107.412.27.758.486 1.04.217.281.487.497.811.648.324.15.706.226 1.145.226zm6.09 1.088v-8.814h.92c.22 0 .359.107.416.321l.122.958a4.942 4.942 0 0 1 1.28-1.027c.47-.261 1.016-.392 1.635-.392.48 0 .903.08 1.27.24.368.16.674.385.92.678a3 3 0 0 1 .56 1.057c.127.412.19.868.19 1.367v5.612h-1.544v-5.612c0-.668-.151-1.185-.455-1.554-.304-.368-.768-.552-1.392-.552-.457 0-.884.11-1.28.33-.396.221-.762.52-1.097.897v6.49h-1.545zM77.304 40.71a.674.674 0 0 1-.164.196.365.365 0 0 1-.226.065c-.098 0-.212-.05-.343-.148a5.46 5.46 0 0 0-.494-.326 3.99 3.99 0 0 0-.72-.326c-.28-.099-.62-.148-1.02-.148-.375 0-.708.05-.997.152-.29.102-.53.24-.725.413-.193.174-.34.379-.438.614a1.952 1.952 0 0 0-.147.761c0 .348.085.637.256.866.17.229.396.425.677.587.28.163.598.303.954.422.355.12.72.242 1.093.37s.737.271 1.093.43c.356.16.674.362.954.606.28.243.506.542.677.896.17.354.256.789.256 1.305a4.22 4.22 0 0 1-.278 1.536 3.542 3.542 0 0 1-.811 1.248 3.793 3.793 0 0 1-1.31.836c-.518.203-1.106.304-1.765.304-.804 0-1.537-.146-2.2-.44a5.158 5.158 0 0 1-1.695-1.187l.485-.8a.64.64 0 0 1 .17-.161.396.396 0 0 1 .22-.066c.122 0 .261.066.417.196.156.13.351.274.586.43.234.157.517.301.85.432.332.13.739.195 1.219.195.399 0 .754-.055 1.067-.165.312-.11.577-.265.794-.466.216-.2.383-.439.498-.717.116-.279.174-.59.174-.931 0-.377-.085-.686-.256-.927a2.124 2.124 0 0 0-.672-.605 4.692 4.692 0 0 0-.95-.413l-1.093-.348a11.002 11.002 0 0 1-1.093-.414 3.551 3.551 0 0 1-.95-.609 2.798 2.798 0 0 1-.673-.935c-.17-.374-.256-.837-.256-1.388a3.326 3.326 0 0 1 .998-2.375 3.594 3.594 0 0 1 1.202-.766c.477-.191 1.025-.287 1.643-.287.695 0 1.328.11 1.9.33.573.22 1.073.54 1.501.958l-.408.8zm3.922 1.706v5.62c0 .668.153 1.184.46 1.55.306.365.769.548 1.387.548a2.66 2.66 0 0 0 1.276-.322 3.968 3.968 0 0 0 1.101-.897v-6.5h1.545v8.815h-.92c-.22 0-.358-.107-.416-.322l-.122-.948c-.381.423-.81.764-1.284 1.022s-1.018.387-1.63.387c-.48 0-.904-.08-1.272-.24a2.52 2.52 0 0 1-.923-.673 2.867 2.867 0 0 1-.56-1.053 4.714 4.714 0 0 1-.187-1.366v-5.621h1.545zm8.363 8.814V38.413h1.552v5.273a4.492 4.492 0 0 1 1.254-1.022c.471-.259 1.01-.388 1.618-.388.509 0 .969.096 1.38.288.41.191.76.477 1.049.857.29.38.512.85.668 1.41.156.559.234 1.204.234 1.935 0 .65-.087 1.255-.26 1.814a4.376 4.376 0 0 1-.75 1.454c-.327.409-.726.73-1.198.965a3.52 3.52 0 0 1-1.592.353c-.566 0-1.048-.11-1.444-.33a3.289 3.289 0 0 1-1.037-.923l-.078.8c-.046.22-.179.331-.399.331h-.997zm3.92-7.718c-.502 0-.943.116-1.322.348-.379.232-.727.56-1.046.983v4.264c.278.383.586.652.924.81.339.156.716.234 1.132.234.822 0 1.452-.293 1.892-.879.44-.586.659-1.421.659-2.506 0-.574-.05-1.067-.152-1.479-.101-.412-.247-.75-.438-1.014a1.706 1.706 0 0 0-.703-.578 2.331 2.331 0 0 0-.945-.183zm5.327 1.845h4.286v1.314h-4.286v-1.314zm12.415-1.375a.69.69 0 0 1-.14.148.327.327 0 0 1-.199.052.495.495 0 0 1-.282-.109 4.107 4.107 0 0 0-.386-.24 3.227 3.227 0 0 0-.568-.238 2.674 2.674 0 0 0-.82-.11 2.66 2.66 0 0 0-1.136.231 2.21 2.21 0 0 0-.829.666 3.03 3.03 0 0 0-.503 1.053c-.113.412-.17.873-.17 1.383 0 .534.062 1.008.183 1.423.122.415.292.763.512 1.044.22.282.487.496.802.644.316.148.67.222 1.063.222.376 0 .685-.045.928-.135.243-.09.446-.19.608-.3.162-.11.295-.21.399-.3a.48.48 0 0 1 .312-.135c.133 0 .231.05.295.148l.434.565a3.35 3.35 0 0 1-1.432 1.032 5.062 5.062 0 0 1-1.813.326c-.55 0-1.06-.102-1.531-.305a3.491 3.491 0 0 1-1.228-.883 4.193 4.193 0 0 1-.82-1.423c-.199-.562-.299-1.203-.299-1.923 0-.655.091-1.261.274-1.818a4.124 4.124 0 0 1 .798-1.44c.35-.403.782-.718 1.297-.944.514-.227 1.104-.34 1.77-.34.612 0 1.156.1 1.63.3.475.2.894.483 1.258.849l-.407.557zm5.664-1.706c.642 0 1.222.108 1.74.322.517.215.957.52 1.318.914.362.394.64.872.833 1.431.194.56.29 1.185.29 1.875 0 .697-.096 1.323-.29 1.88a4.054 4.054 0 0 1-.833 1.427 3.621 3.621 0 0 1-1.318.91 4.556 4.556 0 0 1-1.74.317 4.556 4.556 0 0 1-1.739-.318 3.663 3.663 0 0 1-1.323-.91 4.07 4.07 0 0 1-.841-1.426c-.197-.557-.295-1.183-.295-1.88 0-.69.098-1.315.295-1.875.196-.56.477-1.037.841-1.431a3.71 3.71 0 0 1 1.323-.914 4.502 4.502 0 0 1 1.74-.322zm0 7.866c.868 0 1.516-.291 1.944-.874.428-.583.642-1.397.642-2.44 0-1.05-.214-1.869-.642-2.455-.428-.585-1.076-.878-1.944-.878-.44 0-.82.075-1.145.226-.324.15-.594.368-.81.652a2.902 2.902 0 0 0-.487 1.049c-.107.415-.16.883-.16 1.405s.053.99.16 1.401c.107.412.27.759.486 1.04.217.281.487.497.811.648.324.15.706.226 1.145.226zm7.808-11.729V51.23h-1.544V38.413h1.544zm4.442 0V51.23h-1.544V38.413h1.544zm6.203 3.863c.526 0 1.012.089 1.457.266.445.177.83.432 1.154.765.324.334.577.746.759 1.236.182.49.273 1.049.273 1.675 0 .244-.026.406-.078.487-.052.082-.15.122-.295.122h-5.847c.012.557.087 1.041.226 1.453.138.412.33.756.572 1.031.243.276.532.482.868.618.335.136.711.205 1.128.205a3.3 3.3 0 0 0 1.002-.135c.28-.09.521-.187.724-.292.202-.104.371-.201.507-.291.136-.09.253-.135.352-.135a.34.34 0 0 1 .295.148l.433.565c-.19.232-.419.434-.685.605-.266.171-.55.312-.854.422a5.732 5.732 0 0 1-1.904.33 4.457 4.457 0 0 1-1.68-.308 3.684 3.684 0 0 1-1.327-.905 4.154 4.154 0 0 1-.871-1.475c-.209-.586-.313-1.259-.313-2.019 0-.614.094-1.189.282-1.722.188-.534.459-.997.811-1.388a3.734 3.734 0 0 1 1.293-.923c.509-.223 1.081-.335 1.718-.335zm.034 1.14c-.746 0-1.333.216-1.76.648-.429.433-.695 1.032-.799 1.797h4.78c0-.36-.049-.689-.147-.987a2.202 2.202 0 0 0-.434-.775 1.942 1.942 0 0 0-.698-.504 2.35 2.35 0 0 0-.942-.179zm11.573.566a.69.69 0 0 1-.139.148.327.327 0 0 1-.2.052.495.495 0 0 1-.281-.109 4.107 4.107 0 0 0-.386-.24 3.227 3.227 0 0 0-.568-.238 2.674 2.674 0 0 0-.82-.11 2.66 2.66 0 0 0-1.137.231 2.2 2.2 0 0 0-.828.666c-.223.29-.39.641-.503 1.053-.113.412-.17.873-.17 1.383 0 .534.061 1.008.183 1.423.121.415.292.763.511 1.044.22.282.488.496.803.644.315.148.67.222 1.063.222.376 0 .685-.045.928-.135.243-.09.445-.19.607-.3.162-.11.295-.21.4-.3a.48.48 0 0 1 .312-.135c.133 0 .23.05.294.148l.434.565c-.381.47-.859.814-1.431 1.032a5.062 5.062 0 0 1-1.813.326c-.55 0-1.06-.102-1.531-.305a3.491 3.491 0 0 1-1.228-.883 4.193 4.193 0 0 1-.82-1.423c-.2-.562-.3-1.203-.3-1.923 0-.655.092-1.261.274-1.818a4.124 4.124 0 0 1 .798-1.44c.35-.403.782-.718 1.297-.944.515-.227 1.105-.34 1.77-.34.613 0 1.157.1 1.63.3.475.2.894.483 1.259.849l-.408.557zm4.771 7.387c-.694 0-1.227-.194-1.6-.583-.373-.388-.56-.948-.56-1.68v-5.394h-1.058a.345.345 0 0 1-.234-.083c-.064-.055-.096-.14-.096-.256v-.618l1.44-.183.356-2.723a.33.33 0 0 1 .113-.213.358.358 0 0 1 .243-.083h.78v3.037h2.516v1.122h-2.515v5.29c0 .372.09.647.268.827.18.18.411.27.694.27.162 0 .303-.022.421-.065a1.85 1.85 0 0 0 .308-.144c.087-.052.16-.1.221-.144a.289.289 0 0 1 .16-.065c.082 0 .154.05.218.148l.45.74c-.265.25-.586.445-.962.587a3.261 3.261 0 0 1-1.163.213zm5.527-8.953v8.814h-1.545v-8.814h1.545zm.347-2.767c0 .15-.03.291-.092.422-.06.13-.141.246-.242.348a1.128 1.128 0 0 1-.352.239 1.052 1.052 0 0 1-.425.087c-.15 0-.29-.03-.42-.087a1.144 1.144 0 0 1-.586-.587 1.091 1.091 0 0 1 0-.853 1.118 1.118 0 0 1 .585-.596c.13-.058.27-.087.421-.087.15 0 .292.029.425.087a1.134 1.134 0 0 1 .594.596c.061.136.092.28.092.43zm5.933 2.627c.642 0 1.222.108 1.74.322.517.215.957.52 1.318.914.362.394.64.872.833 1.431.194.56.29 1.185.29 1.875 0 .697-.096 1.323-.29 1.88a4.054 4.054 0 0 1-.833 1.427 3.621 3.621 0 0 1-1.318.91 4.556 4.556 0 0 1-1.74.317 4.556 4.556 0 0 1-1.739-.318 3.663 3.663 0 0 1-1.323-.91 4.07 4.07 0 0 1-.841-1.426c-.197-.557-.295-1.183-.295-1.88 0-.69.098-1.315.295-1.875.196-.56.477-1.037.841-1.431a3.71 3.71 0 0 1 1.323-.914 4.502 4.502 0 0 1 1.74-.322zm0 7.866c.868 0 1.516-.291 1.944-.874.428-.583.642-1.397.642-2.44 0-1.05-.214-1.869-.642-2.455-.428-.585-1.076-.878-1.944-.878-.44 0-.82.075-1.145.226-.324.15-.594.368-.81.652a2.902 2.902 0 0 0-.487 1.049c-.107.415-.16.883-.16 1.405s.053.99.16 1.401c.107.412.27.759.486 1.04.217.281.487.497.811.648.324.15.706.226 1.145.226zm6.09 1.088v-8.814h.92c.22 0 .359.107.416.322l.122.957a4.942 4.942 0 0 1 1.28-1.027c.47-.261 1.016-.392 1.635-.392.48 0 .903.08 1.27.24.368.16.674.385.92.678a3 3 0 0 1 .56 1.058c.127.411.19.867.19 1.366v5.612h-1.544v-5.612c0-.667-.151-1.185-.455-1.554-.304-.368-.768-.552-1.392-.552-.457 0-.884.11-1.28.33-.396.221-.762.52-1.097.897v6.491h-1.545zM77.304 69.549a.674.674 0 0 1-.164.195.365.365 0 0 1-.226.066c-.098 0-.212-.05-.343-.148a5.46 5.46 0 0 0-.494-.326c-.2-.12-.44-.228-.72-.327a3.104 3.104 0 0 0-1.02-.148c-.375 0-.708.051-.997.153-.29.101-.53.239-.725.413-.193.174-.34.378-.438.613a1.952 1.952 0 0 0-.147.762c0 .348.085.636.256.865.17.23.396.425.677.588.28.162.598.303.954.422.355.119.72.242 1.093.37.373.127.737.27 1.093.43.356.16.674.361.954.605.28.244.506.542.677.896.17.354.256.79.256 1.306a4.22 4.22 0 0 1-.278 1.535 3.542 3.542 0 0 1-.811 1.249 3.793 3.793 0 0 1-1.31.835c-.518.203-1.106.305-1.765.305-.804 0-1.537-.147-2.2-.44a5.158 5.158 0 0 1-1.695-1.187l.485-.8a.64.64 0 0 1 .17-.162.396.396 0 0 1 .22-.065c.122 0 .261.065.417.196.156.13.351.274.586.43.234.157.517.3.85.431.332.13.739.196 1.219.196.399 0 .754-.055 1.067-.165a2.27 2.27 0 0 0 .794-.466c.216-.2.383-.44.498-.718.116-.278.174-.589.174-.93 0-.378-.085-.687-.256-.928a2.124 2.124 0 0 0-.672-.604 4.692 4.692 0 0 0-.95-.414l-1.093-.348a11.002 11.002 0 0 1-1.093-.413 3.551 3.551 0 0 1-.95-.609 2.798 2.798 0 0 1-.673-.935c-.17-.375-.256-.837-.256-1.388a3.327 3.327 0 0 1 .998-2.376 3.594 3.594 0 0 1 1.202-.765c.477-.192 1.025-.288 1.643-.288.695 0 1.328.11 1.9.331.573.22 1.073.54 1.501.957l-.408.8zm3.922 1.705v5.621c0 .667.153 1.184.46 1.549.306.365.769.548 1.387.548.452 0 .877-.107 1.276-.322a3.946 3.946 0 0 0 1.101-.896v-6.5h1.545v8.815h-.92c-.22 0-.358-.108-.416-.322l-.122-.949c-.381.424-.81.764-1.284 1.023-.474.258-1.018.387-1.63.387-.48 0-.904-.08-1.272-.24a2.52 2.52 0 0 1-.923-.674 2.867 2.867 0 0 1-.56-1.053 4.714 4.714 0 0 1-.187-1.366v-5.62h1.545zm8.363 8.815V67.252h1.552v5.273a4.492 4.492 0 0 1 1.254-1.023c.471-.258 1.01-.387 1.618-.387.509 0 .969.096 1.38.287.41.192.76.477 1.049.857.29.38.512.85.668 1.41.156.56.234 1.205.234 1.936 0 .65-.087 1.254-.26 1.814a4.376 4.376 0 0 1-.75 1.453c-.327.41-.726.731-1.198.966a3.52 3.52 0 0 1-1.592.352c-.566 0-1.048-.11-1.444-.33a3.289 3.289 0 0 1-1.037-.923l-.078.8c-.046.221-.179.332-.399.332h-.997zm3.92-7.718c-.502 0-.943.116-1.322.348-.379.232-.727.56-1.046.983v4.263c.278.383.586.653.924.81.339.156.716.235 1.132.235.822 0 1.452-.293 1.892-.88.44-.585.659-1.42.659-2.505 0-.574-.05-1.068-.152-1.48-.101-.411-.247-.75-.438-1.013a1.706 1.706 0 0 0-.703-.579 2.331 2.331 0 0 0-.945-.182zm5.327 1.844h4.286v1.314h-4.286v-1.314zm12.415-1.375a.69.69 0 0 1-.14.148.327.327 0 0 1-.199.053.495.495 0 0 1-.282-.11 4.107 4.107 0 0 0-.386-.239 3.227 3.227 0 0 0-.568-.239 2.674 2.674 0 0 0-.82-.109 2.66 2.66 0 0 0-1.136.231 2.21 2.21 0 0 0-.829.666c-.222.29-.39.64-.503 1.053-.113.411-.17.873-.17 1.383 0 .534.062 1.008.183 1.423.122.414.292.762.512 1.044.22.281.487.496.802.644.316.148.67.222 1.063.222.376 0 .685-.045.928-.135.243-.09.446-.19.608-.3.162-.11.295-.21.399-.3a.48.48 0 0 1 .312-.136c.133 0 .231.05.295.148l.434.566a3.34 3.34 0 0 1-1.432 1.031 5.062 5.062 0 0 1-1.813.326c-.55 0-1.06-.101-1.531-.304a3.491 3.491 0 0 1-1.228-.883 4.193 4.193 0 0 1-.82-1.423c-.199-.563-.299-1.204-.299-1.923a5.8 5.8 0 0 1 .274-1.819 4.124 4.124 0 0 1 .798-1.44c.35-.403.782-.717 1.297-.944.514-.226 1.104-.34 1.77-.34.612 0 1.156.101 1.63.301.475.2.894.483 1.258.849l-.407.556zm5.664-1.705c.642 0 1.222.107 1.74.322.517.215.957.52 1.318.914.362.394.64.871.833 1.43.194.56.29 1.186.29 1.876 0 .696-.096 1.323-.29 1.88a4.054 4.054 0 0 1-.833 1.427 3.621 3.621 0 0 1-1.318.909 4.556 4.556 0 0 1-1.74.317 4.556 4.556 0 0 1-1.739-.317 3.663 3.663 0 0 1-1.323-.91 4.07 4.07 0 0 1-.841-1.427c-.197-.556-.295-1.183-.295-1.879 0-.69.098-1.315.295-1.875.196-.56.477-1.037.841-1.431a3.71 3.71 0 0 1 1.323-.914 4.502 4.502 0 0 1 1.74-.322zm0 7.866c.868 0 1.516-.292 1.944-.875.428-.583.642-1.396.642-2.44 0-1.05-.214-1.868-.642-2.454-.428-.586-1.076-.879-1.944-.879-.44 0-.82.076-1.145.226a2.138 2.138 0 0 0-.81.653 2.902 2.902 0 0 0-.487 1.048c-.107.415-.16.884-.16 1.406 0 .522.053.989.16 1.4.107.412.27.76.486 1.04.217.282.487.498.811.649.324.15.706.226 1.145.226zm7.808-11.73V80.07h-1.544V67.252h1.544zm4.442 0V80.07h-1.544V67.252h1.544zm6.203 3.864c.526 0 1.012.088 1.457.265.445.177.83.432 1.154.766.324.334.577.745.759 1.236.182.49.273 1.048.273 1.675 0 .243-.026.406-.078.487-.052.081-.15.122-.295.122h-5.847c.012.557.087 1.041.226 1.453.138.412.33.755.572 1.03.243.276.532.482.868.619.335.136.711.204 1.128.204a3.3 3.3 0 0 0 1.002-.135 4.854 4.854 0 0 0 1.231-.583c.136-.09.253-.135.352-.135a.34.34 0 0 1 .295.148l.433.566c-.19.232-.419.434-.685.605-.266.17-.55.312-.854.422a5.732 5.732 0 0 1-1.904.33 4.457 4.457 0 0 1-1.68-.309 3.684 3.684 0 0 1-1.327-.904 4.154 4.154 0 0 1-.871-1.475c-.209-.586-.313-1.26-.313-2.019 0-.615.094-1.19.282-1.723.188-.534.459-.996.811-1.388a3.734 3.734 0 0 1 1.293-.922c.509-.223 1.081-.335 1.718-.335zm.034 1.14c-.746 0-1.333.216-1.76.648-.429.432-.695 1.031-.799 1.797h4.78c0-.36-.049-.689-.147-.988a2.202 2.202 0 0 0-.434-.774 1.942 1.942 0 0 0-.698-.505 2.35 2.35 0 0 0-.942-.178zm11.573.565a.69.69 0 0 1-.139.148.327.327 0 0 1-.2.053.495.495 0 0 1-.281-.11 4.107 4.107 0 0 0-.386-.239 3.227 3.227 0 0 0-.568-.239 2.674 2.674 0 0 0-.82-.109 2.66 2.66 0 0 0-1.137.231 2.2 2.2 0 0 0-.828.666c-.223.29-.39.64-.503 1.053-.113.411-.17.873-.17 1.383 0 .534.061 1.008.183 1.423.121.414.292.762.511 1.044.22.281.488.496.803.644.315.148.67.222 1.063.222.376 0 .685-.045.928-.135.243-.09.445-.19.607-.3.162-.11.295-.21.4-.3a.48.48 0 0 1 .312-.136c.133 0 .23.05.294.148l.434.566c-.381.47-.859.814-1.431 1.031a5.062 5.062 0 0 1-1.813.326c-.55 0-1.06-.101-1.531-.304a3.491 3.491 0 0 1-1.228-.883 4.193 4.193 0 0 1-.82-1.423c-.2-.563-.3-1.204-.3-1.923 0-.655.092-1.262.274-1.819a4.124 4.124 0 0 1 .798-1.44c.35-.403.782-.717 1.297-.944.515-.226 1.105-.34 1.77-.34.613 0 1.157.101 1.63.301.475.2.894.483 1.259.849l-.408.556zm4.771 7.388c-.694 0-1.227-.195-1.6-.583-.373-.389-.56-.949-.56-1.68v-5.394h-1.058a.345.345 0 0 1-.234-.083c-.064-.055-.096-.14-.096-.257v-.617l1.44-.183.356-2.724a.33.33 0 0 1 .113-.213.358.358 0 0 1 .243-.083h.78v3.037h2.516v1.123h-2.515v5.29c0 .371.09.647.268.827.18.18.411.27.694.27.162 0 .303-.022.421-.066.119-.043.221-.091.308-.143.087-.053.16-.1.221-.144a.289.289 0 0 1 .16-.065c.082 0 .154.049.218.148l.45.74a2.88 2.88 0 0 1-.962.587 3.261 3.261 0 0 1-1.163.213zm5.527-8.954v8.815h-1.545v-8.815h1.545zm.347-2.767c0 .151-.03.292-.092.422-.06.13-.141.247-.242.348a1.128 1.128 0 0 1-.352.24 1.052 1.052 0 0 1-.425.087c-.15 0-.29-.03-.42-.087a1.144 1.144 0 0 1-.586-.588 1.091 1.091 0 0 1 0-.853 1.118 1.118 0 0 1 .585-.596 1.07 1.07 0 0 1 .846 0 1.134 1.134 0 0 1 .594.596c.061.137.092.28.092.431zm5.933 2.628c.642 0 1.222.107 1.74.322.517.215.957.52 1.318.914.362.394.64.871.833 1.43.194.56.29 1.186.29 1.876 0 .696-.096 1.323-.29 1.88a4.054 4.054 0 0 1-.833 1.427 3.621 3.621 0 0 1-1.318.909 4.556 4.556 0 0 1-1.74.317 4.556 4.556 0 0 1-1.739-.317 3.663 3.663 0 0 1-1.323-.91 4.07 4.07 0 0 1-.841-1.427c-.197-.556-.295-1.183-.295-1.879 0-.69.098-1.315.295-1.875.196-.56.477-1.037.841-1.431a3.71 3.71 0 0 1 1.323-.914 4.502 4.502 0 0 1 1.74-.322zm0 7.866c.868 0 1.516-.292 1.944-.875.428-.583.642-1.396.642-2.44 0-1.05-.214-1.868-.642-2.454-.428-.586-1.076-.879-1.944-.879-.44 0-.82.076-1.145.226a2.138 2.138 0 0 0-.81.653 2.902 2.902 0 0 0-.487 1.048c-.107.415-.16.884-.16 1.406 0 .522.053.989.16 1.4.107.412.27.76.486 1.04.217.282.487.498.811.649.324.15.706.226 1.145.226zm6.09 1.088v-8.815h.92c.22 0 .359.107.416.322l.122.957a4.942 4.942 0 0 1 1.28-1.027c.47-.26 1.016-.391 1.635-.391.48 0 .903.08 1.27.24.368.159.674.385.92.678a3 3 0 0 1 .56 1.057c.127.412.19.867.19 1.366v5.613h-1.544v-5.613c0-.667-.151-1.185-.455-1.553-.304-.368-.768-.552-1.392-.552-.457 0-.884.11-1.28.33-.396.22-.762.52-1.097.896v6.492h-1.545z" fill="#3F3F3F"/></g></svg>