<svg width="71" height="71" viewBox="-4586 -1211 71 71" xmlns="http://www.w3.org/2000/svg"><path d="M-4527.354-1210.204a2.367 2.367 0 0 0-1.405.69l-35.697 35.698a2.367 2.367 0 0 0-.69 1.405l-1.11 10.034a2.367 2.367 0 0 0 2.613 2.613l10.034-1.11a2.367 2.367 0 0 0 1.43-.665l35.697-35.697a2.367 2.367 0 0 0 0-3.353l-8.924-8.925a2.367 2.367 0 0 0-1.948-.69zm.271 5.695l5.572 5.596-1.11 1.11-5.571-5.572 1.11-1.134zm-55.764 2.194c-1.294.012-2.341 1.37-2.367 2.367v56.8c0 1.239 1.128 2.366 2.367 2.366h56.8c1.239 0 2.366-1.127 2.366-2.366v-33.923c.018-1.25-1.116-2.39-2.366-2.39s-2.385 1.14-2.367 2.39v31.556h-52.067v-52.067h31.556c1.25.018 2.391-1.116 2.391-2.366s-1.14-2.385-2.391-2.367h-33.922zm51.302 2.268l5.572 5.596-28.967 28.967-6.287.715.69-6.262 28.992-29.016z"/></svg>