<svg xmlns="http://www.w3.org/2000/svg" viewBox="0 0 100 125"><path style="text-indent:0;text-align:start;line-height:normal;text-transform:none;block-progression:tb;marker:none;-inkscape-font-specification:Sans" d="M49.844 11a2 2 0 0 0-1.313.625l-22 24a2.001 2.001 0 1 0 2.938 2.719L48 18.125V67c-.015 1.057.943 2.031 2 2.031s2.015-.974 2-2.031V18.125l18.531 20.219a2.001 2.001 0 1 0 2.938-2.719l-22-24A2 2 0 0 0 49.844 11zM7.78 60.969A2 2 0 0 0 6 63v24a2 2 0 0 0 2 2h84a2 2 0 0 0 2-2V63a2 2 0 1 0-4 0v22H10V63a2 2 0 0 0-2.219-2.031z" font-weight="400" color="#000" overflow="visible" font-family="Sans"/><text y="115" font-size="5" font-weight="bold" font-family="'Helvetica Neue', Helvetica, Arial-Unicode, Arial, Sans-serif">Created by Icons Bazaar</text><text y="120" font-size="5" font-weight="bold" font-family="'Helvetica Neue', Helvetica, Arial-Unicode, Arial, Sans-serif">from the Noun Project</text></svg>