<svg width="94" height="60" viewBox="-3731 -1625 94 60" xmlns="http://www.w3.org/2000/svg"><path d="M-3675.918-1624.959h-51.016a3.92 3.92 0 0 0-3.917 3.927 3.92 3.92 0 0 0 3.917 3.926h51.016a3.92 3.92 0 0 0 3.917-3.926 3.92 3.92 0 0 0-3.917-3.927zm-11.292 25.699h-39.724a3.92 3.92 0 0 0-3.917 3.926 3.92 3.92 0 0 0 3.917 3.927h39.725a3.92 3.92 0 0 0 3.916-3.927 3.92 3.92 0 0 0-3.916-3.926zm-10.311 25.698h-29.413a3.92 3.92 0 0 0-3.917 3.927 3.92 3.92 0 0 0 3.917 3.926h29.413a3.92 3.92 0 0 0 3.917-3.926 3.92 3.92 0 0 0-3.917-3.927zm59.224-9.425a3.908 3.908 0 0 0-5.538 0l-4.521 4.533v-42.47a3.92 3.92 0 0 0-3.917-3.927 3.92 3.92 0 0 0-3.916 3.926v42.479l-4.521-4.54a3.908 3.908 0 0 0-5.539 0 3.932 3.932 0 0 0 0 5.552l11.2 11.242a3.909 3.909 0 0 0 5.538 0l11.214-11.242a3.932 3.932 0 0 0 0-5.553z" fill-rule="evenodd"/></svg>