<svg width="362" height="362" viewBox="-22 -2206 362 362" xmlns="http://www.w3.org/2000/svg"><g fill="none" fill-rule="evenodd" transform="translate(-22 -2206)"><rect fill="#698B8F" width="362" height="362" rx="57"/><path d="M83.1 178.325c7.05 0 12.212-1.7 15.488-5.1 3.275-3.4 4.912-8.05 4.912-13.95 0-2.7-.412-5.162-1.237-7.388-.826-2.225-2.075-4.124-3.75-5.7-1.676-1.575-3.788-2.787-6.338-3.637-2.55-.85-5.575-1.275-9.075-1.275H68.85v37.05H83.1zm0-54.15c7.45 0 13.887.875 19.313 2.625 5.425 1.75 9.887 4.187 13.387 7.313 3.5 3.125 6.087 6.837 7.763 11.137 1.675 4.3 2.512 8.975 2.512 14.025 0 5.35-.875 10.25-2.625 14.7a30.053 30.053 0 0 1-7.95 11.475c-3.55 3.2-8.025 5.687-13.425 7.463-5.4 1.775-11.725 2.662-18.975 2.662H68.85V233h-22.5V124.175H83.1zm154.875 54.375c0 7.95-1.337 15.262-4.012 21.938-2.676 6.675-6.45 12.412-11.326 17.212-4.875 4.8-10.737 8.55-17.587 11.25-6.85 2.7-14.45 4.05-22.8 4.05H140.4V124.175h41.85c8.35 0 15.95 1.35 22.8 4.05 6.85 2.7 12.712 6.462 17.587 11.287 4.876 4.826 8.65 10.563 11.326 17.213 2.675 6.65 4.012 13.925 4.012 21.825zm-23.1 0c0-5.7-.75-10.825-2.25-15.375-1.5-4.55-3.65-8.4-6.45-11.55-2.8-3.15-6.212-5.575-10.238-7.275-4.025-1.7-8.587-2.55-13.687-2.55h-19.2v73.575h19.2c5.1 0 9.662-.837 13.688-2.512 4.025-1.676 7.437-4.1 10.237-7.275 2.8-3.176 4.95-7.038 6.45-11.588 1.5-4.55 2.25-9.7 2.25-15.45zM277.2 141.8v30.075h39.15v17.7H277.2V233h-22.65V124.175h69.3V141.8H277.2z" fill="#F1F1F1"/></g></svg>