<svg width="20" height="20" viewBox="0 0 30 30" xmlns="http://www.w3.org/2000/svg"><path d="M27.638 16.01l-4.97 5.04c2.341 2.73 4.65 5.423 6.95 8.103l-.78.819-7.958-7.019-4.992 5.064c-.016-.216-.029-.313-.03-.41 0-.786.008-1.571-.008-2.355a.682.682 0 0 0-.165-.427c-3.49-3.551-6.986-7.097-10.492-10.632-.127-.128-.364-.188-.555-.202-1.325-.092-2.65-.164-3.977-.244-.149-.009-.297-.028-.39-.037L13.596.192l.095 1.48c.064 1.04.121 2.081.2 3.12.01.146.09.316.192.42 3.482 3.543 6.97 7.08 10.465 10.61a.709.709 0 0 0 .448.18c.862.017 1.724.008 2.641.008zM6.514 12.584c3.59 3.64 7.18 7.283 10.751 10.906l5.956-6.042-10.75-10.905-5.957 6.04z" fill="#fff" fill-rule="evenodd"/></svg>