<svg width="330" height="139" xmlns="http://www.w3.org/2000/svg" xmlns:xlink="http://www.w3.org/1999/xlink"><defs><path d="M8 20.16h123.726L148.428 0l17.682 20.16H290a8 8 0 0 1 8 8V100a8 8 0 0 1-8 8H8a8 8 0 0 1-8-8V28.16a8 8 0 0 1 8-8z" id="b"/><filter x="-8.4%" y="-21.3%" width="116.8%" height="146.3%" filterUnits="objectBoundingBox" id="a"><feMorphology radius=".5" operator="dilate" in="SourceAlpha" result="shadowSpreadOuter1"/><feOffset dy="2" in="shadowSpreadOuter1" result="shadowOffsetOuter1"/><feGaussianBlur stdDeviation="7.5" in="shadowOffsetOuter1" result="shadowBlurOuter1"/><feComposite in="shadowBlurOuter1" in2="SourceAlpha" operator="out" result="shadowBlurOuter1"/><feColorMatrix values="0 0 0 0 0.518973214 0 0 0 0 0.518973214 0 0 0 0 0.518973214 0 0 0 0.379557292 0" in="shadowBlurOuter1"/></filter></defs><g transform="translate(16 13)" fill="none" fill-rule="evenodd"><use fill="#000" filter="url(#a)" xlink:href="#b"/><use fill="#FFF" xlink:href="#b"/><path stroke="#F1F1F1" d="M148.439.77l-16.478 19.89H8a7.5 7.5 0 0 0-7.5 7.5V100a7.5 7.5 0 0 0 7.5 7.5h282a7.5 7.5 0 0 0 7.5-7.5V28.16a7.5 7.5 0 0 0-7.5-7.5H165.884L148.439.77z"/><path d="M42.5 86C53.27 86 62 76.822 62 65.5S53.27 45 42.5 45 23 54.178 23 65.5 31.73 86 42.5 86z" stroke="#D98A8A" fill="#FFA4BE"/><ellipse stroke="#D6BD69" fill="#FFDE70" cx="95.5" cy="65.5" rx="19.5" ry="20.5"/><ellipse stroke="#D8D566" fill="#FFFB78" cx="147.5" cy="65.5" rx="19.5" ry="20.5"/><ellipse stroke="#9CDFCD" fill="#B4FFEB" cx="252.5" cy="65.5" rx="19.5" ry="20.5"/><ellipse stroke="#BEDD73" fill="#D1FF61" cx="200.5" cy="65.5" rx="19.5" ry="20.5"/></g></svg>