<svg width="116" height="131" xmlns="http://www.w3.org/2000/svg" xmlns:xlink="http://www.w3.org/1999/xlink"><defs><path id="b" d="M0 0h102v117H0z"/><filter x="-11.3%" y="-8.1%" width="122.5%" height="119.7%" filterUnits="objectBoundingBox" id="a"><feOffset dy="2" in="SourceAlpha" result="shadowOffsetOuter1"/><feGaussianBlur stdDeviation="3.5" in="shadowOffsetOuter1" result="shadowBlurOuter1"/><feColorMatrix values="0 0 0 0 0 0 0 0 0 0 0 0 0 0 0 0 0 0 0.186056386 0" in="shadowBlurOuter1"/></filter></defs><g fill="none" fill-rule="evenodd"><g transform="translate(7 5)"><use fill="#000" filter="url(#a)" xlink:href="#b"/><use fill="#FBFBFB" xlink:href="#b"/></g><path fill="#E7E7E7" d="M26 30h67v2H26zm0 5h67v2H26zm0 13h67v2H26zm0 5h40v2H26zm0 49h67v2H26zm0 5h40v2H26zm0-67h24v2H26zm0 44h67v2H26zm0 5h67v2H26zm0 5h24v2H26z"/><path fill="#FF6262" d="M18 28h3v16h-3z"/><path fill="#FFCE62" d="M18 47h3v10h-3z"/><path fill="#FFF76B" d="M18 82h3v16h-3z"/><path fill="#97FFF4" d="M18 101h3v10h-3z"/><path d="M20.163 22h-1.07v-7.18h1.07V22zm2.41-4.375c.11-.117.224-.223.345-.32a2.049 2.049 0 0 1 1.315-.465c.28 0 .525.047.737.14.212.093.39.224.533.393a1.7 1.7 0 0 1 .325.607c.073.237.11.498.11.785V22h-.98v-3.235c0-.363-.084-.646-.25-.847-.167-.202-.422-.303-.765-.303-.25 0-.485.06-.703.178a2.34 2.34 0 0 0-.607.482V22h-.975v-5.08h.585c.136 0 .221.065.255.195l.075.51zm6.2 4.455c-.41 0-.726-.115-.948-.345-.222-.23-.332-.558-.332-.985v-3.04h-.59a.203.203 0 0 1-.143-.053c-.038-.035-.058-.087-.058-.157v-.395l.825-.115.22-1.515a.24.24 0 0 1 .078-.132.224.224 0 0 1 .148-.048h.495V17h1.44v.71h-1.44v2.975c0 .2.049.35.147.448a.511.511 0 0 0 .378.147.69.69 0 0 0 .232-.035.927.927 0 0 0 .167-.078 2.23 2.23 0 0 0 .12-.077.162.162 0 0 1 .09-.035.12.12 0 0 1 .078.023.28.28 0 0 1 .058.072l.29.47c-.16.147-.35.26-.57.34-.22.08-.449.12-.685.12zm2.95-4.185c.163-.333.36-.595.59-.785.23-.19.506-.285.83-.285.11 0 .214.012.312.038a.805.805 0 0 1 .258.112l-.066.735c-.023.09-.078.135-.164.135a1.2 1.2 0 0 1-.21-.027 1.556 1.556 0 0 0-.3-.028c-.157 0-.295.022-.416.068a.97.97 0 0 0-.322.2c-.095.088-.18.196-.252.325a3.253 3.253 0 0 0-.206.437V22h-.975v-5.08h.56c.107 0 .18.02.218.057a.386.386 0 0 1 .083.203l.06.715zm4.72-1.055c.373 0 .71.06 1.012.183.302.121.558.296.77.524.212.229.374.504.487.825.114.322.17.683.17 1.083 0 .4-.056.762-.17 1.085a2.31 2.31 0 0 1-.487.825 2.14 2.14 0 0 1-.77.523c-.302.121-.64.182-1.012.182a2.7 2.7 0 0 1-1.018-.183 2.15 2.15 0 0 1-.773-.522 2.32 2.32 0 0 1-.492-.825 3.222 3.222 0 0 1-.172-1.085c0-.4.057-.76.172-1.082a2.35 2.35 0 0 1 .492-.826c.214-.228.471-.403.773-.524a2.7 2.7 0 0 1 1.017-.183zm0 4.47c.48 0 .838-.162 1.074-.485.237-.323.355-.778.355-1.365s-.118-1.042-.354-1.368c-.237-.325-.595-.487-1.076-.487-.486 0-.849.162-1.087.488-.238.325-.358.78-.358 1.367s.12 1.042.358 1.365c.238.323.6.485 1.087.485zm6.8-3.16a1.38 1.38 0 0 0-.518-.44 1.5 1.5 0 0 0-.623-.125c-.446 0-.792.16-1.037.482-.245.322-.368.791-.368 1.408 0 .323.028.6.083.828.055.228.135.414.24.56a.953.953 0 0 0 .387.32c.154.068.327.102.52.102.284 0 .529-.063.735-.19.207-.127.4-.305.58-.535v-2.41zm.98-3.53V22h-.59c-.137 0-.222-.065-.256-.195l-.085-.585a2.693 2.693 0 0 1-.737.617 1.907 1.907 0 0 1-.953.233 1.79 1.79 0 0 1-.787-.17 1.658 1.658 0 0 1-.603-.497 2.374 2.374 0 0 1-.385-.813 4.17 4.17 0 0 1-.135-1.115c0-.377.05-.727.15-1.05.1-.323.245-.603.435-.84s.42-.422.69-.557c.27-.136.575-.203.915-.203.307 0 .568.05.783.15.215.1.407.242.577.425v-2.78h.98zm5.59 2.3V22h-.586c-.133 0-.22-.065-.26-.195l-.07-.51c-.11.117-.224.223-.345.32a2.132 2.132 0 0 1-.82.408 2.036 2.036 0 0 1-.495.057c-.28 0-.525-.047-.737-.14a1.464 1.464 0 0 1-.533-.393 1.7 1.7 0 0 1-.325-.607 2.644 2.644 0 0 1-.11-.785V16.92h.98v3.235c0 .363.084.646.25.847.167.202.422.303.765.303.25 0 .484-.06.7-.178.217-.118.42-.28.61-.487v-3.72h.975zm4.924.95a.54.54 0 0 1-.087.087.199.199 0 0 1-.123.033.29.29 0 0 1-.167-.063 1.966 1.966 0 0 0-.54-.27 1.478 1.478 0 0 0-.463-.062c-.24 0-.451.043-.635.13-.183.087-.335.21-.457.37s-.214.355-.278.585a2.92 2.92 0 0 0-.095.775c0 .297.034.56.1.793.067.231.162.426.285.584.124.159.274.279.45.36.177.082.374.123.59.123a1.487 1.487 0 0 0 .86-.245c.09-.06.165-.116.225-.168a.282.282 0 0 1 .185-.077c.08 0 .142.03.185.09l.28.36a1.886 1.886 0 0 1-.392.365c-.145.1-.3.182-.463.245a2.63 2.63 0 0 1-.512.14 3.27 3.27 0 0 1-.543.045c-.316 0-.612-.058-.887-.175a2.01 2.01 0 0 1-.715-.51 2.441 2.441 0 0 1-.478-.823 3.265 3.265 0 0 1-.175-1.107c0-.377.053-.725.158-1.045.105-.32.26-.596.465-.828a2.15 2.15 0 0 1 .757-.545 2.54 2.54 0 0 1 1.03-.197c.364 0 .684.058.96.175.277.117.524.282.74.495l-.26.36zm6.04 4.13h-.98v-4.29h-2.55v2.975c0 .2.05.35.148.448a.511.511 0 0 0 .377.147.69.69 0 0 0 .233-.035.927.927 0 0 0 .167-.078 2.23 2.23 0 0 0 .12-.077.162.162 0 0 1 .09-.035.12.12 0 0 1 .078.023.28.28 0 0 1 .057.072l.29.47c-.16.147-.35.26-.57.34-.22.08-.448.12-.685.12-.41 0-.725-.115-.947-.345-.222-.23-.333-.558-.333-.985v-3.04h-.59a.203.203 0 0 1-.142-.053c-.038-.035-.058-.087-.058-.157v-.395l.83-.115.215-1.515a.24.24 0 0 1 .078-.132.224.224 0 0 1 .147-.048h.495V17h3.53v5zm.22-6.68a.62.62 0 0 1-.055.258.672.672 0 0 1-.88.36.688.688 0 0 1-.357-.36.677.677 0 0 1 .613-.938.672.672 0 0 1 .625.415.65.65 0 0 1 .054.265zm3.36 1.52c.374 0 .711.06 1.013.183.302.121.558.296.77.524.212.229.374.504.487.825.114.322.17.683.17 1.083 0 .4-.056.762-.17 1.085a2.31 2.31 0 0 1-.487.825 2.14 2.14 0 0 1-.77.523c-.302.121-.64.182-1.013.182a2.7 2.7 0 0 1-1.017-.183 2.15 2.15 0 0 1-.773-.522 2.32 2.32 0 0 1-.492-.825 3.222 3.222 0 0 1-.173-1.085c0-.4.058-.76.173-1.082a2.35 2.35 0 0 1 .492-.826c.214-.228.471-.403.773-.524a2.7 2.7 0 0 1 1.017-.183zm0 4.47c.48 0 .839-.162 1.075-.485.237-.323.355-.778.355-1.365s-.118-1.042-.355-1.368c-.236-.325-.594-.487-1.075-.487-.486 0-.849.162-1.087.488-.238.325-.358.78-.358 1.367s.12 1.042.358 1.365c.238.323.6.485 1.087.485zm4.44-3.685c.11-.117.225-.223.345-.32a2.049 2.049 0 0 1 1.315-.465c.28 0 .526.047.738.14.212.093.39.224.532.393a1.7 1.7 0 0 1 .325.607c.074.237.11.498.11.785V22h-.98v-3.235c0-.363-.083-.646-.25-.847-.166-.202-.421-.303-.765-.303-.25 0-.484.06-.702.178a2.34 2.34 0 0 0-.608.482V22h-.975v-5.08h.585c.137 0 .222.065.255.195l.075.51zM19.11 72.28c.273 0 .514-.033.723-.1.208-.067.382-.16.522-.283a1.16 1.16 0 0 0 .315-.434c.07-.169.105-.355.105-.558 0-.413-.136-.725-.407-.935-.272-.21-.68-.315-1.223-.315H18.14v2.625h.97zM22.46 76h-.95c-.19 0-.328-.075-.415-.225l-1.775-2.49a.529.529 0 0 0-.185-.177.667.667 0 0 0-.3-.053h-.695V76h-1.065v-7.18h2.07c.463 0 .862.047 1.197.142.336.096.612.23.83.405.219.176.38.386.486.633a2.1 2.1 0 0 1 .157.83c0 .25-.038.485-.115.705-.077.22-.19.417-.338.593a2.129 2.129 0 0 1-.542.452 2.66 2.66 0 0 1-.725.29c.133.08.248.192.345.335L22.46 76zm3.755-3.105c0-.193-.027-.372-.082-.535a1.215 1.215 0 0 0-.243-.425 1.102 1.102 0 0 0-.39-.28c-.153-.067-.33-.1-.53-.1-.41 0-.732.118-.967.355-.236.237-.385.565-.448.985h2.66zm.805 2.38c-.12.14-.258.26-.415.362a2.408 2.408 0 0 1-.5.248c-.177.063-.36.11-.547.14a3.54 3.54 0 0 1-.558.045c-.35 0-.674-.06-.973-.177a2.162 2.162 0 0 1-.774-.52 2.372 2.372 0 0 1-.51-.85 3.441 3.441 0 0 1-.183-1.168c0-.353.055-.682.165-.987.11-.306.267-.571.473-.798.205-.227.455-.405.752-.535s.63-.195 1-.195c.31 0 .596.05.858.153.261.101.487.249.677.442.19.193.34.432.448.715.108.283.162.607.162.97 0 .15-.017.25-.05.302-.033.052-.095.078-.185.078h-3.33c.01.303.053.567.13.793a1.6 1.6 0 0 0 .318.562c.135.15.295.262.482.335.187.073.395.11.625.11.217 0 .404-.025.563-.075a2.826 2.826 0 0 0 .7-.325.4.4 0 0 1 .207-.075c.08 0 .142.03.185.09l.28.36zm4.12-3.48a.273.273 0 0 1-.085.093.218.218 0 0 1-.115.027.368.368 0 0 1-.178-.055 3.729 3.729 0 0 0-.235-.12 2.278 2.278 0 0 0-.322-.12 1.554 1.554 0 0 0-.44-.055c-.14 0-.267.017-.383.053a.906.906 0 0 0-.292.145.647.647 0 0 0-.185.22.592.592 0 0 0-.065.272c0 .127.037.232.113.315a.965.965 0 0 0 .294.215c.122.06.26.114.416.163.155.048.313.099.474.152.162.053.32.114.476.183.155.068.293.153.415.254.121.102.22.225.295.368.075.143.112.318.112.525 0 .237-.042.456-.127.657-.086.202-.21.376-.375.523-.166.147-.37.262-.613.345a2.572 2.572 0 0 1-.835.125c-.35 0-.673-.058-.97-.175a2.43 2.43 0 0 1-.745-.445l.23-.375a.297.297 0 0 1 .1-.107.3.3 0 0 1 .16-.038.34.34 0 0 1 .195.07c.067.047.147.097.24.152a1.583 1.583 0 0 0 .84.218c.167 0 .312-.02.435-.063a.893.893 0 0 0 .308-.17.688.688 0 0 0 .182-.247.741.741 0 0 0 .06-.295.496.496 0 0 0-.113-.333.965.965 0 0 0-.294-.227 2.37 2.37 0 0 0-.418-.165 19.268 19.268 0 0 1-.48-.15 4.918 4.918 0 0 1-.48-.185 1.649 1.649 0 0 1-.418-.265 1.231 1.231 0 0 1-.294-.39 1.266 1.266 0 0 1-.113-.56c0-.197.04-.385.122-.565a1.4 1.4 0 0 1 .355-.475c.156-.137.347-.246.575-.328a2.34 2.34 0 0 1 .783-.122c.337 0 .64.053.912.16.272.107.505.253.698.44l-.215.355zm4.715 1.1c0-.193-.027-.372-.082-.535a1.215 1.215 0 0 0-.243-.425 1.102 1.102 0 0 0-.39-.28c-.153-.067-.33-.1-.53-.1-.41 0-.732.118-.967.355-.236.237-.385.565-.448.985h2.66zm.805 2.38c-.12.14-.258.26-.415.362a2.408 2.408 0 0 1-.5.248c-.177.063-.36.11-.547.14a3.54 3.54 0 0 1-.558.045c-.35 0-.674-.06-.973-.177a2.162 2.162 0 0 1-.774-.52 2.372 2.372 0 0 1-.51-.85 3.441 3.441 0 0 1-.183-1.168c0-.353.055-.682.165-.987.11-.306.267-.571.473-.798.205-.227.455-.405.752-.535s.63-.195 1-.195c.31 0 .596.05.858.153.261.101.487.249.677.442.19.193.34.432.448.715.108.283.162.607.162.97 0 .15-.017.25-.05.302-.033.052-.095.078-.185.078h-3.33c.01.303.053.567.13.793a1.6 1.6 0 0 0 .317.562c.136.15.296.262.483.335.187.073.395.11.625.11.217 0 .404-.025.562-.075a2.737 2.737 0 0 0 .7-.325.4.4 0 0 1 .208-.075c.08 0 .142.03.185.09l.28.36zm3.855-1.53a7.44 7.44 0 0 0-1.01.093 2.778 2.778 0 0 0-.675.192.916.916 0 0 0-.375.282.613.613 0 0 0-.115.363c0 .127.02.236.063.328a.61.61 0 0 0 .17.225c.071.058.155.1.252.127.097.027.202.04.315.04a1.642 1.642 0 0 0 1.08-.375c.1-.08.198-.172.295-.275v-1zm-2.86-2.115c.283-.27.59-.472.922-.605.332-.133.696-.2 1.093-.2.29 0 .547.047.77.142a1.584 1.584 0 0 1 .913 1.008c.078.237.117.498.117.785V76h-.435a.415.415 0 0 1-.22-.047c-.05-.032-.09-.091-.12-.178l-.105-.445c-.13.12-.258.226-.385.317-.127.092-.26.17-.398.235a2.03 2.03 0 0 1-.442.148c-.157.033-.33.05-.52.05-.2 0-.387-.027-.563-.082a1.193 1.193 0 0 1-.765-.678 1.463 1.463 0 0 1-.112-.595c0-.2.054-.392.162-.578.109-.185.285-.35.53-.497.246-.147.565-.267.96-.36a7.188 7.188 0 0 1 1.458-.16v-.37c0-.383-.082-.67-.245-.86-.163-.19-.403-.285-.72-.285-.213 0-.392.027-.538.08-.145.053-.27.112-.375.178a7.632 7.632 0 0 0-.275.177.426.426 0 0 1-.242.08.277.277 0 0 1-.173-.055.458.458 0 0 1-.117-.13l-.175-.315zm6.045.265c.163-.333.36-.595.59-.785.23-.19.507-.285.83-.285.11 0 .214.012.313.037a.805.805 0 0 1 .257.113l-.065.735c-.023.09-.078.135-.165.135a1.2 1.2 0 0 1-.21-.028 1.556 1.556 0 0 0-.3-.027c-.157 0-.295.022-.415.067a.97.97 0 0 0-.322.2 1.35 1.35 0 0 0-.253.325 3.253 3.253 0 0 0-.205.438V76h-.975v-5.08h.56c.107 0 .18.02.217.058.039.038.066.105.083.202l.06.715zm6.115-.025a.54.54 0 0 1-.087.087.199.199 0 0 1-.123.033.29.29 0 0 1-.167-.063 1.966 1.966 0 0 0-.54-.27 1.478 1.478 0 0 0-.463-.062c-.24 0-.452.043-.635.13-.183.087-.336.21-.457.37a1.69 1.69 0 0 0-.278.585 2.92 2.92 0 0 0-.095.775c0 .297.033.56.1.793.067.231.162.426.285.584.123.159.273.279.45.36.177.082.373.123.59.123a1.487 1.487 0 0 0 .86-.245c.09-.06.165-.116.225-.167a.282.282 0 0 1 .185-.078c.08 0 .142.03.185.09l.28.36a1.886 1.886 0 0 1-.393.365c-.145.1-.299.182-.462.245a2.63 2.63 0 0 1-.512.14 3.28 3.28 0 0 1-.543.045 2.24 2.24 0 0 1-.887-.175 2.01 2.01 0 0 1-.715-.51 2.441 2.441 0 0 1-.478-.823 3.265 3.265 0 0 1-.175-1.107c0-.377.052-.725.157-1.045.106-.32.26-.596.465-.828a2.15 2.15 0 0 1 .758-.544 2.54 2.54 0 0 1 1.03-.198c.363 0 .683.058.96.175.277.117.523.282.74.495l-.26.36zm2.2-.305c.213-.217.45-.392.707-.525.259-.133.556-.2.893-.2.28 0 .526.047.737.14.212.093.39.224.533.392a1.7 1.7 0 0 1 .325.608c.073.237.11.498.11.785V76h-.98v-3.235c0-.363-.083-.646-.25-.847-.167-.202-.422-.303-.765-.303-.25 0-.484.06-.703.178a2.34 2.34 0 0 0-.607.482V76h-.975v-7.38h.975v2.945zm11.06-1.575a.407.407 0 0 1-.105.125.232.232 0 0 1-.14.04.367.367 0 0 1-.205-.082 4.06 4.06 0 0 0-.288-.185 2.226 2.226 0 0 0-.412-.186 1.776 1.776 0 0 0-.575-.082c-.21 0-.394.027-.553.082-.158.056-.29.13-.397.225a.94.94 0 0 0-.242.335 1.049 1.049 0 0 0-.083.418c0 .193.05.353.147.48.099.127.228.235.388.325.16.09.342.168.545.235l.625.207c.213.072.422.155.625.248s.385.21.545.353c.16.141.29.314.387.52.099.205.148.455.148.752 0 .317-.054.613-.163.89a2.092 2.092 0 0 1-1.235 1.213 2.796 2.796 0 0 1-1.027.177 3.286 3.286 0 0 1-1.828-.552 2.68 2.68 0 0 1-.452-.388l.305-.51a.41.41 0 0 1 .108-.1.259.259 0 0 1 .142-.04c.07 0 .15.037.242.11.092.073.205.154.34.243.136.088.297.169.486.242a1.9 1.9 0 0 0 .687.11c.22 0 .417-.03.59-.087a1.097 1.097 0 0 0 .71-.643c.063-.153.095-.323.095-.51a.856.856 0 0 0-.145-.515 1.182 1.182 0 0 0-.385-.335 2.82 2.82 0 0 0-.545-.23c-.203-.063-.412-.13-.625-.198a6.264 6.264 0 0 1-.625-.237 2.027 2.027 0 0 1-.545-.352 1.595 1.595 0 0 1-.385-.545c-.097-.219-.145-.488-.145-.808a1.919 1.919 0 0 1 .587-1.382c.192-.186.428-.334.708-.445.28-.112.6-.168.96-.168.403 0 .774.064 1.112.193.339.128.633.312.883.552l-.26.505zm4.865 2.905c0-.193-.027-.372-.082-.535a1.215 1.215 0 0 0-.243-.425 1.102 1.102 0 0 0-.39-.28c-.153-.067-.33-.1-.53-.1-.41 0-.732.118-.967.355-.236.237-.385.565-.448.985h2.66zm.805 2.38c-.12.14-.258.26-.415.362a2.408 2.408 0 0 1-.5.248c-.177.063-.36.11-.547.14a3.54 3.54 0 0 1-.558.045c-.35 0-.674-.06-.972-.177a2.162 2.162 0 0 1-.775-.52 2.372 2.372 0 0 1-.51-.85 3.441 3.441 0 0 1-.183-1.168c0-.353.055-.682.165-.987.11-.306.267-.571.473-.798.205-.227.455-.405.752-.535s.63-.195 1-.195c.31 0 .596.05.858.153.261.101.487.249.677.442.19.193.34.432.448.715.108.283.162.607.162.97 0 .15-.017.25-.05.302-.033.052-.095.078-.185.078h-3.33c.01.303.053.567.13.793a1.6 1.6 0 0 0 .318.562c.135.15.295.262.482.335.187.073.395.11.625.11.217 0 .404-.025.563-.075a2.826 2.826 0 0 0 .7-.325.4.4 0 0 1 .207-.075c.08 0 .142.03.185.09l.28.36zm4.685-3.405a.54.54 0 0 1-.088.087.199.199 0 0 1-.122.033.29.29 0 0 1-.168-.063 1.966 1.966 0 0 0-.54-.27 1.478 1.478 0 0 0-.462-.062c-.24 0-.452.043-.635.13-.183.087-.336.21-.458.37-.121.16-.214.355-.277.585a2.92 2.92 0 0 0-.095.775c0 .297.033.56.1.793.067.231.162.426.285.584.123.159.273.279.45.36.177.082.373.123.59.123a1.487 1.487 0 0 0 .86-.245c.09-.06.165-.116.225-.167a.282.282 0 0 1 .185-.078c.08 0 .142.03.185.09l.28.36a1.886 1.886 0 0 1-.392.365c-.146.1-.3.182-.463.245-.163.063-.334.11-.513.14-.178.03-.359.045-.542.045a2.24 2.24 0 0 1-.887-.175 2.01 2.01 0 0 1-.715-.51 2.441 2.441 0 0 1-.478-.823 3.265 3.265 0 0 1-.175-1.107c0-.377.052-.725.157-1.045.106-.32.26-.596.465-.828a2.15 2.15 0 0 1 .758-.544 2.54 2.54 0 0 1 1.03-.198c.363 0 .683.058.96.175.277.117.523.282.74.495l-.26.36zM79.47 76h-.98v-4.29h-2.55v2.975c0 .2.05.35.148.447a.511.511 0 0 0 .377.148.69.69 0 0 0 .233-.035.927.927 0 0 0 .167-.078 2.01 2.01 0 0 0 .12-.077.162.162 0 0 1 .09-.035.12.12 0 0 1 .078.022.28.28 0 0 1 .057.073l.29.47c-.16.147-.35.26-.57.34-.22.08-.448.12-.685.12-.41 0-.726-.115-.948-.345-.221-.23-.332-.558-.332-.985v-3.04h-.59a.203.203 0 0 1-.142-.052c-.039-.036-.058-.088-.058-.158v-.395l.83-.115.215-1.515c.013-.057.04-.1.078-.132a.224.224 0 0 1 .147-.048h.495V71h3.53v5zm.22-6.68a.62.62 0 0 1-.055.258.672.672 0 0 1-.88.36.688.688 0 0 1-.358-.36.677.677 0 0 1 .613-.937.672.672 0 0 1 .625.415.65.65 0 0 1 .055.264zm3.36 1.52c.373 0 .71.06 1.013.182.301.122.558.297.77.525.211.229.374.504.487.826.113.321.17.682.17 1.082s-.057.762-.17 1.085a2.31 2.31 0 0 1-.487.825c-.212.227-.469.4-.77.523-.302.121-.64.182-1.013.182a2.7 2.7 0 0 1-1.017-.182 2.15 2.15 0 0 1-.773-.523 2.32 2.32 0 0 1-.493-.825 3.222 3.222 0 0 1-.172-1.085c0-.4.057-.76.172-1.082a2.35 2.35 0 0 1 .493-.826c.213-.228.47-.403.772-.525a2.7 2.7 0 0 1 1.018-.182zm0 4.47c.48 0 .838-.162 1.075-.485.237-.323.355-.778.355-1.365s-.118-1.042-.355-1.367c-.237-.326-.595-.488-1.075-.488-.487 0-.85.162-1.087.487-.239.326-.358.781-.358 1.368 0 .587.12 1.042.358 1.365.238.323.6.485 1.087.485zm4.44-3.685c.11-.117.225-.223.345-.32a2.049 2.049 0 0 1 1.315-.465c.28 0 .526.047.737.14.212.093.39.224.533.392a1.7 1.7 0 0 1 .325.608c.073.237.11.498.11.785V76h-.98v-3.235c0-.363-.083-.646-.25-.847-.167-.202-.422-.303-.765-.303-.25 0-.484.06-.703.178a2.34 2.34 0 0 0-.607.482V76h-.975v-5.08h.585c.137 0 .222.065.255.195l.075.51zm11.63 3.63V76h-3.88v-.745h1.52V70.55c0-.15.005-.305.015-.465l-1.22 1.035a.346.346 0 0 1-.273.075.267.267 0 0 1-.11-.042.395.395 0 0 1-.077-.068l-.305-.425 2.15-1.855h.795v6.45h1.385z" fill="#5B5B5B"/></g></svg>