<svg width="84" height="84" viewBox="-3820 -1217 84 84" xmlns="http://www.w3.org/2000/svg"><g fill="none" fill-rule="evenodd"><path d="M-3765.75-1168h-2.765l-.98-.945a22.65 22.65 0 0 0 5.495-14.805c0-12.565-10.185-22.75-22.75-22.75s-22.75 10.185-22.75 22.75 10.185 22.75 22.75 22.75a22.65 22.65 0 0 0 14.805-5.495l.945.98v2.765l17.5 17.465 5.215-5.215-17.465-17.5zm-21 0a15.729 15.729 0 0 1-15.75-15.75c0-8.715 7.035-15.75 15.75-15.75s15.75 7.035 15.75 15.75-7.035 15.75-15.75 15.75z" fill="#000"/><path d="M-3820-1217h84v84h-84z"/></g></svg>