<svg width="54" height="56" xmlns="http://www.w3.org/2000/svg"><path d="M7.241 46.458a1.03 1.03 0 0 1-1.375-.385l-5.08-8.81a1.036 1.036 0 0 1 .355-1.384l4.515-2.767c.47-.288.852-.964.851-1.522l-.004-7.183c0-.553-.39-1.239-.852-1.522l-4.515-2.767a1.03 1.03 0 0 1-.354-1.384l5.085-8.807a1.035 1.035 0 0 1 1.375-.385l4.653 2.527c.485.263 1.262.256 1.745-.023l6.223-3.588c.479-.276.878-.956.893-1.498l.138-5.294a1.03 1.03 0 0 1 1.021-.999l10.17-.006c.55 0 1.007.456 1.02.998l.14 5.295c.014.552.41 1.22.892 1.5l6.222 3.592c.479.276 1.268.283 1.745.024l4.655-2.528a1.03 1.03 0 0 1 1.375.385l5.08 8.81c.274.476.107 1.1-.355 1.384l-4.515 2.767c-.47.288-.852.964-.851 1.522l.004 7.183c0 .553.39 1.239.852 1.522l4.515 2.767c.47.288.628.91.354 1.384l-5.085 8.807a1.035 1.035 0 0 1-1.375.385l-4.653-2.527c-.485-.263-1.262-.256-1.745.023l-6.223 3.588c-.479.276-.878.956-.893 1.498l-.138 5.294a1.03 1.03 0 0 1-1.021.999l-10.17.006c-.55 0-1.007-.456-1.02-.998l-.14-5.295c-.014-.552-.41-1.22-.892-1.5l-6.222-3.592c-.479-.276-1.268-.283-1.745-.024l-4.655 2.528zM21 38.392C26.74 41.706 34.079 39.74 37.392 34 40.706 28.26 38.74 20.921 33 17.608 27.26 14.294 19.921 16.26 16.608 22 13.294 27.74 15.26 35.079 21 38.392z" fill="#FFF"/></svg>