<svg width="111" height="87" xmlns="http://www.w3.org/2000/svg" xmlns:xlink="http://www.w3.org/1999/xlink"><defs><path d="M2.112.233A1.876 1.876 0 0 0 .235 2.097v54.541c0 1.025.845 1.864 1.877 1.864H65.38a1.876 1.876 0 0 0 1.878-1.864V8.061a1.876 1.876 0 0 0-1.878-1.864H24.068c-1.033 0-2.475-.592-3.205-1.317l-3.355-3.33C16.778.827 15.335.234 14.303.234H2.113z" id="a"/><path d="M2.085.233C1.065.233.232 1.07.232 2.094v54.48c0 1.023.834 1.861 1.853 1.861h62.467c1.02 0 1.854-.838 1.854-1.861V8.052a1.863 1.863 0 0 0-1.854-1.862H23.763c-1.02 0-2.443-.592-3.164-1.316L17.286 1.55C16.565.825 15.141.233 14.122.233H2.085z" id="c"/><path d="M2.139.236A1.9 1.9 0 0 0 .238 2.124v55.25a1.9 1.9 0 0 0 1.9 1.888h64.069a1.9 1.9 0 0 0 1.901-1.888V8.166a1.9 1.9 0 0 0-1.901-1.888H24.372c-1.045 0-2.505-.6-3.245-1.335l-3.398-3.372C16.99.836 15.53.236 14.484.236H2.139z" id="e"/></defs><g fill="none" fill-rule="evenodd"><g transform="translate(3 3)"><mask id="b" fill="#fff"><use xlink:href="#a"/></mask><path stroke="#FF3F8C" stroke-width="2.5" d="M2.112-1.017a3.126 3.126 0 0 0-3.127 3.114v54.541a3.126 3.126 0 0 0 3.127 3.114H65.38a3.126 3.126 0 0 0 3.128-3.114V8.061a3.126 3.126 0 0 0-3.128-3.114H24.068c-.703 0-1.829-.462-2.325-.954L18.388.663c-.964-.957-2.723-1.68-4.085-1.68H2.113h0z"/><path fill="#FFA1CA" mask="url(#b)" d="M0 14.872h68.376V60.27H0z"/><path fill="#FF729D" mask="url(#b)" d="M-.786-1.565H67.59v17.22H-.786z"/><path d="M-.551 15.145h69.715" stroke="#FF58A1" stroke-width="2.5" mask="url(#b)"/></g><g transform="translate(19.22 14.958)"><mask id="d" fill="#fff"><use xlink:href="#c"/></mask><path stroke="#FF9805" stroke-width="2.5" d="M2.085-1.017a3.113 3.113 0 0 0-3.103 3.111v54.48a3.113 3.113 0 0 0 3.103 3.111h62.467a3.113 3.113 0 0 0 3.104-3.111V8.052a3.113 3.113 0 0 0-3.104-3.112H23.763c-.687 0-1.792-.46-2.279-.948L18.172.667c-.956-.96-2.698-1.684-4.05-1.684H2.085h0z"/><path fill="#FFE957" mask="url(#d)" d="M0 14.855h67.511v45.346H0z"/><path fill="#FFC42B" mask="url(#d)" d="M-.776-1.564h67.511v17.2H-.776z"/><path d="M-.544 15.127h68.832" stroke="#FF9805" stroke-width="2.5" mask="url(#d)"/></g><g transform="translate(39.707 25.208)"><mask id="f" fill="#fff"><use xlink:href="#e"/></mask><path stroke="#00CADC" stroke-width="2.5" d="M2.139-1.014a3.15 3.15 0 0 0-3.151 3.138v55.25a3.15 3.15 0 0 0 3.15 3.138h64.069a3.15 3.15 0 0 0 3.151-3.138V8.166a3.15 3.15 0 0 0-3.151-3.138H24.372c-.716 0-1.86-.47-2.364-.972L18.61.684c-.974-.967-2.75-1.698-4.126-1.698H2.139h0z"/><path fill="#94F6FF" mask="url(#f)" d="M0 15.065h69.242v45.987H0z"/><path fill="#2EEEFF" mask="url(#f)" d="M-.796-1.586h69.242v17.444H-.796z"/><path d="M-.558 15.341h70.597" stroke="#00CADC" stroke-width="2.5" mask="url(#f)"/></g></g></svg>