<svg xmlns="http://www.w3.org/2000/svg" data-name="Layer 1" viewBox="0 0 100 100">&quot;&gt;&quot;&gt;&quot;&gt;<path d="M65.75 58.28L50 42.53 34.25 58.28l-5.66-5.66L50 31.21l21.41 21.41-5.66 5.66z"/>&quot;&gt;<path d="M45.66 36.11h8v35.02h-8z"/>&quot;&gt;<path d="M81.5 87.19h-54a26.5 26.5 0 0 1-10.07-51 34.38 34.38 0 0 1 66.94 11 32.56 32.56 0 0 1-.57 5.15 17.5 17.5 0 0 1-2.3 34.85zM50 20.81a26.39 26.39 0 0 0-25.45 19.47 4 4 0 0 1-2.65 2.77 18.58 18.58 0 0 0-7.47 4.55A18.5 18.5 0 0 0 27.5 79.19h54a9.5 9.5 0 0 0 0-19h-2.58A4 4 0 0 1 75 55.24l.1-.24a46.05 46.05 0 0 0 1.28-7.78A26.38 26.38 0 0 0 50 20.81z"/></svg>