<svg width="70" height="44" xmlns="http://www.w3.org/2000/svg"><g fill-rule="evenodd"><path d="M35 36.756c-8.63 0-15.65-6.62-15.65-14.756S26.37 7.244 35 7.244 50.65 13.863 50.65 22 43.63 36.756 35 36.756zm0-27.512c-7.46 0-13.53 5.723-13.53 12.756S27.54 34.756 35 34.756c7.46 0 13.53-5.722 13.53-12.756S42.46 9.244 35 9.244z"/><path d="M35 43.432C13.746 43.432.563 22.779.432 22.571l.02-1.172C1.028 20.548 14.805.568 35 .568s33.972 19.98 34.548 20.831l.02 1.172c-.13.208-13.314 20.861-34.568 20.861zM2.308 22.021C4.608 25.34 16.704 41.432 35 41.432c18.32 0 30.397-16.091 32.692-19.41C65.256 18.73 52.407 2.568 35 2.568c-17.406 0-30.255 16.16-32.692 19.453z"/></g></svg>