<svg width="225" height="194" xmlns="http://www.w3.org/2000/svg"><path d="M111.914-.022c-4.28.188-8.164 2.499-10.296 6.125L1.674 175.002a11.954 11.954 0 0 0 .03 12.208c2.245 3.773 6.38 6.091 10.852 6.083h199.888c4.471.008 8.607-2.31 10.851-6.083a11.954 11.954 0 0 0 .03-12.208L123.299 6.102c-2.325-3.954-6.715-6.315-11.384-6.124zm.586 45.644c8.876 0 16.071 7.212 16.071 16.11l-2.678 53.698c0 7.414-5.996 13.425-13.393 13.425s-13.393-6.01-13.393-13.425l-2.677-53.7c0-8.897 7.195-16.11 16.071-16.11zm0 91.287c8.876 0 16.071 7.213 16.071 16.11 0 8.897-7.195 16.11-16.071 16.11-8.876 0-16.071-7.213-16.071-16.11 0-8.897 7.195-16.11 16.071-16.11z" fill="#F4BC2C"/></svg>