<svg width="80" height="81" xmlns="http://www.w3.org/2000/svg"><path d="M6.364.33C2.87.33 0 3.206 0 6.708v25.51c0 3.503 2.87 6.379 6.364 6.379h25.454c3.494 0 6.364-2.876 6.364-6.378V6.708c0-3.502-2.87-6.378-6.364-6.378H6.364zm41.818 0c-3.494 0-6.364 2.876-6.364 6.378v25.51c0 3.503 2.87 6.379 6.364 6.379h25.454c3.494 0 6.364-2.876 6.364-6.378V6.708C80 3.206 77.13.33 73.636.33H48.182zM6.364 3.974h25.454c1.543 0 2.727 1.188 2.727 2.734v25.51c0 1.547-1.184 2.734-2.727 2.734H6.364c-1.543 0-2.728-1.187-2.728-2.733V6.708c0-1.546 1.185-2.734 2.728-2.734zm41.818 0h25.454c1.543 0 2.728 1.188 2.728 2.734v25.51c0 1.547-1.185 2.734-2.728 2.734H48.182c-1.543 0-2.727-1.187-2.727-2.733V6.708c0-1.546 1.184-2.734 2.727-2.734zM6.364 42.241C2.87 42.241 0 45.117 0 48.62v25.51c0 3.502 2.87 6.378 6.364 6.378h25.454c3.494 0 6.364-2.876 6.364-6.378V48.619c0-3.502-2.87-6.378-6.364-6.378H6.364zm41.818 0c-3.494 0-6.364 2.876-6.364 6.378V74.13c0 3.502 2.87 6.378 6.364 6.378h25.454c3.494 0 6.364-2.876 6.364-6.378V48.619c0-3.502-2.87-6.378-6.364-6.378H48.182zM6.364 45.886h25.454c1.543 0 2.727 1.187 2.727 2.733V74.13c0 1.546-1.184 2.733-2.727 2.733H6.364c-1.543 0-2.728-1.187-2.728-2.733V48.619c0-1.546 1.185-2.733 2.728-2.733zm41.818 0h25.454c1.543 0 2.728 1.187 2.728 2.733V74.13c0 1.546-1.185 2.733-2.728 2.733H48.182c-1.543 0-2.727-1.187-2.727-2.733V48.619c0-1.546 1.184-2.733 2.727-2.733z" fill-rule="evenodd"/></svg>