<?xml version="1.0" encoding="UTF-8"?>
<svg width="22px" height="22px" viewBox="0 0 22 22" version="1.1" xmlns="http://www.w3.org/2000/svg" xmlns:xlink="http://www.w3.org/1999/xlink">
    <!-- Generator: sketchtool 41.2 (35397) - http://www.bohemiancoding.com/sketch -->
    <title>E20A8AF8-1259-42CA-A33A-A3F36642BF3B</title>
    <desc>Created with sketchtool.</desc>
    <defs></defs>
    <g id="Page-2" stroke="none" stroke-width="1" fill="none" fill-rule="evenodd">
        <g id="001-Popup-Notification-Bar" transform="translate(-1002.000000, -131.000000)" fill="#AFAFAF">
            <g id="Group" transform="translate(329.000000, 120.000000)">
                <path d="M684,33 C677.924868,33 673,28.0751322 673,22 C673,15.9248678 677.924868,11 684,11 C690.075132,11 695,15.9248678 695,22 C695,28.0751322 690.075132,33 684,33 Z M684,31 C688.970563,31 693,26.9705627 693,22 C693,17.0294373 688.970563,13 684,13 C679.029437,13 675,17.0294373 675,22 C675,26.9705627 679.029437,31 684,31 Z M683.023256,24.3116279 C683.023256,23.6930202 683.099999,23.2000018 683.253488,22.8325581 C683.406978,22.4651144 683.710463,22.0616301 684.163953,21.622093 C684.617444,21.1825559 684.904651,20.8697684 685.025581,20.6837209 C685.211629,20.3999986 685.304651,20.0930249 685.304651,19.7627907 C685.304651,19.3255792 685.196513,18.9918616 684.980233,18.7616279 C684.763952,18.5313942 684.446514,18.4162791 684.027907,18.4162791 C683.627905,18.4162791 683.305815,18.5290686 683.061628,18.7546512 C682.817441,18.9802337 682.695349,19.2860446 682.695349,19.672093 L681,19.672093 C681.009302,18.8488331 681.289532,18.1976768 681.840698,17.7186047 C682.391863,17.2395325 683.120926,17 684.027907,17 C684.962795,17 685.691858,17.2372069 686.215116,17.7116279 C686.738375,18.1860489 687,18.848833 687,19.7 C687,20.4581433 686.646515,21.2046475 685.939535,21.9395349 L685.081395,22.7837209 C684.774417,23.1325599 684.616279,23.6418571 684.606977,24.3116279 L683.023256,24.3116279 Z M682.904651,26.4813953 C682.904651,26.2069754 682.990697,25.9848846 683.162791,25.8151163 C683.334885,25.645348 683.56744,25.5604651 683.860465,25.5604651 C684.158141,25.5604651 684.393022,25.6476735 684.565116,25.822093 C684.73721,25.9965125 684.823256,26.2162777 684.823256,26.4813953 C684.823256,26.7372106 684.739536,26.9511619 684.572093,27.1232558 C684.40465,27.2953497 684.167443,27.3813953 683.860465,27.3813953 C683.553487,27.3813953 683.317443,27.2953497 683.152326,27.1232558 C682.987208,26.9511619 682.904651,26.7372106 682.904651,26.4813953 Z" id="help"></path>
            </g>
        </g>
    </g>
</svg>