<svg width="203" height="54" viewBox="0 0 203 54" xmlns="http://www.w3.org/2000/svg"><title>02F56D50-E3F1-4EA4-BD66-344F50DE4D59</title><g fill="none" fill-rule="evenodd"><g transform="translate(4 4)"><circle fill="#3E9BE9" cx="23" cy="23" r="23"/><circle fill="#FFF" cx="23.5" cy="22.5" r="15.5"/><circle fill="#778592" cx="23" cy="23" r="4"/><path d="M34.927 32.099c4.498-5.88 4.058-14.327-1.32-19.706-5.379-5.378-13.825-5.818-19.706-1.32l21.026 21.026zM11.073 13.9c-4.498 5.88-4.058 14.327 1.32 19.706 5.379 5.378 13.825 5.818 19.706 1.32L11.073 13.901zm25.362 22.534c-7.42 7.42-19.45 7.42-26.87 0-7.42-7.42-7.42-19.45 0-26.87 7.42-7.42 19.45-7.42 26.87 0 7.42 7.42 7.42 19.45 0 26.87z" fill="#9D251F" fill-rule="nonzero"/></g><path d="M62.598 29.05V36h-1.442V18.937h5.813c1.773 0 3.174.454 4.2 1.36 1.028.906 1.542 2.152 1.542 3.738 0 1.602-.494 2.838-1.482 3.71-.989.87-2.42 1.306-4.295 1.306h-4.336zm0-1.218h4.37c1.4 0 2.466-.332 3.2-.996.734-.664 1.102-1.59 1.102-2.777 0-1.18-.366-2.12-1.096-2.819-.73-.699-1.768-1.056-3.112-1.072h-4.464v7.664zm12.386 1.64c0-1.218.237-2.316.71-3.292.472-.977 1.14-1.737 2.003-2.28.863-.543 1.842-.814 2.936-.814 1.687 0 3.054.592 4.101 1.775 1.047 1.184 1.57 2.752 1.57 4.705v.293c0 1.227-.236 2.33-.708 3.31-.473.981-1.139 1.737-1.998 2.269-.86.53-1.84.796-2.942.796-1.68 0-3.045-.591-4.096-1.775-1.05-1.184-1.576-2.752-1.576-4.705v-.281zm1.407.387c0 1.516.392 2.76 1.177 3.733.785.972 1.815 1.459 3.088 1.459 1.266 0 2.291-.487 3.076-1.46.786-.972 1.178-2.255 1.178-3.849v-.27c0-.968-.18-1.855-.539-2.66-.36-.804-.863-1.427-1.512-1.869-.648-.441-1.39-.662-2.226-.662-1.25 0-2.27.49-3.059 1.471-.789.98-1.183 2.264-1.183 3.85v.257zm23.308-.07c0 1.977-.437 3.545-1.312 4.705-.875 1.16-2.047 1.74-3.516 1.74-1.734 0-3.063-.609-3.984-1.828v6.469h-1.395V23.32h1.3l.071 1.793c.914-1.351 2.238-2.027 3.973-2.027 1.515 0 2.705.574 3.568 1.723.863 1.148 1.295 2.742 1.295 4.78v.2zm-1.406-.246c0-1.617-.332-2.895-.996-3.832-.664-.938-1.59-1.406-2.778-1.406-.859 0-1.597.207-2.214.62-.618.415-1.09 1.016-1.418 1.805v6.082c.336.727.816 1.282 1.441 1.665.625.382 1.363.574 2.215.574 1.18 0 2.1-.47 2.76-1.412.66-.942.99-2.307.99-4.096zm9.726 6.691c-1.078 0-2.052-.265-2.924-.797-.87-.53-1.548-1.271-2.033-2.22-.484-.95-.726-2.014-.726-3.194v-.503c0-1.22.236-2.317.709-3.293.472-.977 1.13-1.745 1.974-2.303a4.871 4.871 0 0 1 2.743-.838c1.539 0 2.76.525 3.662 1.576.902 1.05 1.353 2.486 1.353 4.307v.785h-9.047v.27c0 1.437.412 2.634 1.237 3.591.824.957 1.86 1.436 3.11 1.436.75 0 1.413-.137 1.987-.41.574-.274 1.096-.711 1.565-1.313l.879.668c-1.032 1.492-2.528 2.238-4.489 2.238zm-.257-11.953c-1.055 0-1.944.387-2.667 1.16-.722.774-1.162 1.813-1.318 3.118h7.606v-.153c-.04-1.219-.387-2.21-1.043-2.976-.657-.766-1.516-1.149-2.578-1.149zm13.91.235a5.238 5.238 0 0 0-.95-.082c-.875 0-1.615.244-2.22.732-.606.488-1.037 1.197-1.295 2.127V36h-1.395V23.32h1.371l.024 2.016c.742-1.5 1.933-2.25 3.574-2.25.39 0 .7.05.926.152l-.035 1.278zM124.519 36V18.937h5.04c1.827 0 3.214.377 4.16 1.131.945.754 1.417 1.866 1.417 3.334 0 .883-.24 1.65-.72 2.303-.48.652-1.139 1.12-1.975 1.4.992.22 1.791.707 2.397 1.465.605.758.908 1.633.908 2.625 0 1.508-.487 2.686-1.46 3.534-.972.847-2.325 1.271-4.06 1.271h-5.707zm1.442-8.203v6.984h4.324c1.234 0 2.213-.314 2.935-.943.723-.629 1.084-1.502 1.084-2.62 0-1.054-.345-1.888-1.037-2.501-.691-.613-1.646-.92-2.865-.92h-4.441zm0-1.207h3.937c1.203-.024 2.135-.307 2.795-.85.66-.543.99-1.334.99-2.373 0-1.094-.342-1.9-1.025-2.42-.684-.52-1.717-.779-3.1-.779h-3.597v6.422zM140.773 36h-1.406V18h1.406v18zm3.34-6.527c0-1.22.236-2.317.709-3.293.472-.977 1.14-1.737 2.004-2.28.863-.543 1.841-.814 2.935-.814 1.688 0 3.055.592 4.102 1.775 1.047 1.184 1.57 2.752 1.57 4.705v.293c0 1.227-.236 2.33-.709 3.31-.473.981-1.139 1.737-1.998 2.269-.86.53-1.84.796-2.941.796-1.68 0-3.045-.591-4.096-1.775-1.05-1.184-1.576-2.752-1.576-4.705v-.281zm1.406.386c0 1.516.393 2.76 1.178 3.733.785.972 1.814 1.459 3.088 1.459 1.265 0 2.29-.487 3.076-1.46.785-.972 1.178-2.255 1.178-3.849v-.27c0-.968-.18-1.855-.54-2.66-.359-.804-.863-1.427-1.511-1.869-.649-.441-1.39-.662-2.227-.662-1.25 0-2.27.49-3.058 1.471-.79.98-1.184 2.264-1.184 3.85v.257zm17.8 5.192c.977 0 1.796-.276 2.456-.826.66-.551 1.017-1.264 1.072-2.14h1.348a3.97 3.97 0 0 1-.727 2.116 4.552 4.552 0 0 1-1.775 1.494 5.35 5.35 0 0 1-2.373.54c-1.664 0-2.983-.579-3.955-1.735-.973-1.156-1.46-2.71-1.46-4.664v-.422c0-1.25.22-2.355.657-3.316.437-.961 1.064-1.703 1.88-2.227.817-.523 1.772-.785 2.866-.785 1.39 0 2.537.414 3.44 1.242.902.828 1.384 1.918 1.447 3.27h-1.348c-.062-.993-.42-1.793-1.072-2.403-.653-.61-1.475-.914-2.467-.914-1.266 0-2.248.457-2.947 1.371-.7.914-1.05 2.196-1.05 3.844v.41c0 1.617.35 2.88 1.05 3.785.699.907 1.685 1.36 2.959 1.36zm10.993-5.438l-1.606 1.547V36H171.3V18h1.406v11.52l1.325-1.43 4.851-4.77h1.77l-5.38 5.344L181.12 36h-1.675l-5.133-6.387zm13.722 6.621c-1.078 0-2.052-.265-2.923-.797-.871-.53-1.55-1.271-2.034-2.22-.484-.95-.726-2.014-.726-3.194v-.503c0-1.22.236-2.317.709-3.293.472-.977 1.13-1.745 1.974-2.303a4.871 4.871 0 0 1 2.743-.838c1.539 0 2.76.525 3.662 1.576.902 1.05 1.353 2.486 1.353 4.307v.785h-9.047v.27c0 1.437.412 2.634 1.237 3.591.824.957 1.861 1.436 3.111 1.436.75 0 1.412-.137 1.986-.41.575-.274 1.096-.711 1.565-1.313l.879.668c-1.032 1.492-2.528 2.238-4.489 2.238zm-.257-11.953c-1.055 0-1.944.387-2.666 1.16-.723.774-1.163 1.813-1.319 3.118h7.606v-.153c-.04-1.219-.387-2.21-1.043-2.976-.657-.766-1.516-1.149-2.578-1.149zm13.91.235a5.238 5.238 0 0 0-.95-.082c-.875 0-1.615.244-2.22.732-.606.488-1.037 1.197-1.295 2.127V36h-1.395V23.32h1.371l.024 2.016c.742-1.5 1.933-2.25 3.574-2.25.39 0 .7.05.926.152l-.035 1.278z" fill="#3381A9"/></g></svg>