<?xml version="1.0" encoding="UTF-8"?>
<svg width="24px" height="24px" viewBox="0 0 24 24" version="1.1" xmlns="http://www.w3.org/2000/svg" xmlns:xlink="http://www.w3.org/1999/xlink">
    <!-- Generator: sketchtool 41.2 (35397) - http://www.bohemiancoding.com/sketch -->
    <title>9C8CDA00-0D9B-48D9-BE5D-71264483C1F7</title>
    <desc>Created with sketchtool.</desc>
    <defs>
        <linearGradient x1="50%" y1="0%" x2="50%" y2="100%" id="linearGradient-1">
            <stop stop-color="#FBD249" offset="0%"></stop>
            <stop stop-color="#F6A623" offset="100%"></stop>
        </linearGradient>
    </defs>
    <g id="Page-2" stroke="none" stroke-width="1" fill="none" fill-rule="evenodd">
        <g id="001b-Popup-Notification-Bar-Tooltips" transform="translate(-1002.000000, -130.000000)">
            <g id="Group-2" transform="translate(329.000000, 120.000000)">
                <g id="question-active" transform="translate(674.000000, 11.000000)">
                    <path d="M11,22 C4.92486775,22 0,17.0751322 0,11 C0,4.92486775 4.92486775,0 11,0 C17.0751322,0 22,4.92486775 22,11 C22,17.0751322 17.0751322,22 11,22 Z" id="Combined-Shape" stroke="#E8A125" fill="url(#linearGradient-1)"></path>
                    <path d="M9.90465116,15.4813953 C9.90465116,15.2069754 9.99069681,14.9848846 10.1627907,14.8151163 C10.3348846,14.645348 10.5674404,14.5604651 10.8604651,14.5604651 C11.158141,14.5604651 11.3930224,14.6476735 11.5651163,14.822093 C11.7372102,14.9965125 11.8232558,15.2162777 11.8232558,15.4813953 C11.8232558,15.7372106 11.7395357,15.9511619 11.572093,16.1232558 C11.4046503,16.2953497 11.1674434,16.3813953 10.8604651,16.3813953 C10.5534868,16.3813953 10.3174427,16.2953497 10.1523256,16.1232558 C9.98720848,15.9511619 9.90465116,15.7372106 9.90465116,15.4813953 Z M10.0232558,13.3116279 C10.0232558,12.6930202 10.0999992,12.2000018 10.2534884,11.8325581 C10.4069775,11.4651144 10.7104628,11.0616301 11.1639535,10.622093 C11.6174441,10.1825559 11.9046506,9.86976837 12.0255814,9.68372093 C12.2116288,9.39999858 12.3046512,9.09302491 12.3046512,8.7627907 C12.3046512,8.32557921 12.1965127,7.99186162 11.9802326,7.76162791 C11.7639524,7.5313942 11.4465137,7.41627907 11.027907,7.41627907 C10.627905,7.41627907 10.3058152,7.52906864 10.0616279,7.75465116 C9.81744064,7.98023369 9.69534884,8.28604458 9.69534884,8.67209302 L8,8.67209302 C8.00930237,7.84883309 8.28953213,7.19767681 8.84069767,6.71860465 C9.39186322,6.23953249 10.1209257,6 11.027907,6 C11.9627954,6 12.6918578,6.23720693 13.2151163,6.71162791 C13.7383747,7.18604888 14,7.84883295 14,8.7 C14,9.45814333 13.6465152,10.2046475 12.9395349,10.9395349 L12.0813953,11.7837209 C11.7744171,12.1325599 11.6162791,12.6418571 11.6069767,13.3116279 L10.0232558,13.3116279 Z" id="Combined-Shape" fill="#FFFFFF"></path>
                </g>
            </g>
        </g>
    </g>
</svg>