<svg width="22" height="22" viewBox="0 0 22 22" xmlns="http://www.w3.org/2000/svg" xmlns:xlink="http://www.w3.org/1999/xlink"><title>9A55F060-42D1-43F3-84D6-612F93ED931C</title><defs><path d="M95 17.014l-4.764 3.315c-1.814 1.263-2.765.565-2.126-1.545l1.68-5.556-4.625-3.507c-1.761-1.336-1.391-2.456.813-2.5l5.802-.119 1.906-5.483c.726-2.088 1.905-2.082 2.628 0l1.906 5.483 5.802.118c2.21.046 2.57 1.169.813 2.5l-4.625 3.508 1.68 5.556c.64 2.116-.317 2.804-2.126 1.545L95 17.014z" id="b"/><filter x="-50%" y="-50%" width="200%" height="200%" filterUnits="objectBoundingBox" id="a"><feOffset dy="1" in="SourceAlpha" result="shadowOffsetOuter1"/><feColorMatrix values="0 0 0 0 1 0 0 0 0 1 0 0 0 0 1 0 0 0 0.49572577 0" in="shadowOffsetOuter1"/></filter><filter x="-50%" y="-50%" width="200%" height="200%" filterUnits="objectBoundingBox" id="c"><feGaussianBlur stdDeviation="1" in="SourceAlpha" result="shadowBlurInner1"/><feOffset dy="1" in="shadowBlurInner1" result="shadowOffsetInner1"/><feComposite in="shadowOffsetInner1" in2="SourceAlpha" operator="arithmetic" k2="-1" k3="1" result="shadowInnerInner1"/><feColorMatrix values="0 0 0 0 0 0 0 0 0 0 0 0 0 0 0 0 0 0 0.5 0" in="shadowInnerInner1"/></filter></defs><g transform="translate(-84)" fill="none" fill-rule="evenodd"><use fill="#000" filter="url(#a)" xlink:href="#b"/><use fill="#AFAFAF" xlink:href="#b"/><use fill="#000" filter="url(#c)" xlink:href="#b"/></g></svg>