<svg xmlns="http://www.w3.org/2000/svg" width="151" height="26" viewBox="0 0 151 26">
    <g fill="none" fill-rule="evenodd">
        <g>
            <path fill="#2D85C6" fill-rule="nonzero" d="M13 26C5.82 26 0 20.18 0 13S5.82 0 13 0s13 5.82 13 13-5.82 13-13 13z"/>
            <path fill="#FFF" d="M13 23c5.523 0 10-4.477 10-10S18.523 3 13 3 3 7.477 3 13s4.477 10 10 10z"/>
            <circle cx="13" cy="13" r="2.63" fill="#778592"/>
            <path fill="#C62D48" fill-rule="nonzero" d="M19.278 17.789A7.896 7.896 0 0 0 8.21 6.722L19.278 17.79zM6.722 8.21A7.896 7.896 0 0 0 17.79 19.278L6.722 8.21zm13.35 11.86c-3.906 3.905-10.238 3.905-14.143 0-3.905-3.905-3.905-10.237 0-14.142 3.905-3.905 10.237-3.905 14.142 0 3.905 3.905 3.905 10.237 0 14.142z"/>
        </g>
        <path fill="#000" d="M46.104 7.792c.779.65 1.168 1.653 1.168 3.008s-.397 2.347-1.192 2.976c-.795.63-2.013.944-3.656.944H40.44V18h-1.888V6.816h3.84c1.696 0 2.933.325 3.712.976zm-1.336 4.616c.379-.4.568-.987.568-1.76s-.24-1.32-.72-1.64c-.48-.32-1.232-.48-2.256-.48h-1.92v4.48h2.192c1.045 0 1.757-.2 2.136-.6zm8.392 4.12c.779 0 1.421-.259 1.928-.776.507-.517.76-1.187.76-2.008s-.253-1.49-.76-2.008c-.507-.517-1.15-.776-1.928-.776-.779 0-1.421.259-1.928.776-.507.517-.76 1.187-.76 2.008s.253 1.49.76 2.008c.507.517 1.15.776 1.928.776zm0 1.6c-1.28 0-2.347-.424-3.2-1.272-.853-.848-1.28-1.885-1.28-3.112s.427-2.264 1.28-3.112c.853-.848 1.92-1.272 3.2-1.272 1.28 0 2.347.424 3.2 1.272.853.848 1.28 1.885 1.28 3.112s-.427 2.264-1.28 3.112c-.853.848-1.92 1.272-3.2 1.272zm14-7.584c.81.79 1.216 1.84 1.216 3.152s-.403 2.379-1.208 3.2c-.805.821-1.744 1.232-2.816 1.232-1.072 0-2.035-.47-2.888-1.408v4.384h-1.792V9.488h1.792v1.488c.704-1.077 1.627-1.616 2.768-1.616 1.141 0 2.117.395 2.928 1.184zm-4.992 5.208c.49.517 1.088.776 1.792.776s1.317-.256 1.84-.768c.523-.512.784-1.176.784-1.992 0-.816-.256-1.493-.768-2.032-.512-.539-1.125-.808-1.84-.808-.715 0-1.317.27-1.808.808-.49.539-.736 1.213-.736 2.024 0 .81.245 1.475.736 1.992zm16.176-1.224h-6.672c.043.619.325 1.117.848 1.496.523.379 1.12.568 1.792.568 1.067 0 1.877-.336 2.432-1.008l1.024 1.12c-.917.95-2.112 1.424-3.584 1.424-1.195 0-2.21-.397-3.048-1.192-.837-.795-1.256-1.861-1.256-3.2 0-1.339.427-2.403 1.28-3.192a4.296 4.296 0 0 1 3.016-1.184c1.157 0 2.141.35 2.952 1.048.81.699 1.216 1.661 1.216 2.888v1.232zm-6.672-1.408h4.88c0-.715-.224-1.264-.672-1.648-.448-.384-1-.576-1.656-.576-.656 0-1.245.2-1.768.6-.523.4-.784.941-.784 1.624zm13.104-1.952c-.885 0-1.552.288-2 .864-.448.576-.672 1.35-.672 2.32V18h-1.792V9.488h1.792V11.2c.288-.533.68-.97 1.176-1.312.496-.341 1.021-.517 1.576-.528l.016 1.808h-.096zM96.2 18h-4.896V6.816h4.352c.757 0 1.41.09 1.96.272.55.181.957.427 1.224.736.512.576.768 1.227.768 1.952 0 .875-.277 1.525-.832 1.952-.203.15-.341.243-.416.28-.075.037-.208.099-.4.184.693.15 1.245.461 1.656.936.41.475.616 1.064.616 1.768 0 .779-.267 1.467-.8 2.064-.63.693-1.707 1.04-3.232 1.04zm-3.008-6.544h2.4c1.365 0 2.048-.464 2.048-1.392 0-.533-.165-.917-.496-1.152-.33-.235-.843-.352-1.536-.352h-2.416v2.896zm0 4.8h2.96c.693 0 1.224-.11 1.592-.328.368-.219.552-.632.552-1.24 0-.992-.795-1.488-2.384-1.488h-2.72v3.056zM104.136 18h-1.792V6.128h1.792V18zm6.512-1.472c.779 0 1.421-.259 1.928-.776.507-.517.76-1.187.76-2.008s-.253-1.49-.76-2.008c-.507-.517-1.15-.776-1.928-.776-.779 0-1.421.259-1.928.776-.507.517-.76 1.187-.76 2.008s.253 1.49.76 2.008c.507.517 1.15.776 1.928.776zm0 1.6c-1.28 0-2.347-.424-3.2-1.272-.853-.848-1.28-1.885-1.28-3.112s.427-2.264 1.28-3.112c.853-.848 1.92-1.272 3.2-1.272 1.28 0 2.347.424 3.2 1.272.853.848 1.28 1.885 1.28 3.112s-.427 2.264-1.28 3.112c-.853.848-1.92 1.272-3.2 1.272zm10.288 0c-1.184 0-2.203-.403-3.056-1.208-.853-.805-1.28-1.859-1.28-3.16 0-1.301.445-2.36 1.336-3.176.89-.816 1.976-1.224 3.256-1.224 1.28 0 2.363.443 3.248 1.328l-1.056 1.296c-.736-.64-1.477-.96-2.224-.96-.747 0-1.395.248-1.944.744-.55.496-.824 1.136-.824 1.92s.272 1.448.816 1.992c.544.544 1.213.816 2.008.816.795 0 1.544-.363 2.248-1.088l1.056 1.152c-1.035 1.045-2.23 1.568-3.584 1.568zm7.232-.128h-1.792V6.128h1.792v6.976l3.456-3.616h2.304l-3.232 3.376L134.168 18h-2.176l-2.528-3.728-1.296 1.312V18zm15.424-3.472h-6.672c.043.619.325 1.117.848 1.496.523.379 1.12.568 1.792.568 1.067 0 1.877-.336 2.432-1.008l1.024 1.12c-.917.95-2.112 1.424-3.584 1.424-1.195 0-2.21-.397-3.048-1.192-.837-.795-1.256-1.861-1.256-3.2 0-1.339.427-2.403 1.28-3.192a4.296 4.296 0 0 1 3.016-1.184c1.157 0 2.141.35 2.952 1.048.81.699 1.216 1.661 1.216 2.888v1.232zm-6.672-1.408h4.88c0-.715-.224-1.264-.672-1.648-.448-.384-1-.576-1.656-.576-.656 0-1.245.2-1.768.6-.523.4-.784.941-.784 1.624zm13.104-1.952c-.885 0-1.552.288-2 .864-.448.576-.672 1.35-.672 2.32V18h-1.792V9.488h1.792V11.2c.288-.533.68-.97 1.176-1.312.496-.341 1.021-.517 1.576-.528l.016 1.808h-.096z"/>
    </g>
</svg>
